<svg xmlns="http://www.w3.org/2000/svg" xmlns:xlink="http://www.w3.org/1999/xlink" version="1.1" id="Layer_1" x="0px" y="0px" viewBox="0 0 3000 2000" style="enable-background:new 0 0 3000 2000;" xml:space="preserve">
<g>
	<rect style="fill:#FFFFFF;" width="3000" height="2000"/>
	<path style="fill:#C2E7F2;" d="M649.263,1875.052c0,0-270.905-7.184-386.666-190.247   c-209.714-331.636-115.205-622.464,258.154-600.816C938.42,1108.207,886.909,80.171,1610.115,575.13   c157.04,107.478,506.55-118.236,646.183,352.027c33.204,111.826,282.564,119.613,443.722,209.291   c252.794,140.668,181.404,740.948-57.413,743.311C2403.791,1882.122,649.263,1875.052,649.263,1875.052z"/>
	<g id="P297LW_5_">
		<g>
			<path style="fill:#739AF0;" d="M399.573,1158.535c12.082,2.791,66.668,3.454,105-5.16c7.991-1.789,15.291-3.983,21.332-6.652     c7.22-3.183,12.665-7.03,15.441-11.662c4.334-7.219,12.259-31.925,21.578-64.324c25.668-89.248,61.791-236.724,61.791-236.724     s-72.534,14.804-87.879,27.442c-15.36,12.637-28.905,213.101-43.344,218.52c-2.126,0.799-5.797,2.479-10.497,4.795     c-0.23,0.108-0.461,0.23-0.691,0.338c-2.803,1.382-5.96,2.98-9.373,4.74c-29.947,15.387-79.509,43.114-84.642,49.277     C381.517,1147.252,381.965,1154.473,399.573,1158.535z"/>
			<path style="fill:#739AF0;" d="M538.747,948.143c0-3.413,0.338-6.828,0.961-10.254c9.333-51.321,83.545-103.876,85.008-103.876     l0.013,1.07c0,7.842,12.367,22.322,31.411,23.568c22.592,1.478,50.478-11.41,50.478-24.427c0.136,0,12.695,1.699,16.948,2.173     c18.11,2.059,54.247,11.839,69.73,23.541c14.723,11.121-6.082,81.243-18.964,130.898c-5.458,21.008-9.481,38.346-8.818,46.026     c0.326,3.751,3.698,54.721,6.705,100.827c2.492,38.035,4.74,72.75,4.808,74.931c0.162,4.321-21.32,19.451-57.389,30.883     c-8.71,2.763-18.286,5.309-28.608,7.422c-18.515,3.806-39.456,6.258-62.238,6.177c-7.449-0.028-14.507-0.406-21.171-1.07     C556.098,1250.979,538.449,1192.263,538.747,948.143z"/>
			<path style="fill:#D9935C;" d="M706.601,833.62c0.435-19.933,0.107-43.734-2.586-63.841l-79.562,13.002     c0,0-0.085,24.29,0.264,51.233c-0.047,0.006-2.163,24.989,28.619,28.647C684.116,866.317,707.431,852.907,706.601,833.62z"/>
			<path style="fill:#233862;" d="M640.04,1887.108c10.003-6.157,4.126-51.786,4.126-51.786s-46.856-37.198-53.172-8.56     c-6.316,28.638-44.224,41.628-65.818,45.213c-14.906,2.475-20.407,10.185-21.819,15.075L640.04,1887.108z"/>
			<path style="fill:#4A75CB;" d="M712.922,1102.555c0,76.298,36.977,55.737,59.299,35.135c-3.007-46.106-5.12-209.417-5.12-209.417     S712.922,993.288,712.922,1102.555z"/>
			<path style="fill:#4A75CB;" d="M472.932,1089.849c1.476,10.701,18.381,41.854,31.642,63.527     c7.991-1.789,15.291-3.983,21.332-6.652c7.22-3.183,12.665-7.03,15.441-11.662c4.334-7.219,12.259-31.925,21.578-64.324     c-6.895-39.876-13.45-79.252-13.45-79.252l-2.033-26.412c0,2.031-30.923,118.071-44.928,120.78     c-8.44,1.639-14.426-0.353-19.519-1.084c-0.23,0.108-0.461,0.23-0.691,0.338C479.501,1086.49,476.345,1088.089,472.932,1089.849z     "/>
			<path style="fill:#233862;" d="M783.616,1887.108c10.003-6.157,4.126-51.786,4.126-51.786s-46.856-37.198-53.172-8.56     c-6.316,28.638-44.224,41.628-65.818,45.213c-14.906,2.475-20.322,10.185-21.734,15.075L783.616,1887.108z"/>
			<path style="fill:#233862;" d="M714.178,746.834c0,0,53.113-83.741-48.873-89.283c0,0-38.252,4.503-46.912-4.157     c0,0-29.671,45.095-1.961,93.44C644.141,795.18,714.178,746.834,714.178,746.834z"/>
			<path style="fill:#D9935C;" d="M626.813,790.533c7.732,6.083,30.399,12.124,36.952,12.83c0,0,33.614-7.495,39.723-11.181     c9.464-5.736,8.854-17.347,9.339-33.488c0.582-19.106,2.508-34.112,0.373-45.126c-2.534-13.177-10.889-20.672-34.278-22.709     c-42.937-3.727-60.824,7.024-61.572,21.42c-0.194,3.866-0.375,7.551-0.499,11.042     C615.134,768.213,618.68,784.132,626.813,790.533z"/>
			<path style="fill:#233862;" d="M616.464,738.036c0.415,26.006,7.429,41.401,12.512,43.346c5.849,2.239,12.736,4.093,19.915,5.322     c2.418,0.284,4.735,0.203,4.709-1.168c-0.08-4.102-5.56-9.159-1.487-12.791c4.273-3.81,27.203-5.094,29.05,3.22     c0.902,4.053-6.493,11.21-1.427,11.374c1.538-0.261,3.047-0.558,4.487-0.934c8.351-2.177,14.904-6.128,17.665-7.794     c9.462-5.736,8.842-14.532,10.938-30.544c1.356-10.358,1.356-4.744,0,10.627c-1.418,16.086,1.356,26.412-9.339,33.488     c-5.95,3.938-40.22,19.335-40.22,19.335c0.499-8.154-28.723-14.901-36.453-20.984     C619.635,784.894,616.033,771.843,616.464,738.036z"/>
			<path style="fill:#2B478B;" d="M777.024,1212.618c0.162,4.321-21.32,19.451-57.39,30.883c-2.904,0.928-5.915,1.816-9.007,2.676     c-0.041,0.012-0.07,0.046-0.074,0.089c-3.365,39.48-12.474,95.251-20.691,149.074c0,0,0,0,0,0.013     c-2.127,13.952-4.185,27.768-6.082,41.137c-5.012,35.38-8.763,67.615-9.169,90.818v0.244     c-0.177,10.646,8.803,37.208,9.481,43.344c0.419,3.751,0.759,7.721,1.002,11.878c0.976,16.621,0.583,36.261-0.759,57.228     c-5.892,91.509-30.07,208.593-38.697,213.577c-17.148,9.914-48.356-0.013-64.216-2.33c-6.569-0.976-11.825-6.569-11.487-13.193     c7.747-151.865-14.507-363.369-31.14-493.387c-0.434-3.386-0.867-6.705-1.287-9.969c-1.99-15.332-3.305-29.65-4.131-42.558     c-0.759-11.323-1.125-21.604-1.287-30.516c-0.04-2.777-0.068-5.432-0.081-7.938c-0.04-8.14,6.434-61.426,6.732-305.546l0,0     c0.006-5.64,4.625-10.254,10.263-10.254h149.287c14.427,0,26.034,11.805,25.853,26.231c-0.233,18.622,0.44,44.624,4.482,69.437     c5.51,33.897,17.31,65.562,41.663,73.184c0.027,0.007,0.047,0.023,0.059,0.049c0.11,0.246,0.776,1.729,1.845,4.198     c0.005,0.012,0.008,0.025,0.008,0.038c0.23,6.13,0.487,12.368,0.771,18.727c0.055,1.274,0.109,2.56,0.177,3.847     c0.027,0.759,0.068,1.503,0.108,2.262c0.055,1.287,0.122,2.587,0.19,3.888c0.095,2.139,0.202,4.293,0.325,6.473     c0.095,1.707,0.189,3.414,0.284,5.134c0.177,3.305,0.381,6.651,0.596,10.022c0.054,1.084,0.122,2.154,0.204,3.251     c0.284,4.362,0.582,8.791,0.921,13.248c0.094,1.368,0.202,2.735,0.312,4.117c0.04,0.664,0.095,1.327,0.149,1.991     c0.134,1.748,0.27,3.494,0.419,5.255c0.149,1.856,0.312,3.725,0.474,5.608C777.728,1201.701,776.847,1207.81,777.024,1212.618z"/>
			<path style="fill:#233862;" d="M684.336,1640.001c-5.892,91.509-30.07,208.593-38.697,213.577     c-17.148,9.914-48.356-0.013-64.216-2.33c-6.569-0.976-11.825-6.569-11.487-13.193c7.747-151.865-14.507-363.369-31.14-493.387     c-0.434-3.386-0.867-6.705-1.287-9.969c-1.99-15.332-3.305-29.65-4.131-42.558c7.91-51.551,52.554-54.314,93.04,52.325     C621.406,1379.844,685.677,1619.034,684.336,1640.001z"/>
			<path style="fill:#2B478B;" d="M778.698,1523.003c1.227,10.579,13.607,35.734,15.094,41.723     c20.468,82.313,9.161,277.485-0.987,285.288c-15.7,12.079-47.945,6.339-63.968,6.123c-6.641-0.094-12.582-4.959-13.116-11.563     c-12.586-155.506-64.735-369.093-98.272-494.736c-16.886-63.288-19.279-109.823-19.279-109.823s156.74-96.031,173.691-43.571     C786.862,1242.866,769.244,1441.776,778.698,1523.003z"/>
			<g>
				<path style="fill:#FFA412;" d="M619.057,634.133c1.081-1.216,2.228-2.393,3.439-3.537c5.112-4.857,11.27-9.048,18.674-12.137      c27.327-11.4,49.994-0.879,64.157,9.897c1.396,1.053,2.709,2.116,3.929,3.169c7.7,6.544,11.999,12.382,11.999,12.382      s13.274,18.107,12.831,56.275l-136.716,1.462C597.37,701.645,595.363,660.42,619.057,634.133z"/>
				<g>
					<path style="fill:#E27F2B;" d="M695.721,700.578l-7.511,0.085c-0.156-2.178,0.213-51.797,18.72-71.06       c1.396,1.053,1.105,0.869,2.326,1.922C691.682,648.488,695.685,700.067,695.721,700.578z"/>
					<path style="fill:#E27F2B;" d="M636.311,701.229c-1.561-30.378-13.195-62.301-16.336-67.976c1.081-1.25,1.31-1.48,2.521-2.657       c2.177,3.751,20.01,36.809,21.894,70.546l89.696-0.959c0,0-45.452,10.193-72.876,10.534c-27.426,0.341-63.84-9.073-63.84-9.073       L636.311,701.229z"/>
				</g>
			</g>
			<path style="fill:#2B478B;" d="M728.936,837.123c0,0-46.195,53.813-48.904,100.769l23.534,1.248c0,0,5.927-52.296,40.692-98.8     c0,0-5.438-1.318-7.247-1.676C734.59,838.185,728.936,837.123,728.936,837.123z"/>
			<path style="fill:#2B478B;" d="M613.766,836.384c-33.09,50.076-36.639,102.523-36.639,102.523l-23.754-0.409     c1.951-36.909,25.14-77.509,37.941-96.744C591.314,841.755,607.751,837.603,613.766,836.384z"/>
			<g>
				<path style="fill:#FFA412;" d="M665.349,1352.817h19.075c8.866-4.025,56.629-24.714,102.539-24.966      c33.125-0.182,70.87,24.566,73.142,24.832c5.757,0.677-19.189,0.903-19.189,0.903s-37.384-16.541-54.18-16.931      c-16.011-0.372-51.554,11.266-65.753,16.161h106.906c8.939,0,16.253,7.315,16.253,16.254v121.905      c0,8.94-7.315,16.254-16.253,16.254h-162.54c-8.94,0-16.253-7.313-16.253-16.254v-121.905      C649.095,1360.132,656.409,1352.817,665.349,1352.817z"/>
				<path style="fill:#E27F2B;" d="M718.174,1352.817h162.539c8.94,0,16.255,7.315,16.255,16.254v121.905      c0,8.94-7.315,16.254-16.255,16.254H718.174c-8.94,0-16.255-7.313-16.255-16.254v-121.905      C701.92,1360.132,709.234,1352.817,718.174,1352.817z"/>
			</g>
			<path style="fill:#739AF0;" d="M765.909,1126c-1.165,55.101,5.703,164.828,5.703,164.828h32.508     c15.347-77.206,20.765-126.875,20.765-153.964c0-5.337-0.028-10.308-0.069-14.9c-0.202-23.134-0.825-36.571-0.825-36.571     c6.095-140.176-21.903-215.134-30.693-225.456c-8.804-10.321-49.033-19.599-49.033-19.599s-13.287,38.725-18.705,69.879     c-5.418,31.153,42.613,162.051,40.635,206.79C766.071,1119.797,765.978,1122.804,765.909,1126z"/>
			<g>
				<path style="fill:#F1A34F;" d="M343.989,1163.507h26.29c2.601,0,4.742,2.15,4.742,4.762v715.886c0,2.613-2.141,4.75-4.742,4.75      h-26.29c-2.614,0-4.74-2.137-4.74-4.75v-715.886C339.249,1165.657,341.375,1163.507,343.989,1163.507z"/>
				<g>
					<path style="fill:#2B478B;" d="M343.989,1163.507h26.29c2.601,0,4.742,2.15,4.742,4.762v22.184h-35.772v-22.184       C339.249,1165.657,341.375,1163.507,343.989,1163.507z"/>
					<path style="fill:#2B478B;" d="M375.021,1884.155c0,2.613-2.141,4.75-4.742,4.75h-26.29c-2.614,0-4.74-2.137-4.74-4.75v-19.134       h35.772V1884.155z"/>
				</g>
				<path style="fill:#E27F2B;" d="M356.911,1210.418c1.49,0,2.709,1.218,2.709,2.709v630.131c0,1.491-1.219,2.71-2.709,2.71      c-1.49,0-2.709-1.219-2.709-2.71v-630.131C354.202,1211.636,355.421,1210.418,356.911,1210.418z"/>
			</g>
			<path style="fill:#D9935C;" d="M771.611,1290.829c0,0-6.867-109.727-5.703-164.828c25.993-8.384,46.961-6.542,58.906-4.036     c0.041,4.591,0.069,9.563,0.069,14.9c0,27.089-5.418,76.759-20.765,153.964c6.772,28.444,6.321,59.147-5.418,64.564     c-11.739,5.418-50.568-14.9-50.117-23.929C749.037,1322.434,771.611,1290.829,771.611,1290.829z"/>
			<path style="fill:#D9935C;" d="M326.828,1163.958c3.168-11.62,5.523-18.059,13.522-23.704     c11.623-8.201,25.424-5.981,35.708-4.175c7.863,1.381,16.096-1.258,19.547-2.58c18.213-12.139,63.935-37.168,86.701-48.39     c15.536,9.008,34.621,26.832,43.601,61.615c-35.04,15.456-111.731,15.184-126.332,11.811c0,0-13.518,9.825-23.802,10.728     c-3.895,0.342-8.803-0.79-13.394-2.328c-7.225-2.419-14.981-0.01-20.176,6.413c-4.998,6.179-11.523,9.573-14.231,9.573     C323.782,1182.921,324.834,1171.274,326.828,1163.958z"/>
		</g>
	</g>
	<g id="P297LW_4_">
		<path style="fill:#FFA412;" d="M1205.689,1028.315c-13.404,41.027-86.452,111.946-96.548,119.016c0,0-16.996-28.326-13.596-44.19    c2.776-12.95,31.215-59.111,40.949-81.795c0.51-1.179,0.963-2.3,1.36-3.343c1.337-3.479,2.039-6.175,1.881-7.773    c-0.488-4.929-15.976-16.917-33.981-31.137c-23.398-18.492-51.044-40.733-55.531-56.109    c-7.931-27.193-35.408-134.868-35.408-134.868s68.267,14.763,87.529,31.759c19.262,16.996,101.975,158.629,105.374,194.886    C1208.092,1018.717,1207.344,1023.295,1205.689,1028.315z"/>
		<path style="fill:#D9935C;" d="M1205.689,1028.315c-13.404,41.027-86.452,111.946-96.548,119.016c0,0-16.996-28.326-13.596-44.19    c2.923-13.62,34.241-63.995,42.308-85.138C1149.988,1015.896,1178.485,1013.313,1205.689,1028.315z"/>
		<path style="fill:#D9935C;" d="M1014.837,778.656l-0.045,8.362c0,0,2.277,26.15-29.924,29.969    c-32.201,3.83-56.449-7.852-55.576-28.032c2.9-15.625,5.937-28.7,6.152-41.629c0.08-4.804-0.25-9.903-1.144-15.659l62.397-1.247    l18.379,3.003L1014.837,778.656z"/>
		<path style="fill:#CB7D45;" d="M1015.075,733.425l-0.238,45.232c-6.628,3.082-14.106,4.963-22.491,4.963    c-28.678,0-47.215-21.029-56.902-36.292c0.08-4.804-0.25-9.903-1.144-15.659l62.397-1.247L1015.075,733.425z"/>
		<path style="fill:#233862;" d="M959.838,1887.5c0,0-3.029-23.593-10.043-37.621c-7.014-14.027-51.648-5.101-51.648-5.101    s-8.927,7.651-10.84,43.358L959.838,1887.5z"/>
		<path style="fill:#233862;" d="M1111.908,1887.424c-10.488-6.402-4.52-54.157-4.52-54.157s48.87-39.096,55.589-9.164    c6.72,29.933,46.427,43.372,69.029,47.039c15.603,2.53,20.434,11.171,21.93,16.282H1111.908z"/>
		<path style="fill:#2B478B;" d="M1010.683,1534.776c1.989,10.961,3.252,19.952,3.587,26.398    c4.543,88.615,74.593,291.229,87.123,295.954c19.387,7.316,49.917-8.235,65.89-13.324c6.619-2.114,11.085-8.789,9.612-15.561    c-34.69-159.478-47.44-389.121-52.079-525.08c-2.343-68.481-14.098-115.787-14.098-115.787s-170.85-45.584-171.864,12.079    C937.954,1250.482,995.447,1450.599,1010.683,1534.776z"/>
		<path style="fill:#233862;" d="M1010.683,1534.776l114.133-231.614c-2.343-68.481-14.098-115.787-14.098-115.787    s-170.85-45.584-171.864,12.079C937.954,1250.482,995.447,1450.599,1010.683,1534.776z"/>
		<path style="fill:#2B478B;" d="M1048.696,1199.657l-90.319,654.601c0,0-39.663,9.564-70.512,1.912    c0,0-26.442-348.146-24.239-432.314c2.204-84.168-18.978-225.217,4.834-240.772    C892.272,1167.529,1048.696,1199.657,1048.696,1199.657z"/>
		<path style="fill:#FFA412;" d="M1115.634,1200.868c0,0-46.15,26.91-113,26.151c-26.06-0.294-48.733-2.243-67.972-5.11    c-53.616-7.953-80.674-22.921-80.458-28.496c0.181-5.031,0.532-21.744,1.167-28.927c8.52-98.259,4.113-174.683,15.579-232.095    c0.136-0.692,0.272-1.383,0.419-2.062c15.172-72.992,38.955-114.926,50.761-132.126c4.317-6.277,7.025-9.246,7.161-9.246    c0,13.619,29.006,25.38,52.653,23.839c19.919-1.303,32.847-16.452,32.847-24.655l0.023-0.022    c1.631,0,89.852,61.321,89.931,118.303C1105.052,1161.788,1120.529,1200.958,1115.634,1200.868z"/>
		<path style="fill:#E27F2B;" d="M934.787,1221.071c-0.046,0.283-0.08,0.566-0.125,0.838c-53.616-7.953-80.674-22.921-80.458-28.496    c0.181-5.031,0.532-21.744,1.167-28.927c8.52-98.259,4.113-174.683,15.579-232.095    C899.095,970.007,956.949,1068.527,934.787,1221.071z"/>
		<g>
			<path style="fill:#E9F3FE;" d="M1081.654,1098.931l-7.206,23.975l-7.161,23.794l-311.025-93.556     c-0.442,0.022-0.873-0.023-1.281-0.148c-0.43-0.125-0.827-0.328-1.201-0.589c-3.92-2.776-4.635-12.939-1.62-24.394     c0.159-0.635,0.34-1.269,0.532-1.915c3.637-12.317,10.255-21.426,15.331-21.505c0.419-0.012,0.816,0.045,1.212,0.158     c0.408,0.125,0.782,0.306,1.145,0.555L1081.654,1098.931z"/>
			<path style="fill:#BED4F4;" d="M1074.448,1122.906l-7.161,23.794l-311.025-93.556c-0.442,0.022-0.873-0.023-1.281-0.148     c-0.43-0.125-0.827-0.328-1.201-0.589c-3.92-2.776-4.635-12.939-1.62-24.394c12.713,9.541,73.434,51.747,177.074,72.278     C1036.366,1121.512,1069.519,1122.838,1074.448,1122.906z"/>
			<path style="fill:#AFCDFB;" d="M1082.251,1098.792c-5.201-1.536-12.608,8.021-16.543,21.346     c-3.935,13.325-2.909,25.372,2.292,26.909c5.201,1.536,12.608-8.021,16.543-21.346     C1088.478,1112.375,1087.452,1100.328,1082.251,1098.792z"/>
		</g>
		<g>
			<path style="fill:#E9F3FE;" d="M772.634,996.521l-36.666-5.949c-0.396-0.192-0.782-0.328-1.212-0.396     c-0.408-0.056-0.805-0.068-1.213,0c-5.031,0.748-10.39,10.639-12.384,23.33c-0.113,0.669-0.204,1.315-0.283,1.971     c-0.714,5.62-0.612,10.82,0.136,14.979c0.816,4.453,2.391,7.694,4.543,8.906c0.046,0.033,0.091,0.056,0.125,0.079     c0.408,0.215,0.827,0.362,1.269,0.43c0.419,0.068,0.85,0.057,1.292-0.022l320.599,52.019l3.977-24.52l4-24.712L772.634,996.521z"/>
			<path style="fill:#BED4F4;" d="M905.894,1063.937c-68.573-4.406-104.921-40.665-133.259-67.417l-36.666-5.949     c-0.396-0.192-0.782-0.328-1.212-0.396c-0.408-0.056-0.805-0.068-1.213,0c-5.031,0.748-10.39,10.639-12.384,23.33     c-0.113,0.669-0.204,1.315-0.283,1.971c-0.714,5.62-0.612,10.82,0.136,14.979c1.722,4.872,3.49,8.18,4.543,8.906     c0.046,0.033,0.091,0.056,0.125,0.079c0.408,0.215,0.827,0.362,1.269,0.43c0.419,0.068,0.85,0.057,1.292-0.022l320.599,52.019     l3.977-24.52C1047.922,1067.926,1014.883,1070.951,905.894,1063.937z"/>
			<path style="fill:#AFCDFB;" d="M1057.396,1042.416c-5.357-0.842-11.449,9.603-13.605,23.328     c-2.156,13.726,0.438,25.535,5.796,26.377c5.358,0.843,11.449-9.602,13.606-23.328     C1065.348,1055.068,1062.754,1043.258,1057.396,1042.416z"/>
		</g>
		<path style="fill:#D9935C;" d="M943.341,1136.759c-74.362-11.829-123.515-42.988-143.695-58.058    c-6.889-5.145-10.401-8.418-10.401-8.418c-38.105-80.108,30.831-220.561,43.43-244.367c13.597-25.675,96.616-36.96,96.616-36.96    s-13.257,39-18.435,89.84c-5.178,50.84-60.426,149.938-58.16,158.255c0.566,2.096,7.24,6.492,16.973,12.044    c28.859,16.429,84.628,42.92,88.016,49.141C962.218,1106.541,943.341,1136.759,943.341,1136.759z"/>
		<path style="fill:#D9935C;" d="M957.689,1098.232c0,0,41.546-16.619,51.743-9.821c10.198,6.798,27.194,16.996,27.194,23.794    c0,6.799-21.529,24.928-39.658,30.593c-18.128,5.665-53.631-6.044-53.631-6.044L957.689,1098.232z"/>
		<path style="fill:#FFA412;" d="M910.856,878.796c-5.178,50.84-60.426,149.938-58.16,158.255c0.566,2.096,7.24,6.492,16.973,12.044    c-0.612,0.046-1.235,0.057-1.87,0.035c-43.464-1.915-63.134,22.128-68.154,29.572c-6.889-5.145-10.401-8.418-10.401-8.418    c-38.105-80.108,30.831-220.561,43.43-244.367c13.597-25.675,96.616-36.96,96.616-36.96S916.034,827.955,910.856,878.796z"/>
		<path style="fill:#D9935C;" d="M1018.717,755.404c0,0-79.915,16.143-89.203-33.778c-9.287-49.922-25.857-81.46,24.774-93.878    c50.631-12.418,64.117,4.782,71.27,20.691C1032.711,664.347,1039.266,749.918,1018.717,755.404z"/>
		<path style="fill:#233862;" d="M931.111,736.019c0,0-15.45-32.973-28.334-47.615c-12.885-14.642-5.857-87.85,49.781-85.507    c55.638,2.343,75.551,42.168,76.137,49.782c0.585,7.613-44.511,1.757-56.81,11.713c-12.299,9.956-0.586,26.355-14.641,32.211    c-14.056,5.857-25.184,5.857-22.841,18.741C936.745,728.23,931.111,736.019,931.111,736.019z"/>
		<path style="fill:#FFA412;" d="M948.281,568.904c-15.919,4-27.862,10.39-36.779,18.083c-0.884,0.759-1.745,1.541-2.572,2.334    l-0.012,0.012c-32.994,31.465-19.828,81.546-19.828,81.546s4.393,12.652,7.414,17.563c3.021,4.91,46.833-0.755,49.099-10.198    c2.266-9.442,10.953-19.262,10.953-19.262s46.181-3.174,49.288-3.399c10.433-0.756,40.209-11.115,40.209-11.115    C1045.713,641.544,1028.955,548.645,948.281,568.904z"/>
		<path style="fill:#E27F2B;" d="M1073.411,634.655c-5.541-1.354-14.987-2.862-30.554-3.433c0,0-13.071,10.827-39.056,19.079    c-12.213-15.387-47.001-52.469-92.3-63.314c-0.136-0.034-0.261-0.068-0.396-0.101c-0.963,1.212-1.507,1.62-2.175,2.436    l-0.012,0.012c-0.204,0.237-0.419,0.521-0.657,0.872c36.877,6.425,71.928,47.843,83.958,63.347    c-10.323,2.539-22.198,4.544-35.663,5.429c0,0,80.714,1.506,117.604-17.919C1076.971,639.583,1076.497,635.409,1073.411,634.655z"/>
		<path style="fill:#E27F2B;" d="M1155.597,1001.166c-1.496,8.476-6.062,17.393-19.103,20.18c0.51-1.179,0.963-2.3,1.36-3.343    c1.337-3.479,2.039-6.175,1.881-7.773c-0.488-4.929-15.976-16.917-33.981-31.137c-1.484-8.068-5.11-32.009-0.011-51.01    C1111.974,904.857,1157.297,991.535,1155.597,1001.166z"/>
		<path style="fill:#E27F2B;" d="M861.002,1043.373c0,0-55.52-4.532-73.649,27.76c0,0,1.549,10.888,12.294,7.569    c0,0,46.966-32.099,70.023-29.607C869.669,1049.095,866.101,1043.468,861.002,1043.373z"/>
		<path style="fill:#E27F2B;" d="M1136.494,1021.346c0,0,28.805,1.207,65.063,16.998c0,0,8.049-7.907,4.839-12.44    C1203.186,1021.373,1152.137,1005.079,1136.494,1021.346z"/>
	</g>
	<g>
		<g>
			<path style="fill:#D86713;" d="M2181.605,1227.056l52.239,621.125c0,0,5.474,37.651-22.533,37.718     c-46.048,0.11-229.196,0-229.196,0s34.657-7.838,34.237-25.472c-0.495-20.787-61.056-639.25-61.056-639.25L2181.605,1227.056z"/>
			<path style="fill:#EE9849;" d="M2196.084,1874.629c-44.848,0.575-219.77,0.027-228.833,0c3.408,0,29.719-0.649,33.437-20.446     c0.292-1.553,0.447-3.225,0.438-5.025c-0.018-3.874-2.147-28.449-5.601-65.896c-3.088-33.583-7.245-77.508-11.904-126.128     c-18.043-188.408-43.55-447.224-43.55-447.224l226.312,5.875l37.118,441.349l7.245,86.141l6.513,77.498l1.362,16.143     C2218.622,1836.917,2225.008,1874.263,2196.084,1874.629z"/>
			<polygon style="fill:#F1A34F;" points="2731.212,889.062 2603.969,1400.172 2586.547,1470.17 2527.283,1708.23 1426.258,1708.23      1644.695,889.062    "/>
			<polygon style="fill:#EE9849;" points="2731.214,889.061 2748.849,894.94 2550.728,1726.011 2527.281,1708.233    "/>
			<polygon style="fill:#D86713;" points="2550.728,1726.011 1456.479,1726.011 1426.262,1708.233 2527.281,1708.233    "/>
			<rect x="1929.539" y="1874.878" style="fill:#F1A34F;" width="236.921" height="11.258"/>
			<path style="fill:#D86713;" d="M2212.227,1725.652l-1.48,17.623l-0.055,0.648c0,0-153.901,14.755-215.166,39.339     c-1.543-16.838-3.362-36.278-5.38-57.61H2212.227z"/>
			<path style="opacity:0.4;fill:#D86713;" d="M2196.084,1874.629c-44.848,0.575-219.77,0.027-228.833,0     c3.408,0,29.719-0.649,33.437-20.446c18.015,0.932,118.189,4.129,216.572-33.41l1.362,16.143     C2218.622,1836.917,2225.008,1874.263,2196.084,1874.629z"/>
			<path style="opacity:0.4;fill:#D86713;" d="M2565.89,1547.419l-40.035,160.813h-370.692     c156.739-49.795,230.933-122.638,260.831-160.813H2565.89z"/>
			<polygon style="fill:#D2E4FF;" points="2722.91,899.891 2565.887,1547.419 1482.285,1547.419 1658.249,899.891    "/>
			<polygon style="fill:#F1A34F;" points="1468.887,1547.419 1482.285,1547.419 1479.603,1557.288 1466.64,1555.82    "/>
		</g>
		<g>
			<rect x="1914.517" y="516.562" style="fill:#739AF0;" width="3.395" height="60.442"/>
			<rect x="2102.634" y="516.562" style="fill:#739AF0;" width="3.396" height="60.442"/>
			<rect x="1938.286" y="516.562" style="fill:#739AF0;" width="3.396" height="60.442"/>
			<rect x="2119.612" y="516.562" style="fill:#739AF0;" width="3.396" height="60.442"/>
		</g>
		<path style="fill:#739AF0;" d="M1874.901,459.086l0.019,0.006l-0.117-0.08c-0.185-0.135-0.373-0.264-0.566-0.387L1705.32,343.211    l-395.238,119.03l-2.839,118.909h-9.059c-5.362,0-9.75,4.387-9.75,9.749v9.75c0,5.362,4.387,9.749,9.75,9.749h31.415    c5.362,0,9.75-4.387,9.75-9.749v-9.75c0-5.362-4.387-9.749-9.75-9.749h-15.29l74.533-80.161h267.36v1046.43h64.996V500.989h55.246    v22.748c0,5.362,4.387,9.75,9.75,9.75h82.87c5.362,0,9.749-4.387,9.749-9.75v-56.871    C1878.811,463.692,1877.268,460.869,1874.901,459.086z M1312.93,574.28l2.757-73.291h65.389L1312.93,574.28z M1786.192,457.116    c-4.808,0-8.821,3.53-9.602,8.125h-456.646l384.433-115.807l158.706,107.682H1786.192z"/>
		<path style="fill:#739AF0;" d="M2689.46,842.696h-5.538l-1.237-72.515l-242.093-72.928l-103.507,70.713l3.417-1.087    c-3.278,0-5.959,2.682-5.959,5.959v34.763c0,3.278,2.681,5.959,5.959,5.959h50.655c3.278,0,5.959-2.681,5.959-5.959v-13.905    h33.771v639.644h39.73V793.696h163.427l45.559,48.999h-9.346c-3.277,0-5.959,2.682-5.959,5.959v5.96    c0,3.277,2.682,5.959,5.959,5.959h19.203c3.278,0,5.959-2.682,5.959-5.959v-5.96    C2695.419,845.378,2692.738,842.696,2689.46,842.696z M2397.027,771.845c-0.477-2.808-2.93-4.966-5.869-4.966h-47.547    l97.558-65.822l234.99,70.788H2397.027z M2638.792,793.696h40.479l1.176,44.8L2638.792,793.696z"/>
		<path style="fill:#739AF0;" d="M2360.526,861.307v-4.243h-9.285v-28.001h-7.685v28.001h-19.468v-28.001h-7.685v28.001h-21.165    v-28.001h-7.685v28.001h-19.468v-28.001h-7.685v28.001h-10.182v4.243h10.182v13.633h-10.182v4.243h10.182v13.633h-10.182v4.242    h10.182v13.633h-10.182v4.242h10.182v13.633h-10.182v4.243h10.182v13.633h-10.182v4.243h10.182v11.031h-10.182v4.243h10.182    v13.633h-10.182v4.243h10.182v13.633h-10.182v4.243h10.182v13.633h-10.182v4.242h10.182v13.633h-10.182v4.242h10.182v13.633    h-10.182v4.243h10.182v13.011h-10.182v4.243h10.182v13.633h-10.182v4.243h10.182v13.633h-10.182v4.243h10.182v13.633h-10.182    v4.243h10.182v13.633h-10.182v4.243h10.182v13.633h-10.182v4.243h10.182v11.031h-10.182v4.242h10.182v13.633h-10.182v4.242h10.182    v13.633h-10.182v4.243h10.182v13.633h-10.182v4.243h10.182v13.633h-10.182v4.243h10.182v13.633h-10.182v4.243h10.182v12.162    h-10.182v4.242h10.182v13.633h-10.182v4.242h10.182v13.633h-10.182v4.243h10.182v13.633h-10.182v4.242h10.182v13.633h-10.182    v4.243h10.182v13.633h-10.182v4.242h10.182v11.031h-10.182v4.243h10.182v13.633h-10.182v4.242h10.182v13.633h-10.182v4.243    h110.308v-4.243h-9.285v-13.633h9.285v-4.242h-9.285v-13.633h9.285v-4.243h-9.285v-11.031h9.285v-4.242h-9.285v-13.633h9.285    v-4.243h-9.285v-13.633h9.285v-4.242h-9.285v-13.633h9.285v-4.243h-9.285v-13.633h9.285v-4.242h-9.285v-13.633h9.285v-4.242    h-9.285v-12.162h9.285v-4.243h-9.285v-13.633h9.285v-4.243h-9.285v-13.633h9.285v-4.243h-9.285v-13.633h9.285v-4.243h-9.285    v-13.633h9.285v-4.242h-9.285v-13.633h9.285v-4.242h-9.285v-11.031h9.285v-4.243h-9.285v-13.633h9.285v-4.243h-9.285v-13.633    h9.285v-4.243h-9.285v-13.633h9.285v-4.243h-9.285v-13.633h9.285v-4.243h-9.285v-13.633h9.285v-4.243h-9.285v-13.011h9.285v-4.243    h-9.285v-13.633h9.285v-4.242h-9.285v-13.633h9.285v-4.242h-9.285v-13.633h9.285v-4.243h-9.285v-13.633h9.285v-4.243h-9.285    v-13.633h9.285v-4.243h-9.285v-11.031h9.285v-4.243h-9.285V932.81h9.285v-4.243h-9.285v-13.633h9.285v-4.242h-9.285v-13.633h9.285    v-4.242h-9.285v-13.633h9.285v-4.243h-9.285v-13.633H2360.526z M2316.403,861.307v13.633h-21.165v-13.633H2316.403z     M2295.238,1401.308v-13.633h21.165v13.633H2295.238z M2316.403,1405.55v13.633h-21.165v-13.633H2316.403z M2295.238,1383.432    v-11.031h21.165v11.031H2295.238z M2295.238,1368.159v-13.633h21.165v13.633H2295.238z M2295.238,1350.283v-13.633h21.165v13.633    H2295.238z M2295.238,1332.408v-13.633h21.165v13.633H2295.238z M2295.238,1314.532v-13.633h21.165v13.633H2295.238z     M2295.238,1296.657v-13.633h21.165v13.633H2295.238z M2295.238,1278.781v-12.162h21.165v12.162H2295.238z M2295.238,1262.376    v-13.633h21.165v13.633H2295.238z M2295.238,1244.501v-13.633h21.165v13.633H2295.238z M2295.238,1226.625v-13.633h21.165v13.633    H2295.238z M2295.238,1208.749v-13.633h21.165v13.633H2295.238z M2295.238,1190.874v-13.633h21.165v13.633H2295.238z     M2295.238,1172.998v-11.031h21.165v11.031H2295.238z M2295.238,1157.725v-13.633h21.165v13.633H2295.238z M2295.238,1139.849    v-13.633h21.165v13.633H2295.238z M2295.238,1121.974v-13.633h21.165v13.633H2295.238z M2295.238,1104.098v-13.633h21.165v13.633    H2295.238z M2295.238,1086.222v-13.633h21.165v13.633H2295.238z M2295.238,1068.347v-13.011h21.165v13.011H2295.238z     M2295.238,1051.094v-13.633h21.165v13.633H2295.238z M2295.238,1033.218v-13.633h21.165v13.633H2295.238z M2295.238,1015.343    v-13.633h21.165v13.633H2295.238z M2295.238,997.467v-13.633h21.165v13.633H2295.238z M2295.238,979.591v-13.633h21.165v13.633    H2295.238z M2295.238,961.716v-11.031h21.165v11.031H2295.238z M2295.238,946.442V932.81h21.165v13.633H2295.238z     M2295.238,928.567v-13.633h21.165v13.633H2295.238z M2295.238,910.691v-13.633h21.165v13.633H2295.238z M2295.238,892.816    v-13.633h21.165v13.633H2295.238z M2268.085,861.307h19.468v13.633h-19.468V861.307z M2268.085,879.183h19.468v13.633h-19.468    V879.183z M2268.085,897.058h19.468v13.633h-19.468V897.058z M2268.085,914.934h19.468v13.633h-19.468V914.934z M2268.085,932.81    h19.468v13.633h-19.468V932.81z M2268.085,950.685h19.468v11.031h-19.468V950.685z M2268.085,965.958h19.468v13.633h-19.468    V965.958z M2268.085,983.834h19.468v13.633h-19.468V983.834z M2268.085,1001.709h19.468v13.633h-19.468V1001.709z     M2268.085,1019.585h19.468v13.633h-19.468V1019.585z M2268.085,1037.461h19.468v13.633h-19.468V1037.461z M2268.085,1055.336    h19.468v13.011h-19.468V1055.336z M2268.085,1072.59h19.468v13.633h-19.468V1072.59z M2268.085,1090.465h19.468v13.633h-19.468    V1090.465z M2268.085,1108.341h19.468v13.633h-19.468V1108.341z M2268.085,1126.217h19.468v13.633h-19.468V1126.217z     M2268.085,1144.092h19.468v13.633h-19.468V1144.092z M2268.085,1161.968h19.468v11.031h-19.468V1161.968z M2268.085,1177.241    h19.468v13.633h-19.468V1177.241z M2268.085,1195.116h19.468v13.633h-19.468V1195.116z M2268.085,1212.992h19.468v13.633h-19.468    V1212.992z M2268.085,1230.868h19.468v13.633h-19.468V1230.868z M2268.085,1248.744h19.468v13.633h-19.468V1248.744z     M2268.085,1266.619h19.468v12.162h-19.468V1266.619z M2268.085,1283.024h19.468v13.633h-19.468V1283.024z M2268.085,1300.899    h19.468v13.633h-19.468V1300.899z M2268.085,1318.775h19.468v13.633h-19.468V1318.775z M2268.085,1336.651h19.468v13.633h-19.468    V1336.651z M2268.085,1354.526h19.468v13.633h-19.468V1354.526z M2268.085,1372.401h19.468v11.031h-19.468V1372.401z     M2268.085,1387.675h19.468v13.633h-19.468V1387.675z M2268.085,1405.55h19.468v13.633h-19.468V1405.55z M2343.556,1419.184    h-19.468v-13.633h19.468V1419.184z M2343.556,1401.308h-19.468v-13.633h19.468V1401.308z M2343.556,1383.432h-19.468v-11.031    h19.468V1383.432z M2343.556,1368.159h-19.468v-13.633h19.468V1368.159z M2343.556,1350.283h-19.468v-13.633h19.468V1350.283z     M2343.556,1332.408h-19.468v-13.633h19.468V1332.408z M2343.556,1314.532h-19.468v-13.633h19.468V1314.532z M2343.556,1296.657    h-19.468v-13.633h19.468V1296.657z M2343.556,1278.781h-19.468v-12.162h19.468V1278.781z M2343.556,1262.376h-19.468v-13.633    h19.468V1262.376z M2343.556,1244.501h-19.468v-13.633h19.468V1244.501z M2343.556,1226.625h-19.468v-13.633h19.468V1226.625z     M2343.556,1208.749h-19.468v-13.633h19.468V1208.749z M2343.556,1190.874h-19.468v-13.633h19.468V1190.874z M2343.556,1172.998    h-19.468v-11.031h19.468V1172.998z M2343.556,1157.725h-19.468v-13.633h19.468V1157.725z M2343.556,1139.849h-19.468v-13.633    h19.468V1139.849z M2343.556,1121.974h-19.468v-13.633h19.468V1121.974z M2343.556,1104.098h-19.468v-13.633h19.468V1104.098z     M2343.556,1086.222h-19.468v-13.633h19.468V1086.222z M2343.556,1068.347h-19.468v-13.011h19.468V1068.347z M2343.556,1051.094    h-19.468v-13.633h19.468V1051.094z M2343.556,1033.218h-19.468v-13.633h19.468V1033.218z M2343.556,1015.343h-19.468v-13.633    h19.468V1015.343z M2343.556,997.467h-19.468v-13.633h19.468V997.467z M2343.556,979.591h-19.468v-13.633h19.468V979.591z     M2343.556,961.716h-19.468v-11.031h19.468V961.716z M2343.556,946.442h-19.468V932.81h19.468V946.442z M2343.556,928.567h-19.468    v-13.633h19.468V928.567z M2343.556,910.691h-19.468v-13.633h19.468V910.691z M2343.556,892.816h-19.468v-13.633h19.468V892.816z     M2343.556,874.94h-19.468v-13.633h19.468V874.94z"/>
		<g>
			<rect x="1898.068" y="566.011" style="fill:#739AF0;" width="315.381" height="981.408"/>
			<g>
				<rect x="1898.193" y="700.873" style="opacity:0.5;fill:#AED3FF;" width="228.273" height="143.776"/>
				<rect x="1898.193" y="964.149" style="opacity:0.5;fill:#AED3FF;" width="228.273" height="143.776"/>
				<rect x="1898.193" y="1224.026" style="opacity:0.5;fill:#AED3FF;" width="228.273" height="143.776"/>
			</g>
			<polygon style="fill:#4A75CB;" points="2564.177,1366.882 2564.177,1233.93 2213.575,1233.93 2213.575,565.459 2126.466,565.459      2126.466,1547.419 2213.575,1547.419 2213.575,1547.419 2565.89,1547.419 2609.666,1366.882    "/>
		</g>
		<path style="fill:#739AF0;" d="M2517.935,1547.344l7.685,0.012v-12.3h19.468v12.33l7.685,0.012v-12.342h16.115l1.029-4.242    h-17.144v-13.633h20.45l9.341-38.523h-0.941v-13.633h4.247l1.029-4.243h-5.276v-13.633h8.581l1.029-4.243h-9.61v-13.633h12.916    l1.029-4.243h-13.945v-13.633h17.25l1.029-4.242h-18.279v-11.031h19.468v6.128l7.685-31.693v-10.186h2.47l1.029-4.243h-3.499    v-13.633h6.805l1.029-4.243h-7.834v-13.633h9.286v-4.243h-9.286v-13.633h9.286v-4.242h-9.286v-13.011h9.286v-4.242h-9.286v-13.633    h9.286v-4.243h-9.286v-13.633h9.286v-4.243h-9.286v-13.633h9.286v-4.243h-9.286v-13.633h9.286v-4.243h-9.286v-13.633h9.286v-4.243    h-9.286v-11.031h9.286v-4.243h-9.286v-13.633h9.286v-4.243h-9.286v-13.633h9.286v-4.242h-9.286v-13.633h9.286v-4.242h-9.286    v-13.633h9.286v-4.243h-9.286v-13.633h9.286v-4.243h-9.286v-28.001h-7.685v28.001h-19.468v-28.001h-7.685v28.001h-21.165v-28.001    h-7.685v28.001h-19.468v-28.001h-7.685v28.001h-10.182v4.243h10.182v13.633h-10.182v4.243h10.182v13.633h-10.182v4.242h10.182    v13.633h-10.182v4.242h10.182v13.633h-10.182v4.243h10.182v13.633h-10.182v4.243h10.182v11.031h-10.182v4.243h10.182v13.633    h-10.182v4.243h10.182v13.633h-10.182v4.243h10.182v13.633h-10.182v4.243h10.182v13.633h-10.182v4.243h10.182v13.633h-10.182    v4.242h10.182v13.011h-10.182v4.242h10.182v13.633h-10.182v4.243h10.182v13.633h-10.182v4.243h10.182v13.633h-10.182v4.243h10.182    v13.633h-10.182v4.243h10.182v13.633h-10.182v4.242h10.182v11.031h-10.182v4.242h10.182v13.633h-10.182v4.243h10.182v13.633    h-10.182v4.243h10.182v13.633h-10.182v4.243h10.182v13.633h-10.182v4.243h10.182v13.633h-10.182v4.243h10.182v12.162h-10.182    v4.243h10.182v13.633h-10.182v4.242h10.182V1547.344z M2581.622,1095.464h19.468v13.633h-19.468V1095.464z M2581.622,1113.339    h19.468v13.633h-19.468V1113.339z M2581.622,1131.215h19.468v13.633h-19.468V1131.215z M2581.622,1149.091h19.468v13.633h-19.468    V1149.091z M2581.622,1166.966h19.468v13.633h-19.468V1166.966z M2581.622,1184.842h19.468v11.031h-19.468V1184.842z     M2581.622,1200.115h19.468v13.633h-19.468V1200.115z M2581.622,1217.991h19.468v13.633h-19.468V1217.991z M2581.622,1235.866    h19.468v13.633h-19.468V1235.866z M2581.622,1253.742h19.468v13.633h-19.468V1253.742z M2581.622,1271.617h19.468v13.633h-19.468    V1271.617z M2581.622,1289.493h19.468v13.011h-19.468V1289.493z M2581.622,1306.746h19.468v13.633h-19.468V1306.746z     M2581.622,1324.622h19.468v13.633h-19.468V1324.622z M2581.622,1342.498h19.468v13.633h-19.468V1342.498z M2581.622,1360.373    h19.468v13.633h-19.468V1360.373z M2581.622,1378.249h19.468v13.633h-19.468V1378.249z M2552.772,1095.464h21.165v13.633h-21.165    V1095.464z M2552.772,1113.339h21.165v13.633h-21.165V1113.339z M2552.772,1131.215h21.165v13.633h-21.165V1131.215z     M2552.772,1149.091h21.165v13.633h-21.165V1149.091z M2552.772,1166.966h21.165v13.633h-21.165V1166.966z M2552.772,1184.842    h21.165v11.031h-21.165V1184.842z M2552.772,1200.115h21.165v13.633h-21.165V1200.115z M2552.772,1217.991h21.165v13.633h-21.165    V1217.991z M2552.772,1235.866h21.165v13.633h-21.165V1235.866z M2552.772,1253.742h21.165v13.633h-21.165V1253.742z     M2552.772,1271.617h21.165v13.633h-21.165V1271.617z M2552.772,1289.493h21.165v13.011h-21.165V1289.493z M2552.772,1306.746    h21.165v13.633h-21.165V1306.746z M2552.772,1324.622h21.165v13.633h-21.165V1324.622z M2552.772,1342.498h21.165v13.633h-21.165    V1342.498z M2552.772,1360.373h21.165v13.633h-21.165V1360.373z M2552.772,1378.249h21.165v13.633h-21.165V1378.249z     M2552.772,1396.124h21.165v11.031h-21.165V1396.124z M2552.772,1411.398h21.165v13.633h-21.165V1411.398z M2552.772,1429.273    h21.165v13.633h-21.165V1429.273z M2552.772,1447.149h21.165v13.633h-21.165V1447.149z M2552.772,1465.025h21.165v13.633h-21.165    V1465.025z M2552.772,1482.9h21.165v13.633h-21.165V1482.9z M2552.772,1500.776h21.165v12.162h-21.165V1500.776z     M2525.62,1095.464h19.468v13.633h-19.468V1095.464z M2525.62,1113.339h19.468v13.633h-19.468V1113.339z M2525.62,1131.215h19.468    v13.633h-19.468V1131.215z M2525.62,1149.091h19.468v13.633h-19.468V1149.091z M2525.62,1166.966h19.468v13.633h-19.468V1166.966z     M2525.62,1184.842h19.468v11.031h-19.468V1184.842z M2525.62,1200.115h19.468v13.633h-19.468V1200.115z M2525.62,1217.991h19.468    v13.633h-19.468V1217.991z M2525.62,1235.866h19.468v13.633h-19.468V1235.866z M2525.62,1253.742h19.468v13.633h-19.468V1253.742z     M2525.62,1271.617h19.468v13.633h-19.468V1271.617z M2525.62,1289.493h19.468v13.011h-19.468V1289.493z M2525.62,1306.746h19.468    v13.633h-19.468V1306.746z M2525.62,1324.622h19.468v13.633h-19.468V1324.622z M2525.62,1342.498h19.468v13.633h-19.468V1342.498z     M2525.62,1360.373h19.468v13.633h-19.468V1360.373z M2525.62,1378.249h19.468v13.633h-19.468V1378.249z M2525.62,1396.124h19.468    v11.031h-19.468V1396.124z M2525.62,1411.398h19.468v13.633h-19.468V1411.398z M2525.62,1429.273h19.468v13.633h-19.468V1429.273z     M2525.62,1447.149h19.468v13.633h-19.468V1447.149z M2525.62,1465.025h19.468v13.633h-19.468V1465.025z M2525.62,1482.9h19.468    v13.633h-19.468V1482.9z M2525.62,1500.776h19.468v12.162h-19.468V1500.776z M2525.62,1517.18h19.468v13.633h-19.468V1517.18z"/>
	</g>
	<path style="fill:#283250;" d="M2883.206,1893.549H116.794c-1.674,0-3.043-1.37-3.043-3.043l0,0c0-1.674,1.37-3.043,3.043-3.043   h2766.411c1.674,0,3.043,1.37,3.043,3.043l0,0C2886.249,1892.179,2884.879,1893.549,2883.206,1893.549z"/>
	<rect x="1583.498" y="999.657" style="fill:#4A75CB;" width="314.57" height="547.762"/>
	<rect x="1604.27" y="1025.461" style="fill:#FFFFFF;" width="25" height="98.039"/>
	<rect x="1654.27" y="1025.461" style="fill:#FFFFFF;" width="25" height="98.039"/>
	<rect x="1704.103" y="1025.461" style="fill:#FFFFFF;" width="25" height="98.039"/>
	<rect x="1754.103" y="1025.461" style="fill:#FFFFFF;" width="25" height="98.039"/>
	<rect x="1804.103" y="1025.461" style="fill:#FFFFFF;" width="25" height="98.039"/>
	<rect x="1854.103" y="1025.461" style="fill:#FFFFFF;" width="25" height="98.039"/>
	<rect x="1604.27" y="1155.461" style="fill:#EBF2F9;" width="25" height="98.039"/>
	<rect x="1654.27" y="1155.461" style="fill:#EBF2F9;" width="25" height="98.039"/>
	<rect x="1704.103" y="1155.461" style="fill:#EBF2F9;" width="25" height="98.039"/>
	<rect x="1754.103" y="1155.461" style="fill:#EBF2F9;" width="25" height="98.039"/>
	<rect x="1804.103" y="1155.461" style="fill:#EBF2F9;" width="25" height="98.039"/>
	<rect x="1854.103" y="1155.461" style="fill:#EBF2F9;" width="25" height="98.039"/>
	<rect x="1604.27" y="1285.461" style="fill:#EBF2F9;" width="25" height="98.039"/>
	<rect x="1654.27" y="1285.461" style="fill:#EBF2F9;" width="25" height="98.039"/>
	<rect x="1704.103" y="1285.461" style="fill:#EBF2F9;" width="25" height="98.039"/>
	<rect x="1754.103" y="1285.461" style="fill:#EBF2F9;" width="25" height="98.039"/>
	<rect x="1804.103" y="1285.461" style="fill:#EBF2F9;" width="25" height="98.039"/>
	<rect x="1854.103" y="1285.461" style="fill:#EBF2F9;" width="25" height="98.039"/>
	<rect x="1604.27" y="1416.461" style="fill:#EBF2F9;" width="25" height="98.039"/>
	<rect x="1654.27" y="1416.461" style="fill:#EBF2F9;" width="25" height="98.039"/>
	<rect x="1704.103" y="1416.461" style="fill:#EBF2F9;" width="25" height="98.039"/>
	<rect x="1754.103" y="1416.461" style="fill:#EBF2F9;" width="25" height="98.039"/>
	<rect x="1804.103" y="1416.461" style="fill:#EBF2F9;" width="25" height="98.039"/>
	<rect x="1854.103" y="1416.461" style="fill:#EBF2F9;" width="25" height="98.039"/>
	<rect x="1746.603" y="856.123" style="fill:#4A75CB;" width="123.333" height="147.219"/>
</g>
</svg>