<svg xmlns="http://www.w3.org/2000/svg" xmlns:xlink="http://www.w3.org/1999/xlink" width="451.49pt" height="99.83pt" viewBox="0 0 451.49 99.83" version="1.1">
<defs>
<clipPath id="clip1">
  <path d="M 247 77 L 258 77 L 258 99.828125 L 247 99.828125 Z M 247 77 "/>
</clipPath>
<clipPath id="clip2">
  <path d="M 438 77 L 451.488281 77 L 451.488281 95 L 438 95 Z M 438 77 "/>
</clipPath>
<clipPath id="clip3">
  <path d="M 15 61 L 91 61 L 91 99.828125 L 15 99.828125 Z M 15 61 "/>
</clipPath>
</defs>
<g id="surface1">
<path style=" stroke:none;fill-rule:evenodd;fill:rgb(0%,68.199158%,93.699646%);fill-opacity:1;" d="M 125.636719 94.394531 L 123.28125 94.394531 L 123.28125 77.390625 L 125.636719 77.390625 Z M 124.445313 74.210938 C 125.304688 74.210938 125.734375 74.640625 125.734375 75.496094 C 125.734375 76.339844 125.304688 76.761719 124.445313 76.761719 C 123.605469 76.761719 123.183594 76.339844 123.183594 75.496094 C 123.183594 74.640625 123.605469 74.210938 124.445313 74.210938 "/>
<path style=" stroke:none;fill-rule:evenodd;fill:rgb(0%,68.199158%,93.699646%);fill-opacity:1;" d="M 194.429688 77.390625 L 194.429688 94.394531 L 192.582031 94.394531 C 185.988281 86.492188 182.304688 81.984375 181.523438 80.867188 L 181.476563 80.867188 L 181.476563 94.394531 L 179.53125 94.394531 L 179.53125 77.390625 L 181.28125 77.390625 C 187.890625 85.210938 191.609375 89.730469 192.433594 90.945313 L 192.484375 90.945313 L 192.484375 77.390625 "/>
<g clip-path="url(#clip1)" clip-rule="nonzero">
<path style=" stroke:none;fill-rule:evenodd;fill:rgb(0%,68.199158%,93.699646%);fill-opacity:1;" d="M 257.410156 78.800781 L 256.292969 80.015625 C 255.191406 79.207031 254.210938 78.800781 253.351563 78.800781 C 252.527344 78.800781 251.878906 79.019531 251.40625 79.457031 C 250.9375 79.878906 250.703125 80.429688 250.703125 81.109375 C 250.703125 81.675781 250.972656 82.242188 251.507813 82.808594 C 251.925781 83.261719 252.746094 83.933594 253.960938 84.824219 C 255.191406 85.714844 256.089844 86.550781 256.65625 87.324219 C 257.304688 88.234375 257.628906 89.203125 257.628906 90.238281 C 257.628906 91.535156 257.101563 92.605469 256.050781 93.445313 C 255.011719 94.273438 253.78125 94.683594 252.355469 94.683594 C 250.363281 94.683594 248.765625 94.09375 247.570313 92.910156 L 248.613281 91.503906 C 250.007813 92.492188 251.238281 92.984375 252.308594 92.984375 C 253.183594 92.984375 253.894531 92.75 254.445313 92.28125 C 254.996094 91.796875 255.269531 91.097656 255.269531 90.191406 C 255.269531 89.285156 254.785156 88.394531 253.8125 87.519531 C 252.988281 86.890625 252.160156 86.265625 251.335938 85.652344 C 250.3125 84.890625 249.640625 84.296875 249.316406 83.878906 C 248.671875 83.085938 248.347656 82.160156 248.347656 81.109375 C 248.347656 79.976563 248.816406 79.027344 249.757813 78.265625 C 250.710938 77.488281 251.863281 77.101563 253.207031 77.101563 C 255.003906 77.101563 256.40625 77.667969 257.410156 78.800781 M 253.328125 94.152344 L 252.671875 95.777344 C 253.320313 95.777344 253.878906 95.914063 254.347656 96.191406 C 254.945313 96.546875 255.246094 97.058594 255.246094 97.722656 C 255.246094 98.207031 255.019531 98.636719 254.566406 99.007813 C 253.902344 99.527344 252.859375 99.785156 251.433594 99.785156 C 250.980469 99.785156 250.484375 99.761719 249.949219 99.710938 L 250.484375 98.691406 C 251.179688 98.707031 251.507813 98.71875 251.457031 98.71875 C 252.753906 98.71875 253.402344 98.402344 253.402344 97.769531 C 253.402344 97.136719 252.574219 96.820313 250.921875 96.820313 L 252.0625 94.152344 "/>
</g>
<path style=" stroke:none;fill-rule:evenodd;fill:rgb(0%,68.199158%,93.699646%);fill-opacity:1;" d="M 315.558594 77.390625 L 317.355469 77.390625 L 323.699219 94.394531 L 320.976563 94.394531 L 319.226563 89.390625 L 312.738281 89.390625 L 310.914063 94.394531 L 308.632813 94.394531 Z M 313.394531 87.691406 L 318.667969 87.691406 C 317.597656 84.742188 316.757813 82.152344 316.140625 79.917969 L 316.09375 79.917969 C 315.460938 82.105469 314.5625 84.695313 313.394531 87.691406 "/>
<path style=" stroke:none;fill-rule:evenodd;fill:rgb(0%,68.199158%,93.699646%);fill-opacity:1;" d="M 380.242188 77.390625 L 382.039063 77.390625 L 388.382813 94.394531 L 385.660156 94.394531 L 383.910156 89.390625 L 377.421875 89.390625 L 375.597656 94.394531 L 373.316406 94.394531 Z M 378.078125 87.691406 L 383.351563 87.691406 C 382.28125 84.742188 381.4375 82.152344 380.824219 79.917969 L 380.773438 79.917969 C 380.144531 82.105469 379.242188 84.695313 378.078125 87.691406 "/>
<g clip-path="url(#clip2)" clip-rule="nonzero">
<path style=" stroke:none;fill-rule:evenodd;fill:rgb(0%,68.199158%,93.699646%);fill-opacity:1;" d="M 446.019531 94.394531 L 443.660156 94.394531 L 443.660156 79.09375 L 438.21875 79.09375 L 438.21875 77.390625 L 451.484375 77.390625 L 451.484375 79.09375 L 446.019531 79.09375 "/>
</g>
<path style=" stroke:none;fill-rule:evenodd;fill:rgb(17.999268%,18.798828%,57.299805%);fill-opacity:1;" d="M 173.128906 26.101563 L 173.128906 37.910156 L 170.636719 37.910156 C 169.386719 35.414063 167.648438 33.304688 165.414063 31.574219 C 162.507813 29.398438 159.265625 28.3125 155.679688 28.3125 C 152.460938 28.3125 150.308594 28.886719 149.214844 30.039063 C 147.761719 31.574219 147.035156 34.808594 147.035156 39.734375 L 147.035156 49 C 147.035156 52.644531 147.945313 55.191406 149.761719 56.628906 C 151.214844 57.8125 153.472656 58.40625 156.539063 58.40625 C 160.535156 58.40625 163.964844 57.414063 166.816406 55.429688 C 169.257813 53.667969 170.867188 51.496094 171.648438 48.902344 L 174.0625 48.902344 C 173.386719 52.710938 170.972656 55.652344 166.816406 57.734375 C 162.664063 59.78125 157.445313 60.804688 151.164063 60.804688 C 142.492188 60.804688 135.457031 59.207031 130.058594 56.007813 C 124.65625 52.804688 121.957031 48.535156 121.957031 43.191406 C 121.957031 38.328125 124.683594 34.261719 130.132813 31 C 135.636719 27.734375 142.363281 26.101563 150.308594 26.101563 C 153.109375 26.101563 156.589844 26.535156 160.742188 27.398438 C 160.847656 27.429688 161.46875 27.605469 162.613281 27.925781 C 163.339844 28.117188 163.988281 28.214844 164.558594 28.214844 C 164.921875 28.214844 165.699219 28.007813 166.894531 27.589844 L 171.101563 26.101563 "/>
<path style=" stroke:none;fill-rule:evenodd;fill:rgb(17.999268%,18.798828%,57.299805%);fill-opacity:1;" d="M 229.902344 60.085938 L 176.941406 60.085938 L 176.941406 58.789063 L 182.703125 58.789063 L 182.703125 28.121094 L 176.941406 28.121094 L 176.941406 26.824219 L 229.203125 26.824219 L 229.59375 38.484375 L 227.019531 38.484375 C 225.828125 35.542969 223.957031 33.160156 221.414063 31.335938 C 218.453125 29.191406 215 28.121094 211.054688 28.121094 L 206.304688 28.121094 L 206.304688 42.664063 L 207.628906 42.664063 C 209.289063 42.664063 210.925781 42.199219 212.535156 41.269531 C 214.664063 40.023438 215.882813 38.308594 216.195313 36.132813 L 218.765625 36.132813 L 218.765625 50.773438 L 216.195313 50.773438 C 215.882813 48.46875 214.664063 46.679688 212.535156 45.398438 C 210.925781 44.4375 209.289063 43.957031 207.628906 43.957031 L 206.304688 43.957031 L 206.304688 58.789063 L 211.601563 58.789063 C 218.765625 58.789063 224.21875 55 227.957031 47.414063 L 230.292969 47.414063 "/>
<path style=" stroke:none;fill-rule:evenodd;fill:rgb(17.999268%,18.798828%,57.299805%);fill-opacity:1;" d="M 248.984375 60.085938 L 232.941406 60.085938 L 232.941406 58.789063 L 234.886719 58.789063 C 237.796875 58.789063 239.246094 57.269531 239.246094 54.230469 L 239.246094 30.664063 C 237.949219 29.605469 237.222656 29.03125 237.066406 28.933594 C 236.132813 28.359375 235.144531 28.070313 234.109375 28.070313 L 232.941406 28.070313 L 232.941406 26.824219 L 262.535156 26.824219 L 283.644531 44.628906 L 283.644531 30.519531 C 283.644531 29.847656 283.125 29.285156 282.085938 28.839844 C 281.046875 28.359375 279.800781 28.121094 278.347656 28.121094 L 276.789063 28.121094 L 276.789063 26.824219 L 292.835938 26.824219 L 292.835938 28.121094 L 290.496094 28.121094 C 288.628906 28.121094 287.460938 28.597656 286.992188 29.558594 C 286.679688 30.167969 286.523438 31.625 286.523438 33.925781 L 286.523438 60.085938 L 273.4375 60.085938 L 241.972656 33.398438 L 241.972656 54.230469 C 241.972656 57.269531 243.480469 58.789063 246.492188 58.789063 L 248.984375 58.789063 "/>
<path style=" stroke:none;fill-rule:evenodd;fill:rgb(17.999268%,18.798828%,57.299805%);fill-opacity:1;" d="M 340.265625 28.839844 L 347.585938 26.101563 L 350.546875 26.101563 L 350.546875 37.71875 L 348.367188 37.71875 C 346.546875 35.253906 344.1875 33.15625 341.277344 31.429688 C 337.746094 29.382813 334.085938 28.359375 330.296875 28.359375 C 325.828125 28.359375 322.871094 29.558594 321.414063 31.957031 C 320.636719 33.300781 320.246094 35.671875 320.246094 39.0625 L 320.246094 54.613281 C 320.246094 57.941406 321.730469 59.605469 324.6875 59.605469 C 327.078125 59.605469 328.554688 58.773438 329.128906 57.109375 C 329.335938 56.535156 329.441406 55.109375 329.441406 52.839844 L 329.441406 44.199219 L 324.921875 44.199219 L 324.921875 42.855469 L 356.152344 42.855469 L 356.152344 44.199219 L 351.949219 44.199219 L 351.949219 57.015625 C 348.882813 57.015625 345.898438 57.351563 342.992188 58.023438 C 334.996094 59.878906 328.765625 60.804688 324.296875 60.804688 C 315.628906 60.804688 308.59375 59.253906 303.191406 56.152344 C 297.792969 53.015625 295.089844 48.933594 295.089844 43.910156 C 295.089844 38.117188 298.390625 33.558594 304.984375 30.230469 C 310.488281 27.480469 316.898438 26.101563 324.222656 26.101563 C 330.503906 26.101563 335.851563 27.015625 340.265625 28.839844 "/>
<path style=" stroke:none;fill-rule:evenodd;fill:rgb(17.999268%,18.798828%,57.299805%);fill-opacity:1;" d="M 395.71875 60.085938 L 359.734375 60.085938 L 359.734375 58.789063 L 365.65625 58.789063 L 365.65625 28.121094 L 359.734375 28.121094 L 359.734375 26.824219 L 395.71875 26.824219 L 395.71875 28.121094 L 389.800781 28.121094 L 389.800781 58.789063 L 395.71875 58.789063 Z M 377.960938 15.542969 C 379.621094 15.542969 381.050781 15.910156 382.246094 16.648438 C 383.4375 17.382813 384.035156 18.261719 384.035156 19.289063 C 384.035156 20.3125 383.4375 21.207031 382.246094 21.976563 C 381.050781 22.710938 379.621094 23.078125 377.960938 23.078125 C 376.300781 23.078125 374.871094 22.710938 373.675781 21.976563 C 372.484375 21.207031 371.886719 20.3125 371.886719 19.289063 C 371.886719 18.261719 372.484375 17.382813 373.675781 16.648438 C 374.871094 15.910156 376.300781 15.542969 377.960938 15.542969 "/>
<path style=" stroke:none;fill-rule:evenodd;fill:rgb(17.999268%,18.798828%,57.299805%);fill-opacity:1;" d="M 401.558594 26.824219 L 450.394531 26.824219 L 450.394531 28.3125 L 425.234375 58.789063 L 429.753906 58.789063 C 433.753906 58.789063 437.335938 57.894531 440.503906 56.101563 C 444.085938 54.085938 446.527344 51.175781 447.824219 47.367188 L 450.394531 47.367188 L 449.769531 60.085938 L 399.378906 60.085938 L 399.378906 58.261719 L 424.144531 28.117188 L 421.496094 28.117188 C 416.929688 28.117188 412.929688 29.15625 409.503906 31.238281 C 406.390625 33.128906 404.183594 35.558594 402.882813 38.535156 L 400.625 38.535156 "/>
<path style=" stroke:none;fill-rule:nonzero;fill:rgb(17.999268%,18.798828%,57.299805%);fill-opacity:1;" d="M 38.96875 15.925781 L 52.628906 0.00390625 L 66.851563 15.925781 Z M 107.421875 61.34375 L 38.316406 61.34375 C 38.507813 56.402344 43.300781 45.289063 53.714844 45.289063 C 57.535156 45.289063 63.105469 45.09375 69.757813 55.277344 C 76.566406 50.859375 86.753906 44.492188 86.753906 44.492188 C 80.28125 32.886719 68.253906 24.617188 53.902344 24.617188 C 33.203125 24.617188 16.363281 40.980469 15.894531 61.34375 L 0 61.34375 L 34.730469 20.863281 L 71.265625 20.863281 "/>
<path style=" stroke:none;fill-rule:nonzero;fill:rgb(100%,100%,100%);fill-opacity:1;" d="M 53.714844 45.289063 C 43.300781 45.289063 38.507813 56.402344 38.316406 61.34375 L 15.894531 61.34375 C 16.363281 40.980469 33.203125 24.617188 53.902344 24.617188 C 68.253906 24.617188 80.28125 32.886719 86.753906 44.492188 C 86.753906 44.492188 76.566406 50.859375 69.757813 55.277344 C 63.105469 45.09375 57.535156 45.289063 53.714844 45.289063 "/>
<g clip-path="url(#clip3)" clip-rule="nonzero">
<path style=" stroke:none;fill-rule:nonzero;fill:rgb(0%,68.199158%,93.699646%);fill-opacity:1;" d="M 38.316406 61.34375 L 38.308594 61.644531 C 38.308594 75.769531 50.214844 79.710938 55.148438 79.710938 C 67.6875 79.710938 72.304688 67.175781 72.304688 67.175781 L 90.367188 73.578125 C 84.726563 88.011719 70.789063 99.828125 53.902344 99.828125 C 32.902344 99.828125 15.882813 82.992188 15.882813 62.222656 L 15.894531 61.34375 "/>
</g>
</g>
</svg>