<svg xmlns="http://www.w3.org/2000/svg" id="Layer_2" viewBox="0 0 524.84 200.49"><defs><style>      .cls-1 {        fill: #e51937;      }      .cls-2 {        fill: #006464;      }    </style></defs><g id="Layer_1-2" data-name="Layer_1"><path class="cls-2" d="M129.59,2.53c4.33-.7,8.56-1.95,12.92-2.53,3.98.48,7.52,2.68,11.26,4.01-.25,14.08.38,28.15.21,42.23,1.96-.95,3.92-1.92,5.86-2.92,2.06.88,4.12,1.79,6.17,2.72-.01,2.96-.01,5.92-.01,8.88-1.59-.01-3.18-.02-4.77-.04.01-2.58.02-5.17.04-7.75-3.91,1.39-7.81,2.83-11.72,4.21-.38,20.34-.91,40.67-1.52,60.99-.66-15.38.11-30.79-.49-46.17-.1-5.59-.05-11.17,0-16.75,1.84-1.06,5-1.43,4.6-4.24.06-13.25.42-26.5.33-39.75-2.32-.76-4.64-1.53-6.95-2.31,0,40.43-.78,80.84-.45,121.27-7.26-2.41-14.2-5.65-21.32-8.43.11-19.99-.44-39.97-.25-59.95-4.69.39-9.36.89-14.05,1.25.54,14.63.35,29.28.8,43.92-.07,3.98.24,7.97-.16,11.94-.81,1.83-2.51,3.06-3.84,4.49-.69-21.94-1.1-43.89-1.5-65.84,7.19-1,14.37-2.14,21.59-3.04-.13,16.77-.24,33.54.2,50.31.74.16,2.22.5,2.96.66.06-32.39-.12-64.77.09-97.16Z"></path><path class="cls-2" d="M172.74,23.28c4.56-1.86,9.17-3.62,13.74-5.46,6.44,2.69,12.87,5.39,19.29,8.14-.15,28.06.25,56.13-.28,84.19-.13,23.85.48,47.69.23,71.55-7-4.86-13.84-10.05-21.58-13.7-.36-17.96.61-35.93-.13-53.88.15-19.66-.32-39.3-.28-58.95-.6-10.97.19-21.97-.5-32.93-2.51.98-5.01,1.98-7.5,3-.09,15.81-.42,31.62-.54,47.43-3.08-1.82-2.09-5.58-2.23-8.56-2.07-1.01-4.15-2.03-6.22-3.03.12,17.38.35,34.77.3,52.16-4.64-2.93-9.08-6.14-13.73-9.04-.14-14.98-.02-29.96-.06-44.94,3.77-.92,7.49-2.11,11.33-2.77,2.97,1.03,5.44,3.1,8.18,4.57-.04-12.59.01-25.19-.02-37.78Z"></path><path class="cls-2" d="M232.1,104.73c2.58-1.39,5.61-.69,8.4-.83,93.34.02,186.69.01,280.03,0,1.17.07,2.31.32,3.42.75-15.46.6-30.96.09-46.44.26h-165.04c-26.79-.12-53.59.25-80.37-.18Z"></path><path class="cls-1" d="M61.55,96.27c8.73-.94,16.83,7.3,15.66,16.02-.51,8.5-9.41,14.91-17.67,12.91-7.57-1.38-12.95-9.46-11.3-16.98,1.02-6.43,6.81-11.61,13.31-11.95Z"></path><path class="cls-1" d="M60.09,88.56c-.1,1.82-.22,3.65-.32,5.48.53-.08,1.06-.15,1.6-.18,1.39-.15,2.77-.09,4.11.13-.09-1.9-.17-3.79-.16-5.7,3.25-1.4,6.1-4.36,5.97-8.11.41-4.28-2.87-7.78-6.72-9.05-.59-13.38-1.57-26.77-1.48-40.16-.29,1.44-.62,2.89-.77,4.35-.59,11.92-.9,23.86-1.62,35.78-3.76,1.37-7.12,4.73-6.74,9.01-.18,3.95,2.95,6.74,6.13,8.44Z"></path><path class="cls-1" d="M510.51,111.4c1.99,0,3.97,0,5.97-.01,0,1.92.01,3.85.03,5.77h-6.02c0-1.92.01-3.84.02-5.76Z"></path><path class="cls-1" d="M379.75,115.16h6c0,1.83-.01,3.66,0,5.49-2,.01-4,.01-6,.01-.01-1.83,0-3.67,0-5.5Z"></path><path class="cls-1" d="M388.5,115.16h6.25c0,1.83-.01,3.66,0,5.5h-6.25c-.01-1.84,0-3.67,0-5.5Z"></path><path class="cls-1" d="M233.53,120.38c2.16.02,4.32.03,6.49.04.12,3.83-.55,7.84.73,11.53,1.25,3.03,4.99,3.24,7.79,3.4,4.99.03,10.01.32,14.98-.19,1.74-.04,3.23-1.38,3.45-3.1.59-3.85.18-7.77.27-11.65h6.51c-.12,5.24.23,10.49-.14,15.71-.39,3.88-4.44,5.92-8,5.75-6.97-.03-13.99.38-20.94-.34-4.57-.44-9.27-3.12-10.58-7.77-1.1-4.37-.44-8.92-.56-13.38Z"></path><path class="cls-1" d="M284.45,121.02c6.05-2.51,13.88,1.48,14.42,8.25.13,4.93.53,9.97-.3,14.85-1.38,4.71-6.9,5.47-11.08,5.39,0-1.72.01-3.43.02-5.15,2.14-.5,4.13-1.47,5.63-3.12-3.49,1.15-7.52,1.31-10.63-.89-6.77-4.41-5.92-16.58,1.94-19.33ZM285.89,127.65c-2.29,2.52-1.17,7.97,2.66,8.05,3.65.28,4.72-4.97,2.84-7.42-1-2.03-4.04-2.3-5.5-.63Z"></path><path class="cls-1" d="M326.16,124.97c6-6.59,17.69-6.89,23.74-.26,4.1,4.69,4.56,11.25,4.38,17.2-12.8-.05-25.59.08-38.39-.01-1.56,5.75-7.72,7.93-13.13,7.65-.01-1.79-.01-3.58,0-5.37,2.63-.3,5.85-1.34,6.2-4.43.67-6.41.11-12.9.29-19.34h6.75c.01,5.02-.04,10.04.05,15.06,10.41-.25,20.82.07,31.23-.09-.63-4.06-3.31-8.1-7.56-8.93-3.72-1.06-7.25.99-10.18,3.04-1.12-1.52-2.25-3.02-3.38-4.52Z"></path><path class="cls-1" d="M366.76,120.41h6.5c.1,3.81-.47,7.76.7,11.45,1.18,3.02,4.85,3.33,7.63,3.48,5.31.08,10.64.22,15.94-.06,1.56,0,2.64-1.53,2.76-2.97.44-3.95.14-7.94.21-11.91,2.25,0,4.49.01,6.75.01-.07,5.01.35,10.07-.6,15.02,4.4-.48,9.11.76,13.31-.76,2.22-4.26.55-9.55.99-14.22,2.35-.03,4.7-.04,7.06-.04-.02,5.04.23,10.12-.67,15.11,2.25-.31,6.09.56,6.74-2.45.42-4.2.07-8.44.16-12.65,2.25-.01,4.5-.01,6.76-.01-.06,5.04.27,10.1-.41,15.11,2.25-.32,5.97.55,6.66-2.44.57-4.2.12-8.46.26-12.69,2.24.01,4.49.02,6.74.02-.08,4.27.2,8.55-.13,12.81-.5,4.75-4.8,8.63-9.57,8.65-20.7.09-41.41.06-62.12.02-4.85-.16-10.53-.84-13.55-5.12-3.37-4.78-1.79-10.92-2.12-16.36Z"></path><path class="cls-1" d="M464.75,120.41c2.32,0,4.65-.01,6.99-.01.02,5.01-.01,10.03.03,15.04,3.84-.32,7.83.46,11.58-.62,2.35-4.35.64-9.68,1.16-14.42,2.31,0,4.63,0,6.95-.02.09,5.03.19,10.08-.56,15.07,4.17-.11,8.35-.13,12.53-.01-.75-4.08-.82-8.88,2.24-12.09,5.01-4.81,15.08-3.9,18.09,2.76,1.92,4.44,1.17,10.35-2.79,13.45-2.35,2.02-5.59,2.33-8.55,2.36-13.62.01-27.24.01-40.86,0-1.56,5.74-7.66,7.89-13.06,7.61-.01-1.79,0-3.57.01-5.36,2.49-.35,5.5-1.19,6.05-4.06.46-6.55.05-13.14.19-19.7ZM511.76,126.39c-3.41,2.3-2.84,9.36,1.72,9.84,3.74.54,5.22-4.13,4.29-7.04-.19-2.85-3.74-4.26-6.01-2.8Z"></path><path class="cls-1" d="M251.25,143.91h6v5.75h-6v-5.75Z"></path><path class="cls-1" d="M335.5,143.91h6.25v5.74c-2.09.01-4.17.01-6.25.01-.01-1.92,0-3.84,0-5.75Z"></path><path class="cls-1" d="M476,143.91h6c-.01,1.91-.01,3.83,0,5.75h-6c-.01-1.92,0-3.83,0-5.75Z"></path><path class="cls-1" d="M484.75,143.91h6c-.01,1.92-.01,3.83,0,5.74-2,.01-4.01.01-6,.01-.01-1.92,0-3.84,0-5.75Z"></path><g><path class="cls-1" d="M42.92,127.55c-.91-4.18-1.6-6.49-3.13-8.58-1.81-2.95-4.04-3.89-11.77-3.89h-5.59c-3.27,0-3.55.29-3.55,3.46v16.65h.45c9.54,0,10.1-1.01,11.42-7.86h3.06v20.75h-3.13c-1.25-7.35-1.81-8.5-11.35-8.5h-.45v26.38c0,9.37.91,10.02,10.45,10.74v3.03H0v-3.03c8.29-.65,9.19-1.37,9.19-10.74v-41.15c0-9.3-.91-9.87-8.91-10.45v-3.17h44.66c.14,3.89.63,10.59,1.11,15.85l-3.13.5Z"></path><path class="cls-1" d="M50.36,179.73v-2.81c6.48-.65,7.24-1.3,7.24-8.65v-21.19c0-6.63-.35-7.13-6.48-8.22v-2.52c5.57-.94,10.8-2.16,15.46-4.04v35.96c0,7.28.7,7.86,7.31,8.65v2.81h-23.54Z"></path><path class="cls-1" d="M96.03,139.73c3.81-6.44,8.56-12.72,13.92-12.72,4.2,0,7,3.14,7,6.04,0,2.74-1.56,5.15-4.04,6.36-1.4.56-2.41.32-3.11-.32-1.79-1.69-3.11-2.41-5.06-2.41-2.96,0-6.46,3.46-8.94,9.74v21c0,7.73.54,8.45,9.57,9.17v3.14h-27.61v-3.14c7-.72,8.01-1.45,8.01-9.17v-24.38c0-7.48-.62-7.97-7.08-8.93v-2.66c5.76-.97,11.2-2.33,17.11-4.83v13.12h.23Z"></path><path class="cls-1" d="M149.52,141.64c-2.31-7.09-6.45-12.12-12.27-12.12-4.3,0-7.33,3.3-7.33,7.99,0,4.95,4.46,7.83,9.8,9.97,9,3.71,15.13,8.08,15.13,16.57,0,11.29-10.04,16.9-19.83,16.9-6.13,0-11.71-2.23-13.7-3.96-.8-1.57-1.91-10.06-2.07-14.84l3.27-.49c2.23,8.08,7.57,15.25,14.58,15.25,4.3,0,8.12-3.38,8.12-8.16s-3.11-7.67-9.16-10.47c-6.85-3.21-15.05-7.34-15.05-16.9,0-8.57,7.17-15.82,18.32-15.82,5.1,0,8.28,1.07,10.67,2.14,1.04,2.64,2.47,10.06,2.71,12.94l-3.19.99Z"></path><path class="cls-1" d="M179.51,179.51c-1.88,1.08-3.48,1.44-4.39,1.44-6.9,0-10.73-4.04-10.73-12.54v-30.27h-7.03l-.49-1.23,2.86-3.17h4.67v-7.64l7.59-7.35,1.39.29v14.7h11.56c1.04,1.15.7,3.46-.7,4.4h-10.86v26.59c0,8.5,3.55,9.94,6.13,9.94,2.44,0,4.74-1.01,6.27-1.8l.91,2.88-7.17,3.75Z"></path></g><g><path class="cls-1" d="M116.83,190.88c-1.14.18-1.2.27-1.2,1.4v1.56c0,.65.01,1.25.13,1.72-1.21.28-2.85.73-4.44.73-4.34,0-7.25-2.56-7.25-6.28,0-4.29,3.62-6.43,7.5-6.43,1.66,0,3.2.42,3.85.56.05.65.14,1.68.29,3.01l-.56.13c-.46-2.32-1.97-3.01-3.88-3.01-2.92,0-5.09,2.09-5.09,5.5,0,2.69,1.63,5.83,5.37,5.83.63,0,1.24-.13,1.65-.33.41-.22.64-.48.64-1.2v-1.53c0-1.38-.11-1.51-2.05-1.66v-.54h5.04v.54Z"></path><path class="cls-1" d="M120.72,189.66c.63-1.02,1.4-2.02,2.28-2.02.69,0,1.15.5,1.15.96,0,.43-.26.82-.66,1.01-.23.09-.4.05-.51-.05-.29-.27-.51-.38-.83-.38-.48,0-1.06.55-1.47,1.54v3.33c0,1.23.09,1.34,1.57,1.45v.5h-4.53v-.5c1.15-.11,1.31-.23,1.31-1.45v-3.87c0-1.19-.1-1.26-1.16-1.42v-.42c.94-.15,1.84-.37,2.81-.77v2.08h.04Z"></path><path class="cls-1" d="M129.06,187.64c2.42,0,4.21,1.88,4.21,4.13,0,3.01-2.3,4.44-4.22,4.44-2.72,0-4.3-2.04-4.3-4.1,0-3.05,2.5-4.48,4.3-4.48h.01ZM128.81,188.27c-1.1,0-2.12,1.11-2.12,3.22,0,2.36,1.02,4.08,2.55,4.08,1.1,0,2.08-.74,2.08-3.36,0-2.23-.89-3.94-2.49-3.94h-.03Z"></path><path class="cls-1" d="M143.77,195.55c-.43.05-.97.17-1.49.29-.52.14-1.03.27-1.43.37l-.13-.1v-1.33c-.43.32-.8.64-1.34.96-.56.31-.97.47-1.51.47-1.33,0-2.4-.79-2.4-2.79v-3.56c0-1.02-.15-1.11-.64-1.23l-.51-.13v-.45c.38-.01.89-.08,1.43-.13.54-.06,1.1-.15,1.43-.2-.05.57-.05,1.47-.05,2.71v2.51c0,1.56.79,2.04,1.63,2.04.66,0,1.34-.26,1.95-.83v-4.3c0-1.02-.17-1.14-.78-1.24l-.68-.11v-.45c.54-.01,1.21-.08,1.79-.15.56-.04,1.02-.13,1.31-.18v6.15c0,.97.15,1.1.89,1.15l.51.03v.5Z"></path><path class="cls-1" d="M148.85,187.95c.37-.22.74-.31.98-.31,2.14,0,3.41,1.67,3.41,3.55,0,2.77-2.28,4.57-4.73,5.03-.56-.01-1.07-.18-1.34-.31v2.46c0,1.37.14,1.48,1.61,1.61v.51h-4.64v-.51c1.23-.11,1.39-.24,1.39-1.45v-8.42c0-1.17-.1-1.23-1.24-1.38v-.46c.8-.13,1.93-.46,2.88-.82v1.48l1.68-.98ZM147.17,194.57c.42.41,1.15.73,1.77.73,1.58,0,2.56-1.42,2.56-3.37s-1.2-3.13-2.53-3.13c-.57,0-1.31.4-1.81.77v5Z"></path></g><g><path class="cls-2" d="M251.67,179.14h-12.35c-.6,0-1.09,0-1.49-.01-.39,0-.69-.02-.88-.04-.37-.04-.79-.14-1.25-.31-.81-.28-1.48-.83-1.99-1.68-.52-.84-.78-1.79-.78-2.83,0-.41.03-.83.08-1.27.05-.43.16-.89.33-1.38.2-.59.43-1.12.7-1.58.27-.47.55-.91.83-1.33l.82.53c-.22.39-.4.75-.54,1.08-.14.32-.25.6-.33.82-.15.46-.22.91-.22,1.34,0,.56.18,1.06.53,1.52.37.45.84.74,1.41.87.34.09.79.16,1.34.21.55.05,1.13.07,1.75.07h10.64c-.28-.78-.51-1.3-.68-1.59-.22-.38-.55-.86-1-1.43l1.32-3.41c.74,1.05,1.22,2.01,1.44,2.88.2.79.29,1.91.29,3.38v4.17ZM246.48,165.17l-1.53,2.86-2.18-1.09-1.24,2.38-2.68-1.5,1.62-3,2.09,1.18,1.18-2.33,2.74,1.5Z"></path><path class="cls-2" d="M265.86,163.5c0,.69-.07,1.38-.21,2.08-.06.29-.2.83-.41,1.6l-1.06-.41c0,1.16-.14,2.31-.41,3.46-.28,1.15-.72,2.28-1.33,3.4.54.97.85,1.54.94,1.71.24.45.35.86.35,1.22v.46c0,.25-.08,1.25-.24,3-1.12.53-2.12.87-2.99,1.03-.88.16-2.19.24-3.92.24v-4.36c.99-.51,1.7-.94,2.13-1.29s.98-.95,1.67-1.8c-1.12-1.41-1.93-2.41-2.44-2.99-.41-.47-.94-1.02-1.59-1.63-.16.32-.27.54-.35.64-.07.1-.15.15-.21.15-.24,0-.68-.2-1.32-.6-.58-.36-1.03-.69-1.34-.97-.31-.29-.55-.82-.71-1.6-.16-.78-.24-1.77-.24-2.98,0-.53.03-.9.1-1.1.06-.21.2-.31.4-.31.38,0,1.16.55,2.33,1.65,1,.94,1.89,1.88,2.68,2.83.62.68,1.18,1.35,1.68,2.03.45.6,1.16,1.63,2.12,3.09.44-.83.75-1.9.91-3.19.1-.79.15-1.72.15-2.81-.35-.17-.59-.33-.72-.49s-.19-.38-.19-.66c0-.59.06-1.19.19-1.79s.34-1.25.63-1.91l.62.21c0,.63.15,1.05.44,1.25.24.17,1.02.46,2.36.87ZM262.01,176.3l-.71-1.09c-.43.48-.76.82-.99,1.02-.23.2-.64.51-1.21.92.75-.08,1.28-.16,1.6-.26.32-.09.76-.29,1.32-.6Z"></path><path class="cls-2" d="M279.93,178.12c0,1.69-.72,3.36-2.15,5-1.43,1.65-2.85,2.47-4.24,2.47-.81,0-1.71-.26-2.67-.78-.97-.52-2.45-1.55-4.45-3.08l.62-.85c1.06.71,1.93,1.18,2.6,1.41.56.2,1.19.29,1.9.29.95,0,1.89-.26,2.83-.79,1.1-.63,2.24-1.64,3.42-3.03-.41.06-.76.09-1.03.09-.97,0-1.74-.32-2.32-.95-.57-.63-.86-1.49-.86-2.58,0-1.47.34-2.89,1.02-4.25.74-1.48,1.58-2.22,2.52-2.22.79,0,1.45.53,2,1.6.55,1.07.82,2.36.82,3.87v3.8ZM278.17,175.14c-.27-1.58-.83-2.37-1.68-2.37-.3,0-.55.12-.73.36s-.27.5-.27.79c0,.35.19.65.58.88.39.23.9.35,1.54.35h.56Z"></path><path class="cls-2" d="M287,179.14h-2.06c-1.15,0-1.98-.47-2.49-1.41-.57-1.04-.85-2.79-.85-5.25v-4.19c0-.95-.13-1.69-.4-2.22-.13-.25-.42-.62-.88-1.1l1.59-3.68c.57.79.97,1.56,1.19,2.33.27.89.4,2.03.4,3.42v2.9c0,2.05.14,3.47.41,4.27.22.64.56.96,1.03.96h2.06v4Z"></path><path class="cls-2" d="M292.97,179.14h-7.01v-4h7.01v4Z"></path><path class="cls-2" d="M298.95,179.14h-7.01v-4h7.01v4Z"></path><path class="cls-2" d="M308.72,179.14h-10.8v-4h2.65c.45,0,.88.02,1.28.06,1.08.12,2.31.25,3.69.4-1.46-.32-2.49-.75-3.07-1.29-.58-.53-.88-1.31-.88-2.33,0-1.52.35-2.89,1.05-4.11s1.49-1.83,2.36-1.83c.99,0,1.86.86,2.6,2.57.74,1.71,1.11,3.78,1.11,6.2v4.34ZM306.9,161.44l-1.53,2.86-2.18-1.09-1.24,2.38-2.68-1.5,1.62-3,2.09,1.18,1.18-2.33,2.74,1.5ZM306.72,173.03c-.35-.84-.75-1.5-1.18-1.97-.43-.47-.86-.71-1.29-.71-.2,0-.37.06-.52.19-.15.13-.22.28-.22.46,0,.42.32.83.95,1.23.63.4,1.39.67,2.26.8Z"></path><path class="cls-2" d="M321.23,179.13c-1.03,0-2.24-.2-3.64-.6-1.23-.35-2.31-.77-3.24-1.25-.57.85-1.27,1.41-2.11,1.68-.4.13-.95.19-1.65.19h-2.91v-4h2.91c.88,0,1.58-.11,2.11-.32.67-.27,1.13-.75,1.38-1.43.56-1.25,1.28-2.27,2.15-3.08.78-.72,1.43-1.08,1.97-1.08.5,0,1.12.76,1.85,2.27.77,1.6,1.16,3.07,1.16,4.42v3.21ZM318.48,174.68c0-.22-.21-.59-.63-1.12-.47-.59-.88-.88-1.22-.88-.38,0-.71.44-.97,1.33.51.2.9.34,1.16.44.79.29,1.24.44,1.34.44.21,0,.32-.07.32-.21Z"></path><path class="cls-2" d="M328.3,179.14h-8.1v-4h6.33l-1.78-9.99-.94-.62c0-.58.09-1.16.26-1.75.23-.75.61-1.63,1.15-2.66l.68.35c0,.06-.02.22-.06.47,0,.32.21.64.62.94.36.27.94.58,1.74.91-.09.63-.22,1.24-.39,1.84-.17.6-.37,1.13-.58,1.6l-.53-.21,1.6,9.11v4Z"></path><path class="cls-2" d="M333.74,174.86c0,.87-.1,1.67-.31,2.39-.21.72-.6,1.69-1.19,2.91l-.88-.35c.24-1.26.35-2.28.35-3.06,0-.6-.05-1.48-.15-2.63-.1-1.16-.22-2.3-.37-3.44-.15-1.13-.39-2.49-.72-4.05-.12-.55-.18-.93-.18-1.13,0-.3.15-.82.46-1.55.3-.73.73-1.62,1.28-2.66l.88,5.21c.32,1.98.55,3.7.68,5.15.1,1.12.15,2.19.15,3.22Z"></path><path class="cls-2" d="M356.81,178.12c0,1.69-.72,3.36-2.15,5-1.43,1.65-2.85,2.47-4.24,2.47-.81,0-1.71-.26-2.67-.78-.97-.52-2.45-1.55-4.45-3.08l.62-.85c1.06.71,1.93,1.18,2.61,1.41.56.2,1.19.29,1.9.29.95,0,1.89-.26,2.83-.79,1.1-.63,2.24-1.64,3.41-3.03-.41.06-.76.09-1.03.09-.97,0-1.74-.32-2.32-.95s-.86-1.49-.86-2.58c0-1.47.34-2.89,1.02-4.25.74-1.48,1.57-2.22,2.52-2.22.79,0,1.45.53,2,1.6.55,1.07.82,2.36.82,3.87v3.8ZM355.04,175.14c-.27-1.58-.83-2.37-1.68-2.37-.3,0-.55.12-.73.36s-.27.5-.27.79c0,.35.19.65.58.88.39.23.9.35,1.54.35h.56Z"></path><path class="cls-2" d="M377.69,179.14h-1.93c-.35,0-.68-.07-.97-.22-.57-.28-1.05-.8-1.44-1.56-.53-1.04-.87-2.46-1.03-4.27-.67.82-1.19,1.41-1.56,1.75-.54.5-.99.75-1.35.75-.19,0-.42-.03-.71-.09l-1.79-.35c-.77-.16-1.24-.27-1.41-.34-.18-.07-.26-.19-.26-.37,0-.27.34-1.1,1.02-2.51s1.17-2.28,1.48-2.61c.25-.26.68-.61,1.31-1.03.37-.25.9-.58,1.59-.99l.78-.46c-.03-.14-.05-.28-.07-.42-.02-.14-.02-.28-.02-.4,0-.37.09-.84.26-1.41.17-.56.48-1.26.92-2.1l1.41,9.18c.22,1.44.52,2.42.88,2.93.24.33.56.5.97.5h1.93v4ZM374.29,158.51l-1.62,2.74-2.09-1.18-1.18,2.33-2.74-1.5,1.53-2.59,2.18,1.09,1.28-2.25,2.63,1.37ZM371.96,170.82l-.29-1.77c-.31.15-.56.26-.74.35-.54.29-.97.55-1.3.79-.24.2-.43.38-.59.54-.2.22-.29.38-.29.49,0,.14.17.25.51.32.34.08.68.12,1.02.12.22,0,.44-.06.68-.18.23-.12.57-.35,1-.67Z"></path><path class="cls-2" d="M383.67,179.14h-7.01v-4h7.01v4Z"></path><path class="cls-2" d="M389.64,179.14h-7.01v-4h7.01v4Z"></path><path class="cls-2" d="M402.15,179.13c-1.03,0-2.24-.2-3.64-.6-1.23-.35-2.31-.77-3.24-1.25-.57.85-1.27,1.41-2.1,1.68-.4.13-.95.19-1.65.19h-2.91v-4h2.91c.88,0,1.58-.11,2.1-.32.67-.27,1.13-.75,1.38-1.43.56-1.25,1.28-2.27,2.15-3.08.78-.72,1.43-1.08,1.97-1.08.5,0,1.12.76,1.85,2.27.78,1.6,1.16,3.07,1.16,4.42v3.21ZM399.4,174.68c0-.22-.21-.59-.63-1.12-.47-.59-.88-.88-1.22-.88-.38,0-.71.44-.97,1.33.51.2.9.34,1.16.44.79.29,1.24.44,1.34.44.22,0,.32-.07.32-.21Z"></path><path class="cls-2" d="M409.22,179.14h-2.06c-1.15,0-1.98-.47-2.49-1.41-.57-1.04-.85-2.79-.85-5.25v-4.19c0-.95-.13-1.69-.4-2.22-.13-.25-.42-.62-.88-1.1l1.59-3.68c.57.79.97,1.56,1.19,2.33.26.89.4,2.03.4,3.42v2.9c0,2.05.14,3.47.41,4.27.22.64.56.96,1.03.96h2.06v4Z"></path><path class="cls-2" d="M420.08,179.14h-2.18c-.78,0-1.46-.16-2.05-.47-.59-.31-1.06-.82-1.43-1.52-.64.79-1.47,1.34-2.49,1.66-.68.22-1.41.32-2.21.32h-1.55v-4h1.55c.81,0,1.39-.04,1.71-.12s.77-.27,1.33-.57c-.29-.58-.55-1-.76-1.25-.26-.3-.54-.46-.82-.46-.11,0-.21.04-.3.11-.09.07-.2.21-.32.42l-.65-.09c0-1.78.31-3.04.92-3.8.61-.76,1.58-1.14,2.91-1.14s2.44.27,3.21.8c.78.54,1.17,1.27,1.17,2.2,0,.5-.1.98-.31,1.44-.21.46-.59,1.08-1.16,1.86.14.19.32.33.56.44.24.11.46.16.68.16h2.18v4Z"></path><path class="cls-2" d="M427.14,179.14h-8.09v-4h6.33l-1.78-9.99-.94-.62c0-.58.09-1.16.26-1.75.23-.75.61-1.63,1.15-2.66l.68.35c0,.06-.02.22-.06.47,0,.32.21.64.62.94.36.27.94.58,1.74.91-.09.63-.22,1.24-.39,1.84-.17.6-.37,1.13-.58,1.6l-.53-.21,1.6,9.11v4Z"></path><path class="cls-2" d="M432.59,174.86c0,.87-.1,1.67-.31,2.39-.21.72-.6,1.69-1.19,2.91l-.88-.35c.24-1.26.35-2.28.35-3.06,0-.6-.05-1.48-.15-2.63-.1-1.16-.22-2.3-.37-3.44-.15-1.13-.39-2.49-.72-4.05-.12-.55-.18-.93-.18-1.13,0-.3.15-.82.46-1.55.3-.73.73-1.62,1.28-2.66l.88,5.21c.32,1.98.55,3.7.68,5.15.1,1.12.15,2.19.15,3.22Z"></path><path class="cls-2" d="M450.47,161.95l-1.62,3-2.09-1.18-1.18,2.33-2.74-1.5,1.53-2.86,2.18,1.09,1.24-2.38,2.68,1.5ZM451.21,173.62c0,.59-.05,1.18-.14,1.79s-.21,1.1-.36,1.48c-.27.75-.95,1.4-2.03,1.97-1,.53-1.94.79-2.83.79-.77,0-1.38-.26-1.83-.79s-.68-1.24-.68-2.12c0-.8.11-1.59.35-2.37.23-.77.64-1.75,1.24-2.93l-.53-.35c.17-.45.39-1,.68-1.64.28-.64.54-1.18.77-1.63l1.44.85c.63.38,1.23.79,1.8,1.24.8.61,1.36,1.18,1.66,1.71.3.53.46,1.2.46,1.99ZM449.03,174.8c0-.19-.34-.57-1.02-1.16-.68-.59-1.35-1.09-2.01-1.52-.63.99-.94,1.82-.94,2.47,0,.31.13.58.39.81.26.23.57.34.93.34.49,0,1.05-.12,1.69-.35s.96-.43.96-.6Z"></path><path class="cls-2" d="M465.42,179.48c0,.6-.34,1.39-1.03,2.38s-1.49,1.84-2.41,2.57c-1.02.8-1.89,1.21-2.62,1.21-.86,0-1.79-.25-2.78-.74-.86-.42-2.21-1.27-4.05-2.53l.62-.91c.88.59,1.6.99,2.13,1.19s1.12.31,1.75.31c.68,0,1.35-.19,2.03-.57.68-.38,1.6-1.09,2.77-2.13,1.63-1.45,2.44-2.57,2.44-3.36,0-.39-.16-.91-.47-1.54-.35-.73-.79-1.33-1.29-1.81l.82-3.97c.67.69,1.18,1.48,1.54,2.37.36.89.54,1.91.54,3.05v4.5Z"></path><path class="cls-2" d="M472.49,179.14h-2.06c-1.15,0-1.98-.47-2.49-1.41-.57-1.04-.85-2.79-.85-5.25v-4.19c0-.95-.13-1.69-.4-2.22-.13-.25-.42-.62-.88-1.1l1.59-3.68c.57.79.97,1.56,1.19,2.33.27.89.4,2.03.4,3.42v2.9c0,2.05.14,3.47.41,4.27.22.64.56.96,1.03.96h2.06v4Z"></path><path class="cls-2" d="M478.46,179.14h-7.01v-4h7.01v4Z"></path><path class="cls-2" d="M484.44,179.14h-7.01v-4h7.01v4Z"></path><path class="cls-2" d="M500.22,179.14h-16.81v-4h10.46c-1.19-1.23-2.29-2.11-3.3-2.65-.89-.48-1.77-.72-2.62-.72-.26,0-.49.01-.7.04-.21.03-.52.08-.92.17.54-1.24,1.14-2.15,1.8-2.74.66-.59,1.42-.88,2.26-.88.65,0,1.27.16,1.87.47.6.31,1.27.82,2.02,1.52.59.55,1.42,1.41,2.5,2.58.74.82,1.3,1.36,1.69,1.6.39.25.97.45,1.74.62v4ZM494.74,182.35l-1.77,3.3-3.45-1.8,1.78-3.33,3.43,1.83Z"></path><path class="cls-2" d="M508.4,179.14h-9.21v-4h7.74c-.11-.67-.3-1.23-.59-1.69-.15-.25-.49-.7-1.03-1.33l1.18-3.5c.74.83,1.24,1.71,1.51,2.62.27.91.4,2.27.4,4.06v3.84ZM508.17,163.41l-1.53,2.86-2.18-1.09-1.24,2.38-2.68-1.5,1.62-3,2.09,1.18,1.18-2.33,2.74,1.5Z"></path><path class="cls-2" d="M515.46,179.14h-8.09v-4h6.33l-1.78-9.99-.94-.62c0-.58.09-1.16.26-1.75.23-.75.61-1.63,1.15-2.66l.68.35c0,.06-.02.22-.06.47,0,.32.21.64.62.94.36.27.94.58,1.74.91-.09.63-.22,1.24-.39,1.84-.17.6-.37,1.13-.58,1.6l-.53-.21,1.6,9.11v4Z"></path><path class="cls-2" d="M522.53,179.14h-8.09v-4h6.33l-1.78-9.99-.94-.62c0-.58.09-1.16.26-1.75.23-.75.61-1.63,1.15-2.66l.68.35c0,.06-.02.22-.06.47,0,.32.21.64.62.94.36.27.94.58,1.74.91-.09.63-.22,1.24-.39,1.84s-.37,1.13-.58,1.6l-.53-.21,1.6,9.11v4Z"></path></g><path class="cls-1" d="M243.25,66.43h-8.79V29.14h23.86v6.27h-15.07v9.3h10.98v6.24h-10.98v15.47Z"></path><path class="cls-1" d="M262.73,66.43V29.16h8.51v37.27h-8.51Z"></path><path class="cls-1" d="M287.27,51.16l-.05,15.27h-8.45s-.04-37.27-.04-37.27h10.37c4.94,0,8.55.43,10.92,2.26,2.37,1.84,3.61,5.12,3.61,8.86,0,2.18-.59,4.13-1.77,5.83s-1.49,3.11-3.64,4.07c4.36,9.42,6.42,13.9,7.49,16.22l-9.54.06-5.99-14.59-2.91-.72ZM287.26,46.04l1.84-.12c2.44,0,3.37-.4,4.32-1.46,1.05-1.18,1.36-2.16,1.59-3.83s-.79-4.03-1.38-4.53c-1.24-1.05-2.32-1.3-4.4-1.57l-1.98-.25v11.76Z"></path><path class="cls-1" d="M331.61,56.1c0,3.39-1.22,6.06-3.66,8.01s-5.83,2.93-10.18,2.93c-4,0-7.55-.75-10.63-2.26v-7.39c2.53,1.13,4.68,1.92,6.43,2.39,1.75.46,3.36.69,4.81.69,1.75,0,3.08-.33,4.02-1,.93-.67,1.4-1.66,1.4-2.98,0-.74-.21-1.39-.62-1.96s-1.01-1.12-1.81-1.66c-.8-.53-2.42-1.38-4.86-2.54-2.29-1.08-4.01-2.11-5.16-3.11-1.15-.99-2.06-2.15-2.75-3.46-.68-1.32-1.03-2.86-1.03-4.62,0-3.32,1.12-5.93,3.38-7.83s5.36-2.85,9.33-2.85c1.95,0,3.81.23,5.58.69,1.77.46,3.62,1.11,5.56,1.95l-2.57,6.19c-2-.82-3.66-1.39-4.97-1.72-1.31-.32-2.6-.49-3.86-.49-1.51,0-2.66.35-3.47,1.05-.8.7-1.21,1.62-1.21,2.75,0,.7.16,1.31.49,1.83.32.52.84,1.03,1.55,1.51.71.49,2.39,1.36,5.04,2.63,3.51,1.68,5.91,3.36,7.21,5.04,1.3,1.69,1.95,3.75,1.95,6.2Z"></path><path class="cls-1" d="M349.4,66.47h-8.46v-31.55h-8.45v-5.59h25.02v5.59h-8.11v31.55Z"></path><path class="cls-1" d="M385.41,44.77h14.37v19.46c-2.33.79-4.52,1.34-6.58,1.66s-4.16.47-6.31.47c-5.47,0-9.64-1.66-12.52-4.99-2.88-3.33-4.32-8.11-4.32-14.33s1.67-10.78,5.02-14.17c3.34-3.39,7.98-5.08,13.91-5.08,3.72,0,7.3.77,10.75,2.31l-2.55,6.37c-2.64-1.37-5.39-2.05-8.25-2.05-3.32,0-5.98,1.15-7.98,3.46-2,2.31-3,5.42-3,9.32s.81,7.18,2.42,9.33c1.61,2.15,3.95,3.22,7.02,3.22,1.6,0,3.23-.17,4.88-.51v-7.83h-6.86v-6.62Z"></path><path class="cls-1" d="M411.95,52.15v14.4h-7.32V29.02h10.06c4.69,0,8.16.93,10.41,2.78,2.25,1.86,3.38,4.68,3.38,8.46,0,2.21-.56,4.17-1.68,5.89s-2.7,3.07-4.74,4.04c5.19,8.44,8.58,13.89,10.15,16.35h-8.12l-8.24-14.4h-3.89ZM411.95,45.68h2.36c2.31,0,4.02-.42,5.12-1.26,1.1-.84,1.65-2.16,1.65-3.95s-.56-3.05-1.69-3.8c-1.13-.75-2.87-1.13-5.23-1.13h-2.22v10.14Z"></path><path class="cls-1" d="M462.35,47.32c0,6.21-1.27,10.99-3.81,14.32-2.54,3.34-6.18,5-10.93,5s-8.39-1.67-10.93-5c-2.54-3.34-3.81-8.13-3.81-14.37s1.27-11.02,3.82-14.31c2.55-3.29,6.2-4.94,10.96-4.94s8.4,1.66,10.92,4.98c2.52,3.32,3.78,8.09,3.78,14.32ZM439.76,47.32c0,4.19.66,7.35,1.97,9.47,1.31,2.12,3.28,3.18,5.89,3.18,5.24,0,7.86-4.22,7.86-12.65s-2.6-12.68-7.81-12.68c-2.61,0-4.58,1.06-5.91,3.2-1.33,2.13-1.99,5.29-1.99,9.48Z"></path><path class="cls-1" d="M493.56,29.07v24.28c0,2.77-.51,5.2-1.54,7.29-1.02,2.09-2.5,3.69-4.44,4.8-1.93,1.11-4.22,1.67-6.86,1.67-3.98,0-7.07-1.24-9.28-3.71-2.2-2.47-3.3-5.86-3.3-10.15v-24.18h6.54v22.97c0,2.89.48,5.01,1.44,6.37s2.55,2.03,4.76,2.03,3.7-.68,4.67-2.04c.97-1.36,1.45-3.5,1.45-6.4v-22.92h6.54Z"></path><path class="cls-1" d="M524.84,40.69c0,4.04-1.22,7.13-3.67,9.27-2.44,2.14-5.92,3.21-10.43,3.21h-3.31v13.35h-7.71V28.98h11.61c4.41,0,7.76.98,10.06,2.94,2.3,1.96,3.44,4.88,3.44,8.77ZM507.44,46.64h2.54c2.37,0,4.14-.48,5.32-1.45,1.18-.97,1.77-2.37,1.77-4.22s-.49-3.24-1.48-4.13c-.99-.89-2.53-1.33-4.64-1.33h-3.51v11.14Z"></path><g><path class="cls-2" d="M235.67,89.67h-2.58v-12.35h7.08v2.14h-4.5v3.18h4.19v2.14h-4.19v4.88Z"></path><path class="cls-2" d="M250.97,84.93c0,1.54-.41,2.74-1.22,3.61-.81.87-1.94,1.3-3.39,1.3-.91,0-1.71-.2-2.4-.6-.69-.4-1.22-.97-1.6-1.71s-.56-1.61-.56-2.6c0-1.54.4-2.74,1.21-3.6.81-.86,1.94-1.28,3.4-1.28.91,0,1.71.2,2.4.59.69.39,1.22.96,1.6,1.7.37.74.56,1.6.56,2.59ZM244.44,84.93c0,.93.15,1.64.46,2.12.31.48.81.72,1.5.72s1.18-.24,1.48-.71.45-1.18.45-2.12-.15-1.63-.46-2.1c-.3-.47-.8-.7-1.5-.7s-1.18.23-1.49.7c-.3.46-.46,1.17-.46,2.11Z"></path><path class="cls-2" d="M258.37,80.05c.35,0,.64.03.87.08l-.19,2.42c-.21-.06-.46-.08-.76-.08-.82,0-1.46.21-1.92.63s-.69,1.01-.69,1.77v4.81h-2.58v-9.44h1.95l.38,1.59h.13c.29-.53.69-.96,1.19-1.28.5-.32,1.04-.49,1.63-.49Z"></path><path class="cls-2" d="M270.33,82.73h4.9v6.4c-.79.26-1.54.44-2.24.54-.7.1-1.42.16-2.15.16-1.86,0-3.29-.55-4.27-1.64-.98-1.1-1.47-2.67-1.47-4.72s.57-3.55,1.71-4.66c1.14-1.11,2.72-1.67,4.74-1.67,1.27,0,2.49.25,3.67.76l-.87,2.09c-.9-.45-1.84-.68-2.81-.68-1.13,0-2.04.38-2.72,1.14-.68.76-1.02,1.78-1.02,3.07s.28,2.36.82,3.07c.55.71,1.35,1.06,2.39,1.06.55,0,1.1-.06,1.66-.17v-2.58h-2.34v-2.18Z"></path><path class="cls-2" d="M282.24,89.84c-1.52,0-2.71-.42-3.56-1.26-.86-.84-1.28-2.03-1.28-3.56s.4-2.81,1.19-3.67,1.88-1.3,3.28-1.3,2.37.38,3.12,1.14c.74.76,1.11,1.81,1.11,3.15v1.25h-6.09c.03.73.24,1.3.65,1.71.41.41.97.62,1.71.62.57,0,1.11-.06,1.61-.18.51-.12,1.04-.31,1.59-.57v1.99c-.45.22-.93.39-1.44.5s-1.14.17-1.88.17ZM281.88,81.88c-.55,0-.97.17-1.28.52-.31.35-.49.84-.53,1.47h3.61c-.01-.64-.18-1.13-.5-1.47-.32-.35-.75-.52-1.3-.52Z"></path><path class="cls-2" d="M296.9,89.67h-2.58v-5.51c0-.68-.12-1.19-.36-1.53s-.63-.51-1.16-.51c-.72,0-1.24.24-1.56.72-.32.48-.48,1.28-.48,2.39v4.44h-2.58v-9.44h1.97l.35,1.21h.14c.29-.46.68-.8,1.19-1.03s1.08-.35,1.72-.35c1.1,0,1.93.3,2.5.89.57.59.85,1.45.85,2.57v6.16Z"></path><path class="cls-2" d="M303.83,89.84c-1.52,0-2.71-.42-3.56-1.26-.86-.84-1.28-2.03-1.28-3.56s.4-2.81,1.19-3.67,1.88-1.3,3.28-1.3,2.37.38,3.12,1.14c.74.76,1.11,1.81,1.11,3.15v1.25h-6.09c.03.73.24,1.3.65,1.71.41.41.97.62,1.71.62.57,0,1.11-.06,1.61-.18.51-.12,1.04-.31,1.59-.57v1.99c-.45.22-.93.39-1.44.5s-1.14.17-1.88.17ZM303.46,81.88c-.55,0-.97.17-1.28.52-.31.35-.49.84-.53,1.47h3.61c-.01-.64-.18-1.13-.5-1.47-.32-.35-.75-.52-1.3-.52Z"></path><path class="cls-2" d="M315.04,80.05c.35,0,.64.03.87.08l-.19,2.42c-.21-.06-.46-.08-.76-.08-.82,0-1.46.21-1.92.63s-.69,1.01-.69,1.77v4.81h-2.58v-9.44h1.95l.38,1.59h.13c.29-.53.69-.96,1.19-1.28.5-.32,1.04-.49,1.63-.49Z"></path><path class="cls-2" d="M323.28,89.67l-.5-1.28h-.07c-.43.55-.88.92-1.34,1.14-.46.21-1.06.32-1.79.32-.91,0-1.62-.26-2.14-.78-.52-.52-.78-1.25-.78-2.21s.35-1.74,1.05-2.22c.7-.48,1.76-.74,3.17-.79l1.64-.05v-.41c0-.96-.49-1.44-1.47-1.44-.75,0-1.64.23-2.66.68l-.85-1.74c1.09-.57,2.29-.85,3.62-.85s2.24.28,2.91.83c.67.55,1.01,1.39,1.01,2.52v6.29h-1.8ZM322.52,85.29l-1,.03c-.75.02-1.31.16-1.67.41-.37.25-.55.62-.55,1.13,0,.73.42,1.09,1.25,1.09.6,0,1.07-.17,1.43-.51.36-.34.54-.8.54-1.37v-.78Z"></path><path class="cls-2" d="M330.3,89.67h-2.58v-13.14h2.58v13.14Z"></path><path class="cls-2" d="M342.46,89.67h-2.62v-10.17h-3.35v-2.18h9.32v2.18h-3.35v10.17Z"></path><path class="cls-2" d="M351.92,80.05c.35,0,.64.03.87.08l-.19,2.42c-.21-.06-.46-.08-.76-.08-.82,0-1.46.21-1.92.63s-.69,1.01-.69,1.77v4.81h-2.58v-9.44h1.95l.38,1.59h.13c.29-.53.69-.96,1.19-1.28.5-.32,1.04-.49,1.62-.49Z"></path><path class="cls-2" d="M360.16,89.67l-.5-1.28h-.07c-.43.55-.88.92-1.34,1.14-.46.21-1.06.32-1.79.32-.91,0-1.62-.26-2.14-.78-.52-.52-.78-1.25-.78-2.21s.35-1.74,1.05-2.22c.7-.48,1.76-.74,3.17-.79l1.64-.05v-.41c0-.96-.49-1.44-1.47-1.44-.75,0-1.64.23-2.66.68l-.85-1.74c1.09-.57,2.29-.85,3.61-.85s2.24.28,2.91.83,1.01,1.39,1.01,2.52v6.29h-1.8ZM359.4,85.29l-1,.03c-.75.02-1.31.16-1.67.41s-.55.62-.55,1.13c0,.73.42,1.09,1.25,1.09.6,0,1.07-.17,1.43-.51.36-.34.54-.8.54-1.37v-.78Z"></path><path class="cls-2" d="M367.6,89.84c-1.11,0-1.98-.43-2.61-1.29-.63-.86-.95-2.06-.95-3.58s.32-2.75.97-3.62,1.53-1.3,2.66-1.3c1.19,0,2.09.46,2.72,1.38h.08c-.13-.7-.2-1.33-.2-1.88v-3.02h2.58v13.14h-1.98l-.5-1.22h-.11c-.59.93-1.48,1.39-2.68,1.39ZM368.5,87.78c.66,0,1.14-.19,1.45-.57.31-.38.47-1.03.5-1.95v-.28c0-1.01-.16-1.74-.47-2.18s-.82-.66-1.52-.66c-.57,0-1.02.24-1.34.73-.32.49-.48,1.19-.48,2.12s.16,1.63.48,2.09c.32.46.78.7,1.38.7Z"></path><path class="cls-2" d="M375.44,77.78c0-.84.47-1.26,1.4-1.26s1.4.42,1.4,1.26c0,.4-.12.71-.35.93s-.58.33-1.05.33c-.93,0-1.4-.42-1.4-1.27ZM378.13,89.67h-2.58v-9.44h2.58v9.44Z"></path><path class="cls-2" d="M389.55,89.67h-2.58v-5.51c0-.68-.12-1.19-.36-1.53-.24-.34-.63-.51-1.16-.51-.72,0-1.24.24-1.56.72-.32.48-.48,1.28-.48,2.39v4.44h-2.58v-9.44h1.97l.35,1.21h.14c.29-.46.68-.8,1.19-1.03s1.08-.35,1.72-.35c1.1,0,1.93.3,2.5.89.57.59.85,1.45.85,2.57v6.16Z"></path><path class="cls-2" d="M400.41,80.22v1.31l-1.48.38c.27.42.41.9.41,1.42,0,1.01-.35,1.8-1.06,2.37-.71.57-1.69.85-2.94.85l-.46-.03-.38-.04c-.26.2-.4.43-.4.67,0,.37.47.56,1.42.56h1.6c1.04,0,1.83.22,2.37.67.54.45.81,1.1.81,1.96,0,1.1-.46,1.96-1.38,2.57-.92.61-2.24.91-3.96.91-1.32,0-2.32-.23-3.02-.69s-1.04-1.1-1.04-1.93c0-.57.18-1.04.53-1.43s.88-.66,1.56-.82c-.26-.11-.5-.3-.69-.55s-.29-.53-.29-.82c0-.36.1-.66.31-.9s.51-.47.9-.71c-.5-.21-.89-.56-1.18-1.03-.29-.47-.43-1.03-.43-1.67,0-1.03.33-1.83,1-2.39.67-.56,1.63-.84,2.87-.84.26,0,.58.02.94.07s.6.08.7.11h3.29ZM393.13,91c0,.35.17.63.51.84.34.2.82.3,1.43.3.92,0,1.65-.13,2.17-.38.52-.25.79-.6.79-1.04,0-.35-.16-.6-.46-.74-.31-.13-.79-.2-1.44-.2h-1.33c-.47,0-.87.11-1.19.33-.32.22-.48.52-.48.88ZM394.06,83.32c0,.51.12.92.35,1.22.23.3.59.45,1.07.45s.84-.15,1.06-.45c.22-.3.34-.7.34-1.22,0-1.14-.47-1.71-1.4-1.71s-1.42.57-1.42,1.71Z"></path><path class="cls-2" d="M418.08,89.67h-3.18l-.97-.95c-1.08.75-2.29,1.12-3.65,1.12s-2.46-.32-3.27-.95c-.8-.63-1.21-1.48-1.21-2.56,0-.77.17-1.43.51-1.97.34-.54.92-1.05,1.75-1.52-.42-.48-.73-.95-.92-1.39-.19-.44-.29-.92-.29-1.45,0-.86.33-1.55.98-2.07s1.53-.79,2.63-.79,1.88.24,2.51.73c.63.49.94,1.14.94,1.96,0,.67-.19,1.28-.58,1.84s-1.02,1.08-1.88,1.58l2.4,2.34c.4-.66.75-1.51,1.04-2.54h2.69c-.2.76-.48,1.5-.84,2.23-.36.72-.76,1.36-1.21,1.92l2.54,2.47ZM408.51,86.09c0,.48.18.87.54,1.16.36.29.83.43,1.4.43.71,0,1.35-.17,1.92-.52l-2.8-2.79c-.33.25-.58.51-.77.78-.19.27-.28.58-.28.94ZM411.54,80.1c0-.3-.1-.53-.3-.71s-.46-.26-.79-.26c-.38,0-.67.09-.89.27-.22.18-.32.44-.32.77,0,.5.27,1.04.8,1.64.48-.27.86-.54,1.11-.8.26-.26.39-.57.39-.92Z"></path><path class="cls-2" d="M429.37,79.32c-.99,0-1.75.37-2.29,1.11-.54.74-.81,1.77-.81,3.1,0,2.75,1.03,4.13,3.1,4.13.87,0,1.92-.22,3.15-.65v2.2c-1.01.42-2.15.63-3.4.63-1.8,0-3.17-.54-4.12-1.63-.95-1.09-1.43-2.65-1.43-4.69,0-1.28.23-2.41.7-3.37.47-.97,1.14-1.71,2.01-2.22.88-.51,1.9-.77,3.08-.77s2.4.29,3.62.87l-.85,2.13c-.46-.22-.93-.41-1.39-.57-.47-.16-.93-.25-1.38-.25Z"></path><path class="cls-2" d="M443.53,84.93c0,1.54-.41,2.74-1.22,3.61-.81.87-1.94,1.3-3.39,1.3-.91,0-1.71-.2-2.4-.6s-1.22-.97-1.6-1.71c-.37-.74-.56-1.61-.56-2.6,0-1.54.4-2.74,1.21-3.6.8-.86,1.94-1.28,3.39-1.28.91,0,1.71.2,2.4.59.69.39,1.22.96,1.6,1.7.37.74.56,1.6.56,2.59ZM437,84.93c0,.93.15,1.64.46,2.12s.81.72,1.5.72,1.18-.24,1.48-.71.45-1.18.45-2.12-.15-1.63-.46-2.1c-.3-.47-.8-.7-1.5-.7s-1.18.23-1.49.7c-.3.46-.46,1.17-.46,2.11Z"></path><path class="cls-2" d="M454.37,89.67h-2.58v-5.51c0-.68-.12-1.19-.36-1.53s-.63-.51-1.16-.51c-.72,0-1.24.24-1.56.72-.32.48-.48,1.28-.48,2.39v4.44h-2.58v-9.44h1.97l.35,1.21h.14c.29-.46.68-.8,1.19-1.03s1.08-.35,1.72-.35c1.1,0,1.93.3,2.5.89.57.59.85,1.45.85,2.57v6.16Z"></path><path class="cls-2" d="M461,87.78c.45,0,.99-.1,1.62-.29v1.92c-.64.29-1.43.43-2.36.43-1.03,0-1.78-.26-2.25-.78-.47-.52-.71-1.3-.71-2.34v-4.55h-1.23v-1.09l1.42-.86.74-1.99h1.65v2.01h2.64v1.93h-2.64v4.55c0,.37.1.64.31.81.21.17.48.26.81.26Z"></path><path class="cls-2" d="M469.8,80.05c.35,0,.64.03.87.08l-.19,2.42c-.21-.06-.46-.08-.76-.08-.82,0-1.46.21-1.92.63s-.69,1.01-.69,1.77v4.81h-2.58v-9.44h1.95l.38,1.59h.13c.29-.53.69-.96,1.19-1.28.5-.32,1.04-.49,1.63-.49Z"></path><path class="cls-2" d="M478.03,89.67l-.5-1.28h-.07c-.43.55-.88.92-1.34,1.14-.46.21-1.06.32-1.79.32-.91,0-1.62-.26-2.14-.78-.52-.52-.78-1.25-.78-2.21s.35-1.74,1.05-2.22c.7-.48,1.76-.74,3.17-.79l1.64-.05v-.41c0-.96-.49-1.44-1.47-1.44-.75,0-1.64.23-2.66.68l-.85-1.74c1.09-.57,2.29-.85,3.62-.85s2.24.28,2.91.83c.67.55,1.01,1.39,1.01,2.52v6.29h-1.8ZM477.27,85.29l-1,.03c-.75.02-1.31.16-1.67.41-.37.25-.55.62-.55,1.13,0,.73.42,1.09,1.25,1.09.6,0,1.07-.17,1.43-.51.36-.34.54-.8.54-1.37v-.78Z"></path><path class="cls-2" d="M486.32,89.84c-2.94,0-4.41-1.61-4.41-4.84,0-1.6.4-2.83,1.2-3.68.8-.85,1.95-1.27,3.44-1.27,1.09,0,2.07.21,2.94.64l-.76,1.99c-.41-.16-.78-.3-1.13-.4-.35-.1-.7-.16-1.05-.16-1.34,0-2.01.95-2.01,2.85s.67,2.77,2.01,2.77c.5,0,.96-.07,1.38-.2.42-.13.84-.34,1.27-.62v2.2c-.42.26-.84.45-1.26.55-.42.1-.96.15-1.61.15Z"></path><path class="cls-2" d="M495.36,87.78c.45,0,.99-.1,1.62-.29v1.92c-.64.29-1.43.43-2.36.43-1.03,0-1.78-.26-2.25-.78s-.71-1.3-.71-2.34v-4.55h-1.23v-1.09l1.42-.86.74-1.99h1.65v2.01h2.64v1.93h-2.64v4.55c0,.37.1.64.31.81.21.17.48.26.81.26Z"></path><path class="cls-2" d="M498.78,77.78c0-.84.47-1.26,1.4-1.26s1.4.42,1.4,1.26c0,.4-.12.71-.35.93-.23.22-.58.33-1.05.33-.94,0-1.4-.42-1.4-1.27ZM501.46,89.67h-2.58v-9.44h2.58v9.44Z"></path><path class="cls-2" d="M512.88,89.67h-2.58v-5.51c0-.68-.12-1.19-.36-1.53-.24-.34-.63-.51-1.16-.51-.72,0-1.24.24-1.56.72-.32.48-.48,1.28-.48,2.39v4.44h-2.58v-9.44h1.97l.35,1.21h.14c.29-.46.68-.8,1.19-1.03s1.08-.35,1.72-.35c1.1,0,1.93.3,2.5.89.57.59.85,1.45.85,2.57v6.16Z"></path><path class="cls-2" d="M523.75,80.22v1.31l-1.48.38c.27.42.41.9.41,1.42,0,1.01-.35,1.8-1.06,2.37-.71.57-1.69.85-2.94.85l-.46-.03-.38-.04c-.26.2-.4.43-.4.67,0,.37.47.56,1.42.56h1.61c1.04,0,1.82.22,2.37.67.54.45.82,1.1.82,1.96,0,1.1-.46,1.96-1.38,2.57-.92.61-2.24.91-3.96.91-1.32,0-2.32-.23-3.02-.69s-1.04-1.1-1.04-1.93c0-.57.18-1.04.53-1.43.36-.38.88-.66,1.56-.82-.26-.11-.5-.3-.69-.55-.2-.26-.3-.53-.3-.82,0-.36.1-.66.31-.9.21-.24.51-.47.9-.71-.5-.21-.89-.56-1.18-1.03-.29-.47-.44-1.03-.44-1.67,0-1.03.34-1.83,1.01-2.39.67-.56,1.63-.84,2.87-.84.26,0,.58.02.94.07s.6.08.7.11h3.29ZM516.46,91c0,.35.17.63.51.84.34.2.82.3,1.43.3.92,0,1.65-.13,2.17-.38.52-.25.79-.6.79-1.04,0-.35-.15-.6-.46-.74-.31-.13-.79-.2-1.44-.2h-1.33c-.47,0-.87.11-1.19.33-.32.22-.48.52-.48.88ZM517.4,83.32c0,.51.12.92.35,1.22.23.3.59.45,1.07.45s.84-.15,1.06-.45c.22-.3.34-.7.34-1.22,0-1.14-.47-1.71-1.4-1.71s-1.42.57-1.42,1.71Z"></path></g></g></svg>