<svg xmlns="http://www.w3.org/2000/svg" width="828" height="321" viewBox="0 0 828 321" fill="none">
<g filter="url(#filter0_d_13_13)">
<path d="M117.5 5L1 316H711L818.5 5H117.5Z" fill="#303030"/>
<path d="M117.5 5L1 316H711L818.5 5H117.5Z" stroke="#303030"/>
</g>
<path d="M616 284.5V185H695V284.5H616Z" fill="#00FF00" stroke="#00FF00"/>
<g filter="url(#filter1_d_13_13)">
<path d="M619.5 170V92.8975L690 107.267V170H619.5Z" stroke="#1592BD" stroke-width="8" shape-rendering="crispEdges"/>
</g>
<path d="M518.5 172.5V70L608 87.5V172.5H518.5Z" fill="#00FF00" stroke="#00FF00"/>
<path d="M130.545 218.781C130.048 217.053 129.35 215.526 128.45 214.2C127.551 212.851 126.45 211.714 125.148 210.791C123.869 209.844 122.402 209.122 120.744 208.625C119.111 208.128 117.3 207.879 115.311 207.879C111.594 207.879 108.327 208.803 105.51 210.649C102.716 212.496 100.538 215.183 98.9759 218.71C97.4134 222.214 96.6321 226.499 96.6321 231.565C96.6321 236.632 97.4015 240.94 98.9403 244.491C100.479 248.043 102.657 250.753 105.474 252.624C108.292 254.47 111.618 255.393 115.453 255.393C118.933 255.393 121.904 254.778 124.366 253.547C126.852 252.292 128.746 250.528 130.048 248.256C131.374 245.983 132.037 243.296 132.037 240.195L135.162 240.656H116.412V229.08H146.845V238.241C146.845 244.634 145.496 250.126 142.797 254.719C140.098 259.288 136.381 262.815 131.646 265.301C126.911 267.763 121.49 268.994 115.382 268.994C108.564 268.994 102.574 267.491 97.4134 264.484C92.2524 261.454 88.2277 257.157 85.3395 251.594C82.4749 246.007 81.0426 239.378 81.0426 231.707C81.0426 225.812 81.8949 220.557 83.5994 215.94C85.3277 211.3 87.7424 207.37 90.8438 204.151C93.9451 200.931 97.5554 198.481 101.675 196.8C105.794 195.119 110.257 194.278 115.062 194.278C119.182 194.278 123.017 194.882 126.568 196.089C130.119 197.273 133.268 198.954 136.014 201.132C138.784 203.31 141.045 205.902 142.797 208.909C144.549 211.892 145.673 215.183 146.17 218.781H130.545ZM158.395 268V195.273H207.401V207.95H173.772V225.28H204.88V237.957H173.772V255.322H207.543V268H158.395ZM280.457 195.273V268H267.175L235.535 222.226H235.002V268H219.626V195.273H233.12L264.512 241.011H265.151V195.273H280.457ZM293.161 268V195.273H342.167V207.95H308.537V225.28H339.645V237.957H308.537V255.322H342.309V268H293.161ZM393.844 216.189C393.56 213.324 392.341 211.099 390.187 209.513C388.032 207.927 385.109 207.134 381.415 207.134C378.906 207.134 376.787 207.489 375.059 208.199C373.331 208.885 372.005 209.844 371.082 211.075C370.182 212.306 369.732 213.703 369.732 215.266C369.685 216.568 369.957 217.704 370.549 218.675C371.165 219.645 372.005 220.486 373.07 221.196C374.136 221.883 375.367 222.486 376.763 223.007C378.16 223.504 379.652 223.93 381.238 224.286L387.772 225.848C390.944 226.558 393.856 227.505 396.508 228.689C399.159 229.873 401.456 231.329 403.397 233.057C405.338 234.785 406.842 236.821 407.907 239.165C408.996 241.509 409.552 244.196 409.576 247.226C409.552 251.677 408.416 255.536 406.167 258.803C403.942 262.046 400.722 264.567 396.508 266.366C392.317 268.142 387.263 269.03 381.344 269.03C375.473 269.03 370.36 268.13 366.004 266.331C361.671 264.532 358.286 261.868 355.847 258.341C353.433 254.79 352.166 250.398 352.048 245.166H366.927C367.093 247.605 367.791 249.641 369.022 251.274C370.277 252.884 371.946 254.103 374.029 254.932C376.136 255.737 378.515 256.139 381.167 256.139C383.771 256.139 386.032 255.76 387.95 255.003C389.891 254.245 391.394 253.192 392.46 251.842C393.525 250.493 394.058 248.942 394.058 247.19C394.058 245.557 393.572 244.184 392.602 243.071C391.655 241.958 390.258 241.011 388.411 240.23C386.588 239.449 384.351 238.739 381.7 238.099L373.781 236.111C367.649 234.619 362.808 232.287 359.256 229.115C355.705 225.943 353.942 221.67 353.965 216.295C353.942 211.892 355.113 208.045 357.481 204.754C359.872 201.464 363.151 198.895 367.317 197.048C371.484 195.202 376.219 194.278 381.522 194.278C386.92 194.278 391.631 195.202 395.656 197.048C399.704 198.895 402.853 201.464 405.102 204.754C407.351 208.045 408.511 211.857 408.582 216.189H393.844ZM435.295 195.273V268H419.919V195.273H435.295ZM487.399 216.189C487.115 213.324 485.896 211.099 483.741 209.513C481.587 207.927 478.663 207.134 474.97 207.134C472.461 207.134 470.342 207.489 468.614 208.199C466.885 208.885 465.56 209.844 464.636 211.075C463.737 212.306 463.287 213.703 463.287 215.266C463.24 216.568 463.512 217.704 464.104 218.675C464.719 219.645 465.56 220.486 466.625 221.196C467.69 221.883 468.921 222.486 470.318 223.007C471.715 223.504 473.206 223.93 474.793 224.286L481.327 225.848C484.499 226.558 487.411 227.505 490.062 228.689C492.714 229.873 495.01 231.329 496.952 233.057C498.893 234.785 500.396 236.821 501.462 239.165C502.551 241.509 503.107 244.196 503.131 247.226C503.107 251.677 501.971 255.536 499.722 258.803C497.496 262.046 494.277 264.567 490.062 266.366C485.872 268.142 480.818 269.03 474.899 269.03C469.028 269.03 463.914 268.13 459.558 266.331C455.226 264.532 451.84 261.868 449.402 258.341C446.987 254.79 445.721 250.398 445.602 245.166H460.482C460.647 247.605 461.346 249.641 462.577 251.274C463.831 252.884 465.5 254.103 467.584 254.932C469.691 255.737 472.07 256.139 474.722 256.139C477.326 256.139 479.587 255.76 481.504 255.003C483.446 254.245 484.949 253.192 486.014 251.842C487.08 250.493 487.612 248.942 487.612 247.19C487.612 245.557 487.127 244.184 486.156 243.071C485.209 241.958 483.813 241.011 481.966 240.23C480.143 239.449 477.906 238.739 475.254 238.099L467.335 236.111C461.204 234.619 456.362 232.287 452.811 229.115C449.26 225.943 447.496 221.67 447.52 216.295C447.496 211.892 448.668 208.045 451.036 204.754C453.427 201.464 456.705 198.895 460.872 197.048C465.039 195.202 469.774 194.278 475.077 194.278C480.474 194.278 485.186 195.202 489.21 197.048C493.259 198.895 496.407 201.464 498.656 204.754C500.905 208.045 502.065 211.857 502.136 216.189H487.399Z" fill="#1592BD"/>
<path d="M518.5 184.5V284.5H607V184.5H518.5Z" fill="#1592BD" stroke="#1592BD"/>
<circle cx="428" cy="185" r="8" fill="#1592BD"/>
<defs>
<filter id="filter0_d_13_13" x="0.278748" y="0.5" width="826.923" height="320" filterUnits="userSpaceOnUse" color-interpolation-filters="sRGB">
<feFlood flood-opacity="0" result="BackgroundImageFix"/>
<feColorMatrix in="SourceAlpha" type="matrix" values="0 0 0 0 0 0 0 0 0 0 0 0 0 0 0 0 0 0 127 0" result="hardAlpha"/>
<feOffset dx="4"/>
<feGaussianBlur stdDeviation="2"/>
<feComposite in2="hardAlpha" operator="out"/>
<feColorMatrix type="matrix" values="0 0 0 0 0.188235 0 0 0 0 0.188235 0 0 0 0 0.188235 0 0 0 1 0"/>
<feBlend mode="normal" in2="BackgroundImageFix" result="effect1_dropShadow_13_13"/>
<feBlend mode="normal" in="SourceGraphic" in2="effect1_dropShadow_13_13" result="shape"/>
</filter>
<filter id="filter1_d_13_13" x="615.5" y="84" width="86.5" height="94" filterUnits="userSpaceOnUse" color-interpolation-filters="sRGB">
<feFlood flood-opacity="0" result="BackgroundImageFix"/>
<feColorMatrix in="SourceAlpha" type="matrix" values="0 0 0 0 0 0 0 0 0 0 0 0 0 0 0 0 0 0 127 0" result="hardAlpha"/>
<feOffset dx="4"/>
<feGaussianBlur stdDeviation="2"/>
<feComposite in2="hardAlpha" operator="out"/>
<feColorMatrix type="matrix" values="0 0 0 0 0.0823529 0 0 0 0 0.572549 0 0 0 0 0.741176 0 0 0 1 0"/>
<feBlend mode="normal" in2="BackgroundImageFix" result="effect1_dropShadow_13_13"/>
<feBlend mode="normal" in="SourceGraphic" in2="effect1_dropShadow_13_13" result="shape"/>
</filter>
</defs>
</svg>