<svg xmlns="http://www.w3.org/2000/svg" width="290" height="319" viewBox="0 0 290 319" fill="none">
<path d="M137.5 181.231H47L137.5 247.246V181.231Z" fill="#009344"/>
<path d="M69.5 50.4332L23 83.6452L137.5 158.68V90.6157L69.5 50.4332Z" fill="#009344"/>
<path d="M137.5 67.2442V0L89 37.3123L137.5 67.2442Z" fill="#009344"/>
<path d="M137.5 0V67.2442H227L137.5 0Z" fill="#074925"/>
<path d="M137.5 90.6157V158.68L204.5 198.452L251 164.83L137.5 90.6157Z" fill="#074925"/>
<path d="M137.5 181.231V247.246L186.5 211.163L137.5 181.231Z" fill="#074925"/>
<path d="M40.0462 275.909C39.5656 274.401 38.9193 273.051 38.1072 271.857C37.3118 270.648 36.3589 269.62 35.2486 268.775C34.1383 267.913 32.8705 267.259 31.4453 266.811C30.0367 266.364 28.4872 266.14 26.7969 266.14C23.9299 266.14 21.3447 266.878 19.0412 268.352C16.7377 269.827 14.9148 271.99 13.5724 274.84C12.2467 277.674 11.5838 281.146 11.5838 285.256C11.5838 289.382 12.255 292.871 13.5973 295.721C14.9396 298.571 16.7791 300.734 19.1158 302.209C21.4524 303.684 24.1122 304.421 27.0952 304.421C29.8627 304.421 32.2739 303.858 34.3288 302.731C36.4003 301.604 37.9995 300.013 39.1264 297.958C40.2699 295.887 40.8416 293.451 40.8416 290.65L42.8303 291.023H28.2635V284.684H48.2741V290.476C48.2741 294.752 47.3627 298.464 45.5398 301.612C43.7334 304.744 41.2311 307.164 38.0327 308.871C34.8509 310.578 31.205 311.431 27.0952 311.431C22.4882 311.431 18.4446 310.371 14.9645 308.249C11.5009 306.128 8.79972 303.12 6.8608 299.226C4.92188 295.315 3.95241 290.675 3.95241 285.306C3.95241 281.245 4.51586 277.6 5.64276 274.368C6.76965 271.137 8.35227 268.394 10.3906 266.14C12.4455 263.87 14.8568 262.138 17.6243 260.945C20.4084 259.735 23.4493 259.13 26.7472 259.13C29.4981 259.13 32.0585 259.536 34.4283 260.348C36.8146 261.16 38.9358 262.312 40.7919 263.803C42.6645 265.295 44.214 267.068 45.4403 269.123C46.6667 271.161 47.4953 273.423 47.9261 275.909H40.0462ZM81.6149 294.901V272.553H89.0723V310.735H81.764V304.123H81.3663C80.488 306.161 79.0794 307.86 77.1404 309.219C75.2181 310.561 72.8234 311.232 69.9565 311.232C67.5038 311.232 65.3329 310.694 63.4437 309.617C61.5711 308.523 60.0962 306.907 59.019 304.769C57.9584 302.632 57.4281 299.988 57.4281 296.84V272.553H64.8606V295.945C64.8606 298.547 65.5815 300.618 67.0233 302.159C68.465 303.7 70.3377 304.471 72.6412 304.471C74.0332 304.471 75.417 304.123 76.7924 303.427C78.1845 302.731 79.3362 301.679 80.2477 300.27C81.1757 298.861 81.6315 297.072 81.6149 294.901ZM106.491 259.826V310.735H99.0589V259.826H106.491ZM134.662 272.553V278.519H113.085V272.553H134.662ZM119.001 310.735V268.129C119.001 265.742 119.523 263.762 120.567 262.188C121.611 260.597 122.995 259.412 124.719 258.633C126.442 257.837 128.315 257.44 130.336 257.44C131.828 257.44 133.104 257.564 134.165 257.813C135.225 258.045 136.012 258.26 136.526 258.459L134.786 264.475C134.438 264.375 133.991 264.259 133.444 264.127C132.897 263.977 132.234 263.903 131.455 263.903C129.649 263.903 128.356 264.35 127.577 265.245C126.815 266.14 126.434 267.433 126.434 269.123V310.735H119.001Z" fill="#074925"/>
<path d="M159.82 272.553V278.519H138.964V272.553H159.82ZM144.557 263.406H151.989V299.524C151.989 300.966 152.205 302.052 152.636 302.781C153.067 303.493 153.622 303.982 154.301 304.247C154.997 304.496 155.751 304.62 156.563 304.62C157.16 304.62 157.682 304.579 158.129 304.496C158.577 304.413 158.925 304.347 159.173 304.297L160.516 310.437C160.085 310.603 159.472 310.768 158.676 310.934C157.881 311.116 156.886 311.216 155.693 311.232C153.738 311.266 151.915 310.918 150.224 310.188C148.534 309.459 147.167 308.332 146.123 306.808C145.079 305.283 144.557 303.369 144.557 301.065V263.406ZM184.087 311.506C180.325 311.506 177.086 310.702 174.368 309.095C171.666 307.471 169.578 305.192 168.104 302.259C166.645 299.309 165.916 295.854 165.916 291.893C165.916 287.982 166.645 284.535 168.104 281.552C169.578 278.569 171.633 276.241 174.268 274.567C176.92 272.893 180.019 272.056 183.565 272.056C185.72 272.056 187.808 272.413 189.829 273.125C191.851 273.838 193.666 274.956 195.273 276.481C196.881 278.006 198.148 279.986 199.077 282.422C200.005 284.842 200.469 287.783 200.469 291.247V293.882H170.117V288.313H193.185C193.185 286.358 192.787 284.626 191.992 283.118C191.197 281.593 190.078 280.392 188.636 279.514C187.211 278.635 185.537 278.196 183.615 278.196C181.527 278.196 179.704 278.71 178.146 279.737C176.605 280.748 175.412 282.074 174.567 283.715C173.738 285.339 173.324 287.104 173.324 289.009V293.36C173.324 295.912 173.771 298.083 174.666 299.872C175.577 301.662 176.845 303.029 178.469 303.974C180.093 304.902 181.991 305.366 184.162 305.366C185.57 305.366 186.855 305.167 188.015 304.769C189.175 304.355 190.177 303.742 191.023 302.93C191.868 302.118 192.514 301.115 192.961 299.922L199.996 301.19C199.433 303.261 198.422 305.076 196.964 306.634C195.522 308.175 193.707 309.376 191.52 310.238C189.349 311.083 186.871 311.506 184.087 311.506ZM224.798 311.506C221.103 311.506 217.921 310.669 215.253 308.995C212.601 307.305 210.563 304.976 209.138 302.01C207.713 299.044 207 295.646 207 291.818C207 287.94 207.729 284.518 209.188 281.552C210.646 278.569 212.701 276.241 215.352 274.567C218.004 272.893 221.128 272.056 224.724 272.056C227.624 272.056 230.209 272.595 232.479 273.672C234.75 274.733 236.581 276.224 237.973 278.146C239.382 280.069 240.219 282.314 240.484 284.883H233.25C232.852 283.093 231.941 281.552 230.516 280.259C229.107 278.967 227.218 278.32 224.848 278.32C222.777 278.32 220.962 278.867 219.404 279.961C217.863 281.038 216.661 282.579 215.8 284.585C214.938 286.573 214.507 288.927 214.507 291.644C214.507 294.428 214.93 296.831 215.775 298.853C216.62 300.875 217.813 302.441 219.354 303.551C220.912 304.662 222.743 305.217 224.848 305.217C226.257 305.217 227.533 304.96 228.676 304.446C229.836 303.916 230.806 303.162 231.585 302.184C232.38 301.206 232.935 300.03 233.25 298.654H240.484C240.219 301.123 239.415 303.328 238.072 305.266C236.73 307.205 234.932 308.73 232.678 309.84C230.441 310.951 227.814 311.506 224.798 311.506ZM255.865 288.065V310.735H248.432V259.826H255.765V278.768H256.237C257.132 276.713 258.499 275.081 260.339 273.871C262.178 272.661 264.581 272.056 267.548 272.056C270.166 272.056 272.453 272.595 274.409 273.672C276.381 274.749 277.905 276.357 278.982 278.494C280.076 280.616 280.623 283.267 280.623 286.449V310.735H273.191V287.344C273.191 284.543 272.47 282.372 271.028 280.831C269.586 279.273 267.581 278.494 265.012 278.494C263.256 278.494 261.681 278.867 260.289 279.613C258.914 280.359 257.828 281.453 257.033 282.894C256.254 284.32 255.865 286.043 255.865 288.065Z" fill="#009344"/>
</svg>