<svg xmlns="http://www.w3.org/2000/svg" xmlns:xlink="http://www.w3.org/1999/xlink" width="520pt" height="181.2pt" viewBox="0 0 520 181.2" version="1.1">
<defs>
<clipPath id="clip1">
  <path d="M 0 1 L 188 1 L 188 181.199219 L 0 181.199219 Z M 0 1 "/>
</clipPath>
</defs>
<g id="surface1">
<path style=" stroke:none;fill-rule:evenodd;fill:rgb(0%,26.660156%,53.709412%);fill-opacity:1;" d="M 282.066406 49.925781 C 283.644531 45.222656 289.699219 41.40625 295.578125 41.40625 C 301.464844 41.40625 304.949219 45.222656 303.371094 49.925781 C 301.789063 54.640625 295.734375 58.453125 289.855469 58.453125 C 283.96875 58.453125 280.484375 54.640625 282.066406 49.925781 Z M 480.847656 41.558594 L 489.953125 41.558594 C 492.804688 41.558594 494.496094 43.414063 493.730469 45.691406 L 480.5625 85.195313 C 480.359375 86.066406 481.253906 86.160156 481.816406 85.757813 C 482.621094 85.183594 499.136719 68.855469 499.136719 68.855469 C 499.136719 68.855469 501.734375 66.394531 504.050781 65.714844 C 506.363281 65.039063 508.703125 65.199219 508.703125 65.199219 L 518.367188 65.199219 C 518.367188 65.199219 520.074219 65.199219 520.0625 66.5 C 520.054688 67.792969 518.601563 68.816406 518.601563 68.816406 L 499.515625 86.042969 C 499.515625 86.042969 498.109375 87.4375 497.695313 88.667969 C 497.28125 89.894531 497.769531 91.738281 497.769531 91.738281 L 500.953125 127.671875 C 500.953125 127.671875 501.15625 130.128906 499.855469 130.949219 C 498.554688 131.769531 497.574219 131.902344 497.574219 131.902344 L 484.613281 131.902344 C 484.613281 131.902344 482.394531 131.902344 482.132813 130.402344 C 481.953125 129.425781 481.953125 128.152344 481.953125 128.152344 L 480.953125 106.503906 C 480.953125 106.503906 481.152344 104.910156 479.828125 104.769531 C 478.511719 104.632813 476.460938 106.4375 476.460938 106.4375 L 473.839844 108.894531 C 473.839844 108.894531 472.351563 110.429688 471.851563 111.65625 C 471.757813 111.898438 471.617188 112.0625 471.464844 112.167969 L 466.175781 127.914063 C 465.410156 130.195313 462.472656 132.046875 459.617188 132.046875 L 450.511719 132.046875 C 447.65625 132.046875 445.964844 130.195313 446.734375 127.914063 L 474.289063 45.691406 C 475.058594 43.414063 477.992188 41.558594 480.847656 41.558594 Z M 357.632813 69.054688 L 357.761719 71.402344 C 358.210938 71.730469 359.015625 71.964844 359.347656 72.386719 C 362.179688 72.101563 362.546875 70.449219 366.011719 68.914063 C 369.476563 67.394531 376.648438 64.179688 383.777344 64.609375 C 392.964844 65.171875 393.632813 73.496094 393.632813 73.496094 C 393.492188 74.097656 393.445313 74.601563 393.265625 75.132813 L 375.53125 127.914063 C 374.765625 130.195313 371.828125 132.046875 368.976563 132.046875 L 359.867188 132.046875 C 357.011719 132.046875 355.320313 130.195313 356.089844 127.914063 L 371.703125 81.445313 C 372.078125 80.390625 373.097656 77.882813 372.289063 77.113281 C 371.347656 76.222656 369.789063 75.863281 364.28125 78.222656 C 358.925781 80.515625 357.222656 83.589844 356.011719 86.203125 L 341.996094 127.914063 C 341.226563 130.195313 338.296875 132.046875 335.441406 132.046875 L 326.328125 132.046875 C 323.480469 132.046875 321.789063 130.195313 322.554688 127.914063 L 338.285156 81.101563 C 338.414063 80.335938 338.851563 77.234375 337.222656 77.113281 C 335.359375 76.972656 334.890625 75.832031 329.195313 78.777344 C 324.839844 81.03125 321.941406 87.804688 321.941406 87.804688 L 308.460938 127.914063 C 307.691406 130.195313 304.753906 132.046875 301.902344 132.046875 L 292.789063 132.046875 C 289.945313 132.046875 288.253906 130.195313 289.015625 127.914063 L 308.714844 69.304688 C 309.484375 67.023438 312.414063 65.171875 315.269531 65.171875 L 324.371094 65.171875 C 327.230469 65.171875 328.921875 67.023438 328.152344 69.304688 L 327.820313 70.304688 C 327.894531 70.632813 328.109375 70.863281 328.558594 70.863281 C 330.121094 70.863281 329.800781 69.757813 333.261719 68.222656 C 336.726563 66.691406 341.769531 64.609375 349.109375 64.476563 C 356.441406 64.332031 357.632813 69.054688 357.632813 69.054688 Z M 239.824219 41.226563 L 248.933594 41.226563 C 251.789063 41.226563 253.480469 43.074219 252.714844 45.355469 L 228.453125 116.492188 L 247.355469 116.492188 C 250.203125 116.492188 251.898438 118.34375 251.128906 120.625 L 248.6875 127.914063 C 247.914063 130.195313 244.984375 132.046875 242.128906 132.046875 L 208.953125 132.046875 C 206.105469 132.046875 204.414063 130.195313 205.183594 127.914063 L 233.273438 45.355469 C 234.039063 43.074219 236.976563 41.226563 239.824219 41.226563 Z M 423.460938 114.503906 L 427.414063 102.757813 C 427.414063 102.757813 427.789063 100.945313 426.355469 100.980469 C 425.03125 101.007813 409.050781 105.59375 406.09375 114.398438 C 404.652344 118.679688 405.046875 121.917969 410.855469 121.917969 C 418.972656 121.917969 423.460938 114.503906 423.460938 114.503906 Z M 417.046875 127.890625 C 415.945313 128.035156 415.59375 129.082031 413.511719 130.34375 C 411.425781 131.613281 404.40625 133.75 400.609375 133.867188 C 386.234375 134.289063 384.535156 123.949219 386.636719 117.695313 C 388.738281 111.441406 389.664063 108.542969 396.789063 102.871094 C 405.539063 95.917969 428.257813 90.0625 429.746094 89.496094 C 431.246094 88.933594 431.550781 87.140625 431.550781 87.140625 L 433.238281 82.117188 C 433.238281 82.117188 434.808594 77.570313 427.695313 77.570313 C 420.757813 77.570313 418.238281 82.605469 418.238281 82.605469 C 417.390625 84.816406 414.527344 86.574219 411.738281 86.574219 L 404.453125 86.574219 C 401.605469 86.574219 399.722656 84.5 400.488281 82.21875 C 400.488281 82.21875 407.480469 64.777344 435.6875 64.777344 C 458.160156 64.777344 450.320313 84.296875 450.320313 84.296875 L 437.21875 123.296875 L 436.367188 128.539063 C 435.601563 130.820313 432.664063 132.667969 429.808594 132.667969 L 421.617188 132.667969 C 418.765625 132.667969 417.074219 130.820313 417.839844 128.539063 L 416.996094 128.316406 C 416.996094 128.316406 418.152344 127.753906 417.046875 127.890625 Z M 282.523438 65.171875 L 291.632813 65.171875 C 294.484375 65.171875 296.175781 67.023438 295.410156 69.304688 L 275.714844 127.914063 C 274.949219 130.195313 272.011719 132.046875 269.15625 132.046875 L 260.050781 132.046875 C 257.195313 132.046875 255.503906 130.195313 256.273438 127.914063 L 275.96875 69.304688 C 276.734375 67.023438 279.671875 65.171875 282.523438 65.171875 Z M 282.523438 65.171875 "/>
<g clip-path="url(#clip1)" clip-rule="nonzero">
<path style=" stroke:none;fill-rule:evenodd;fill:rgb(0%,26.660156%,53.709412%);fill-opacity:1;" d="M 143.8125 125.179688 C 142.597656 128.914063 138.886719 132.007813 135.359375 132.007813 L 42.6875 132.007813 C 39.914063 132.007813 38.164063 130.210938 38.152344 127.722656 C 38.121094 127.046875 38.21875 126.3125 38.46875 125.554688 L 56.523438 70.222656 C 57.644531 66.78125 61.34375 63.992188 64.78125 63.992188 C 68.605469 63.992188 70.488281 66.78125 69.367188 70.230469 L 53.539063 118.941406 L 129.839844 118.941406 L 125.71875 89.414063 L 107.023438 113.171875 C 104.554688 116.285156 100.402344 117.644531 97.753906 116.1875 C 95.933594 115.1875 90.882813 89.332031 90.882813 89.332031 L 72.121094 113.171875 C 69.65625 116.289063 65.507813 117.644531 62.859375 116.1875 C 59.851563 114.53125 59.703125 110.824219 62.167969 107.703125 L 77.089844 88.886719 C 84.476563 79.625 92.410156 69.75 93.335938 69.195313 C 94.785156 68.25 96.378906 67.753906 97.855469 67.773438 C 99.347656 67.753906 100.609375 68.269531 101.441406 69.210938 C 102.128906 69.996094 105.226563 86.230469 106.828125 95.371094 L 111.992188 88.886719 C 119.371094 79.625 127.304688 69.746094 128.234375 69.195313 C 129.683594 68.25 131.273438 67.753906 132.757813 67.773438 C 134.242188 67.753906 135.511719 68.269531 136.339844 69.210938 C 137.246094 70.109375 137.644531 71.382813 137.523438 72.78125 L 144.414063 121.171875 C 144.550781 122.085938 144.421875 123.058594 144.085938 124 Z M 49.546875 62.9375 C 49.546875 62.9375 35.726563 71.847656 22.871094 88.398438 C 10.011719 104.945313 1.382813 121.652344 2.328125 139.703125 C 2.832031 149.417969 13.820313 181.117188 63.039063 181.117188 C 119.4375 181.117188 168.558594 134.351563 182.539063 91.335938 C 196.515625 48.3125 180.429688 -0.0820313 121.710938 1.792969 C 21.640625 5 0.03125 103.625 0.03125 103.625 C 0.03125 103.625 13.148438 81.714844 32.824219 63.136719 C 59.378906 38.0625 89.539063 28.808594 105.660156 28.808594 C 131.746094 28.808594 140.371094 37.445313 140.371094 37.445313 C 140.371094 37.445313 146.40625 42.277344 140.480469 46.902344 C 134.558594 51.527344 134.242188 50.59375 132.390625 49.675781 C 130.53125 48.757813 108.664063 32.515625 67.851563 51.527344 C 59.292969 55.511719 49.546875 62.9375 49.546875 62.9375 Z M 49.546875 62.9375 "/>
</g>
</g>
</svg>