<svg xmlns="http://www.w3.org/2000/svg" width="585" height="226" viewBox="0 0 585 226" fill="none">
<path d="M76.5 80.5C79.2682 86.4735 81.8791 88.8841 89 91C91.7757 91.4034 93.3071 91.4087 96 91C105.164 87.6705 107.168 85.1831 109.5 80.5H76.5Z" fill="#0E4370"/>
<path d="M156 87H145C134.376 88.1246 128.772 88.9889 119.5 91V89H118V90.5C97.4184 93.5706 86.7743 96.0043 70.5 102.5L68.5 90H65L63 102.5C41.0409 109.68 30.255 115.129 16 129.5C11.3866 135.038 10.6044 137.233 9.49999 141C9.04891 145.505 9.0042 148.115 9.49999 153C12.7424 163.529 16.001 169.117 24.5 178.5C40.9148 193.698 50.9147 200.629 70 210.5C80.7208 216.591 87.4861 219.602 99.5 225C101.648 225.642 102.852 225.538 105 225L163 165.5C145.487 160.571 135.414 158.476 117.5 152.5C106.668 147.335 101.644 143.491 94.5 135C91.9641 132.236 91.1949 130.576 90.5 127.5C90.0367 124.962 90.1104 123.538 90.5 121C94.1887 114.458 96.9626 111.53 104 108.5L114.5 104V107H117.5V104H119.5V107H123L122.5 102C134.716 95.5736 142.09 92.7849 156 89V87Z" fill="#575556"/>
<path d="M43 90C40.9821 87.8905 40.1062 86.6863 39 84.5C38.5897 82.7428 38.6331 81.7572 39 80C40.0432 78.9892 40.8075 78.5476 42.5 78C43.0859 77.964 43.4141 77.9725 44 78C45.4829 78.5669 46.1843 78.9743 47 80C47.4836 81.9527 47.5155 83.0473 47 85C46.2442 87.2421 45.5172 88.2876 44 90H43Z" fill="#0E4370"/>
<path d="M6.5 112V42L90 8H93.5L176 42V112L180 117L184 112V42C182.474 37.9367 180.695 36.0893 176 33.5L96 0.5H87.5L4.5 35.5C1.41317 37.7869 0.656602 39.2293 0.5 42V112L3.5 116.5L6.5 112Z" fill="#0E4370"/>
<path d="M75 85.5L71 73H9C14.9103 75.827 18.3116 77.2362 25 78.5C28.5145 78.9018 30.4857 78.8931 34 78.5C35.8842 78.2932 36.8555 78.0546 38.5 77.5H45.5C51.0134 81.4481 54.4896 83.2228 62 85.5H75Z" fill="#0E4370"/>
<path d="M112 57L142 51V49L112 53V57Z" fill="#0E4370"/>
<path d="M75.0484 52.7645L44 47.5L44 50L74 57.5L75.0484 52.7645Z" fill="#0E4370"/>
<path d="M77 74L73.5 71C72.9973 66.5409 73.1338 64.1769 73.5 60C76.8642 50.9517 80.1878 47.9404 88.5 46C92.6003 45.3135 94.8993 45.3332 99 46C105.777 48.658 108.497 51.9322 112 60C112.606 64.2958 112.645 66.7043 112 71L111 74H77Z" fill="#0E4370"/>
<path d="M75 75H111V76.5H75V75Z" fill="#0E4370"/>
<path d="M111 84.5L115 72L177 72C171.09 74.827 167.688 76.2362 161 77.5C157.486 77.9018 155.514 77.8931 152 77.5C150.116 77.2932 149.144 77.0546 147.5 76.5H140.5C134.987 80.4481 131.51 82.2228 124 84.5L111 84.5Z" fill="#0E4370"/>
<path d="M142.962 86C141.099 84.4211 140.29 83.5197 139.269 81.8832C138.89 80.5679 138.931 79.8302 139.269 78.5149C140.232 77.7583 140.938 77.4278 142.5 77.0179C143.041 76.991 143.344 76.9973 143.885 77.0179C145.254 77.4423 145.901 77.7471 146.654 78.5149C147.1 79.9766 147.13 80.7958 146.654 82.2575C145.956 83.9357 145.285 84.7183 143.885 86H142.962Z" fill="#0E4370"/>
<path d="M197.64 128V8.63999H197.8L258.44 94.72L251.88 93.44L312.36 8.63999H312.68V128H297.32V43.84L298.28 51.68L254.6 113.44H254.28L209.96 51.68L212.68 44.48V128H197.64ZM354.241 12.32L392.321 108L383.521 106.24L419.681 12.32H437.761L386.721 133.28L335.841 12.32H354.241ZM543.981 118.08C542.381 119.467 540.141 120.853 537.261 122.24C534.381 123.52 531.181 124.693 527.661 125.76C524.248 126.827 520.675 127.68 516.941 128.32C513.315 128.96 509.901 129.28 506.701 129.28C497.421 129.28 489.048 127.84 481.581 124.96C474.221 122.08 467.875 118.08 462.541 112.96C457.315 107.84 453.261 101.813 450.381 94.88C447.608 87.9467 446.221 80.4267 446.221 72.32C446.221 62.72 447.768 54.1333 450.861 46.56C454.061 38.88 458.381 32.4267 463.821 27.2C469.368 21.8667 475.715 17.8667 482.861 15.2C490.008 12.4267 497.581 11.04 505.581 11.04C512.301 11.04 518.541 11.84 524.301 13.44C530.061 15.04 535.128 17.0667 539.501 19.52L534.221 33.76C532.088 32.48 529.421 31.3067 526.221 30.24C523.128 29.1733 519.928 28.32 516.621 27.68C513.315 26.9333 510.221 26.56 507.341 26.56C500.515 26.56 494.328 27.6267 488.781 29.76C483.235 31.7867 478.488 34.7733 474.541 38.72C470.595 42.56 467.555 47.2533 465.421 52.8C463.288 58.24 462.221 64.3733 462.221 71.2C462.221 77.4933 463.288 83.2533 465.421 88.48C467.555 93.7067 470.595 98.24 474.541 102.08C478.488 105.813 483.181 108.747 488.621 110.88C494.168 112.907 500.248 113.92 506.861 113.92C510.808 113.92 514.701 113.547 518.541 112.8C522.381 111.947 525.688 110.773 528.461 109.28V86.24H505.421V71.36H543.981V118.08Z" fill="#0E4370"/>
<path d="M203.05 176.3H207.7V197H203.05V176.3ZM202.7 168.8C202.7 168.067 202.983 167.45 203.55 166.95C204.15 166.45 204.8 166.2 205.5 166.2C206.2 166.2 206.817 166.45 207.35 166.95C207.917 167.45 208.2 168.067 208.2 168.8C208.2 169.567 207.917 170.2 207.35 170.7C206.817 171.167 206.2 171.4 205.5 171.4C204.8 171.4 204.15 171.15 203.55 170.65C202.983 170.15 202.7 169.533 202.7 168.8ZM217.895 176.3L218.295 181.35L218.095 180.55C218.762 179.017 219.845 177.8 221.345 176.9C222.845 175.967 224.579 175.5 226.545 175.5C228.512 175.5 230.112 176.083 231.345 177.25C232.612 178.383 233.262 179.867 233.295 181.7V197H228.595V183.35C228.562 182.217 228.229 181.3 227.595 180.6C226.995 179.867 226.045 179.5 224.745 179.5C223.545 179.5 222.462 179.833 221.495 180.5C220.529 181.167 219.762 182.083 219.195 183.25C218.662 184.417 218.395 185.767 218.395 187.3V197H213.745V176.3H217.895ZM245.182 197.4C243.715 197.4 242.282 197.15 240.882 196.65C239.515 196.117 238.382 195.333 237.482 194.3L239.432 191.6C240.299 192.433 241.182 193.067 242.082 193.5C243.015 193.9 243.932 194.1 244.832 194.1C245.499 194.1 246.115 194.017 246.682 193.85C247.249 193.683 247.699 193.417 248.032 193.05C248.399 192.65 248.582 192.117 248.582 191.45C248.582 190.717 248.332 190.133 247.832 189.7C247.365 189.267 246.749 188.917 245.982 188.65C245.249 188.383 244.465 188.133 243.632 187.9C241.932 187.333 240.632 186.55 239.732 185.55C238.832 184.55 238.382 183.333 238.382 181.9C238.382 180.8 238.649 179.783 239.182 178.85C239.749 177.883 240.565 177.1 241.632 176.5C242.732 175.9 244.082 175.6 245.682 175.6C247.115 175.6 248.399 175.783 249.532 176.15C250.665 176.483 251.732 177.05 252.732 177.85L250.882 180.75C250.282 180.117 249.565 179.65 248.732 179.35C247.899 179.05 247.149 178.883 246.482 178.85C245.915 178.817 245.365 178.9 244.832 179.1C244.332 179.3 243.915 179.583 243.582 179.95C243.249 180.317 243.082 180.75 243.082 181.25C243.082 181.95 243.315 182.517 243.782 182.95C244.249 183.383 244.849 183.733 245.582 184C246.349 184.233 247.099 184.483 247.832 184.75C248.865 185.05 249.782 185.45 250.582 185.95C251.382 186.45 252.015 187.067 252.482 187.8C252.982 188.533 253.232 189.45 253.232 190.55C253.232 191.783 252.932 192.933 252.332 194C251.765 195.033 250.882 195.867 249.682 196.5C248.515 197.1 247.015 197.4 245.182 197.4ZM241.382 204.9C241.749 205.267 242.215 205.567 242.782 205.8C243.349 206.067 243.999 206.2 244.732 206.2C245.599 206.2 246.382 206 247.082 205.6C247.782 205.233 248.132 204.683 248.132 203.95C248.132 203.383 247.899 202.85 247.432 202.35C246.965 201.883 246.115 201.65 244.882 201.65C244.349 201.65 243.782 201.717 243.182 201.85C242.582 201.983 242.065 202.133 241.632 202.3L240.782 200.05L244.282 196.8L247.832 197L244.232 201.2L243.132 200.05C243.499 199.883 243.949 199.75 244.482 199.65C245.015 199.583 245.532 199.533 246.032 199.5C247.799 199.467 249.249 199.817 250.382 200.55C251.515 201.283 252.082 202.383 252.082 203.85C252.082 204.983 251.749 205.9 251.082 206.6C250.449 207.333 249.615 207.867 248.582 208.2C247.549 208.567 246.415 208.75 245.182 208.75C243.949 208.75 242.882 208.55 241.982 208.15C241.115 207.783 240.415 207.35 239.882 206.85L241.382 204.9ZM266.343 197.5C264.41 197.5 262.643 197.083 261.043 196.25C259.477 195.417 258.227 194.2 257.293 192.6C256.393 190.967 255.943 188.983 255.943 186.65C255.943 184.35 256.427 182.367 257.393 180.7C258.36 179 259.643 177.7 261.243 176.8C262.877 175.9 264.66 175.45 266.593 175.45C268.527 175.45 270.16 175.9 271.493 176.8C272.827 177.667 273.843 178.7 274.543 179.9L274.243 180.7L274.693 176.3H278.993V197H274.343V191.6L274.843 192.8C274.71 193.133 274.41 193.567 273.943 194.1C273.51 194.6 272.91 195.117 272.143 195.65C271.41 196.183 270.56 196.633 269.593 197C268.627 197.333 267.543 197.5 266.343 197.5ZM267.593 193.65C268.76 193.65 269.81 193.433 270.743 193C271.677 192.567 272.443 191.967 273.043 191.2C273.677 190.4 274.11 189.45 274.343 188.35V184.3C274.077 183.3 273.61 182.433 272.943 181.7C272.277 180.933 271.477 180.35 270.543 179.95C269.61 179.517 268.577 179.3 267.443 179.3C266.21 179.3 265.077 179.6 264.043 180.2C263.01 180.8 262.177 181.633 261.543 182.7C260.943 183.767 260.643 185.017 260.643 186.45C260.643 187.783 260.96 189 261.593 190.1C262.227 191.2 263.077 192.067 264.143 192.7C265.21 193.333 266.36 193.65 267.593 193.65ZM293.64 197.5C291.707 197.5 289.94 197.083 288.34 196.25C286.774 195.417 285.524 194.2 284.59 192.6C283.69 190.967 283.24 188.983 283.24 186.65C283.24 184.35 283.724 182.367 284.69 180.7C285.657 179 286.94 177.7 288.54 176.8C290.174 175.9 291.957 175.45 293.89 175.45C295.824 175.45 297.457 175.9 298.79 176.8C300.124 177.667 301.14 178.7 301.84 179.9L301.54 180.7L301.99 176.3H306.29V197H301.64V191.6L302.14 192.8C302.007 193.133 301.707 193.567 301.24 194.1C300.807 194.6 300.207 195.117 299.44 195.65C298.707 196.183 297.857 196.633 296.89 197C295.924 197.333 294.84 197.5 293.64 197.5ZM294.89 193.65C296.057 193.65 297.107 193.433 298.04 193C298.974 192.567 299.74 191.967 300.34 191.2C300.974 190.4 301.407 189.45 301.64 188.35V184.3C301.374 183.3 300.907 182.433 300.24 181.7C299.574 180.933 298.774 180.35 297.84 179.95C296.907 179.517 295.874 179.3 294.74 179.3C293.507 179.3 292.374 179.6 291.34 180.2C290.307 180.8 289.474 181.633 288.84 182.7C288.24 183.767 287.94 185.017 287.94 186.45C287.94 187.783 288.257 189 288.89 190.1C289.524 191.2 290.374 192.067 291.44 192.7C292.507 193.333 293.657 193.65 294.89 193.65ZM314.337 167.2H318.987V176.4H324.687V180.05H318.987V197H314.337V180.05H310.537V176.4H314.337V167.2Z" fill="#0E4370"/>
</svg>