<svg xmlns="http://www.w3.org/2000/svg" width="564" height="119" viewBox="0 0 564 119" fill="none">
<path d="M253 71.5C265.256 71.7751 270.648 69.8279 276.5 61C280.188 62.5119 281.41 64.1514 281 69.5C278.091 75.0617 275.39 75.9914 270.5 77.5C261.174 78.1939 257.396 76.8235 253 71.5Z" fill="#F12738"/>
<path d="M287.5 39.5C275.13 41.7896 270.196 44.318 266.5 52C267.336 53.6031 267.96 54.483 269.5 56C264.785 63.1758 260.565 64.5188 252.5 66C251.379 59.5507 251.607 56.0883 252.5 50C256.246 43.0153 259.529 40.0086 266.5 35.5C274.332 33.9743 278.962 34.0988 287.5 35.5V39.5Z" fill="black"/>
<path d="M344 85.5V35.5H331V53H312.5V35.5H301.5C306.406 41.421 308.444 45.1053 309.5 53C310.149 57.6862 310.125 60.3138 309.5 65C307.398 74.1798 305.097 78.6669 299 85.5H312.5V65H331V85.5H344Z" fill="black"/>
<path d="M56.5 118.5L34 97.5C42.516 100.515 47.1456 100.811 55 97.5C62.8164 94.4833 67.0052 91.5953 74 83.5C80.9948 75.4047 74 78.5 74 78.5C72.9425 74.8055 72.6359 72.4744 74 68C78.2643 61.9507 81.6194 59.0324 90 55C99.7942 52.4846 104.906 52.5931 113.5 55C113.636 60.4435 113.634 62.6943 113.5 65.5L56.5 118.5Z" fill="#898989"/>
<path d="M176.46 44.42C174.733 43.5333 172.843 42.7633 170.79 42.11C168.737 41.4567 166.73 41.13 164.77 41.13C162.063 41.13 159.893 41.76 158.26 43.02C156.673 44.28 155.88 45.96 155.88 48.06C155.88 49.6467 156.393 51 157.42 52.12C158.447 53.1933 159.8 54.1267 161.48 54.92C163.16 55.7133 164.91 56.46 166.73 57.16C168.317 57.7667 169.88 58.4433 171.42 59.19C172.96 59.9367 174.337 60.87 175.55 61.99C176.81 63.11 177.79 64.4867 178.49 66.12C179.237 67.7533 179.61 69.7833 179.61 72.21C179.61 74.87 178.933 77.2967 177.58 79.49C176.273 81.6833 174.383 83.41 171.91 84.67C169.437 85.93 166.497 86.56 163.09 86.56C160.85 86.56 158.703 86.3033 156.65 85.79C154.643 85.2767 152.777 84.6233 151.05 83.83C149.323 82.99 147.783 82.1267 146.43 81.24L149.44 75.92C150.56 76.7133 151.843 77.4833 153.29 78.23C154.737 78.93 156.253 79.5133 157.84 79.98C159.427 80.4 160.967 80.61 162.46 80.61C164.047 80.61 165.61 80.33 167.15 79.77C168.737 79.1633 170.043 78.2533 171.07 77.04C172.097 75.8267 172.61 74.2167 172.61 72.21C172.61 70.4833 172.143 69.06 171.21 67.94C170.323 66.7733 169.133 65.7933 167.64 65C166.147 64.16 164.56 63.4133 162.88 62.76C161.293 62.1533 159.683 61.5 158.05 60.8C156.417 60.0533 154.9 59.1667 153.5 58.14C152.1 57.0667 150.98 55.76 150.14 54.22C149.3 52.68 148.88 50.8133 148.88 48.62C148.88 45.96 149.51 43.65 150.77 41.69C152.077 39.6833 153.85 38.12 156.09 37C158.33 35.8333 160.897 35.2033 163.79 35.11C167.057 35.11 169.927 35.5067 172.4 36.3C174.92 37.0933 177.137 38.0733 179.05 39.24L176.46 44.42Z" fill="black"/>
<path d="M58 59.8361C65.1739 52.9883 69.5765 49.3714 79 43.8361C88.1668 41.3203 93.3097 41.7589 102.5 45.3361C98.8605 37.341 96.007 34.3102 89 32.3361C82.3132 30.351 78.3823 30.4928 71 33.3361L48 49.8361L58 59.8361Z" fill="#0F66AD"/>
<path d="M57.5 60C50.3261 66.8479 45.9235 70.4647 36.5 76C27.3332 78.5159 22.1903 78.0772 13 74.5C16.6395 82.4951 19.493 85.5259 26.5 87.5C33.1868 89.4852 37.1177 89.3434 44.5 86.5L67.5 70L57.5 60Z" fill="#E91B26"/>
<path d="M193.28 35.39H200.07V86H193.28V35.39Z" fill="black"/>
<path d="M365.72 69.13L346.96 35.39H355.29L370.34 63.32L368.24 63.46L383.15 35.39H391.41L372.51 69.13V86H365.72V69.13ZM396.478 86V35.39H410.268C415.262 35.39 419.508 36.16 423.008 37.7C426.555 39.24 429.402 41.27 431.548 43.79C433.695 46.31 435.258 49.11 436.238 52.19C437.265 55.2233 437.778 58.2567 437.778 61.29C437.778 65.1167 437.102 68.5467 435.748 71.58C434.442 74.6133 432.622 77.2033 430.288 79.35C427.955 81.4967 425.272 83.1533 422.238 84.32C419.252 85.44 416.078 86 412.718 86H396.478ZM403.268 79.49H411.388C414.188 79.49 416.755 79.07 419.088 78.23C421.468 77.39 423.522 76.1767 425.248 74.59C427.022 73.0033 428.398 71.0667 429.378 68.78C430.358 66.4467 430.848 63.81 430.848 60.87C430.848 57.7433 430.335 55.0133 429.308 52.68C428.282 50.3 426.882 48.3167 425.108 46.73C423.335 45.1433 421.328 43.9533 419.088 43.16C416.848 42.32 414.492 41.9 412.018 41.9H403.268V79.49ZM458.424 35.39C460.99 35.39 463.347 35.74 465.494 36.44C467.687 37.0933 469.577 38.0967 471.164 39.45C472.797 40.7567 474.057 42.39 474.944 44.35C475.877 46.2633 476.344 48.5033 476.344 51.07C476.344 53.0767 476.04 55.0367 475.434 56.95C474.874 58.8633 473.917 60.6133 472.564 62.2C471.21 63.74 469.437 65 467.244 65.98C465.097 66.9133 462.437 67.38 459.264 67.38H451.774V86H444.984V35.39H458.424ZM459.124 60.87C461.13 60.87 462.787 60.5667 464.094 59.96C465.447 59.3533 466.497 58.5833 467.244 57.65C467.99 56.67 468.527 55.62 468.854 54.5C469.18 53.38 469.344 52.33 469.344 51.35C469.344 50.3233 469.157 49.2733 468.784 48.2C468.457 47.08 467.897 46.0533 467.104 45.12C466.357 44.1867 465.354 43.4167 464.094 42.81C462.88 42.2033 461.387 41.9 459.614 41.9H451.774V60.87H459.124ZM467.454 64.72L480.684 86H472.844L459.404 64.93L467.454 64.72ZM482.682 60.73C482.682 57.23 483.336 53.94 484.642 50.86C485.996 47.7333 487.862 44.98 490.242 42.6C492.622 40.1733 495.352 38.2833 498.432 36.93C501.559 35.53 504.919 34.83 508.512 34.83C512.059 34.83 515.372 35.53 518.452 36.93C521.579 38.2833 524.332 40.1733 526.712 42.6C529.139 44.98 531.029 47.7333 532.382 50.86C533.736 53.94 534.412 57.23 534.412 60.73C534.412 64.3233 533.736 67.6833 532.382 70.81C531.029 73.9367 529.139 76.69 526.712 79.07C524.332 81.4033 521.579 83.2467 518.452 84.6C515.372 85.9067 512.059 86.56 508.512 86.56C504.919 86.56 501.559 85.9067 498.432 84.6C495.352 83.2933 492.622 81.4733 490.242 79.14C487.862 76.8067 485.996 74.0767 484.642 70.95C483.336 67.8233 482.682 64.4167 482.682 60.73ZM489.682 60.8C489.682 63.46 490.172 65.9567 491.152 68.29C492.132 70.5767 493.486 72.6067 495.212 74.38C496.939 76.1533 498.946 77.5533 501.232 78.58C503.519 79.56 505.992 80.05 508.652 80.05C511.266 80.05 513.716 79.56 516.002 78.58C518.289 77.5533 520.272 76.1533 521.952 74.38C523.632 72.6067 524.962 70.5767 525.942 68.29C526.922 65.9567 527.412 63.4367 527.412 60.73C527.412 58.07 526.922 55.5733 525.942 53.24C524.962 50.86 523.609 48.7833 521.882 47.01C520.156 45.2367 518.149 43.86 515.862 42.88C513.576 41.8533 511.126 41.34 508.512 41.34C505.852 41.34 503.379 41.8533 501.092 42.88C498.806 43.9067 496.799 45.3067 495.072 47.08C493.346 48.8533 492.016 50.93 491.082 53.31C490.149 55.6433 489.682 58.14 489.682 60.8Z" fill="black"/>
<path d="M212.5 85.5V35H223L240 58.5V35H253.5C245.976 42.3889 243.185 47.2371 243.5 58.5C244.048 70.6227 246.524 76.3991 253.5 85.5H240L225.5 64.5V85.5H212.5Z" fill="black"/>
<path d="M268 81.5C280.37 79.2104 285.304 76.682 289 69C288.164 67.3969 287.54 66.517 286 65C290.715 57.8242 294.935 56.4812 303 55C304.121 61.4493 303.893 64.9117 303 71C299.254 77.9847 295.971 80.9915 289 85.5C281.168 87.0258 276.538 86.9012 268 85.5V81.5Z" fill="black"/>
<path d="M301.076 50.1669C288.82 49.8917 283.428 51.839 277.576 60.6669C273.888 59.1549 272.666 57.5155 273.076 52.1669C275.985 46.6052 278.685 45.6755 283.576 44.1669C292.902 43.473 296.68 44.8434 301.076 50.1669Z" fill="#0971C4"/>
<path d="M57.1014 0L79.6014 21C71.0853 17.9851 66.4557 17.689 58.6014 21C50.785 24.0167 46.5962 26.9047 39.6014 35C32.6066 43.0953 39.6014 40 39.6014 40C40.6589 43.6945 40.9655 46.0256 39.6014 50.5C35.3371 56.5493 31.982 59.4676 23.6014 63.5C13.8071 66.0154 8.69576 65.9069 0.101379 63.5C-0.0345559 58.0565 -0.0330671 55.8057 0.101379 53L57.1014 0Z" fill="#898989"/>
</svg>