<svg width="8704" height="6332" viewBox="0 0 8704 6332" fill="none" xmlns="http://www.w3.org/2000/svg">
<path d="M4100.91 2303.64C4100.91 2355.19 4091.14 2399.04 4071.59 2435.21C4052.2 2471.37 4025.74 2498.99 3992.19 2518.07C3958.8 2537 3921.25 2546.46 3879.55 2546.46C3837.54 2546.46 3799.84 2536.92 3766.44 2517.84C3733.05 2498.76 3706.66 2471.14 3687.27 2434.98C3667.88 2398.81 3658.19 2355.03 3658.19 2303.64C3658.19 2252.09 3667.88 2208.23 3687.27 2172.07C3706.66 2135.9 3733.05 2108.36 3766.44 2089.43C3799.84 2070.35 3837.54 2060.81 3879.55 2060.81C3921.25 2060.81 3958.8 2070.35 3992.19 2089.43C4025.74 2108.36 4052.2 2135.9 4071.59 2172.07C4091.14 2208.23 4100.91 2252.09 4100.91 2303.64ZM3999.58 2303.64C3999.58 2270.24 3994.57 2242.08 3984.57 2219.15C3974.72 2196.23 3960.8 2178.84 3942.79 2166.99C3924.79 2155.14 3903.71 2149.22 3879.55 2149.22C3855.39 2149.22 3834.31 2155.14 3816.3 2166.99C3798.3 2178.84 3784.29 2196.23 3774.29 2219.15C3764.44 2242.08 3759.52 2270.24 3759.52 2303.64C3759.52 2337.03 3764.44 2365.19 3774.29 2388.12C3784.29 2411.05 3798.3 2428.44 3816.3 2440.28C3834.31 2452.13 3855.39 2458.06 3879.55 2458.06C3903.71 2458.06 3924.79 2452.13 3942.79 2440.28C3960.8 2428.44 3974.72 2411.05 3984.57 2388.12C3994.57 2365.19 3999.58 2337.03 3999.58 2303.64ZM4466.94 2067.27H4566.88V2374.27C4566.88 2408.74 4558.65 2438.9 4542.18 2464.75C4525.87 2490.6 4503.02 2510.76 4473.63 2525.23C4444.24 2539.54 4410 2546.69 4370.91 2546.69C4331.67 2546.69 4297.36 2539.54 4267.97 2525.23C4238.57 2510.76 4215.72 2490.6 4199.41 2464.75C4183.1 2438.9 4174.94 2408.74 4174.94 2374.27V2067.27H4274.89V2365.73C4274.89 2383.73 4278.81 2399.74 4286.66 2413.74C4294.66 2427.74 4305.9 2438.75 4320.36 2446.75C4334.83 2454.75 4351.68 2458.75 4370.91 2458.75C4390.3 2458.75 4407.15 2454.75 4421.46 2446.75C4435.93 2438.75 4447.09 2427.74 4454.93 2413.74C4462.94 2399.74 4466.94 2383.73 4466.94 2365.73V2067.27ZM4649.11 2540V2067.27H4835.62C4871.32 2067.27 4901.79 2073.66 4927.03 2086.43C4952.42 2099.05 4971.73 2116.98 4984.96 2140.21C4998.35 2163.3 5005.04 2190.46 5005.04 2221.69C5005.04 2253.09 4998.27 2280.09 4984.73 2302.71C4971.19 2325.18 4951.57 2342.41 4925.87 2354.42C4900.33 2366.42 4869.4 2372.42 4833.08 2372.42H4708.2V2292.1H4816.92C4836 2292.1 4851.85 2289.48 4864.47 2284.25C4877.09 2279.02 4886.48 2271.17 4892.63 2260.7C4898.94 2250.24 4902.1 2237.24 4902.1 2221.69C4902.1 2206 4898.94 2192.76 4892.63 2181.99C4886.48 2171.22 4877.01 2163.06 4864.24 2157.52C4851.62 2151.83 4835.7 2148.98 4816.46 2148.98H4749.06V2540H4649.11ZM4904.41 2324.87L5021.89 2540H4911.56L4796.61 2324.87H4904.41ZM3168.23 2854.27L3282.49 3213.43H3286.88L3401.37 2854.27H3512.16L3349.2 3327H3220.4L3057.21 2854.27H3168.23ZM3587.7 3327H3480.6L3643.79 2854.27H3772.59L3935.55 3327H3828.45L3710.04 2962.3H3706.34L3587.7 3327ZM3581.01 3141.19H3833.99V3219.21H3581.01V3141.19ZM3992.45 3327V2854.27H4092.4V3244.6H4295.06V3327H3992.45ZM4653.24 2854.27H4753.19V3161.27C4753.19 3195.74 4744.95 3225.9 4728.49 3251.75C4712.18 3277.6 4689.33 3297.76 4659.93 3312.23C4630.54 3326.54 4596.3 3333.69 4557.22 3333.69C4517.98 3333.69 4483.66 3326.54 4454.27 3312.23C4424.88 3297.76 4402.03 3277.6 4385.72 3251.75C4369.4 3225.9 4361.25 3195.74 4361.25 3161.27V2854.27H4461.19V3152.73C4461.19 3170.73 4465.12 3186.74 4472.97 3200.74C4480.97 3214.74 4492.2 3225.75 4506.67 3233.75C4521.13 3241.75 4537.98 3245.75 4557.22 3245.75C4576.61 3245.75 4593.46 3241.75 4607.77 3233.75C4622.23 3225.75 4633.39 3214.74 4641.24 3200.74C4649.24 3186.74 4653.24 3170.73 4653.24 3152.73V2854.27ZM4835.42 3327V2854.27H5153.95V2936.68H4935.36V3049.32H5137.57V3131.72H4935.36V3244.6H5154.88V3327H4835.42ZM5489.86 2990.23C5488.01 2971.61 5480.09 2957.14 5466.09 2946.83C5452.08 2936.52 5433.08 2931.37 5409.07 2931.37C5392.76 2931.37 5378.99 2933.68 5367.76 2938.29C5356.52 2942.76 5347.9 2948.99 5341.9 2956.99C5336.06 2964.99 5333.13 2974.07 5333.13 2984.23C5332.82 2992.69 5334.59 3000.08 5338.44 3006.39C5342.44 3012.69 5347.9 3018.16 5354.83 3022.77C5361.75 3027.24 5369.76 3031.16 5378.83 3034.55C5387.91 3037.78 5397.61 3040.55 5407.92 3042.86L5450.39 3053.01C5471.01 3057.63 5489.94 3063.78 5507.17 3071.48C5524.41 3079.17 5539.33 3088.64 5551.95 3099.87C5564.57 3111.1 5574.34 3124.34 5581.27 3139.57C5588.35 3154.81 5591.96 3172.27 5592.12 3191.97C5591.96 3220.9 5584.58 3245.98 5569.96 3267.22C5555.49 3288.3 5534.56 3304.69 5507.17 3316.38C5479.94 3327.92 5447.08 3333.69 5408.61 3333.69C5370.45 3333.69 5337.21 3327.85 5308.9 3316.15C5280.73 3304.46 5258.73 3287.14 5242.88 3264.22C5227.18 3241.13 5218.95 3212.59 5218.18 3178.58H5314.9C5315.97 3194.43 5320.51 3207.66 5328.52 3218.28C5336.67 3228.75 5347.52 3236.67 5361.06 3242.06C5374.76 3247.29 5390.22 3249.9 5407.46 3249.9C5424.38 3249.9 5439.08 3247.44 5451.54 3242.52C5464.16 3237.59 5473.93 3230.75 5480.86 3221.98C5487.78 3213.2 5491.25 3203.12 5491.25 3191.74C5491.25 3181.12 5488.09 3172.19 5481.78 3164.96C5475.63 3157.73 5466.55 3151.57 5454.55 3146.5C5442.7 3141.42 5428.15 3136.8 5410.92 3132.65L5359.45 3119.72C5319.59 3110.03 5288.12 3094.87 5265.04 3074.25C5241.96 3053.63 5230.49 3025.85 5230.65 2990.92C5230.49 2962.3 5238.11 2937.29 5253.5 2915.9C5269.04 2894.51 5290.35 2877.82 5317.44 2865.81C5344.52 2853.81 5375.3 2847.81 5409.77 2847.81C5444.85 2847.81 5475.47 2853.81 5501.63 2865.81C5527.95 2877.82 5548.41 2894.51 5563.03 2915.9C5577.65 2937.29 5585.19 2962.07 5585.65 2990.23H5489.86Z" fill="#2E7870"/>
<path d="M4274.2 0.599998L4223.1 51.7C4207.8 55.9 4193.6 63.6 4181.6 74.2L4155 97.9C4144.8 107 4131.5 112 4117.8 112H4098V240C4118.4 240.6 4137.8 248.9 4152.3 263.4L4187.9 299L4194.9 306L4221.9 333C4228.1 339.2 4238.3 339.2 4244.5 333C4246.2 331.3 4247.5 329.3 4248.2 327.2C4251 319.5 4257.5 313.7 4265.5 311.9C4273.5 310.1 4281.9 312.5 4287.7 318.4L4298.5 329C4310.1 340.6 4328.9 340.6 4340.4 329C4345.8 323.6 4348.7 316.7 4349 309.6C4349.4 300.8 4354.6 293 4362.6 289.2C4370.6 285.4 4379.9 286.2 4387 291.3C4396.4 298 4409.5 297.1 4417.9 288.7C4427.3 279.3 4427.3 264.1 4417.9 254.8L4342.1 179L4306.3 212C4279 237.2 4237.1 237.6 4209.3 212.9C4177.6 184.7 4176.9 135.5 4207.7 106.4L4277.8 40.2C4305.2 14.4 4341.4 0 4379.1 0C4415.2 0 4450.1 13.3 4477 37.2L4507.1 64H4546H4586H4626C4634.8 64 4642 71.2 4642 80V288C4642 305.7 4627.7 320 4610 320H4578C4566.2 320 4555.8 313.6 4550.3 304H4465.4C4462 310.7 4457.5 317.1 4451.9 322.7C4434.8 339.8 4411.1 346.5 4388.9 342.8C4385.3 350.1 4380.4 356.9 4374.3 363C4347 390.3 4304.3 393 4273.9 371.1C4248.8 391.9 4211.4 390.6 4187.9 367L4161 340L4154 333L4118.4 297.4C4112.9 291.9 4105.7 288.7 4098 288.1C4098 305.7 4083.6 320 4066 320H4034C4016.3 320 4002 305.7 4002 288V80C4002 71.2 4009.2 64 4018 64H4058H4098H4117.8C4119.8 64 4121.7 63.3 4123.1 62L4149.6 38.4C4177.5 13.7 4213.4 0 4250.7 0H4261C4265.4 0 4269.9 0.199998 4274.2 0.599998ZM4546 256V112H4498C4492.1 112 4486.4 109.8 4482.1 105.9L4445.2 73.1C4427 56.9 4403.5 48 4379.1 48C4353.7 48 4329.3 57.7 4310.8 75.1L4240.7 141.3C4230.4 151.1 4230.6 167.6 4241.2 177C4250.5 185.3 4264.6 185.1 4273.7 176.7L4345.6 110.3C4355.3 101.3 4370.5 101.9 4379.5 111.7C4388.5 121.5 4387.9 136.6 4378.1 145.6L4377.3 146.4L4451.7 220.8C4461.7 230.8 4468.2 243.1 4471.1 255.9H4545.9L4546 256ZM4066 272C4066 267.757 4064.31 263.687 4061.31 260.686C4058.31 257.686 4054.24 256 4050 256C4045.76 256 4041.69 257.686 4038.69 260.686C4035.69 263.687 4034 267.757 4034 272C4034 276.243 4035.69 280.313 4038.69 283.314C4041.69 286.314 4045.76 288 4050 288C4054.24 288 4058.31 286.314 4061.31 283.314C4064.31 280.313 4066 276.243 4066 272ZM4594 288C4598.24 288 4602.31 286.314 4605.31 283.314C4608.31 280.313 4610 276.243 4610 272C4610 267.757 4608.31 263.687 4605.31 260.686C4602.31 257.686 4598.24 256 4594 256C4589.76 256 4585.69 257.686 4582.69 260.686C4579.69 263.687 4578 267.757 4578 272C4578 276.243 4579.69 280.313 4582.69 283.314C4585.69 286.314 4589.76 288 4594 288Z" fill="#2E7870"/>
<g filter="url(#filter0_d_14_69)">
<path d="M3350.79 808H3320.85C3319.08 799.387 3315.98 791.821 3311.55 785.301C3307.2 778.781 3301.89 773.308 3295.61 768.881C3289.42 764.373 3282.53 760.992 3274.97 758.739C3267.4 756.485 3259.51 755.358 3251.3 755.358C3236.33 755.358 3222.77 759.141 3210.61 766.707C3198.54 774.274 3188.92 785.422 3181.76 800.152C3174.67 814.882 3171.13 832.953 3171.13 854.364C3171.13 875.775 3174.67 893.845 3181.76 908.575C3188.92 923.305 3198.54 934.454 3210.61 942.02C3222.77 949.586 3236.33 953.369 3251.3 953.369C3259.51 953.369 3267.4 952.242 3274.97 949.989C3282.53 947.735 3289.42 944.394 3295.61 939.967C3301.89 935.46 3307.2 929.946 3311.55 923.426C3315.98 916.826 3319.08 909.259 3320.85 900.727H3350.79C3348.54 913.365 3344.43 924.674 3338.48 934.655C3332.52 944.636 3325.11 953.128 3316.26 960.131C3307.41 967.053 3297.47 972.325 3286.44 975.947C3275.49 979.57 3263.78 981.381 3251.3 981.381C3230.21 981.381 3211.46 976.229 3195.04 965.926C3178.62 955.623 3165.7 940.973 3156.28 921.977C3146.86 902.981 3142.16 880.443 3142.16 854.364C3142.16 828.284 3146.86 805.746 3156.28 786.75C3165.7 767.754 3178.62 753.104 3195.04 742.801C3211.46 732.498 3230.21 727.347 3251.3 727.347C3263.78 727.347 3275.49 729.158 3286.44 732.78C3297.47 736.402 3307.41 741.714 3316.26 748.717C3325.11 755.64 3332.52 764.091 3338.48 774.072C3344.43 783.973 3348.54 795.282 3350.79 808ZM3607.81 854.364C3607.81 880.443 3603.11 902.981 3593.69 921.977C3584.27 940.973 3571.35 955.623 3554.93 965.926C3538.51 976.229 3519.76 981.381 3498.67 981.381C3477.58 981.381 3458.82 976.229 3442.4 965.926C3425.98 955.623 3413.06 940.973 3403.64 921.977C3394.23 902.981 3389.52 880.443 3389.52 854.364C3389.52 828.284 3394.23 805.746 3403.64 786.75C3413.06 767.754 3425.98 753.104 3442.4 742.801C3458.82 732.498 3477.58 727.347 3498.67 727.347C3519.76 727.347 3538.51 732.498 3554.93 742.801C3571.35 753.104 3584.27 767.754 3593.69 786.75C3603.11 805.746 3607.81 828.284 3607.81 854.364ZM3578.84 854.364C3578.84 832.953 3575.25 814.882 3568.09 800.152C3561.01 785.422 3551.39 774.274 3539.23 766.707C3527.16 759.141 3513.64 755.358 3498.67 755.358C3483.69 755.358 3470.13 759.141 3457.98 766.707C3445.9 774.274 3436.28 785.422 3429.12 800.152C3422.04 814.882 3418.5 832.953 3418.5 854.364C3418.5 875.775 3422.04 893.845 3429.12 908.575C3436.28 923.305 3445.9 934.454 3457.98 942.02C3470.13 949.586 3483.69 953.369 3498.67 953.369C3513.64 953.369 3527.16 949.586 3539.23 942.02C3551.39 934.454 3561.01 923.305 3568.09 908.575C3575.25 893.845 3578.84 875.775 3578.84 854.364ZM3658.16 730.727H3693.9L3777.93 935.983H3780.83L3864.87 730.727H3900.61V978H3872.59V790.131H3870.18L3792.91 978H3765.86L3688.59 790.131H3686.17V978H3658.16V730.727ZM3960.64 730.727H3996.38L4080.42 935.983H4083.31L4167.35 730.727H4203.09V978H4175.07V790.131H4172.66L4095.39 978H4068.34L3991.07 790.131H3988.65V978H3960.64V730.727ZM4293.07 730.727V978H4263.12V730.727H4293.07ZM4339.58 757.29V730.727H4525.04V757.29H4447.28V978H4417.34V757.29H4339.58ZM4571.25 730.727H4606.99L4691.02 935.983H4693.92L4777.95 730.727H4813.69V978H4785.68V790.131H4783.26L4705.99 978H4678.95L4601.67 790.131H4599.26V978H4571.25V730.727ZM4873.73 978V730.727H5022.96V757.29H4903.67V840.841H5015.23V867.403H4903.67V951.438H5024.89V978H4873.73ZM5273.01 730.727V978H5244.03L5109.29 783.852H5106.87V978H5076.93V730.727H5105.91L5241.14 925.358H5243.55V730.727H5273.01ZM5319.4 757.29V730.727H5504.86V757.29H5427.1V978H5397.16V757.29H5319.4Z" fill="#2E7870"/>
</g>
<rect x="2806" y="567" width="634" height="584" fill="#3EE0CF" fill-opacity="0.5"/>
<rect x="3436" y="567" width="892" height="584" fill="#3EE0CF" fill-opacity="0.4"/>
<rect x="4328" y="567" width="892" height="584" fill="#3EE0CF" fill-opacity="0.3"/>
<rect x="5220" y="567" width="634" height="584" fill="#3EE0CF" fill-opacity="0.2"/>
<path d="M3195.5 1069L3051 1010V734.5L3195.5 649" stroke="#3EE0CF" stroke-width="50"/>
<path d="M5465 649L5609.5 708V983.5L5465 1069" stroke="#3EE0CF" stroke-width="50"/>
<path d="M5247.67 4144.89C5239.17 4132.71 5235.86 4117.65 5238.46 4103.03C5241.07 4088.41 5249.37 4075.42 5261.55 4066.92C5273.74 4058.42 5288.79 4055.11 5303.42 4057.72C5318.04 4060.32 5331.03 4068.63 5339.52 4080.81C5348.02 4092.99 5351.33 4108.05 5348.73 4122.67C5346.12 4137.29 5337.81 4150.28 5325.63 4158.78C5313.45 4167.28 5298.39 4170.59 5283.77 4167.98C5269.15 4165.38 5256.16 4157.07 5247.67 4144.89ZM5331.33 4278.81C5329.54 4293.71 5333.14 4309.37 5342.41 4322.65C5351.68 4335.94 5365.12 4344.73 5379.73 4348.19L5331.27 4278.72L5331.33 4278.81ZM5421.55 4155.76C5412.24 4194.32 5418.93 4236.59 5443.42 4271.7C5463.04 4299.83 5490.91 4318.8 5521.44 4327.61L5533.74 4345.25C5543.87 4359.76 5540.32 4379.67 5525.81 4389.8L5473.32 4426.42C5458.8 4436.54 5438.89 4433 5428.76 4418.48L5413.43 4396.5C5372.13 4403.36 5328.61 4386.78 5303.04 4350.11C5267.63 4299.35 5280.05 4229.59 5330.82 4194.18L5357.06 4175.87C5376.75 4162.14 5399.25 4155.59 5421.5 4155.67L5421.55 4155.76ZM5743.71 4198.78L5731.4 4181.15C5733.68 4149.45 5725.5 4116.74 5705.87 4088.61C5681.38 4053.51 5644.02 4032.63 5604.56 4027.97C5612.16 4007.06 5626.08 3988.21 5645.76 3974.48L5672.01 3956.17C5722.77 3920.76 5792.53 3933.18 5827.94 3983.95C5853.52 4020.61 5854.06 4067.18 5833.35 4103.57L5848.69 4125.55C5858.81 4140.06 5855.27 4159.97 5840.75 4170.1L5788.26 4206.72C5773.74 4216.84 5753.83 4213.3 5743.71 4198.78ZM5562.61 3925.19C5554.11 3913.01 5550.8 3897.95 5553.4 3883.33C5556.01 3868.71 5564.32 3855.72 5576.5 3847.22C5588.68 3838.72 5603.74 3835.41 5618.36 3838.02C5632.98 3840.62 5645.97 3848.93 5654.46 3861.11C5662.96 3873.29 5666.27 3888.35 5663.67 3902.97C5661.06 3917.59 5652.76 3930.58 5640.58 3939.08C5628.39 3947.58 5613.34 3950.89 5598.71 3948.28C5584.09 3945.68 5571.1 3937.37 5562.61 3925.19ZM5751.25 3985.87L5799.71 4055.34C5801.45 4040.35 5797.9 4024.78 5788.63 4011.49C5779.36 3998.21 5765.92 3989.42 5751.31 3985.96L5751.25 3985.87ZM5419.03 3957.07C5432.95 3947.36 5450.16 3943.58 5466.87 3946.55C5483.58 3949.53 5498.42 3959.02 5508.13 3972.94C5517.84 3986.87 5521.63 4004.07 5518.65 4020.79C5515.67 4037.5 5506.18 4052.34 5492.26 4062.05C5478.34 4071.76 5461.13 4075.55 5444.42 4072.57C5427.71 4069.59 5412.86 4060.1 5403.15 4046.18C5393.44 4032.26 5389.66 4015.05 5392.63 3998.34C5395.61 3981.63 5405.1 3966.78 5419.03 3957.07ZM5509.03 4225.93C5518.3 4239.21 5531.69 4247.92 5546.36 4251.46L5497.9 4182C5496.16 4196.99 5499.71 4212.56 5508.98 4225.84L5509.03 4225.93ZM5602.93 4108.85L5651.39 4178.31C5653.13 4163.32 5649.58 4147.75 5640.32 4134.47C5631.05 4121.18 5617.6 4112.39 5602.99 4108.93L5602.93 4108.85ZM5679.63 4106.92C5705.2 4143.58 5705.74 4190.15 5685.04 4226.54L5709.52 4261.64C5719.65 4276.16 5716.1 4296.07 5701.59 4306.19L5649.1 4342.81C5634.58 4352.94 5614.67 4349.39 5604.54 4334.87L5580.06 4299.77C5538.76 4306.64 5495.24 4290.05 5469.67 4253.39C5434.25 4202.62 5446.68 4132.87 5497.44 4097.45L5523.69 4079.14C5574.46 4043.73 5644.21 4056.15 5679.63 4106.92Z" fill="#2E7870"/>
<g filter="url(#filter1_d_14_69)">
<path d="M5040.13 5219.1L5024.94 5197.31L5177.04 5091.21L5192.24 5112.99L5128.46 5157.48L5254.74 5338.5L5230.18 5355.63L5103.91 5174.61L5040.13 5219.1ZM5356.41 5267.57L5214.94 5064.77L5337.34 4979.39L5352.53 5001.17L5254.7 5069.42L5302.5 5137.95L5394 5074.12L5409.2 5095.91L5317.7 5159.73L5365.78 5228.66L5465.2 5159.3L5480.39 5181.09L5356.41 5267.57ZM5531.39 5145.51L5505.65 5163.47L5438.64 4908.72L5463.99 4891.04L5679.93 5041.89L5654.18 5059.85L5474.49 4931.41L5472.9 4932.51L5531.39 5145.51ZM5485.64 5059.66L5589.41 4987.26L5604.61 5009.05L5500.83 5081.44L5485.64 5059.66ZM5570.05 4817.05L5599.36 4796.61L5785.71 4916.87L5788.09 4915.21L5739.58 4698.79L5768.89 4678.34L5910.36 4881.15L5887.39 4897.17L5779.9 4743.09L5777.92 4744.47L5822.03 4942.76L5799.85 4958.24L5628.99 4848.37L5627.01 4849.75L5734.49 5003.83L5711.52 5019.86L5570.05 4817.05ZM6042.83 4562.62C6034.64 4553.41 6024.39 4548.98 6012.07 4549.33C5999.75 4549.68 5987.45 4554.14 5975.18 4562.7C5966.2 4568.97 5959.35 4575.9 5954.65 4583.5C5950.01 4591.06 5947.58 4598.69 5947.36 4606.4C5947.21 4614.06 5949.39 4621.13 5953.9 4627.6C5957.68 4633.01 5962.21 4636.77 5967.5 4638.86C5972.82 4640.85 5978.42 4641.7 5984.31 4641.42C5990.15 4641.08 5995.89 4640.16 6001.53 4638.68C6007.13 4637.14 6012.15 4635.54 6016.6 4633.91L6041.07 4625.09C6047.32 4622.79 6054.53 4620.6 6062.7 4618.53C6070.94 4616.42 6079.51 4615.4 6088.39 4615.48C6097.3 4615.45 6105.99 4617.34 6114.44 4621.16C6122.89 4624.98 6130.44 4631.64 6137.07 4641.15C6144.71 4652.11 6148.75 4664.01 6149.18 4676.87C6149.67 4689.67 6146.26 4702.51 6138.94 4715.37C6131.68 4728.18 6120.26 4740.02 6104.68 4750.89C6090.16 4761.02 6075.95 4767.45 6062.05 4770.18C6048.22 4772.86 6035.34 4772.13 6023.42 4767.98C6011.56 4763.78 6001.37 4756.42 5992.84 4745.88L6018.19 4728.2C6024.19 4735.39 6031.19 4739.94 6039.18 4741.82C6047.19 4743.59 6055.51 4743.29 6064.15 4740.89C6072.8 4738.39 6081.16 4734.33 6089.21 4728.71C6098.58 4722.17 6105.94 4714.78 6111.28 4706.54C6116.58 4698.23 6119.49 4689.82 6120.03 4681.3C6120.52 4672.71 6118.18 4664.72 6113.03 4657.33C6108.33 4650.6 6102.62 4646.43 6095.91 4644.83C6089.2 4643.23 6081.86 4643.25 6073.88 4644.89C6065.89 4646.54 6057.65 4648.85 6049.14 4651.85L6019.21 4662.12C6000.19 4668.62 5983.11 4670.87 5967.97 4668.87C5952.83 4666.86 5940.5 4659.03 5930.97 4645.36C5923.04 4634.01 5919.21 4621.96 5919.45 4609.23C5919.72 4596.39 5923.43 4583.98 5930.59 4572.02C5937.77 4559.94 5947.83 4549.39 5960.77 4540.37C5973.84 4531.25 5987.1 4525.49 6000.53 4523.08C6013.92 4520.61 6026.4 4521.33 6037.96 4525.24C6049.58 4529.1 6059.13 4536.04 6066.6 4546.04L6042.83 4562.62ZM6215.85 4668.04L6074.38 4465.24L6142.91 4417.43C6158.82 4406.33 6173.82 4400.13 6187.93 4398.83C6202.06 4397.42 6214.95 4399.86 6226.6 4406.15C6238.26 4412.45 6248.25 4421.57 6256.59 4433.52C6264.93 4445.47 6270.06 4458.04 6271.99 4471.21C6273.99 4484.35 6271.96 4497.34 6265.91 4510.2C6259.82 4522.98 6248.88 4534.88 6233.1 4545.89L6183.99 4580.15L6168.79 4558.37L6217.11 4524.66C6228.01 4517.06 6235.44 4509.07 6239.42 4500.71C6243.4 4492.34 6244.64 4483.92 6243.14 4475.44C6241.66 4466.85 6238.09 4458.5 6232.43 4450.38C6226.76 4442.26 6220.18 4436.06 6212.68 4431.77C6205.24 4427.44 6196.92 4425.78 6187.72 4426.8C6178.47 4427.76 6168.34 4432.08 6157.31 4439.77L6114.14 4469.89L6240.41 4650.91L6215.85 4668.04ZM6275.95 4324.63L6417.42 4527.43L6392.86 4544.56L6251.39 4341.76L6275.95 4324.63ZM6466.66 4493.08L6325.19 4290.28L6393.71 4242.47C6409.56 4231.42 6424.45 4225.06 6438.39 4223.38C6452.29 4221.63 6464.95 4223.74 6476.37 4229.71C6487.8 4235.68 6497.68 4244.63 6506.01 4256.58C6514.35 4268.53 6519.3 4280.83 6520.86 4293.48C6522.42 4306.13 6520 4318.62 6513.58 4330.95C6507.12 4343.21 6496.03 4354.82 6480.32 4365.78L6424.86 4404.47L6409.39 4382.28L6464.05 4344.15C6474.88 4336.6 6482.49 4328.94 6486.88 4321.16C6491.34 4313.34 6493.02 4305.49 6491.94 4297.61C6490.88 4289.62 6487.52 4281.56 6481.85 4273.44C6476.19 4265.32 6469.72 4259.28 6462.44 4255.33C6455.17 4251.37 6447.05 4250.07 6438.08 4251.42C6429.06 4252.7 6419.07 4257.17 6408.12 4264.81L6364.94 4294.93L6491.22 4475.95L6466.66 4493.08ZM6498.57 4335.39L6612.03 4391.67L6583.51 4411.57L6470.84 4354.73L6498.57 4335.39ZM6528.11 4148.72L6669.59 4351.52L6645.03 4368.65L6503.55 4165.85L6528.11 4148.72ZM6581.46 4143.89L6566.26 4122.1L6718.36 4016L6733.56 4037.79L6669.79 4082.27L6796.07 4263.29L6771.51 4280.42L6645.23 4099.4L6581.46 4143.89Z" fill="#2E7870"/>
</g>
<rect x="4524.3" y="5346.92" width="634" height="584" transform="rotate(-34.8991 4524.3 5346.92)" fill="#3EE0CF" fill-opacity="0.5"/>
<rect x="5041" y="4986.48" width="892" height="584" transform="rotate(-34.8991 5041 4986.48)" fill="#3EE0CF" fill-opacity="0.4"/>
<rect x="5772.58" y="4476.14" width="892" height="584" transform="rotate(-34.8991 5772.58 4476.14)" fill="#3EE0CF" fill-opacity="0.3"/>
<rect x="6504.17" y="3965.79" width="634" height="584" transform="rotate(-34.8991 6504.17 3965.79)" fill="#3EE0CF" fill-opacity="0.2"/>
<path d="M5130.96 5535.8L4978.69 5570.08L4821.07 5344.13L4890.67 5191.33" stroke="#3EE0CF" stroke-width="50"/>
<path d="M6752.02 3892.87L6904.29 3858.59L7061.91 4084.54L6992.32 4237.34" stroke="#3EE0CF" stroke-width="50"/>
<path d="M3315.87 4034.54L3427.92 4096.4C3443.42 4104.95 3449.03 4124.38 3440.47 4139.88C3431.92 4155.38 3412.49 4160.98 3396.99 4152.43L3297.54 4097.52C3280.52 4117.6 3254.73 4127.69 3229.23 4125.26L3086.79 4383.25L3226.86 4460.58C3242.36 4469.14 3247.97 4488.57 3239.41 4504.07C3230.86 4519.56 3211.43 4525.17 3195.93 4516.61L3027.85 4423.82L2859.76 4331.02C2844.27 4322.46 2838.66 4303.03 2847.21 4287.54C2855.77 4272.04 2875.2 4266.44 2890.69 4274.99L3030.76 4352.32L3173.2 4094.33C3157.6 4073.95 3152.4 4046.75 3160.27 4021.74L3060.82 3966.83C3045.33 3958.28 3039.72 3938.85 3048.27 3923.35C3056.83 3907.86 3076.26 3902.25 3091.75 3910.81L3203.81 3972.67C3225.97 3962.74 3252.37 3962.93 3275.31 3975.59C3298.24 3988.25 3312.46 4010.5 3315.87 4034.54ZM3225.35 4313.54L3352.2 4383.57L3348.76 4239.8L3225.35 4313.54ZM3242.33 4432.57C3187.26 4402.17 3157.91 4347.13 3170.16 4302.6C3173.2 4291.71 3181.81 4283.56 3191.54 4277.74L3353.76 4180.88C3362.29 4175.76 3372.86 4175.66 3381.53 4180.44C3390.19 4185.23 3395.69 4194.31 3395.95 4204.17L3400.42 4393.06C3400.67 4404.39 3398.36 4416.02 3390.77 4424.4C3359.61 4458.48 3297.4 4462.97 3242.33 4432.57ZM3011.54 4053.62L2888.13 4127.36L3014.98 4197.39L3011.54 4053.62ZM2833.02 4116.47C2836.06 4105.59 2844.68 4097.43 2854.4 4091.61L3016.62 3994.75C3025.16 3989.64 3035.73 3989.53 3044.39 3994.32C3053.06 3999.1 3058.55 4008.19 3058.82 4018.05L3063.29 4206.93C3063.54 4218.26 3061.23 4229.9 3053.64 4238.27C3022.39 4272.31 2960.17 4276.8 2905.11 4246.4C2850.04 4216 2820.78 4161 2833.02 4116.47Z" fill="#2E7870"/>
<g filter="url(#filter2_d_14_69)">
<path d="M2186 4313.39L2066.49 4529.86L2040.27 4515.39L2159.79 4298.91L2186 4313.39ZM2410.21 4437.17L2290.7 4653.65L2265.33 4639.64L2241.21 4404.55L2239.1 4403.38L2145.26 4573.35L2119.05 4558.88L2238.56 4342.4L2263.93 4356.41L2288.24 4592.16L2290.35 4593.32L2384.42 4422.93L2410.21 4437.17ZM2437.99 4482.85L2450.83 4459.6L2613.18 4549.23L2600.35 4572.48L2532.28 4534.9L2425.6 4728.12L2399.39 4713.65L2506.06 4520.43L2437.99 4482.85ZM2534.13 4788.04L2653.64 4571.57L2784.29 4643.69L2771.45 4666.95L2667.02 4609.29L2626.63 4682.44L2724.3 4736.36L2711.46 4759.61L2613.8 4705.69L2573.18 4779.26L2679.3 4837.85L2666.46 4861.1L2534.13 4788.04ZM2942.17 4819.12C2943.77 4810.72 2944.23 4802.65 2943.53 4794.92C2942.95 4787.15 2941.16 4779.81 2938.16 4772.92C2935.23 4766.06 2931.08 4759.77 2925.69 4754.04C2920.31 4748.3 2913.7 4743.28 2905.88 4738.96C2893.06 4731.88 2879.56 4728.75 2865.41 4729.58C2851.25 4730.41 2837.51 4735.56 2824.19 4745.03C2810.87 4754.5 2799.04 4768.61 2788.69 4787.35C2778.34 4806.1 2772.74 4823.65 2771.9 4840.01C2771.05 4856.36 2774.15 4870.81 2781.2 4883.35C2788.26 4895.89 2798.48 4905.85 2811.87 4913.24C2824.27 4920.09 2836.65 4923.48 2849.01 4923.4C2861.48 4923.3 2873.04 4919.85 2883.7 4913.04C2894.46 4906.2 2903.5 4896.16 2910.81 4882.91L2917.91 4889.04L2852.8 4853.09L2865.64 4829.84L2948.08 4875.35L2935.25 4898.61C2925.4 4916.43 2913.04 4929.84 2898.15 4938.81C2883.34 4947.83 2867.27 4952.29 2849.94 4952.19C2832.73 4952.07 2815.52 4947.26 2798.33 4937.76C2779.16 4927.18 2764.81 4913.37 2755.27 4896.34C2745.81 4879.34 2741.61 4860.3 2742.69 4839.19C2743.84 4818.13 2750.72 4796.18 2763.32 4773.35C2772.78 4756.22 2783.57 4742.09 2795.69 4730.95C2807.93 4719.78 2820.94 4711.7 2834.73 4706.71C2848.51 4701.73 2862.6 4699.85 2877 4701.09C2891.4 4702.32 2905.54 4706.77 2919.42 4714.44C2930.83 4720.74 2940.52 4728.34 2948.48 4737.24C2956.55 4746.11 2962.73 4755.82 2967.02 4766.37C2971.41 4776.89 2973.83 4787.92 2974.26 4799.47C2974.73 4810.94 2973.05 4822.47 2969.22 4834.06L2942.17 4819.12ZM2933.22 5008.38L3052.74 4791.9L3125.88 4832.28C3142.79 4841.62 3155.08 4852.17 3162.74 4863.94C3170.44 4875.64 3174.14 4887.94 3173.83 4900.82C3173.52 4913.71 3169.84 4926.53 3162.8 4939.28C3155.76 4952.03 3146.91 4961.9 3136.25 4968.89C3125.59 4975.88 3113.31 4979.21 3099.41 4978.9C3085.56 4978.51 3070.25 4973.69 3053.48 4964.43L2994.28 4931.75L3007.36 4908.08L3065.7 4940.29C3077.26 4946.67 3087.49 4950.11 3096.41 4950.62C3105.39 4951.17 3113.18 4949.22 3119.78 4944.77C3126.48 4940.28 3132.22 4933.71 3137.01 4925.04C3141.8 4916.37 3144.36 4907.9 3144.69 4899.63C3145.03 4891.36 3142.61 4883.5 3137.44 4876.04C3132.31 4868.52 3123.89 4861.53 3112.2 4855.07L3066.11 4829.63L2959.44 5022.85L2933.22 5008.38ZM3088.81 4967.39L3088.39 5094.04L3057.95 5077.24L3059.21 4951.05L3088.81 4967.39ZM3269.34 4911.49L3149.83 5127.96L3123.62 5113.49L3243.13 4897.02L3269.34 4911.49ZM3297.22 4957.22L3310.06 4933.97L3472.42 5023.6L3459.58 5046.86L3391.51 5009.28L3284.83 5202.5L3258.62 5188.02L3365.3 4994.8L3297.22 4957.22ZM3494.27 5035.67L3524.29 5052.24L3528.54 5186.44L3531.08 5187.84L3646.9 5119.93L3676.92 5136.51L3528.44 5220.59L3479.19 5309.8L3452.98 5295.33L3502.23 5206.11L3494.27 5035.67Z" fill="#2E7870"/>
</g>
<rect x="1657.93" y="3835.4" width="634" height="584" transform="rotate(28.9026 1657.93 3835.4)" fill="#3EE0CF" fill-opacity="0.5"/>
<rect x="2213.02" y="4141.28" width="892" height="584" transform="rotate(28.9026 2213.02 4141.28)" fill="#3EE0CF" fill-opacity="0.4"/>
<rect x="2993.91" y="4572.4" width="892" height="584" transform="rotate(28.9026 2993.91 4572.4)" fill="#3EE0CF" fill-opacity="0.3"/>
<rect x="3774.81" y="5003.53" width="634" height="584" transform="rotate(28.9026 3774.81 5003.53)" fill="#3EE0CF" fill-opacity="0.2"/>
<path d="M1952.45 4570.85L1854.46 4449.36L1987.62 4208.17L2155.44 4203.16" stroke="#3EE0CF" stroke-width="50"/>
<path d="M3717.67 5065.65L3815.65 5187.14L3682.5 5428.32L3514.67 5433.33" stroke="#3EE0CF" stroke-width="50"/>
<g filter="url(#filter3_d_14_69)">
<path d="M6671.97 1683.55L6464.75 1818.48L6448.41 1793.38L6655.63 1658.45L6671.97 1683.55ZM6811.72 1898.17L6604.5 2033.1L6588.69 2008.82L6677.86 1789.96L6676.55 1787.94L6513.85 1893.88L6497.51 1868.79L6704.73 1733.86L6720.54 1758.14L6631.23 1977.67L6632.54 1979.69L6795.64 1873.49L6811.72 1898.17ZM6951.41 2112.7L6744.19 2247.63L6728.38 2223.34L6817.55 2004.49L6816.23 2002.47L6653.54 2108.4L6637.2 2083.31L6844.41 1948.38L6860.23 1972.67L6770.91 2192.19L6772.23 2194.22L6935.33 2088.01L6951.41 2112.7ZM6994.34 2405.21C6972.48 2419.44 6951.03 2427.8 6929.97 2430.27C6908.91 2432.74 6889.59 2429.91 6871.99 2421.77C6854.4 2413.63 6839.85 2400.73 6828.34 2383.05C6816.83 2365.38 6810.92 2346.85 6810.59 2327.47C6810.26 2308.09 6815.49 2289.27 6826.27 2271.01C6837.05 2252.75 6853.37 2236.51 6875.22 2222.28C6897.08 2208.05 6918.53 2199.7 6939.59 2197.22C6960.65 2194.75 6979.98 2197.58 6997.57 2205.72C7015.16 2213.86 7029.71 2226.77 7041.22 2244.44C7052.73 2262.11 7058.65 2280.64 7058.97 2300.02C7059.3 2319.4 7054.07 2338.22 7043.29 2356.48C7032.51 2374.74 7016.19 2390.98 6994.34 2405.21ZM6978.53 2380.93C6996.47 2369.25 7009.66 2356.38 7018.09 2342.34C7026.57 2328.37 7030.67 2314.23 7030.37 2299.91C7030.13 2285.67 7025.92 2272.27 7017.75 2259.72C7009.58 2247.18 6999.01 2237.87 6986.04 2231.82C6973.11 2225.83 6958.52 2223.85 6942.26 2225.89C6926.05 2227.99 6908.98 2234.88 6891.04 2246.56C6873.09 2258.25 6859.88 2271.07 6851.4 2285.05C6842.97 2299.09 6838.87 2313.23 6839.12 2327.48C6839.41 2341.79 6843.64 2355.22 6851.81 2367.77C6859.98 2380.32 6870.53 2389.58 6883.46 2395.57C6896.43 2401.63 6911.03 2403.61 6927.23 2401.51C6943.49 2399.47 6960.58 2392.61 6978.53 2380.93ZM7124.61 2378.7L6990.24 2553.8L6991.82 2556.23L7206.31 2504.16L7223.44 2530.47L6966.68 2589.31L6949.81 2563.41L7107.48 2352.39L7124.61 2378.7ZM7031.18 2688.37L7014.05 2662.06L7270.81 2603.22L7287.67 2629.12L7130 2840.14L7112.87 2813.83L7246.98 2638.33L7245.93 2636.71L7031.18 2688.37ZM7118.44 2645.37L7187.49 2751.41L7165.23 2765.9L7096.19 2659.87L7118.44 2645.37ZM7312.83 2716.44L7335.09 2701.94L7436.29 2857.36L7414.03 2871.85L7371.6 2806.69L7186.64 2927.12L7170.3 2902.03L7355.26 2781.6L7312.83 2716.44ZM7477.84 2921.18L7270.63 3056.1L7254.29 3031.01L7461.5 2896.08L7477.84 2921.18ZM7520.84 3213.79C7498.99 3228.02 7477.53 3236.37 7456.47 3238.85C7435.41 3241.32 7416.09 3238.49 7398.49 3230.35C7380.9 3222.21 7366.35 3209.3 7354.84 3191.63C7343.33 3173.96 7337.42 3155.43 7337.09 3136.05C7336.77 3116.67 7341.99 3097.85 7352.77 3079.59C7363.55 3061.33 7379.87 3045.09 7401.72 3030.86C7423.58 3016.63 7445.04 3008.27 7466.09 3005.8C7487.15 3003.33 7506.48 3006.16 7524.07 3014.3C7541.66 3022.44 7556.22 3035.34 7567.72 3053.01C7579.23 3070.69 7585.15 3089.21 7585.47 3108.6C7585.8 3127.98 7580.57 3146.8 7569.79 3165.06C7559.01 3183.31 7542.69 3199.56 7520.84 3213.79ZM7505.03 3189.51C7522.97 3177.82 7536.16 3164.96 7544.59 3150.92C7553.07 3136.95 7557.17 3122.8 7556.88 3108.49C7556.63 3094.24 7552.42 3080.85 7544.25 3068.3C7536.08 3055.75 7525.51 3046.45 7512.54 3040.39C7499.61 3034.4 7485.02 3032.43 7468.76 3034.46C7452.55 3036.56 7435.48 3043.46 7417.54 3055.14C7399.59 3066.82 7386.38 3079.65 7377.9 3093.62C7369.47 3107.67 7365.38 3121.81 7365.62 3136.06C7365.92 3150.37 7370.15 3163.8 7378.32 3176.35C7386.48 3188.89 7397.03 3198.16 7409.96 3204.15C7422.94 3210.21 7437.53 3212.18 7453.74 3210.08C7469.99 3208.05 7487.09 3201.19 7505.03 3189.51ZM7758.91 3352.83L7551.7 3487.76L7535.89 3463.48L7625.06 3244.62L7623.74 3242.6L7461.04 3348.54L7444.71 3323.44L7651.92 3188.52L7667.73 3212.8L7578.42 3432.32L7579.74 3434.35L7742.84 3328.14L7758.91 3352.83Z" fill="#2E7870"/>
</g>
<rect x="6501.39" y="1150.86" width="634" height="584" transform="rotate(56.93 6501.39 1150.86)" fill="#3EE0CF" fill-opacity="0.5"/>
<rect x="6845.16" y="1678.8" width="892" height="584" transform="rotate(56.93 6845.16 1678.8)" fill="#3EE0CF" fill-opacity="0.4"/>
<rect x="7331.89" y="2426.3" width="892" height="584" transform="rotate(56.93 7331.89 2426.3)" fill="#3EE0CF" fill-opacity="0.3"/>
<rect x="7818.63" y="3173.8" width="634" height="584" transform="rotate(56.93 7818.63 3173.8)" fill="#3EE0CF" fill-opacity="0.2"/>
<path d="M6293.25 1751.19L6263.85 1597.9L6494.72 1447.57L6645.21 1522.01" stroke="#3EE0CF" stroke-width="50"/>
<path d="M7883.6 3423.86L7913 3577.15L7682.13 3727.48L7531.64 3653.04" stroke="#3EE0CF" stroke-width="50"/>
<path d="M7719.56 2299.42C7744.68 2300.24 7770.29 2293.59 7793.09 2278.74C7852.33 2240.17 7869.09 2160.88 7830.51 2101.63C7791.93 2042.39 7712.64 2025.64 7653.4 2064.22C7630.6 2079.06 7614.15 2099.79 7604.75 2123.1C7602.33 2129.09 7599.7 2136.05 7596.9 2143.49C7589.11 2163.95 7579.74 2188.43 7568.5 2209.47C7558.26 2228.55 7544.56 2243.8 7530.3 2256.18L7503.65 2215.42C7512.5 2207.03 7520.29 2197.55 7526.12 2186.71C7535.8 2168.59 7543.25 2149.06 7550.7 2129.53C7553.82 2121.3 7556.93 2113.07 7560.23 2104.95C7573.28 2072.94 7595.95 2044.34 7627.21 2023.99C7708.66 1970.95 7817.69 1993.99 7870.73 2075.44C7923.77 2156.9 7900.73 2265.93 7819.28 2318.97C7788.02 2339.32 7752.7 2348.48 7718.09 2347.39C7709.33 2347.12 7700.54 2346.64 7691.76 2346.16C7670.97 2345.02 7650.09 2343.93 7629.52 2345.51C7617.25 2346.46 7605.43 2349.74 7594.17 2354.45L7567.65 2313.72C7584.74 2305.7 7604.31 2299.28 7625.82 2297.68C7649.61 2295.91 7675.78 2297.25 7697.65 2298.4C7705.58 2298.85 7712.96 2299.18 7719.42 2299.39L7719.56 2299.42ZM7763.47 2145.29C7749.01 2123.08 7719.26 2116.8 7697.05 2131.26C7689.68 2136.06 7679.71 2133.95 7674.91 2126.58C7670.11 2119.2 7672.21 2109.24 7679.59 2104.44C7716.63 2080.32 7766.16 2090.79 7790.28 2127.83C7795.08 2135.2 7792.98 2145.16 7785.61 2149.97C7778.23 2154.77 7768.27 2152.66 7763.47 2145.29ZM7441.67 2354.82C7417.55 2317.78 7428.02 2268.25 7465.06 2244.13L7478.47 2235.4L7565.77 2369.48L7552.37 2378.21C7515.33 2402.33 7465.79 2391.86 7441.67 2354.82Z" fill="#2E7870"/>
<path d="M722.324 2401.9L770.344 2328.16C777.601 2317.02 774.474 2302.21 763.328 2294.95C752.183 2287.7 737.378 2290.82 730.12 2301.97L673.369 2389.12C663.711 2403.95 667.891 2423.74 682.724 2433.4L769.875 2490.15C781.02 2497.41 795.825 2494.28 803.083 2483.13C810.341 2471.99 807.213 2457.18 796.067 2449.92L722.324 2401.9ZM939.549 2390.85C942.989 2385.57 945.354 2379.66 946.51 2373.46C947.667 2367.27 947.592 2360.9 946.289 2354.73C944.986 2348.57 942.481 2342.72 938.917 2337.52C935.353 2332.32 930.8 2327.87 925.518 2324.43C920.236 2320.99 914.328 2318.63 908.131 2317.47C901.935 2316.31 895.571 2316.39 889.404 2317.69C883.236 2319 877.386 2321.5 872.187 2325.06C866.988 2328.63 862.541 2333.18 859.101 2338.46C855.662 2343.75 853.296 2349.65 852.14 2355.85C850.983 2362.05 851.059 2368.41 852.362 2374.58C853.665 2380.74 856.169 2386.6 859.733 2391.79C863.297 2396.99 867.85 2401.44 873.132 2404.88C878.415 2408.32 884.323 2410.68 890.519 2411.84C896.716 2413 903.079 2412.92 909.247 2411.62C915.414 2410.32 921.264 2407.81 926.463 2404.25C931.663 2400.68 936.109 2396.13 939.549 2390.85ZM951.904 2430.52C935.861 2455.15 942.847 2488.22 967.484 2504.27C979.803 2512.29 996.352 2508.86 1004.43 2496.46L1035.04 2449.45C1010.83 2424.14 1001.24 2388.3 1008.94 2354.65C1001.41 2358.7 994.74 2364.73 989.774 2372.36L951.959 2430.43L951.904 2430.52ZM1219.75 2165.79C1227.78 2153.47 1224.35 2136.92 1211.95 2128.85C1187.23 2112.75 1154.24 2119.79 1138.2 2144.43L1100.38 2202.5C1095.36 2210.21 1092.6 2218.67 1091.94 2227.19C1119.59 2206.54 1156.25 2200.81 1189.2 2212.72L1219.81 2165.71L1219.75 2165.79ZM1170.97 2240.71C1145.91 2234.65 1118.96 2242.52 1101.08 2261.9C1098.37 2264.79 1095.93 2267.98 1093.69 2271.41L1050.04 2338.45C1047.8 2341.89 1045.87 2345.4 1044.33 2349.05C1033.83 2373.24 1037.54 2401.08 1053.21 2421.55C1058.02 2427.9 1064.05 2433.49 1071.09 2438.08C1082.23 2445.34 1097.04 2442.21 1104.3 2431.06L1200.33 2283.58C1207.59 2272.43 1204.46 2257.62 1193.32 2250.37C1186.28 2245.78 1178.73 2242.54 1170.97 2240.71ZM1096.81 2149.34C1100.25 2144.06 1102.62 2138.15 1103.78 2131.95C1104.93 2125.76 1104.86 2119.39 1103.55 2113.22C1102.25 2107.06 1099.75 2101.21 1096.18 2096.01C1092.62 2090.81 1088.07 2086.36 1082.78 2082.92C1077.5 2079.48 1071.59 2077.12 1065.4 2075.96C1059.2 2074.8 1052.84 2074.88 1046.67 2076.18C1040.5 2077.49 1034.65 2079.99 1029.45 2083.55C1024.25 2087.12 1019.81 2091.67 1016.37 2096.95C1012.93 2102.24 1010.56 2108.14 1009.4 2114.34C1008.25 2120.54 1008.32 2126.9 1009.63 2133.07C1010.93 2139.24 1013.43 2145.09 1017 2150.28C1020.56 2155.48 1025.12 2159.93 1030.4 2163.37C1035.68 2166.81 1041.59 2169.18 1047.78 2170.33C1053.98 2171.49 1060.34 2171.41 1066.51 2170.11C1072.68 2168.81 1078.53 2166.3 1083.73 2162.74C1088.93 2159.17 1093.37 2154.62 1096.81 2149.34ZM1026.34 2198.92C1012.12 2189.65 994.799 2186.42 978.192 2189.93C961.584 2193.44 947.051 2203.4 937.789 2217.62C928.526 2231.85 925.294 2249.17 928.802 2265.78C932.311 2282.38 942.273 2296.92 956.497 2306.18C970.721 2315.44 988.041 2318.67 1004.65 2315.17C1021.26 2311.66 1035.79 2301.7 1045.05 2287.47C1054.31 2273.25 1057.55 2255.93 1054.04 2239.32C1050.53 2222.71 1040.57 2208.18 1026.34 2198.92ZM971.154 2019.78L1019.17 1946.04L1092.92 1994.06C1104.06 2001.31 1118.87 1998.19 1126.13 1987.04C1133.38 1975.9 1130.26 1961.09 1119.11 1953.83L1031.96 1897.08C1017.13 1887.42 997.34 1891.6 987.681 1906.44L930.931 1993.59C923.673 2004.73 926.801 2019.54 937.946 2026.8C949.091 2034.05 963.897 2030.92 971.154 2019.78ZM1070.93 2628.91L997.186 2580.89C986.041 2573.63 971.235 2576.76 963.978 2587.9C956.72 2599.05 959.848 2613.85 970.993 2621.11L1058.14 2677.86C1072.98 2687.52 1092.76 2683.34 1102.42 2668.51L1159.17 2581.36C1166.43 2570.21 1163.3 2555.41 1152.16 2548.15C1141.01 2540.89 1126.21 2544.02 1118.95 2555.16L1070.93 2628.91ZM1319.76 2246.78C1312.5 2257.93 1315.63 2272.73 1326.78 2279.99C1337.92 2287.25 1352.73 2284.12 1359.98 2272.98L1416.73 2185.82C1426.39 2170.99 1422.21 2151.2 1407.38 2141.55L1320.23 2084.8C1309.08 2077.54 1294.28 2080.67 1287.02 2091.81C1279.76 2102.96 1282.89 2117.76 1294.04 2125.02L1367.78 2173.04L1319.76 2246.78Z" fill="#2E7870"/>
<g filter="url(#filter4_d_14_69)">
<path d="M1120.91 3732.32L925.89 3605.33L968.801 3539.43C978.764 3524.13 989.669 3513.43 1001.52 3507.31C1013.34 3501.09 1025.45 3498.67 1037.84 3500.05C1050.23 3501.42 1062.18 3505.86 1073.67 3513.34C1085.16 3520.82 1094.07 3529.97 1100.41 3540.79C1106.78 3551.54 1109.6 3563.59 1108.87 3576.94C1108.06 3590.25 1102.72 3604.49 1092.84 3619.66L1062.09 3666.9L1041.14 3653.25L1071.4 3606.78C1078.22 3596.31 1081.89 3586.72 1082.4 3578.01C1082.92 3569.31 1081.03 3561.52 1076.73 3554.66C1072.41 3547.69 1066.34 3541.66 1058.54 3536.57C1050.73 3531.49 1042.79 3528.4 1034.73 3527.31C1026.72 3526.16 1018.87 3527.65 1011.21 3531.79C1003.48 3535.89 996.158 3543.24 989.255 3553.84L962.219 3595.36L1136.29 3708.71L1120.91 3732.32ZM1231.76 3562.11L1036.73 3435.11L1113.38 3317.41L1134.32 3331.05L1073.06 3425.14L1138.96 3468.05L1196.25 3380.06L1217.2 3393.7L1159.91 3481.69L1226.18 3524.85L1288.44 3429.24L1309.39 3442.88L1231.76 3562.11ZM1345.76 3173.79C1366.33 3187.19 1381.68 3202.48 1391.83 3219.66C1401.97 3236.84 1406.89 3254.56 1406.59 3272.8C1406.28 3291.04 1400.71 3308.48 1389.88 3325.11C1379.05 3341.74 1365.35 3353.89 1348.79 3361.55C1332.23 3369.21 1314.05 3371.87 1294.23 3369.55C1274.41 3367.22 1254.21 3359.36 1233.64 3345.96C1213.08 3332.57 1197.72 3317.28 1187.57 3300.1C1177.43 3282.91 1172.51 3265.2 1172.82 3246.96C1173.12 3228.71 1178.69 3211.28 1189.52 3194.64C1200.35 3178.01 1214.05 3165.86 1230.61 3158.21C1247.17 3150.55 1265.36 3147.88 1285.17 3150.21C1304.99 3152.54 1325.19 3160.4 1345.76 3173.79ZM1330.87 3196.65C1313.99 3185.65 1297.9 3179.19 1282.6 3177.28C1267.34 3175.3 1253.61 3177.16 1241.4 3182.86C1229.23 3188.5 1219.3 3197.22 1211.61 3209.03C1203.93 3220.84 1199.94 3233.48 1199.67 3246.95C1199.44 3260.36 1203.29 3273.67 1211.23 3286.89C1219.21 3300.04 1231.64 3312.11 1248.53 3323.11C1265.41 3334.1 1281.48 3340.59 1296.74 3342.57C1312.04 3344.48 1325.77 3342.62 1337.94 3336.99C1350.15 3331.29 1360.1 3322.53 1367.79 3310.72C1375.48 3298.92 1379.44 3286.31 1379.67 3272.9C1379.94 3259.43 1376.09 3246.12 1368.11 3232.96C1360.17 3219.75 1347.76 3207.64 1330.87 3196.65ZM1469.13 3197.58L1274.1 3070.59L1317.01 3004.69C1326.98 2989.39 1337.88 2978.68 1349.73 2972.56C1361.56 2966.34 1373.66 2963.92 1386.06 2965.3C1398.45 2966.68 1410.39 2971.11 1421.88 2978.59C1433.37 2986.08 1442.28 2995.22 1448.62 3006.04C1455 3016.79 1457.82 3028.85 1457.08 3042.2C1456.28 3055.51 1450.94 3069.75 1441.06 3084.92L1410.3 3132.15L1389.35 3118.51L1419.61 3072.04C1426.43 3061.56 1430.1 3051.97 1430.61 3043.27C1431.13 3034.57 1429.24 3026.78 1424.94 3019.91C1420.62 3012.94 1414.56 3006.91 1406.75 3001.83C1398.94 2996.74 1391.01 2993.66 1382.95 2992.57C1374.93 2991.41 1367.08 2992.91 1359.42 2997.04C1351.69 3001.14 1344.37 3008.49 1337.47 3019.09L1310.43 3060.61L1484.5 3173.96L1469.13 3197.58ZM1579.97 3027.36L1384.94 2900.37L1400.32 2876.75L1574.4 2990.1L1633.43 2899.45L1654.38 2913.09L1579.97 3027.36ZM1678.19 2876.52L1483.17 2749.53L1559.81 2631.83L1580.76 2645.47L1519.49 2739.56L1585.39 2782.47L1642.69 2694.48L1663.64 2708.12L1606.34 2796.11L1672.62 2839.27L1734.88 2743.66L1755.83 2757.3L1678.19 2876.52ZM1831.66 2640.84L1636.64 2513.84L1712.79 2396.91L1733.74 2410.55L1672.97 2503.87L1738.86 2546.78L1793.93 2462.22L1814.88 2475.86L1759.81 2560.42L1847.04 2617.22L1831.66 2640.84ZM1943.79 2255.4C1964.36 2268.8 1979.71 2284.09 1989.86 2301.27C2000.01 2318.45 2004.93 2336.17 2004.62 2354.41C2004.31 2372.65 1998.74 2390.09 1987.91 2406.72C1977.08 2423.36 1963.38 2435.5 1946.83 2443.16C1930.27 2450.82 1912.08 2453.49 1892.26 2451.16C1872.44 2448.83 1852.24 2440.97 1831.68 2427.57C1811.11 2414.18 1795.75 2398.89 1785.6 2381.71C1775.46 2364.52 1770.54 2346.81 1770.85 2328.57C1771.15 2310.33 1776.72 2292.89 1787.55 2276.26C1798.38 2259.62 1812.08 2247.48 1828.64 2239.82C1845.2 2232.16 1863.39 2229.49 1883.21 2231.82C1903.03 2234.15 1923.22 2242.01 1943.79 2255.4ZM1928.91 2278.26C1912.02 2267.26 1895.93 2260.81 1880.63 2258.89C1865.38 2256.91 1851.64 2258.77 1839.43 2264.47C1827.26 2270.11 1817.34 2278.83 1809.65 2290.64C1801.96 2302.45 1797.98 2315.09 1797.7 2328.56C1797.47 2341.97 1801.32 2355.28 1809.26 2368.5C1817.24 2381.65 1829.67 2393.72 1846.56 2404.72C1863.44 2415.72 1879.52 2422.2 1894.77 2424.18C1910.07 2426.1 1923.8 2424.24 1935.97 2418.6C1948.18 2412.9 1958.13 2404.14 1965.82 2392.34C1973.51 2380.53 1977.47 2367.92 1977.7 2354.51C1977.98 2341.04 1974.12 2327.73 1966.14 2314.58C1958.21 2301.36 1945.79 2289.25 1928.91 2278.26ZM2035.27 2034.95L2019.89 2058.57C2012.19 2055.54 2004.63 2054.1 1997.21 2054.24C1989.84 2054.32 1982.79 2055.7 1976.08 2058.38C1969.34 2060.95 1963.14 2064.64 1957.48 2069.45C1951.81 2074.26 1946.87 2079.91 1942.66 2086.38C1934.97 2098.19 1930.99 2110.83 1930.71 2124.3C1930.48 2137.71 1934.33 2151.02 1942.27 2164.24C1950.25 2177.39 1962.68 2189.46 1979.57 2200.46C1996.45 2211.45 2012.53 2217.94 2027.78 2219.92C2043.08 2221.84 2056.81 2219.97 2068.98 2214.34C2081.19 2208.64 2091.14 2199.88 2098.83 2188.08C2103.04 2181.6 2106.21 2174.8 2108.32 2167.67C2110.42 2160.55 2111.32 2153.41 2111.01 2146.24C2110.68 2138.98 2109.06 2131.96 2106.15 2125.18C2103.22 2118.3 2098.85 2111.97 2093.03 2106.19L2108.4 2082.57C2117.21 2090.84 2124.03 2099.89 2128.84 2109.71C2133.65 2119.53 2136.55 2129.74 2137.52 2140.32C2138.43 2150.85 2137.49 2161.4 2134.68 2171.96C2131.91 2182.45 2127.33 2192.62 2120.92 2202.46C2110.09 2219.09 2096.39 2231.24 2079.83 2238.9C2063.28 2246.56 2045.09 2249.22 2025.27 2246.9C2005.45 2244.57 1985.25 2236.71 1964.69 2223.31C1944.12 2209.92 1928.76 2194.63 1918.61 2177.45C1908.47 2160.26 1903.55 2142.55 1903.86 2124.31C1904.16 2106.06 1909.73 2088.63 1920.56 2071.99C1926.97 2062.15 1934.41 2053.85 1942.89 2047.07C1951.41 2040.24 1960.71 2035.12 1970.78 2031.74C1980.79 2028.31 1991.26 2026.81 2002.19 2027.24C2013.05 2027.63 2024.08 2030.2 2035.27 2034.95ZM2082.52 1829.12L2097.89 1805.5L2227.02 1889.59C2240.35 1898.27 2250.21 1909.16 2256.59 1922.27C2262.95 1935.27 2265.45 1949.41 2264.08 1964.7C2262.65 1979.95 2256.95 1995.23 2246.99 2010.53C2237.02 2025.83 2225.36 2037.22 2211.99 2044.69C2198.56 2052.13 2184.59 2055.6 2170.09 2055.11C2155.56 2054.51 2141.63 2049.87 2128.3 2041.19L1999.18 1957.1L2014.55 1933.49L2141.78 2016.33C2151.3 2022.53 2161.14 2025.95 2171.29 2026.6C2181.39 2027.21 2191.08 2025.02 2200.38 2020.05C2209.65 2014.97 2217.83 2007 2224.89 1996.14C2231.96 1985.29 2235.95 1974.59 2236.84 1964.05C2237.67 1953.48 2235.75 1943.72 2231.07 1934.8C2226.37 1925.78 2219.26 1918.16 2209.74 1911.96L2082.52 1829.12ZM2246.81 1683.44C2236.42 1678.29 2225.91 1678.05 2215.28 1682.7C2204.66 1687.36 2195.5 1695.59 2187.81 1707.4C2182.19 1716.03 2178.67 1724.49 2177.25 1732.79C2175.86 1741.02 2176.44 1748.54 2178.97 1755.34C2181.54 1762.08 2185.94 1767.47 2192.16 1771.52C2197.37 1774.91 2202.65 1776.59 2208.01 1776.55C2213.34 1776.41 2218.53 1775.18 2223.57 1772.85C2228.55 1770.49 2233.23 1767.66 2237.63 1764.38C2241.96 1761.06 2245.79 1757.89 2249.1 1754.9L2267.33 1738.56C2271.97 1734.35 2277.49 1729.9 2283.89 1725.21C2290.33 1720.45 2297.44 1716.54 2305.22 1713.47C2312.99 1710.3 2321.23 1708.89 2329.95 1709.23C2338.68 1709.58 2347.61 1712.73 2356.75 1718.68C2367.29 1725.55 2375.01 1734.51 2379.92 1745.57C2384.88 1756.57 2386.43 1768.97 2384.58 1782.78C2382.78 1796.52 2376.99 1810.88 2367.24 1825.86C2358.14 1839.83 2348.01 1850.45 2336.85 1857.74C2325.73 1864.96 2314.24 1868.87 2302.37 1869.46C2290.55 1869.99 2279.05 1867.16 2267.89 1860.97L2283.77 1836.6C2291.54 1840.76 2299.25 1842.25 2306.89 1841.07C2314.5 1839.79 2321.65 1836.59 2328.34 1831.45C2335.01 1826.21 2340.86 1819.72 2345.91 1811.97C2351.78 1802.96 2355.59 1793.91 2357.34 1784.84C2359.03 1775.72 2358.6 1767.35 2356.06 1759.73C2353.46 1752.07 2348.6 1745.92 2341.49 1741.29C2335.01 1737.07 2328.56 1735.45 2322.15 1736.42C2315.73 1737.4 2309.32 1740.01 2302.94 1744.26C2296.56 1748.51 2290.18 1753.44 2283.81 1759.06L2261.33 1778.59C2247.03 1790.98 2232.92 1798.97 2219.01 1802.56C2205.09 1806.16 2191.56 1803.68 2178.42 1795.12C2167.5 1788.01 2159.9 1778.86 2155.62 1767.66C2151.32 1756.36 2150.18 1744.23 2152.2 1731.26C2154.21 1718.19 2159.26 1705.44 2167.36 1692.99C2175.55 1680.42 2185.07 1670.72 2195.95 1663.88C2206.76 1656.99 2217.9 1653.22 2229.36 1652.55C2240.87 1651.81 2251.65 1654.49 2261.69 1660.58L2246.81 1683.44Z" fill="#2E7870"/>
</g>
<path d="M600.003 3813.91L945.965 3282.62L1435.35 3601.3L1089.39 4132.59L600.003 3813.91Z" fill="#3EE0CF" fill-opacity="0.5"/>
<path d="M943.782 3285.97L1430.53 2538.48L1919.92 2857.16L1433.17 3604.65L943.782 3285.97Z" fill="#3EE0CF" fill-opacity="0.4"/>
<path d="M1430.53 2538.48L1917.28 1790.99L2406.66 2109.67L1919.92 2857.16L1430.53 2538.48Z" fill="#3EE0CF" fill-opacity="0.3"/>
<path d="M1917.28 1790.99L2263.24 1259.71L2752.63 1578.38L2406.66 2109.67L1917.28 1790.99Z" fill="#3EE0CF" fill-opacity="0.2"/>
<path d="M1233.22 3761.44L1104.93 3850.34L874.059 3700L881.261 3532.26" stroke="#3EE0CF" stroke-width="50"/>
<path d="M2119.68 1630.43L2247.98 1541.54L2478.84 1691.87L2471.64 1859.62" stroke="#3EE0CF" stroke-width="50"/>
<defs>
<filter id="filter0_d_14_69" x="3138.16" y="727.347" width="2370.7" height="262.034" filterUnits="userSpaceOnUse" color-interpolation-filters="sRGB">
<feFlood flood-opacity="0" result="BackgroundImageFix"/>
<feColorMatrix in="SourceAlpha" type="matrix" values="0 0 0 0 0 0 0 0 0 0 0 0 0 0 0 0 0 0 127 0" result="hardAlpha"/>
<feOffset dy="4"/>
<feGaussianBlur stdDeviation="2"/>
<feComposite in2="hardAlpha" operator="out"/>
<feColorMatrix type="matrix" values="0 0 0 0 0 0 0 0 0 0 0 0 0 0 0 0 0 0 1 0"/>
<feBlend mode="normal" in2="BackgroundImageFix" result="effect1_dropShadow_14_69"/>
<feBlend mode="normal" in="SourceGraphic" in2="effect1_dropShadow_14_69" result="shape"/>
</filter>
<filter id="filter1_d_14_69" x="5019" y="4013.23" width="1847.32" height="1398.45" filterUnits="userSpaceOnUse" color-interpolation-filters="sRGB">
<feFlood flood-opacity="0" result="BackgroundImageFix"/>
<feColorMatrix in="SourceAlpha" type="matrix" values="0 0 0 0 0 0 0 0 0 0 0 0 0 0 0 0 0 0 127 0" result="hardAlpha"/>
<feOffset dy="4"/>
<feGaussianBlur stdDeviation="2"/>
<feComposite in2="hardAlpha" operator="out"/>
<feColorMatrix type="matrix" values="0 0 0 0 0 0 0 0 0 0 0 0 0 0 0 0 0 0 1 0"/>
<feBlend mode="normal" in2="BackgroundImageFix" result="effect1_dropShadow_14_69"/>
<feBlend mode="normal" in="SourceGraphic" in2="effect1_dropShadow_14_69" result="shape"/>
</filter>
<filter id="filter2_d_14_69" x="2034.64" y="4295.95" width="1647.92" height="1067.99" filterUnits="userSpaceOnUse" color-interpolation-filters="sRGB">
<feFlood flood-opacity="0" result="BackgroundImageFix"/>
<feColorMatrix in="SourceAlpha" type="matrix" values="0 0 0 0 0 0 0 0 0 0 0 0 0 0 0 0 0 0 127 0" result="hardAlpha"/>
<feOffset dy="4"/>
<feGaussianBlur stdDeviation="2"/>
<feComposite in2="hardAlpha" operator="out"/>
<feColorMatrix type="matrix" values="0 0 0 0 0 0 0 0 0 0 0 0 0 0 0 0 0 0 1 0"/>
<feBlend mode="normal" in2="BackgroundImageFix" result="effect1_dropShadow_14_69"/>
<feBlend mode="normal" in="SourceGraphic" in2="effect1_dropShadow_14_69" result="shape"/>
</filter>
<filter id="filter3_d_14_69" x="6441.58" y="1656.61" width="1324.17" height="1840.99" filterUnits="userSpaceOnUse" color-interpolation-filters="sRGB">
<feFlood flood-opacity="0" result="BackgroundImageFix"/>
<feColorMatrix in="SourceAlpha" type="matrix" values="0 0 0 0 0 0 0 0 0 0 0 0 0 0 0 0 0 0 127 0" result="hardAlpha"/>
<feOffset dy="4"/>
<feGaussianBlur stdDeviation="2"/>
<feComposite in2="hardAlpha" operator="out"/>
<feColorMatrix type="matrix" values="0 0 0 0 0 0 0 0 0 0 0 0 0 0 0 0 0 0 1 0"/>
<feBlend mode="normal" in2="BackgroundImageFix" result="effect1_dropShadow_14_69"/>
<feBlend mode="normal" in="SourceGraphic" in2="effect1_dropShadow_14_69" result="shape"/>
</filter>
<filter id="filter4_d_14_69" x="919.224" y="1624.43" width="1497.9" height="2118.13" filterUnits="userSpaceOnUse" color-interpolation-filters="sRGB">
<feFlood flood-opacity="0" result="BackgroundImageFix"/>
<feColorMatrix in="SourceAlpha" type="matrix" values="0 0 0 0 0 0 0 0 0 0 0 0 0 0 0 0 0 0 127 0" result="hardAlpha"/>
<feOffset dy="4"/>
<feGaussianBlur stdDeviation="2"/>
<feComposite in2="hardAlpha" operator="out"/>
<feColorMatrix type="matrix" values="0 0 0 0 0 0 0 0 0 0 0 0 0 0 0 0 0 0 1 0"/>
<feBlend mode="normal" in2="BackgroundImageFix" result="effect1_dropShadow_14_69"/>
<feBlend mode="normal" in="SourceGraphic" in2="effect1_dropShadow_14_69" result="shape"/>
</filter>
</defs>
</svg>
