<svg xmlns="http://www.w3.org/2000/svg" xmlns:xlink="http://www.w3.org/1999/xlink" id="visual" viewBox="0 0 900 600" width="900" height="600" version="1.1"><rect x="0" y="0" width="900" height="600" fill="#3ee0cf"/><path d="M0 236L30 236.7C60 237.3 120 238.7 180 230C240 221.3 300 202.7 360 185.2C420 167.7 480 151.3 540 145.3C600 139.3 660 143.7 720 151.5C780 159.3 840 170.7 870 176.3L900 182L900 0L870 0C840 0 780 0 720 0C660 0 600 0 540 0C480 0 420 0 360 0C300 0 240 0 180 0C120 0 60 0 30 0L0 0Z" fill="#2e7870" stroke-linecap="round" stroke-linejoin="miter"/></svg>