<!-- <svg xmlns="http://www.w3.org/2000/svg" width="164" height="129" viewBox="0 0 164 129" fill="none">
<path d="M77.5 0.5L1.5 128.5H16.5L82 13H137L118.5 45L126 57L159.5 0.5H77.5Z" fill="#3EE0CF"/>
<path d="M99.5 22.5L39 128.5H54L99.5 51L137 115.5H92.5L112.5 81.5L105 70L70.5 128.5H163L99.5 22.5Z" fill="#3EE0CF"/>
<path d="M77.5 0.5L1.5 128.5H16.5L82 13H137L118.5 45L126 57L159.5 0.5H77.5Z" stroke="#3EE0CF"/>
<path d="M99.5 22.5L39 128.5H54L99.5 51L137 115.5H92.5L112.5 81.5L105 70L70.5 128.5H163L99.5 22.5Z" stroke="#3EE0CF"/>
</svg> -->

<svg xmlns="http://www.w3.org/2000/svg" width="900" height="125" viewBox="0 0 900 125" fill="none">
<path d="M73.8824 0L0 125H14.582L78.257 12.207H131.724L113.74 43.457L121.031 55.1758L153.598 0H73.8824Z" fill="#3EE0CF"/>
<path d="M95.2693 21.4844L36.4551 125H51.0372L95.2693 49.3164L131.724 112.305H88.4644L107.907 79.1016L100.616 67.8711L67.0774 125H157L95.2693 21.4844Z" fill="#3EE0CF"/>
<rect x="193" y="6" width="703" height="113" stroke="#4E293B" stroke-width="8"/>
<path d="M214.551 42.9503V30.2727H274.281V42.9503H252.016V103H236.817V42.9503H214.551ZM339.04 30.2727H354.416V77.5028C354.416 82.8059 353.15 87.446 350.616 91.4233C348.107 95.4006 344.591 98.5019 340.07 100.727C335.548 102.929 330.28 104.03 324.267 104.03C318.23 104.03 312.951 102.929 308.429 100.727C303.907 98.5019 300.392 95.4006 297.882 91.4233C295.373 87.446 294.118 82.8059 294.118 77.5028V30.2727H309.494V76.1889C309.494 78.9588 310.098 81.4209 311.305 83.5753C312.536 85.7296 314.265 87.4223 316.49 88.6534C318.715 89.8845 321.308 90.5 324.267 90.5C327.25 90.5 329.842 89.8845 332.044 88.6534C334.269 87.4223 335.986 85.7296 337.193 83.5753C338.424 81.4209 339.04 78.9588 339.04 76.1889V30.2727ZM377.067 103V30.2727H405.76C411.253 30.2727 415.94 31.2552 419.823 33.2202C423.729 35.1615 426.7 37.9195 428.736 41.4943C430.796 45.0455 431.826 49.224 431.826 54.0298C431.826 58.8594 430.784 63.0142 428.701 66.4943C426.617 69.9508 423.599 72.6023 419.645 74.4489C415.715 76.2955 410.957 77.2188 405.37 77.2188H386.158V64.8608H402.884C405.819 64.8608 408.258 64.4583 410.199 63.6534C412.141 62.8485 413.585 61.6411 414.532 60.0312C415.502 58.4214 415.988 56.4209 415.988 54.0298C415.988 51.6151 415.502 49.5791 414.532 47.9219C413.585 46.2647 412.129 45.0099 410.164 44.1577C408.222 43.2817 405.772 42.8438 402.813 42.8438H392.444V103H377.067ZM416.343 69.9034L434.418 103H417.444L399.759 69.9034H416.343ZM480.142 77.7159H493.211L499.78 86.1676L506.243 93.696L518.424 108.966H504.077L495.696 98.6676L491.4 92.5597L480.142 77.7159ZM519.525 66.6364C519.525 74.5672 518.021 81.3144 515.015 86.8778C512.032 92.4413 507.96 96.6908 502.799 99.6264C497.661 102.538 491.885 103.994 485.469 103.994C479.006 103.994 473.206 102.527 468.069 99.5909C462.931 96.6553 458.871 92.4058 455.888 86.8423C452.905 81.2789 451.414 74.5436 451.414 66.6364C451.414 58.7055 452.905 51.9583 455.888 46.3949C458.871 40.8314 462.931 36.5937 468.069 33.6818C473.206 30.7462 479.006 29.2784 485.469 29.2784C491.885 29.2784 497.661 30.7462 502.799 33.6818C507.96 36.5937 512.032 40.8314 515.015 46.3949C518.021 51.9583 519.525 58.7055 519.525 66.6364ZM503.935 66.6364C503.935 61.4991 503.166 57.1667 501.627 53.6392C500.112 50.1117 497.969 47.4366 495.199 45.6136C492.429 43.7907 489.186 42.8793 485.469 42.8793C481.752 42.8793 478.509 43.7907 475.739 45.6136C472.969 47.4366 470.815 50.1117 469.276 53.6392C467.761 57.1667 467.003 61.4991 467.003 66.6364C467.003 71.7737 467.761 76.1061 469.276 79.6335C470.815 83.161 472.969 85.8362 475.739 87.6591C478.509 89.482 481.752 90.3935 485.469 90.3935C489.186 90.3935 492.429 89.482 495.199 87.6591C497.969 85.8362 500.112 83.161 501.627 79.6335C503.166 76.1061 503.935 71.7737 503.935 66.6364ZM585.837 30.2727H601.213V77.5028C601.213 82.8059 599.946 87.446 597.413 91.4233C594.904 95.4006 591.388 98.5019 586.866 100.727C582.345 102.929 577.077 104.03 571.064 104.03C565.027 104.03 559.748 102.929 555.226 100.727C550.704 98.5019 547.188 95.4006 544.679 91.4233C542.17 87.446 540.915 82.8059 540.915 77.5028V30.2727H556.291V76.1889C556.291 78.9588 556.895 81.4209 558.102 83.5753C559.333 85.7296 561.062 87.4223 563.287 88.6534C565.512 89.8845 568.105 90.5 571.064 90.5C574.047 90.5 576.639 89.8845 578.841 88.6534C581.066 87.4223 582.783 85.7296 583.99 83.5753C585.221 81.4209 585.837 78.9588 585.837 76.1889V30.2727Z" fill="#3EE0CF"/>
<ellipse cx="669" cy="65" rx="47" ry="41" fill="#4E293B"/>
<path d="M662 81.0491L679.5 87.5491V77.0491L662 81.0491Z" fill="#4E293B"/>
<path d="M662 71.5491L679.5 77.0491V68.5491L662 71.5491Z" fill="#4E293B"/>
<path d="M662 66.0491L679.5 68.5491V61.5491L662 66.0491Z" fill="#4E293B"/>
<path d="M662 57.5491L679.5 61.5491V53.5491L662 57.5491Z" fill="#4E293B"/>
<path d="M679.5 53.5491V43.0491L662 48.5491L679.5 53.5491Z" fill="#4E293B"/>
<path d="M679.5 43.0491C657.425 42.4287 644 47.5491 644 66.0491C644 84.5491 657.533 89.1536 679.5 87.5491L662 81.0491L679.5 77.0491L662 71.5491L679.5 68.5491L662 66.0491L679.5 61.5491L662 57.5491L679.5 53.5491L662 48.5491L679.5 43.0491Z" fill="white"/>
<path d="M679.5 87.5491C657.533 89.1536 644 84.5491 644 66.0491C644 47.5491 657.425 42.4287 679.5 43.0491M679.5 87.5491L662 81.0491L679.5 77.0491M679.5 87.5491V77.0491M679.5 43.0491V53.5491M679.5 43.0491L662 48.5491L679.5 53.5491M679.5 77.0491L662 71.5491L679.5 68.5491M679.5 77.0491V68.5491M679.5 68.5491L662 66.0491L679.5 61.5491M679.5 68.5491V61.5491M679.5 61.5491L662 57.5491L679.5 53.5491M679.5 61.5491V53.5491" stroke="#4E293B"/>
<path d="M742.697 29.2727V102H727.321V29.2727H742.697ZM799.801 50.1889C799.517 47.3243 798.298 45.099 796.144 43.5128C793.989 41.9266 791.066 41.1335 787.373 41.1335C784.863 41.1335 782.744 41.4886 781.016 42.1989C779.288 42.8854 777.962 43.8442 777.039 45.0753C776.139 46.3063 775.689 47.7031 775.689 49.2656C775.642 50.5677 775.914 51.7041 776.506 52.6747C777.122 53.6454 777.962 54.4858 779.027 55.196C780.093 55.8826 781.324 56.4863 782.721 57.0071C784.117 57.5043 785.609 57.9304 787.195 58.2855L793.729 59.848C796.901 60.5582 799.813 61.5052 802.465 62.6889C805.116 63.8726 807.413 65.3286 809.354 67.0568C811.295 68.785 812.799 70.821 813.864 73.1648C814.953 75.5085 815.509 78.1955 815.533 81.2259C815.509 85.6766 814.373 89.5355 812.124 92.8026C809.899 96.0459 806.679 98.5672 802.465 100.366C798.275 102.142 793.22 103.03 787.301 103.03C781.43 103.03 776.317 102.13 771.961 100.331C767.628 98.5317 764.243 95.8684 761.804 92.3409C759.39 88.7898 758.123 84.3982 758.005 79.1662H772.884C773.05 81.6046 773.748 83.6406 774.979 85.2741C776.234 86.884 777.903 88.1032 779.986 88.9318C782.093 89.7367 784.472 90.1392 787.124 90.1392C789.728 90.1392 791.989 89.7604 793.907 89.0028C795.848 88.2453 797.351 87.1918 798.417 85.8423C799.482 84.4929 800.015 82.9422 800.015 81.1903C800.015 79.5568 799.529 78.1837 798.559 77.071C797.612 75.9583 796.215 75.0114 794.368 74.2301C792.545 73.4489 790.308 72.7386 787.657 72.0994L779.738 70.1108C773.606 68.6193 768.765 66.2874 765.213 63.1151C761.662 59.9427 759.899 55.6695 759.922 50.2955C759.899 45.892 761.07 42.045 763.438 38.7543C765.829 35.4635 769.108 32.8949 773.275 31.0483C777.441 29.2017 782.176 28.2784 787.479 28.2784C792.877 28.2784 797.588 29.2017 801.613 31.0483C805.661 32.8949 808.81 35.4635 811.059 38.7543C813.308 42.045 814.468 45.8565 814.539 50.1889H799.801ZM830.876 102V29.2727H879.881V41.9503H846.252V59.2798H877.36V71.9574H846.252V89.3224H880.023V102H830.876Z" fill="#4E293B"/>
</svg>