<svg xmlns="http://www.w3.org/2000/svg" xmlns:xlink="http://www.w3.org/1999/xlink" id="visual" viewBox="0 0 900 600" width="900" height="600" version="1.1"><rect width="900" height="600" fill="#2e7870"/><g><g transform="translate(476 562)"><path d="M56.9 -24C62.7 -0.5 48.9 23.8 29.4 37.2C10 50.5 -15.1 52.9 -29.6 42C-44.2 31.1 -48.3 7.1 -41.6 -17.6C-34.9 -42.3 -17.4 -67.5 4 -68.9C25.5 -70.2 51.1 -47.5 56.9 -24Z" stroke="#3ee0cf" fill="none" stroke-width="20"/></g><g transform="translate(724 4)"><path d="M48.2 -14.1C57 11.3 54.8 41.8 40.1 51.6C25.5 61.3 -1.5 50.3 -18.6 35.5C-35.6 20.8 -42.7 2.3 -38 -17.6C-33.2 -37.5 -16.6 -58.8 1.6 -59.3C19.7 -59.8 39.5 -39.5 48.2 -14.1Z" stroke="#3ee0cf" fill="none" stroke-width="20"/></g><g transform="translate(348 205)"><path d="M34.5 -8.2C41.4 10 41.4 33.5 29.2 43C17.1 52.5 -7.3 48 -23.4 35.5C-39.5 23 -47.3 2.6 -42 -13.4C-36.7 -29.4 -18.4 -40.8 -2.3 -40.1C13.8 -39.4 27.6 -26.4 34.5 -8.2Z" stroke="#3ee0cf" fill="none" stroke-width="20"/></g><g transform="translate(654 252)"><path d="M64.9 -21.1C71.8 -0.1 56.3 28.1 31.7 46.8C7 65.5 -27 74.6 -49.6 60.1C-72.3 45.6 -83.8 7.3 -73.6 -18.2C-63.5 -43.8 -31.7 -56.6 -1.3 -56.2C29.1 -55.8 58.1 -42 64.9 -21.1Z" stroke="#3ee0cf" fill="none" stroke-width="20"/></g><g transform="translate(122 177)"><path d="M33.2 -10.5C39.2 8 37.9 29.1 26.4 37.8C14.9 46.6 -6.8 42.8 -23.6 31C-40.5 19.1 -52.6 -1 -47.8 -17.6C-43.1 -34.3 -21.6 -47.5 -4 -46.2C13.5 -44.9 27.1 -29 33.2 -10.5Z" stroke="#3ee0cf" fill="none" stroke-width="20"/></g><g transform="translate(707 543)"><path d="M51.6 -17.3C57.9 2.7 47.9 27.4 30.5 39.6C13 51.7 -11.9 51.2 -27.3 39.5C-42.7 27.9 -48.5 5.1 -42.4 -14.6C-36.3 -34.4 -18.1 -51.1 2.3 -51.8C22.6 -52.5 45.3 -37.3 51.6 -17.3Z" stroke="#3ee0cf" fill="none" stroke-width="20"/></g><g transform="translate(168 430)"><path d="M42.8 -20.7C47.4 0 37.3 18.7 22.9 28.5C8.5 38.2 -10.2 39 -22.4 30.2C-34.6 21.5 -40.2 3.3 -35.4 -17.8C-30.6 -39 -15.3 -63 1.9 -63.7C19.2 -64.3 38.3 -41.5 42.8 -20.7Z" stroke="#3ee0cf" fill="none" stroke-width="20"/></g><g transform="translate(880 379)"><path d="M61.8 -20C70 5.3 59.7 36.6 41.2 48C22.7 59.4 -4 50.9 -22.1 36.3C-40.2 21.8 -49.7 1.3 -44.5 -19.7C-39.4 -40.7 -19.7 -62.3 3.5 -63.4C26.8 -64.6 53.5 -45.3 61.8 -20Z" stroke="#3ee0cf" fill="none" stroke-width="20"/></g><g transform="translate(494 11)"><path d="M58.3 -24.6C62.9 -4.8 45.2 16.5 25.8 29.2C6.4 41.8 -14.8 45.7 -29.5 36.1C-44.1 26.5 -52.2 3.4 -46.2 -18.3C-40.2 -40 -20.1 -60.4 3.4 -61.5C26.9 -62.6 53.7 -44.4 58.3 -24.6Z" stroke="#3ee0cf" fill="none" stroke-width="20"/></g><g transform="translate(18 594)"><path d="M34 -15.1C37.9 1.1 30.8 16.8 18.1 26.4C5.4 35.9 -12.8 39.3 -23.5 31.7C-34.2 24.1 -37.3 5.5 -32.1 -12.4C-27 -30.3 -13.5 -47.6 0.8 -47.8C15 -48.1 30.1 -31.4 34 -15.1Z" stroke="#3ee0cf" fill="none" stroke-width="20"/></g></g></svg>