<svg xmlns="http://www.w3.org/2000/svg" xmlns:xlink="http://www.w3.org/1999/xlink" width="650" height="622" viewBox="0 0 650 622" style="fill:none;stroke:none;fill-rule:evenodd;clip-rule:evenodd;stroke-linecap:round;stroke-linejoin:round;stroke-miterlimit:1.5;" version="1.1"><style class="text-font-style fontImports" data-font-family="Roboto">@import url('https://fonts.googleapis.com/css2?family=Roboto:wght@400;700&amp;display=block');</style><g id="items" style="isolation: isolate"><g id="blend" style="mix-blend-mode: normal"><g id="g-root-1.bubble-1_fr_1lvj3zs1n51jin-fill" data-item-order="-314390" transform="translate(39, 111)"><g id="1.bubble-1_fr_1lvj3zs1n51jin-fill" stroke="none" fill="url(#gradient-ffed4b-499785973)"><g><path d="M 178 22L 10 22C 10.000001 15.3726 15.3726 9.999999 22 10L 166 10.000013C 172.627 10.000013 178 15.3726 178 22ZM 178 190L 178 22L 10 22.000017L 10.000003 190L 178 190ZM 10 190L 178 190L 178 194.0873C 178 198.8876 175.139 203.226 170.727 205.117L 98.727 235.9741C 95.7085 237.2678 92.2916 237.2678 89.273 235.9741L 17.273 205.117C 12.8608 203.226 10 198.8876 10 194.0873L 10 190Z"/></g></g></g><g id="g-root-3.bubble-3_fr_1hfplvc1n51kax-fill" data-item-order="-314362" transform="translate(231, 111)"><g id="3.bubble-3_fr_1hfplvc1n51kax-fill" stroke="none" fill="url(#gradient-64edab-240055791)"><g><path d="M 178 22L 10 22C 10.000001 15.3726 15.3726 9.999999 22 10L 166 10.000013C 172.627 10.000013 178 15.3726 178 22ZM 178 190L 178 22L 10 22.000017L 10.000003 190L 178 190ZM 10 190L 178 190L 178 194.0873C 178 198.8876 175.139 203.226 170.727 205.117L 98.727 235.9741C 95.7085 237.2678 92.2916 237.2678 89.273 235.9741L 17.273 205.117C 12.8608 203.226 10 198.8876 10 194.0873L 10 190Z"/></g></g></g><g id="g-root-5.bubble-5_fr_1d0iku01n51hxf-fill" data-item-order="-314334" transform="translate(423, 111)"><g id="5.bubble-5_fr_1d0iku01n51hxf-fill" stroke="none" fill="url(#gradient-76aaff-163240667)"><g><path d="M 178 22L 10 22C 10.000001 15.3726 15.3726 9.999999 22 10L 166 10.000013C 172.627 10.000013 178 15.3726 178 22ZM 178 190L 178 22L 10 22.000017L 10.000003 190L 178 190ZM 10 190L 178 190L 178 194.0873C 178 198.8876 175.139 203.226 170.727 205.117L 98.727 235.9741C 95.7085 237.2678 92.2916 237.2678 89.273 235.9741L 17.273 205.117C 12.8608 203.226 10 198.8876 10 194.0873L 10 190Z"/></g></g></g><g id="g-root-2.bubble-2_fr_144vkl41n51iq5-fill" data-item-order="-314304" transform="translate(135, 323.9999694824219)"><g id="2.bubble-2_fr_144vkl41n51iq5-fill" stroke="none" fill="url(#gradient-bceb57-497517668)"><g><path d="M 10.000001 212.999969L 178.000001 212.999998C 178.000001 219.627469 172.627001 224.999969 166.000001 224.999969L 22.000001 224.999969C 15.372601 224.999969 10 219.627369 10.000001 212.999969ZM 178 213L 178 57L 10 57.000015L 10.000003 213L 178 213ZM 178 56.944404L 10 56.944404L 10 52.857104C 10.000001 48.056804 12.8608 43.718304 17.273 41.827404L 89.273 10.970304C 92.2915 9.676604 95.7085 9.676604 98.727 10.970304L 170.727 41.827404C 175.139 43.718304 178 48.056804 178 52.857104L 178 56.944404Z"/></g></g></g><g id="g-root-4.bubble-4_fr_zp22go1n51jif-fill" data-item-order="-314276" transform="translate(327, 323.9999694824219)"><defs><linearGradient id="gradient-ffed4b-499785973" x2="0" y2="1"><stop offset="0" stop-color="#fff282"/><stop offset="1" stop-color="#ffe714"/></linearGradient><linearGradient id="gradient-64edab-240055791" x2="0" y2="1"><stop offset="0" stop-color="#83fac1"/><stop offset="1" stop-color="#44e095"/></linearGradient><linearGradient id="gradient-76aaff-163240667" x2="0" y2="1"><stop offset="0" stop-color="#9cc2ff"/><stop offset="1" stop-color="#4f92ff"/></linearGradient><linearGradient id="gradient-bceb57-497517668" x2="0" y2="1"><stop offset="0" stop-color="#cff976"/><stop offset="1" stop-color="#a8dd38"/></linearGradient><linearGradient id="gradient-4dd3ff-378786070" x2="0" y2="1"><stop offset="0" stop-color="#7fdfff"/><stop offset="1" stop-color="#1ac6ff"/></linearGradient></defs><g id="4.bubble-4_fr_zp22go1n51jif-fill" stroke="none" fill="url(#gradient-4dd3ff-378786070)"><g><path d="M 10.000001 213L 178.000001 213.000029C 178.000001 219.6275 172.627001 225 166.000001 225L 22.000001 225C 15.372601 225 10 219.6274 10.000001 213ZM 178 213L 178 57L 10 57.000015L 10.000003 213L 178 213ZM 178 56.944404L 10 56.944404L 10 52.857104C 10.000001 48.056804 12.8608 43.718304 17.273 41.827404L 89.273 10.970304C 92.2915 9.676604 95.7085 9.676604 98.727 10.970304L 170.727 41.827404C 175.139 43.718304 178 48.056804 178 52.857104L 178 56.944404Z"/></g></g></g><g id="g-root-tx_commitme_hyej201n51ipu-fill" data-item-order="0" transform="translate(57, 135)"><g id="tx_commitme_hyej201n51ipu-fill" stroke="none" fill="#484848"><g><text style="font: bold 20px Roboto, sans-serif; white-space: pre;" font-weight="bold" font-size="20px" font-family="Roboto, sans-serif"><tspan x="17.41" y="34" dominant-baseline="ideographic">Commitment</tspan></text></g></g></g><g id="g-root-tx_innovati_vb3zlk1n55qmb-fill" data-item-order="0" transform="translate(261, 135)"><g id="tx_innovati_vb3zlk1n55qmb-fill" stroke="none" fill="#484848"><g><text style="font: bold 20px Roboto, sans-serif; white-space: pre;" font-weight="bold" font-size="20px" font-family="Roboto, sans-serif"><tspan x="16.67" y="34" dominant-baseline="ideographic">Innovation</tspan></text></g></g></g><g id="g-root-tx_teamspir_mbq4u01n5ct1h-fill" data-item-order="0" transform="translate(453, 123)"><g id="tx_teamspir_mbq4u01n5ct1h-fill" stroke="none" fill="#484848"><g><text style="font: bold 20px Roboto, sans-serif; white-space: pre;" font-weight="bold" font-size="20px" font-family="Roboto, sans-serif"><tspan x="12.23" y="34" dominant-baseline="ideographic">Team Spirit</tspan></text></g></g></g><g id="g-root-tx_adedicat_92rit41n51jij-fill" data-item-order="0" transform="translate(51, 170.99996948242188)"><g id="tx_adedicat_92rit41n51jij-fill" stroke="none" fill="#484848"><g><text style="font: 15px Roboto, sans-serif; white-space: pre;" font-size="15px" font-family="Roboto, sans-serif"><tspan x="31.77" y="30.6" dominant-baseline="ideographic">A dedication to </tspan><tspan x="22.52" y="48.6" dominant-baseline="ideographic">fulfilling promises </tspan><tspan x="15.26" y="66.6" dominant-baseline="ideographic">and responsibilities.</tspan></text></g></g></g><g id="g-root-tx_embracin_mfgzco1n55rf0-fill" data-item-order="0" transform="translate(243, 170.99996948242188)"><g id="tx_embracin_mfgzco1n55rf0-fill" stroke="none" fill="#484848"><g><text style="font: 15px Roboto, sans-serif; white-space: pre;" font-size="15px" font-family="Roboto, sans-serif"><tspan x="13.16" y="30.6" dominant-baseline="ideographic">Embracing creativity </tspan><tspan x="21.64" y="48.6" dominant-baseline="ideographic">and new ideas for </tspan><tspan x="34.84" y="66.6" dominant-baseline="ideographic">improvement.</tspan></text></g></g></g><g id="g-root-tx_fosterin_dgplo81n5cqoe-fill" data-item-order="0" transform="translate(441, 158.99996948242188)"><g id="tx_fosterin_dgplo81n5cqoe-fill" stroke="none" fill="#484848"><g><text style="font: 15px Roboto, sans-serif; white-space: pre;" font-size="15px" font-family="Roboto, sans-serif"><tspan x="42.76" y="27.6" dominant-baseline="ideographic">Fostering </tspan><tspan x="16.22" y="45.6" dominant-baseline="ideographic">collaboration and </tspan><tspan x="13.94" y="63.6" dominant-baseline="ideographic">unity among team </tspan><tspan x="40.42" y="81.6" dominant-baseline="ideographic">members.</tspan></text></g></g></g><g id="g-root-conf_4my0oo1n51kas-fill" data-item-order="0" transform="translate(93, 242.99996948242188)"/><g id="g-root-idea_94my2g1n55pu6-fill" data-item-order="0" transform="translate(285, 242.99996948242188)"/><g id="g-root-2_593aw1n5cs9b-fill" data-item-order="0" transform="translate(477, 242.99996948242188)"/><g id="g-root-pick_1unf9q01n5fksl-fill" data-item-order="0" transform="translate(189, 358.9999694824219)"/><g id="g-root-shie_mbq4u01n5fm6c-fill" data-item-order="0" transform="translate(381, 358.9999694824219)"/><g id="g-root-tx_peoplefo_4054o1n5fj7v-fill" data-item-order="0" transform="translate(153, 430.9999694824219)"><g id="tx_peoplefo_4054o1n5fj7v-fill" stroke="none" fill="#484848"><g><text style="font: bold 20px Roboto, sans-serif; white-space: pre;" font-weight="bold" font-size="20px" font-family="Roboto, sans-serif"><tspan x="15.44" y="34" dominant-baseline="ideographic">People Focus</tspan></text></g></g></g><g id="g-root-tx_integrit_1lynkl41n5045f-fill" data-item-order="0" transform="translate(369, 430.9999694824219)"><g id="tx_integrit_1lynkl41n5045f-fill" stroke="none" fill="#484848"><g><text style="font: bold 20px Roboto, sans-serif; white-space: pre;" font-weight="bold" font-size="20px" font-family="Roboto, sans-serif"><tspan x="14.24" y="34" dominant-baseline="ideographic">Integrity</tspan></text></g></g></g><g id="g-root-tx_prioriti_1hdu6m01n5fldy-fill" data-item-order="0" transform="translate(147, 466.9999694824219)"><g id="tx_prioriti_1hdu6m01n5fldy-fill" stroke="none" fill="#484848"><g><text style="font: 15px Roboto, sans-serif; white-space: pre;" font-size="15px" font-family="Roboto, sans-serif"><tspan x="33.66" y="30.6" dominant-baseline="ideographic">Prioritizing the </tspan><tspan x="30.29" y="48.6" dominant-baseline="ideographic">needs and well-</tspan><tspan x="15.44" y="66.6" dominant-baseline="ideographic">being of individuals.</tspan></text></g></g></g><g id="g-root-tx_upholdin_zs6j201n503da-fill" data-item-order="0" transform="translate(345, 466.9999694824219)"><g id="tx_upholdin_zs6j201n503da-fill" stroke="none" fill="#484848"><g><text style="font: 15px Roboto, sans-serif; white-space: pre;" font-size="15px" font-family="Roboto, sans-serif"><tspan x="12.16" y="30.6" dominant-baseline="ideographic">Upholding honesty </tspan><tspan x="17.39" y="48.6" dominant-baseline="ideographic">and strong moral </tspan><tspan x="39.8" y="66.6" dominant-baseline="ideographic">principles.</tspan></text></g></g></g><g id="g-root-1.bubble-1_fr_1lvj3zs1n51jin-stroke" data-item-order="-314390" transform="translate(39, 111)"><g id="1.bubble-1_fr_1lvj3zs1n51jin-stroke" fill="none" stroke-linecap="round" stroke-linejoin="round" stroke-miterlimit="4" stroke="#484848" stroke-width="2"><g><path d="M 178 22C 178 15.3726 172.6274 10 166 10L 22 10C 15.3726 10 10 15.3726 10 22M 178 189.999725L 178 22M 10 189.999725L 10 22M 178 190L 178 194.0872C 178 198.8876 175.1392 203.226 170.727 205.117L 98.727 235.9741C 95.7085 237.2678 92.2916 237.2678 89.273 235.9741L 17.273 205.117C 12.8608 203.226 10 198.8876 10 194.0872L 10 190"/></g></g></g><g id="g-root-3.bubble-3_fr_1hfplvc1n51kax-stroke" data-item-order="-314362" transform="translate(231, 111)"><g id="3.bubble-3_fr_1hfplvc1n51kax-stroke" fill="none" stroke-linecap="round" stroke-linejoin="round" stroke-miterlimit="4" stroke="#484848" stroke-width="2"><g><path d="M 178 22C 178 15.3726 172.6274 10 166 10L 22 10C 15.3726 10 10 15.3726 10 22M 178 189.999725L 178 22M 10 189.999725L 10 22M 178 190L 178 194.0872C 178 198.8876 175.1392 203.226 170.727 205.117L 98.727 235.9741C 95.7085 237.2678 92.2916 237.2678 89.273 235.9741L 17.273 205.117C 12.8608 203.226 10 198.8876 10 194.0872L 10 190"/></g></g></g><g id="g-root-5.bubble-5_fr_1d0iku01n51hxf-stroke" data-item-order="-314334" transform="translate(423, 111)"><g id="5.bubble-5_fr_1d0iku01n51hxf-stroke" fill="none" stroke-linecap="round" stroke-linejoin="round" stroke-miterlimit="4" stroke="#484848" stroke-width="2"><g><path d="M 178 22C 178 15.3726 172.6274 10 166 10L 22 10C 15.3726 10 10 15.3726 10 22M 178 189.999725L 178 22M 10 189.999725L 10 22M 178 190L 178 194.0872C 178 198.8876 175.1392 203.226 170.727 205.117L 98.727 235.9741C 95.7085 237.2678 92.2916 237.2678 89.273 235.9741L 17.273 205.117C 12.8608 203.226 10 198.8876 10 194.0872L 10 190"/></g></g></g><g id="g-root-2.bubble-2_fr_144vkl41n51iq5-stroke" data-item-order="-314304" transform="translate(135, 323.9999694824219)"><g id="2.bubble-2_fr_144vkl41n51iq5-stroke" fill="none" stroke-linecap="round" stroke-linejoin="round" stroke-miterlimit="4" stroke="#484848" stroke-width="2"><g><path d="M 10.000001 212.999969C 10.000001 219.627369 15.372601 224.999969 22.000001 224.999969L 166.000001 224.999969C 172.627401 224.999969 178.000001 219.627369 178.000001 212.999969M 177.999985 212.999741L 177.999985 57M 10 212.999741L 10 57M 10 56.944404L 10 52.857104C 10 48.056804 12.8608 43.718304 17.273 41.827404L 89.273 10.970304C 92.2915 9.676604 95.7085 9.676604 98.727 10.970304L 170.727 41.827404C 175.1392 43.718304 178 48.056804 178 52.857104L 178 56.944404"/></g></g></g><g id="g-root-4.bubble-4_fr_zp22go1n51jif-stroke" data-item-order="-314276" transform="translate(327, 323.9999694824219)"><g id="4.bubble-4_fr_zp22go1n51jif-stroke" fill="none" stroke-linecap="round" stroke-linejoin="round" stroke-miterlimit="4" stroke="#484848" stroke-width="2"><g><path d="M 10.000001 213C 10.000001 219.6274 15.372601 225 22.000001 225L 166.000001 225C 172.627401 225 178.000001 219.6274 178.000001 213M 177.999985 212.999741L 177.999985 57M 10 212.999741L 10 57M 10 56.944404L 10 52.857104C 10 48.056804 12.8608 43.718304 17.273 41.827404L 89.273 10.970304C 92.2915 9.676604 95.7085 9.676604 98.727 10.970304L 170.727 41.827404C 175.1392 43.718304 178 48.056804 178 52.857104L 178 56.944404"/></g></g></g><g id="g-root-tx_commitme_hyej201n51ipu-stroke" data-item-order="0" transform="translate(57, 135)"/><g id="g-root-tx_innovati_vb3zlk1n55qmb-stroke" data-item-order="0" transform="translate(261, 135)"/><g id="g-root-tx_teamspir_mbq4u01n5ct1h-stroke" data-item-order="0" transform="translate(453, 123)"/><g id="g-root-tx_adedicat_92rit41n51jij-stroke" data-item-order="0" transform="translate(51, 170.99996948242188)"/><g id="g-root-tx_embracin_mfgzco1n55rf0-stroke" data-item-order="0" transform="translate(243, 170.99996948242188)"/><g id="g-root-tx_fosterin_dgplo81n5cqoe-stroke" data-item-order="0" transform="translate(441, 158.99996948242188)"/><g id="g-root-conf_4my0oo1n51kas-stroke" data-item-order="0" transform="translate(93, 242.99996948242188)"><g id="conf_4my0oo1n51kas-stroke" fill="none" stroke-linecap="round" stroke-linejoin="round" stroke-miterlimit="4" stroke="#484848" stroke-width="2"><g><path d="M 10 10M 68.017502 52.835003L 65.467499 50.285C 65.467499 50.285 65.25 46.935001 64.310005 46.010002L 55.747498 37.560001C 54.586025 36.413734 52.718979 36.413734 51.557499 37.560001C 51.00449 38.105843 50.693203 38.850475 50.693203 39.627499C 50.693203 40.404518 51.00449 41.149155 51.557499 41.695L 49.462502 39.627499C 48.300472 38.482582 46.434532 38.482582 45.272499 39.627502C 44.71949 40.173344 44.408203 40.917976 44.408203 41.695C 44.408203 42.472023 44.71949 43.21666 45.272499 43.762497L 44.227501 42.732502C 43.066021 41.586231 41.198975 41.586231 40.037498 42.732498C 39.484489 43.278343 39.173203 44.022976 39.173203 44.799999C 39.173203 45.577019 39.484489 46.321655 40.037498 46.8675L 41.087502 47.9025C 39.925724 46.754585 38.056774 46.754585 36.894997 47.902496C 36.341988 48.448341 36.030701 49.192978 36.030701 49.970001C 36.030701 50.747025 36.341988 51.491657 36.894997 52.037498L 40.037502 55.137501C 38.928509 56.228729 38.30352 57.719158 38.302498 59.274998C 38.302502 60.825001 38.927502 62.3125 40.037502 63.41C 42.950001 66.285004 48.3475 68.292496 52.855 67.997498M 40.035 55.135002L 43.177498 58.235001M 43.175003 49.965L 41.080002 47.897499M 47.3675 45.829998L 45.272499 43.762501M 11.9825 27.165001L 14.5325 29.715C 14.5325 29.715 14.75 33.064999 15.690001 33.989998L 24.252501 42.439999C 25.413977 43.586266 27.281023 43.586266 28.442499 42.439999C 28.99551 41.894157 29.306797 41.149521 29.306797 40.372498C 29.306797 39.595478 28.99551 38.850842 28.442499 38.305L 30.5375 40.372501C 31.699532 41.517418 33.565472 41.517418 34.727501 40.372501C 35.28051 39.826656 35.591797 39.082024 35.591797 38.305C 35.591797 37.527977 35.28051 36.78334 34.727501 36.237499L 35.772499 37.267498C 36.933979 38.413765 38.801022 38.413765 39.962498 37.267498C 40.515511 36.721657 40.826794 35.97702 40.826794 35.200001C 40.826794 34.422977 40.515511 33.678341 39.962498 33.1325L 38.912498 32.0975C 40.074276 33.245411 41.943222 33.245411 43.105 32.0975C 43.658009 31.551657 43.969296 30.80702 43.969296 30.030001C 43.969296 29.252977 43.658009 28.508341 43.105 27.9625L 39.962498 24.862501C 41.071487 23.771269 41.696476 22.28084 41.697498 20.725C 41.697498 19.174999 41.072498 17.684999 39.962498 16.59C 37.049999 13.715 31.65 11.7075 27.145 12M 39.967503 24.865L 36.822502 21.764999M 36.824997 30.035L 38.919998 32.102501M 32.6325 34.170002L 34.727501 36.237499M 46.197502 15L 47.857498 13.0925C 48.114262 12.797935 48.486057 12.629074 48.87682 12.629554C 49.267582 12.630033 49.638966 12.799806 49.895 13.095L 53.214996 16.915001C 53.5429 17.292732 54.052776 17.458204 54.540001 17.344999L 59.470001 16.205C 59.851372 16.116577 60.252342 16.198061 60.568947 16.428322C 60.885559 16.658581 61.08662 17.01494 61.119999 17.405001L 61.560001 22.4475C 61.602448 22.94521 61.917233 23.378399 62.377502 23.5725L 67.037498 25.547501C 67.400093 25.699751 67.678276 26.002541 67.799316 26.376709C 67.920357 26.750879 67.872223 27.159229 67.667503 27.495001L 65.059998 31.835001C 64.804146 32.262115 64.804146 32.795387 65.059998 33.2225L 67.667496 37.5625C 67.873062 37.897686 67.921646 38.306042 67.800491 38.680107C 67.679321 39.054173 67.400543 39.356487 67.037498 39.5075L 65.872505 40.002502M 33.870003 65L 32.209999 66.912498C 31.953241 67.207062 31.581442 67.375931 31.190681 67.37545C 30.799921 67.374969 30.428535 67.205193 30.172501 66.910004L 26.852501 63.087502C 26.524282 62.710251 26.014698 62.544876 25.5275 62.657501L 20.5975 63.800003C 20.216131 63.888428 19.815161 63.806938 19.498552 63.576679C 19.181944 63.34642 18.980883 62.990059 18.9475 62.600002L 18.5075 57.557503C 18.464504 57.05999 18.149902 56.627052 17.689999 56.432495L 13.0275 54.454998C 12.666076 54.302143 12.389049 53.999592 12.268561 53.626129C 12.148073 53.252663 12.196052 52.845261 12.4 52.509998L 15.0075 48.169998C 15.264358 47.742268 15.264358 47.207733 15.0075 46.779999L 12.4 42.442501C 12.196052 42.107243 12.148073 41.699837 12.268561 41.326374C 12.389049 40.952908 12.666076 40.650356 13.0275 40.497501L 14.195 40"/></g></g></g><g id="g-root-idea_94my2g1n55pu6-stroke" data-item-order="0" transform="translate(285, 242.99996948242188)"><g id="idea_94my2g1n55pu6-stroke" fill="none" stroke-linecap="round" stroke-linejoin="round" stroke-miterlimit="4" stroke="#484848" stroke-width="2"><g><path d="M 67.5 68.75L 67.5 66.25C 67.530235 64.275757 66.597534 62.41037 65.000008 61.250004C 61.662502 58.702503 54.324997 53.75 40 53.75C 25.674999 53.75 18.3375 58.702503 15 61.25C 13.402465 62.41037 12.46977 64.275757 12.5 66.250008L 12.5 68.75M 40 68.75L 53.305 55.445M 40 68.75L 26.695 55.445M 43.75 65L 40 53.75L 36.25 65M 24.164999 56.252499L 21.25 65L 28.75 68.75M 55.834999 56.252499L 58.75 65L 51.25 68.75M 45 48.75L 35 48.75M 40 11.25L 40 13.75M 60 28.75L 57.5 28.75M 57.5 16.25L 55 18.75M 20 28.75L 22.5 28.75M 22.5 16.25L 25 18.75M 57.5 41.25L 55 38.75M 22.5 41.25L 25 38.75M 51.25 30C 51.27359 24.445059 47.23914 19.704458 41.751907 18.839458C 36.264675 17.974457 30.96751 21.24403 29.281071 26.536842C 27.594631 31.829653 30.023827 37.561066 35 40.029999L 35 42.5C 35 43.190353 35.559647 43.75 36.25 43.75L 43.75 43.75C 44.440353 43.75 45 43.190353 45 42.5L 45 40.029999C 48.818356 38.144119 51.239502 34.258671 51.25 30Z"/></g></g></g><g id="g-root-2_593aw1n5cs9b-stroke" data-item-order="0" transform="translate(477, 242.99996948242188)"><g id="2_593aw1n5cs9b-stroke" fill="none" stroke-linecap="round" stroke-linejoin="round" stroke-miterlimit="4" stroke="#484848" stroke-width="2"><g><path d="M 11.25 52.794998C 11.25 56.499451 14.253051 59.502502 17.9575 59.502502C 21.661951 59.502502 24.665001 56.499451 24.665001 52.794998C 24.665001 49.090553 21.661951 46.087502 17.9575 46.087502C 14.253051 46.087502 11.25 49.090553 11.25 52.794998M 28.5375 68.402496C 27.166973 65.192841 24.413044 62.779217 21.051371 61.84145C 17.689699 60.903683 14.084059 61.543243 11.25 63.579998M 55.335003 52.794998C 55.335003 56.499451 58.338051 59.502502 62.042503 59.502502C 65.746948 59.502502 68.750008 56.499451 68.750008 52.794998C 68.750008 49.090553 65.746948 46.087502 62.042503 46.087502C 58.338051 46.087502 55.335003 49.090553 55.335003 52.794998M 51.462498 68.402496C 52.833023 65.192841 55.586952 62.779217 58.948627 61.84145C 62.310299 60.903683 65.915939 61.543243 68.749992 63.579998M 31.375 50.877499C 31.373779 55.641819 35.23568 59.504707 40 59.504707C 44.76432 59.504707 48.626221 55.641819 48.625 50.877499C 48.626221 46.113182 44.76432 42.25029 40 42.25029C 35.23568 42.25029 31.373779 46.113182 31.375 50.877499M 51.462498 68.402496C 48.525158 65.175507 44.363644 63.336147 39.999996 63.336147C 35.636353 63.336147 31.474838 65.175507 28.537498 68.402496M 36.1675 28.8475C 36.1675 30.96413 37.883369 32.68 40 32.68C 42.116631 32.68 43.8325 30.96413 43.8325 28.8475C 43.8325 26.730869 42.116631 25.014999 40 25.014999C 37.883369 25.014999 36.1675 26.730869 36.1675 28.8475M 32.614998 38.2225L 28.85 39.094997C 27.38743 39.422115 25.882267 38.758869 25.136726 37.458759C 24.391186 36.158653 24.578972 34.524597 25.6 33.427502L 28.227499 30.5875C 29.13748 29.605001 29.13748 28.0875 28.227499 27.105L 25.594999 24.2675C 24.575529 23.169674 24.388578 21.536392 25.133612 20.236599C 25.878643 18.936804 27.382462 18.272657 28.844999 18.5975L 32.610001 19.470001C 33.914902 19.76828 35.227333 19.002693 35.610001 17.719999L 36.75 14.0175C 37.181839 12.579956 38.505245 11.59568 40.006248 11.59568C 41.507256 11.59568 42.830662 12.579956 43.262501 14.0175L 44.392502 17.73C 44.775166 19.012693 46.087601 19.77828 47.392502 19.48L 51.142502 18.6075C 52.605034 18.282658 54.108852 18.946804 54.853889 20.246597C 55.598915 21.546391 55.411968 23.179676 54.392494 24.277498L 51.77 27.105C 50.862431 28.088442 50.862431 29.604055 51.769997 30.5875L 54.404999 33.427502C 55.426029 34.524597 55.613819 36.158653 54.868275 37.458759C 54.122734 38.758869 52.617573 39.422115 51.154999 39.095001L 47.404999 38.2225M 33.25 45.5C 37.482841 49.217587 42.995541 51.143311 48.622501 50.870003M 12.69 48.654999C 16.000603 51.52557 20.290895 53.008499 24.6675 52.794998M 56.772499 48.654999C 60.083103 51.52557 64.373398 53.008499 68.750008 52.794998"/></g></g></g><g id="g-root-pick_1unf9q01n5fksl-stroke" data-item-order="0" transform="translate(189, 358.9999694824219)"><g id="pick_1unf9q01n5fksl-stroke" fill="none" stroke-linecap="round" stroke-linejoin="round" stroke-miterlimit="4" stroke="#484848" stroke-width="2"><g><path d="M 31.59 49.474998C 31.589252 54.163048 35.389454 57.963848 40.077499 57.963848C 44.765545 57.963848 48.565746 54.163048 48.564999 49.474998C 48.565746 44.786953 44.765545 40.986149 40.077499 40.986149C 35.389454 40.986149 31.589252 44.786953 31.59 49.474998M 27.065001 68.75C 29.027908 63.35384 34.117474 59.728943 39.858837 59.637951C 45.600201 59.546959 50.802078 63.008751 52.934998 68.340004M 17.245001 52.4925C 17.245001 55.513496 19.694002 57.962498 22.715 57.962498C 25.735998 57.962498 28.185001 55.513496 28.185001 52.4925C 28.185001 49.471504 25.735998 47.022499 22.715 47.022499C 19.694002 47.022499 17.245001 49.471504 17.245001 52.4925M 29.307501 64.797501C 27.426622 63.322872 25.105026 62.522598 22.715 62.525002C 18.663704 62.535843 14.959554 64.814133 13.122499 68.424995M 51.814999 52.4925C 51.814999 55.513496 54.264 57.962498 57.285 57.962498C 60.305996 57.962498 62.754997 55.513496 62.754997 52.4925C 62.754997 49.471504 60.305996 47.022499 57.285 47.022499C 54.264 47.022499 51.814999 49.471504 51.814999 52.4925M 66.877502 68.425003C 65.040443 64.814133 61.336292 62.535843 57.285 62.524994C 54.935562 62.519852 52.650322 63.291553 50.785004 64.720001M 56.25 11.25L 47.139999 11.5C 45.471626 11.547125 43.858006 12.105653 42.517502 13.1L 33.800003 19.567499C 31.96911 20.928928 30.648508 22.865812 30.050001 25.067499L 28.549999 30.605C 27.954121 32.303127 27.947077 34.152382 28.530001 35.855C 29.441111 37.635685 31.527521 38.469608 33.415001 37.807499C 34.525314 37.453911 35.37545 36.553711 35.665001 35.424999L 37.535 27.605C 37.841831 26.879841 38.358006 26.262695 39.017502 25.8325L 45.280003 21.75C 46.447353 20.98642 47.929806 20.891512 49.184998 21.5C 50.184998 22 51.950001 22.965 52.340004 23.965C 53.110699 25.550104 52.83733 27.444891 51.650002 28.747499L 46.962502 33.32C 45.525253 34.631744 45.2855 36.806686 46.4025 38.399998C 47.84 40.112499 49.860001 39.105 51.725002 37.815002L 60.149998 31.984999C 60.886833 31.472961 61.430107 30.728052 61.692501 29.869999L 63.442501 24.147499"/></g></g></g><g id="g-root-shie_mbq4u01n5fm6c-stroke" data-item-order="0" transform="translate(381, 358.9999694824219)"><g id="shie_mbq4u01n5fm6c-stroke" fill="none" stroke-linecap="round" stroke-linejoin="round" stroke-miterlimit="4" stroke="#484848" stroke-width="2"><g><path d="M 10 10M 42.669998 68.25L 45.32 67.25C 57.922573 62.448952 66.25071 50.363602 66.25 36.877502L 66.25 20.627501C 66.251961 18.637602 65.073769 16.835958 63.25 16.039999C 48.411758 9.659862 31.603237 9.659862 16.764999 16.039999C 14.93702 16.830687 13.752627 18.630846 13.75 20.622499L 13.75 36.872498C 13.747217 50.360432 22.075722 62.448303 34.68 67.25L 37.330002 68.25C 39.049286 68.907486 40.950714 68.907486 42.669998 68.25ZM 44.7225 45.474998C 47.970497 45.80302 51.240501 45.119331 54.085003 43.517502C 54.406124 43.336872 54.631203 43.023773 54.700123 42.661842C 54.769039 42.299904 54.674767 41.926003 54.442501 41.639999C 53.360001 40.369999 52.607498 38.695 52.277496 33.807499C 51.647499 24.5175 45.3825 21.25 40 21.25C 34.6175 21.25 28.352501 24.5175 27.7225 33.807499C 27.3925 38.695 26.639999 40.369999 25.557501 41.639999C 25.32523 41.926003 25.230963 42.299904 25.299879 42.661842C 25.368797 43.023773 25.593876 43.336872 25.915001 43.517498C 28.759966 45.118095 32.029575 45.801701 35.2775 45.474998M 53.357502 51.790001C 51.224998 50.91 48.702499 50.0075 45.959999 48.9925C 45.21344 48.721493 44.714653 48.01421 44.709999 47.219997L 44.709999 43.77C 44.709362 43.237892 44.933647 42.730297 45.327499 42.372501C 46.750408 41.073418 47.555428 39.231686 47.5425 37.305L 47.5425 34.555C 47.543495 33.467346 46.832916 32.50705 45.7925 32.189999C 43.93272 31.611158 42.238167 30.596315 40.849998 29.23C 40.37056 28.785355 39.62944 28.785355 39.150002 29.23C 37.75462 30.596659 36.052094 31.609087 34.184998 32.182499C 33.144585 32.499546 32.434002 33.45985 32.435001 34.547501L 32.435001 37.297501C 32.421757 39.224251 33.22683 41.066105 34.650002 42.365002C 35.043854 42.722797 35.268139 43.230392 35.267502 43.762501L 35.267502 47.212502C 35.262844 48.00671 34.764057 48.713993 34.017498 48.985001C 31.2675 50 28.752501 50.9025 26.619999 51.782497"/></g></g></g><g id="g-root-tx_peoplefo_4054o1n5fj7v-stroke" data-item-order="0" transform="translate(153, 430.9999694824219)"/><g id="g-root-tx_integrit_1lynkl41n5045f-stroke" data-item-order="0" transform="translate(369, 430.9999694824219)"/><g id="g-root-tx_prioriti_1hdu6m01n5fldy-stroke" data-item-order="0" transform="translate(147, 466.9999694824219)"/><g id="g-root-tx_upholdin_zs6j201n503da-stroke" data-item-order="0" transform="translate(345, 466.9999694824219)"/></g></g></svg>