<svg xmlns="http://www.w3.org/2000/svg" xmlns:xlink="http://www.w3.org/1999/xlink" version="1.1" id="Слой_1" x="0px" y="0px" viewBox="0 0 664.747 518.623" style="enable-background:new 0 0 664.747 518.623;" xml:space="preserve">
<g>
	<rect y="0" style="fill:none;" width="664.747" height="518.623"/>
	<g>
		<linearGradient id="SVGID_1_" gradientUnits="userSpaceOnUse" x1="298.8408" y1="244.6733" x2="463.623" y2="244.6733">
			<stop offset="0" style="stop-color:#96CBFF"/>
			<stop offset="1" style="stop-color:#5599FF"/>
		</linearGradient>
		<path style="fill:url(#SVGID_1_);" d="M446.099,270.814c2.464-6.103,4.01-12.442,4.675-18.829l12.85-4.653l-2.201-14.682    l-2.201-14.682l-13.649-0.68c-2.509-5.911-5.846-11.518-9.991-16.629l5.791-12.366l-11.938-8.825l-11.938-8.825l-10.124,9.163    c-6.102-2.464-12.441-4.01-18.828-4.675l-4.652-12.849l-14.682,2.202l-14.682,2.201l-0.681,13.648    c-5.91,2.509-11.518,5.847-16.629,9.992l-12.365-5.791l-8.825,11.938l-8.825,11.938l9.163,10.124    c-2.464,6.103-4.01,12.442-4.676,18.829l-12.849,4.653l2.201,14.682l2.201,14.682l13.648,0.68    c2.51,5.91,5.847,11.518,9.992,16.629l-5.791,12.365l11.938,8.825l11.939,8.824l10.123-9.162    c6.103,2.464,12.442,4.011,18.828,4.675l4.653,12.85l14.682-2.201l14.682-2.201l0.68-13.648c5.911-2.509,11.519-5.847,16.63-9.991    l12.365,5.79l8.825-11.938l8.824-11.938L446.099,270.814z M359.594,273.944c-16.166-11.95-19.583-34.743-7.633-50.909    c11.95-16.165,34.743-19.583,50.908-7.633c16.166,11.95,19.584,34.743,7.633,50.909    C398.552,282.477,375.76,285.895,359.594,273.944z"/>
		<g>
			<path style="fill:#3A3F47;" d="M343.201,359.605c0,0,0.323-1.545,2.579-1.539c3.13,0.011,3.383,4.46,2.854,7.227     c-0.701,3.67-2.028,5.167,0.503,14.683c0,0-5.603-11.762-4.723-15.26C345.059,362.149,343.201,359.605,343.201,359.605z"/>
			<path style="fill:#EEA886;" d="M325.593,389.266c0,0-1.334-0.673-1.319-1.402c0.016-0.73-0.32-1.715-0.441-2.02     c-0.162-0.407-0.22-1.862-0.708-1.641s-0.015,2.406-0.002,2.887c0.013,0.48-1.577-0.82-2.048-0.811s-2.395,2.97-1.204,3.727     c1.191,0.757,2.891,0.811,3.131,0.898c0.248,0.09,1.145,0.428,1.145,0.428L325.593,389.266z"/>
			<path style="fill:#EEA886;" d="M321.393,386.385c0,0-3.795-2.058-4.159-1.967c-0.364,0.09-0.461,0.317-0.114,0.525     c0.348,0.208,3.611,2.1,3.611,2.1s-4.89-1.624-5.202-1.62c-0.184,0.003-0.394,0.432-0.218,0.561     c0.176,0.13,4.93,2.037,4.93,2.037s-4.567-1.509-4.829-1.422c-0.229,0.076-0.331,0.52,0,0.656     c0.331,0.137,4.492,1.792,4.492,1.792s-3.394-0.873-3.576-0.662c-0.112,0.129-0.309,0.491,0.572,0.688     c0.883,0.196,2.916,0.893,2.916,0.893L321.393,386.385z"/>
			<path style="fill:#EEA886;" d="M337.07,392.135c0,0-6.211-1.377-7.409-1.742c-1.376-0.418-4.068-1.127-4.068-1.127l-1.446,2.065     c0,0,8.017,4.11,9.494,4.694c1.377,0.546,5.114,1.893,5.114,1.893L337.07,392.135z"/>
			<path style="fill:#DE9673;" d="M310.15,417.89c0,0-1.814,7.733-1.874,9.249c-0.06,1.514-5.297,21.671-5.678,22.673     c-0.38,1.002,1.964,1.854,2.632,1.194c0.667-0.659,5.855-11.902,7.041-13.99c1.186-2.086,4.091-6.939,4.254-11.788     C316.689,420.378,310.15,417.89,310.15,417.89z"/>
			<path style="fill:#EEA886;" d="M308.834,420.227c0,0,2.822,7.425,3.62,8.714c0.798,1.288,7.732,20.927,7.979,21.97     c0.245,1.043,2.65,0.348,2.835-0.572c0.183-0.92-1.792-13.051-1.977-15.444c-0.184-2.393-0.58-8.617-3.158-12.729     C315.556,418.053,308.834,420.227,308.834,420.227z"/>
			<g>
				<path style="fill:#FFC955;" d="M323.389,450.366c0,0-3.147-0.727-3.244-0.81c-0.096-0.082-0.126-0.268-0.546-0.076      c-0.419,0.192-0.564,0.85-0.974,1.076c-0.41,0.228-2.934,1.104-4.302,1.864c-0.494,0.274-2.599,1.2-2.874,1.899      c-0.274,0.698-0.127,1.721,3.547,1.293c3.674-0.428,7.732-0.11,8.52-0.554C324.302,454.616,323.653,451.422,323.389,450.366z"/>
			</g>
			<g>
				<path style="fill:#FFC955;" d="M305.392,451.083c0,0-2.917-1.386-2.994-1.486c-0.076-0.101-0.066-0.29-0.517-0.191      c-0.451,0.099-0.733,0.709-1.183,0.843c-0.449,0.133-3.102,0.447-4.602,0.897c-0.542,0.163-2.796,0.615-3.214,1.238      c-0.419,0.625-0.494,1.654,3.186,2.023c3.681,0.371,7.576,1.553,8.44,1.288C305.372,455.431,305.424,452.172,305.392,451.083z"/>
			</g>
			<path style="fill:#FFC955;" d="M335.374,407.075c0,0-24.349,5.35-26.54,13.151c0,0,4.353-1.219,8.71,1.174     c0,0,11.401,0.076,22.666,0.049c1.417-0.003,11.344-2.822,9.805-11.178C348.455,401.805,335.374,407.075,335.374,407.075z"/>
			<g>
				<path style="fill:#EEA987;" d="M339.509,373.225c0.354,0.339,0.675,0.81,0.956,1.326c0.267,0.486,0.499,1.014,0.691,1.506      c0.418,1.07,0.651,1.983,0.651,1.983s5.759-3.042,4.354-4.191c-1.403-1.15-2.019-5.647-2.019-5.647      S338.343,372.109,339.509,373.225z"/>
			</g>
			<g>
				<path style="fill:#EEA886;" d="M332.771,362.377c0,0-1.189,1.8,0.605,5.531c0,0,0.523,3.224,0.197,3.902      c-0.327,0.679,1.492,0.389,1.788,0.729c0.295,0.341,1.157,2.082,2.696,2.847c1.538,0.766,6.696-4.27,6.468-6.239      c-0.229-1.97,1.737-11.232-5.044-9.742C332.702,360.895,332.771,362.377,332.771,362.377z"/>
			</g>
			<g>
				<path style="fill:#3A3F47;" d="M332.816,366.543c0,0-3.022-7.943,5.288-8.69c8.31-0.746,6.717,9.299,6.461,12.5      c0,0-1.127-4.547-4.974-3.634C335.745,367.633,334.714,366.972,332.816,366.543z"/>
			</g>
			<g>
				<path style="fill:#EEA886;" d="M339.892,365.403c0.245-0.96,2-0.974,2.165,0.34c0.164,1.313-0.793,2.935-1.397,2.445      C340.057,367.699,339.531,366.814,339.892,365.403z"/>
			</g>
			<path style="fill:#A77860;" d="M340.465,374.551c0.267,0.486,0.499,1.014,0.691,1.506c1.778-1.495,2.511-4.755,2.511-4.755     c-1.12,1.682-3.201,3.248-3.201,3.248S340.466,374.55,340.465,374.551z"/>
			<path style="fill:#5F8CC9;" d="M340.962,377.066c0,0-5.076,5.808-5.721,6.269c-0.645,0.459-2.577,4.602,0,7.087     c0,0,0.233,2.645,0.694,3.658c0.46,1.013,0.134,11.438-0.603,12.634c-0.736,1.197,9.711,5.169,14.682,3.558     c0,0-1.409-6.686-1.87-10.092c-0.46-3.406,1.594-13.329,1.64-15.999c0.046-2.669-1.805-9.447-3.618-10.187     C344.353,373.255,340.962,377.066,340.962,377.066z"/>
			
				<rect x="314.154" y="409.673" transform="matrix(0.9486 -0.3163 0.3163 0.9486 -113.1562 123.5232)" style="fill:#6E6760;" width="19.414" height="1.196"/>
			
				<rect x="297.729" y="406.989" transform="matrix(0.7991 0.6012 -0.6012 0.7991 306.7893 -102.9456)" style="fill:#6E6760;" width="19.414" height="1.197"/>
			<path style="fill:#EEA886;" d="M319.481,411.171c-0.154-0.399-0.184-1.044,1.012-1.934c1.197-0.89,3.806-3.344,4.787-3.528     c0.982-0.184,1.719,0.245,2.117,0.185c0.4-0.063,0.92,2.331,0.92,2.331L319.481,411.171z"/>
			<path style="fill:#EEA886;" d="M327.397,405.893c0,0,5.224-2.148,6.113-2.578c0.891-0.43,5.186-1.933,5.554-2.117     c0.369-0.184,2.302-10.249,2.455-12.856c0.153-2.608,0.307-8.132,3.253-7.886c2.945,0.245,3.651,2.179,3.283,5.983     c-0.368,3.805-2.547,17.429-3.468,17.889c-0.92,0.46-11.823,2.633-17.039,4.168C322.333,410.031,327.397,405.893,327.397,405.893     z"/>
			<path style="fill:#5F8CC9;" d="M343.506,360.016c0,0,1.246,2.244,1.118,3.932C344.624,363.947,345.768,361.392,343.506,360.016z"/>
		</g>
		<g>
			<g>
				<g>
					<path style="fill:#E4F3FF;" d="M568.03,265.774v130.895c0,3.489-2.827,6.316-6.315,6.316h-97.033       c-3.488,0-6.316-2.827-6.316-6.316V265.774c0-3.488,2.828-6.316,6.316-6.316h97.033       C565.203,259.458,568.03,262.286,568.03,265.774z"/>
				</g>
			</g>
		</g>
		<path style="fill:#B5DEFF;" d="M524.192,314.51h-60.719c-2.874,0-5.204-2.329-5.204-5.204v-34.549c0-2.874,2.33-5.204,5.204-5.204    h60.719c2.874,0,5.203,2.33,5.203,5.204v34.549C529.396,312.181,527.066,314.51,524.192,314.51z"/>
		<g>
			<g>
				<g>
					<path style="fill:#BBD070;" d="M90.669,189.206c0,0,78.659-29.601,104.193,16.706c20.431,37.052-13.737,40.7-13.737,40.7       s-3.275,20.239-39.501-29.829C124.549,193.185,90.669,189.206,90.669,189.206z"/>
				</g>
			</g>
		</g>
		<g>
			<g>
				<g>
					<path style="fill:#97A43C;" d="M83.676,63.078c0,0,68.112-17.498,108.085,69.773c39.973,87.27,79.351,95.955,79.351,95.955       S118.035,248.55,83.676,63.078z"/>
				</g>
			</g>
		</g>
		<g>
			<g>
				<g>
					<path style="fill:#48753A;" d="M242.972,232.342c-7.27,28.001-69.335-29.745-73.3-78.98       c-3.965-49.235,10.504-84.504-0.821-116.52C168.851,36.842,278.77,94.457,242.972,232.342z"/>
				</g>
			</g>
		</g>
		
			<linearGradient id="SVGID_00000027584810084271819010000007844052688502740630_" gradientUnits="userSpaceOnUse" x1="199.039" y1="164.0463" x2="338.9775" y2="164.0463">
			<stop offset="0" style="stop-color:#96CBFF"/>
			<stop offset="1" style="stop-color:#5599FF"/>
		</linearGradient>
		<path style="fill:url(#SVGID_00000027584810084271819010000007844052688502740630_);" d="M327.477,149.597    c-1.355-5.503-3.472-10.708-6.228-15.503l6.626-9.726l-8.938-9.141l-8.939-9.141l-9.873,6.406    c-4.732-2.862-9.888-5.095-15.359-6.574l-2.191-11.553l-12.784-0.144l-12.784-0.144l-2.449,11.501    c-5.502,1.356-10.708,3.472-15.503,6.227l-9.727-6.626l-9.141,8.938l-9.142,8.938l6.406,9.873    c-2.862,4.731-5.095,9.888-6.574,15.359l-11.553,2.19l-0.143,12.784l-0.144,12.784l11.501,2.45    c1.355,5.502,3.472,10.708,6.228,15.503l-6.626,9.726l8.938,9.141l8.938,9.142l9.873-6.406c4.731,2.862,9.889,5.095,15.359,6.574    l2.19,11.553l12.784,0.144l12.784,0.143l2.449-11.501c5.503-1.355,10.708-3.472,15.503-6.227l9.727,6.626l9.141-8.938l9.142-8.938    l-6.406-9.873c2.862-4.732,5.095-9.889,6.574-15.36l11.553-2.19l0.144-12.784l0.143-12.784L327.477,149.597z M268.656,195.392    c-17.311-0.194-31.188-14.386-30.993-31.697c0.194-17.311,14.386-31.188,31.697-30.993c17.312,0.194,31.188,14.386,30.993,31.697    C300.159,181.71,285.968,195.586,268.656,195.392z"/>
		<g>
			<g>
				<g>
					<path style="fill:#EEA886;" d="M135.597,202.618c0,0,0.957-1.675-0.561-6.163c-1.469-4.341-6.55-3.947-8.164-1.166       c-1.615,2.781-1.069,4.508,1.308,7.648C130.558,206.077,134.609,204.054,135.597,202.618z"/>
				</g>
			</g>
			<g>
				<g>
					<path style="fill:#EEA886;" d="M123.795,279.842c0,0-0.252,1.843-0.283,2.119c-0.031,0.277-2.797-0.162-2.797-0.162       l-0.225-2.195C120.49,279.603,123.449,279.581,123.795,279.842z"/>
				</g>
			</g>
			<g>
				<g>
					<path style="fill:#152B3D;" d="M123.541,281.727c0,0,0.876,1.111,1.724,1.596c0.848,0.483,2.18,0.676,2.681,1.177       c0.361,0.361,1.317,1.919-2.202,1.888c-3.519-0.031-5.217,0.22-5.594-0.377c-0.378-0.598,0.545-4.408,0.545-4.408       S121.557,281.845,123.541,281.727z"/>
				</g>
			</g>
			<g>
				<g>
					<path style="fill:#EEA886;" d="M142.943,279.842c0,0-0.251,1.843-0.283,2.119c-0.031,0.277-2.797-0.162-2.797-0.162       l-0.224-2.195C139.64,279.603,142.598,279.581,142.943,279.842z"/>
				</g>
			</g>
			<g>
				<g>
					<path style="fill:#152B3D;" d="M142.689,281.727c0,0,0.877,1.111,1.725,1.596c0.847,0.483,3.966,0.881,4.467,1.383       c0.362,0.361,0.964,1.817-3.989,1.682c-3.519-0.098-5.217,0.22-5.594-0.377c-0.377-0.598,0.546-4.408,0.546-4.408       S140.936,281.797,142.689,281.727z"/>
				</g>
			</g>
			<g>
				<g>
					<path style="fill:#323657;" d="M124.726,233.943c0,0-1.418,4.407-1.232,8.204c0.187,3.798-0.733,7.953-1.109,11.92       c-0.419,4.422-2.135,14.892-2.197,17.257c-0.062,2.366,0.267,9.92,0.267,9.92l3.435,0.083c0,0,2.885-18.304,3.632-20.171       c0.747-1.868,4.451-15.182,4.576-16.676C132.221,242.985,124.726,233.943,124.726,233.943z"/>
				</g>
			</g>
			<g>
				<g>
					<path style="fill:#323657;" d="M138.966,233.484c0,0,2.084,11.651,2.333,13.975c0.249,2.324,0.415,11.247,0.54,12.7       c0.124,1.452,0.83,19.009,1.494,21.167h-3.829c0,0-3.932-12.763-3.932-18.801c0-6.039-2.604-13.128-4.285-17.112       c-1.681-3.984-5.528-4.078-6.561-11.47C124.726,233.943,137.566,231.14,138.966,233.484z"/>
				</g>
			</g>
			<g>
				<g>
					<path style="fill:#EEA886;" d="M134.207,203.803c0,0-0.432,1.257,0,2.154c0.433,0.898-5.519,0.359-5.519,0.359       s0.269-1.854-0.509-3.379C127.402,201.412,134.207,203.803,134.207,203.803z"/>
				</g>
			</g>
			<g>
				<g>
					<path style="fill:#323657;" d="M124.449,234.903c0,0,2.141,2.199,14.708-0.342l-0.191-1.077l-14.287,0.538L124.449,234.903z"/>
				</g>
			</g>
			<g>
				<g>
					<path style="fill:#EEA886;" d="M135.108,206.249c0,0,2.197,0.224,2.825,0.344c0.629,0.12,4.855-0.756,5.723-0.846       c0.867-0.089,4.566-2.623,4.685-2.922c0.12-0.299,2.25-5.692,2.37-6.858c0.119-1.167,2.074-0.564,1.907,0.239       c-0.314,1.503-0.717,5.153-0.938,6.21c-0.238,1.142-0.877,3.729-1.236,4.047c-0.358,0.318-3.688,2.851-6.948,3.927       c-3.26,1.077-5.713,2.662-5.713,2.662h-16.065c0,0-6.249-8.932-6.384-10.278c-0.134-1.346,4.365-10.29,5.262-11.411       c0.897-1.122,2.195,0.366,2.195,0.366s-2.688,7.887-3.047,9.009c-0.359,1.121,3.127,6.048,4.084,6.063       c0.956,0.015,3.414-0.299,4.505-0.344c1.092-0.045,2.243-0.523,2.243-0.523L135.108,206.249z"/>
				</g>
			</g>
			<g>
				<g>
					<path style="fill:#254380;" d="M142.031,212.215c0,0-1.967,1.307-2.146,3.55c-0.179,2.243-0.896,5.786-1.256,6.998       c-0.358,1.211,0.314,10.002,0.404,10.631c0.09,0.628-12.432,2.12-14.355,0.628c0,0-0.538-8.208-0.763-10.541       c-0.224-2.333-1.301-7.984-1.659-8.747c-0.359-0.763-4.71-6.866-4.89-7.67c0,0,2.251-3.589,3.866-3.634       c0,0,2.564,3.006,3.4,3.14c0.836,0.135,5.962-0.805,5.963-0.813c0,0,0.56,0.762,3.533-0.135c0,0,3.542,0.399,4.118,0.473       c0.697,0.089,5.548-0.609,5.548-0.609s1.945,3.286,1.604,4.944L142.031,212.215z"/>
				</g>
			</g>
			<g>
				<g>
					<path style="fill:#EEA886;" d="M150.598,196.667c0,0,0.439-2.079-0.089-2.676c-0.302-0.34-1.024-1.239-1.091-1.372       c-0.066-0.132-0.843-0.578-0.843-0.793c0-0.215,0.76-0.479,1.421,0.132c0.661,0.611,1.074,0.743,1.339,0.677       c0.264-0.066,0.644-2.264,0.677-2.809c0.033-0.545,0.244-1.983,0.585-1.884c0.341,0.099,0.324,0.727,0.324,0.727       s0.396-1.09,0.661-0.876c0.265,0.215,0.231,0.743,0.231,0.743s0.495-0.611,0.628-0.165c0.132,0.446,0,0.843,0,0.843       s0.512-0.281,0.545,0.413c0.033,0.694-0.148,2.727-0.512,3.454c-0.364,0.727-1.725,2.628-1.887,3.372       C152.425,197.197,150.598,196.667,150.598,196.667z"/>
				</g>
			</g>
			<g>
				<g>
					<path style="fill:#EEA886;" d="M122.354,193.016c0,0,1.495-2.512,2.003-2.737c0.509-0.224,1.227-0.351,1.854-0.8       s1.458-0.822,1.413-0.972c-0.045-0.149-0.785-0.089-1.577,0.254c-0.793,0.344-1.141,0.178-1.215-0.002       c-0.075-0.179,0.422-1.446,0.661-1.745c0.239-0.299,1.944-2.014,1.66-2.268c-0.284-0.254-1.391,0.688-1.57,0.882       c0,0,0.882-1.854,0.538-1.944c-0.344-0.089-0.986,0.568-0.986,0.568s0.074-1.585-1.63,0.987c0,0,0.358-0.852-0.165-0.568       c-0.523,0.284-1.031,1.884-1.196,2.692c-0.164,0.807-0.91,3.379-1.547,4C119.961,191.984,122.354,193.016,122.354,193.016z"/>
				</g>
			</g>
			<g>
				<g>
					<path style="fill:#353A3D;" d="M128.18,202.937c0,0,0.788,0.07,2.463-0.508c1.674-0.578,1.799-3.507,2.161-3.16       c0.739,0.708,1.438,0.22,1.716-0.199c0,0-0.817-1.077-0.439-1.595c0.379-0.519,0.996-0.897,0.996-0.897       s-1.179-5.677-6.538-3.09C122.259,196.518,128.18,202.937,128.18,202.937z"/>
				</g>
			</g>
			<g>
				<g>
					<path style="fill:#254380;" d="M134.207,205.957l-0.189-0.82c0,0-3.421-0.07-5.288,0.201l-0.196,0.98       C128.534,206.319,130.924,207.403,134.207,205.957z"/>
				</g>
			</g>
			<g>
				<g>
					<path style="fill:#EEA886;" d="M133.363,198.551c-0.311-0.517-1.46-0.865-1.595,0.598c-0.104,1.134,2.054,2.372,2.073,1.316       C133.862,199.408,133.57,198.895,133.363,198.551z"/>
				</g>
			</g>
			<g>
				<g>
					<path style="fill:#E55353;" d="M150.68,196.195c0,0,1.234,0.031,1.833,0.571c0,0,0.039,0.343-0.1,0.614       c0,0-1.07-0.499-1.891-0.593C150.522,196.788,150.536,196.339,150.68,196.195z"/>
				</g>
			</g>
			<g>
				<g>
					<path style="fill:#353A3D;" d="M152.135,196.502c0.114,0.27-0.013,0.582-0.282,0.696c-0.27,0.114-0.582-0.013-0.696-0.283       c-0.113-0.27,0.013-0.581,0.283-0.695C151.709,196.106,152.02,196.232,152.135,196.502z"/>
				</g>
			</g>
			<g>
				<polygon style="fill:#FFBB55;" points="117.021,286.914 150.551,286.914 139.982,319.368 140.971,319.689 151.982,285.876       116.266,285.876 105.359,319.368 106.348,319.689     "/>
			</g>
			<g>
				<polygon style="fill:#FFBB55;" points="128.432,319.368 117.864,286.914 151.395,286.914 162.067,319.689 163.056,319.368       152.149,285.876 116.433,285.876 127.443,319.689     "/>
			</g>
			<g>
				<rect x="113.9" y="296.095" style="fill:#FFBB55;" width="41.04" height="1.039"/>
			</g>
			<g>
				<rect x="109.673" y="307.379" style="fill:#FFBB55;" width="49.101" height="1.039"/>
			</g>
		</g>
		<g>
			<g>
				<path style="fill:#DBD8E3;" d="M298.392,220.767c0.792-10.697,1.345-20.701,1.657-30.03c-2.581-1.368-5.684-2.966-8.165-4.144      c-7.686-3.659-18.392-8.587-25.262-11.738c-4.021-1.848-7.961-3.197-7.961-3.197s-27.458-2.631-29.686-2.491      c-0.702,0.041-4.135,1.236-8.636,2.953c-9.737,3.695-28.509,11.217-31.498,13.364c-4.384,3.138-20.066,80.018-20.483,85.24      c-0.407,5.072,21.33,12.011,41.461,17.327c-0.014,7.794-0.172,18.713-0.349,28.681c-0.027,1.703-0.06,3.374-0.091,4.995h88.084      c-0.117-1.712-0.222-3.4-0.308-4.995c-0.009-0.213-0.022-0.421-0.032-0.63c-0.335-6.752-1.648-18.844-1.313-30.619      c0,0-0.213-12.412,1.019-17.757C296.965,244.131,298.392,220.767,298.392,220.767z M186.699,265.969      c0.145-10.009,13.473-28.626,13.473-28.626s0.616-0.263,0.625-0.236c0.009,0.009,0.688-0.095,0.688-0.086      c0.014,0,2.069-1.961,2.083-1.961c0.489,1.78,4.905,26.923,5.987,41.56C197.038,274.161,186.627,270.742,186.699,265.969z"/>
			</g>
			<g>
				<path style="fill:#323657;" d="M300.021,316.731c-0.579-4.171-1.127-8.338-1.621-12.418c0-0.023-0.009-0.036-0.009-0.059      c-0.158-1.358-0.321-2.699-0.476-4.035c-0.009-0.064-0.014-0.136-0.022-0.213c-0.643-5.62-1.178-11.009-1.563-15.946      c-0.29-3.78-0.027-7.477,0.493-11.09c1.531-25.239,2.292-51.85,2.292-51.85c0.806-10.892,1.268-21.072,1.576-30.56      c0,0-34.478-16.294-37.603-17.228c0,0,6.539,15.357,11.444,49.681c1.884,13.183,5.376,35.374,7.911,58.022v0.005      c1.373,12.223,3.945,24.672,5.901,35.69c0.299,1.703,0.584,3.37,0.847,4.995h11.539      C300.488,320.064,300.253,318.397,300.021,316.731z"/>
			</g>
			<g>
				<path style="fill:#323657;" d="M242.62,276.189c1.358-12.762,2.581-25.496,1.992-32.475      c-4.755-56.102-18.21-70.952-20.162-73.125c-1.508,0.575-7.25,2.73-8.931,3.396c-9.202,3.628-27.96,10.276-30.487,12.092      c-4.384,3.138-21.665,83.736-22.186,88.949c-0.349,3.523,22.205,10.887,45.215,17.458c-0.213,6.309-1.685,14.954-3.781,24.247      c-0.366,1.648-0.756,3.315-1.164,4.995h34.314c0.195-1.657,0.398-3.319,0.603-4.995c0.611-5.013,1.25-10.149,1.884-15.605      c9.619,2.49,16.159,4.093,16.159,4.093s9.034-15.275,11.656-21.461C268.181,282.702,256.551,279.908,242.62,276.189z       M197.314,256.694c-0.304-11.485,3.577-19.315,3.577-19.315c1.138,3.936,2.709,15.18,4.095,26.357      C200.326,261.391,197.373,259.013,197.314,256.694z"/>
			</g>
			<g>
				<path style="fill:#EEA987;" d="M227.534,170.045c0,0,3.492-6.599,2.527-25.334c-0.267-5.19,27.263,12.309,27.263,12.309      s-0.095,1.789-0.153,4.203c-0.032,1.005-0.05,2.106-0.05,3.238c0,0.312,0.005,0.625,0.005,0.937      c0.004,0.512,0.009,1.019,0.017,1.526c0.014,0.63,0.036,1.246,0.068,1.839c0.031,0.675,0.077,1.313,0.14,1.897      c0.113,1.132,0.779,3.129,1.02,3.677C259.635,177.25,237.842,177.418,227.534,170.045z"/>
			</g>
			<path style="fill:#E8734D;" d="M250.615,181.961l5.073,6.816c0,0-2.972,3.98-8.251,1.042L250.615,181.961z"/>
			<path style="fill:#E8734D;" d="M254.331,189.055c0,0,18.589,45.4,14.623,103.07l-5.862,10.64l-6.611-9.061     c0,0-1.066-76.59-6.343-104.83L254.331,189.055z"/>
			<path style="fill:#EEA987;" d="M256.048,175.606l-5.433,6.355c0,0-8.719-1.689-11.278-6.243     C236.776,171.164,256.048,175.606,256.048,175.606z"/>
			<path style="fill:#C4C1CC;" d="M257.294,170.044c0,0-0.631,4.844-6.679,11.918l6.601,8.869l3.573-18.398L257.294,170.044z"/>
			<path style="fill:#C4C1CC;" d="M229.193,164.216c0,0,12.606,14.26,21.422,17.745l-4.101,10.14l-20.118-22.194L229.193,164.216z"/>
			<g>
				<path style="fill:#323657;" d="M358.791,293.222c0,0-16.733-16.228-27.708-18.928c-5.073-1.249-11.756-8.252-18.106-16.486      c-2.093-2.711-4.146-5.557-6.099-8.374c-0.006-0.006-0.006-0.012-0.006-0.012c-7.791-11.248-13.896-22.031-13.896-22.031      s-23.027-26.987-4.549-39.018c0,0,7.921-0.171,12.265,2.188c4.466,2.425,13.994,22.31,15.609,25.831      c1.615,3.517,19.115,36.223,20.287,36.958c1.173,0.735,3.125,3.424,10.127,7.195c8.573,4.615,22.04,18.125,22.04,18.125      L358.791,293.222z"/>
			</g>
			<path style="fill:#EFAA88;" d="M278.469,312.004c0,0-2.338-0.095-3.34-0.635c0,0-1.748-1.121-3.039-1.844     c-0.41-0.228-0.773-0.418-1.02-0.515c-1.031-0.409-3.419-1-5.621-2.68c-2.2-1.676-9.373-8.387-9.373-8.387l4.636-7.128     l2.141-7.057c0,0,16.724,1.663,18.955,2.988c0.218,0.131,0.428,0.268,0.614,0.412c1.781,1.306,2.557,3.025,3.413,3.816     c0.313,0.292,3.225,3.41,3.063,4.675c-0.224,1.756-1.092,2.883-2.181,3.415c0,0-0.59,3.419-2.356,4.945     c0,0-0.443,3.172-3.182,4.446C281.178,308.458,280.367,311.625,278.469,312.004z"/>
			<path style="fill:#EEA886;" d="M251.838,96.375c0,0,30.229-7.287,23.862,30.985c-6.368,38.272-13.618,41.379-32.032,33.748     c-18.415-7.63-17.135-32.11-18.232-44.088C224.339,105.042,242.169,96.934,251.838,96.375z"/>
			<path style="fill:#EEA886;" d="M235.957,122.88c-0.449-3.361-7.123-4.498-7.585,0.559c-0.462,5.057,3.23,13.865,5.742,12.956     C236.627,135.486,236.576,127.515,235.957,122.88z"/>
			<path style="fill:#16202E;" d="M227.201,136.585c0,0,0.607-12.038,4.993-12.478c4.388-0.44,5.134,4.394,5.134,4.394l4.448,0.772     c0,0-1.556-10.521,2.803-12.426c4.359-1.906,28.503,5.386,31.979,2.241c3.476-3.145,1.505-24.503-4.905-27.336     c-6.41-2.833-24.092-9.131-36.849-0.221c0,0-10.06-0.998-11.431,7.129C222.003,106.786,224.383,130.598,227.201,136.585z"/>
			<path style="fill:#323657;" d="M268.556,283.76l-12.48,21.458c0,0-33.066-8.519-40.78-10.695l17.636-20.991     C232.931,273.531,258.933,279.473,268.556,283.76z"/>
			<path style="fill:#A77860;" d="M257.212,168.764h-0.005c-16.213-1.653-22.499-14.134-22.499-14.134     c10.199,10.108,22.413,9.832,22.413,9.832c0,0.312,0.005,0.625,0.005,0.937c0.004,0.512,0.009,1.019,0.017,1.526     C257.157,167.555,257.18,168.17,257.212,168.764z"/>
		</g>
		<g>
			<g>
				<g>
					<g>
						<path style="fill:#BAE0FF;" d="M528.048,393.17c1.737,0.59,3.599,0.918,5.533,0.943c5.863,0.075,11.107-2.664,14.443-6.966        c2.313-2.982,3.71-6.712,3.76-10.775c0.006-0.403-0.003-0.807-0.023-1.203c-0.097-1.806-0.46-3.539-1.052-5.167        c-2.479-6.822-8.977-11.734-16.665-11.834c-4.143-0.054-7.975,1.299-11.045,3.614c-4.288,3.233-7.087,8.345-7.16,14.128        C515.737,383.9,520.865,390.739,528.048,393.17z M520.336,375.968c0.056-4.305,2.126-8.114,5.302-10.538        c2.314-1.769,5.213-2.803,8.349-2.764c5.764,0.073,10.636,3.757,12.495,8.873l0.003,0.007        c0.441,1.218,0.713,2.515,0.785,3.866c0.016,0.298,0.021,0.6,0.019,0.902c-0.04,3.047-1.088,5.843-2.82,8.077        c-2.501,3.227-6.432,5.281-10.827,5.225c-1.453-0.019-2.847-0.267-4.151-0.708        C524.106,387.089,520.261,381.96,520.336,375.968z"/>
					</g>
				</g>
			</g>
			<g>
				<g>
					<g>
						<path style="fill:#1A598C;" d="M544.468,384.393l3.557,2.755c-3.337,4.301-8.58,7.041-14.443,6.966        c-1.935-0.024-3.795-0.354-5.533-0.943l1.442-4.261c1.305,0.44,2.698,0.688,4.149,0.706        C538.035,389.673,541.966,387.618,544.468,384.393z"/>
					</g>
				</g>
			</g>
			<g>
				<g>
					<g>
						<path style="fill:#2273B5;" d="M547.268,375.411l4.492-0.243c0.021,0.397,0.029,0.8,0.024,1.204        c-0.053,4.063-1.448,7.794-3.761,10.775l-3.557-2.755c1.733-2.234,2.78-5.032,2.819-8.078        C547.291,376.012,547.285,375.71,547.268,375.411z"/>
					</g>
				</g>
			</g>
			<g>
				<g>
					<g>
						<path style="fill:#2273B5;" d="M547.269,375.412c-0.072-1.352-0.344-2.648-0.785-3.866l-0.003-0.007l4.229-1.537        c0.592,1.628,0.955,3.361,1.052,5.167L547.269,375.412z"/>
					</g>
				</g>
			</g>
			<g>
				<g>
					<g>
						<path style="fill:#4DA8F2;" d="M523,361.782c3.07-2.315,6.902-3.668,11.045-3.614c7.689,0.1,14.187,5.012,16.665,11.834        l-4.226,1.544l-0.003-0.007c-1.859-5.116-6.731-8.8-12.495-8.873c-3.136-0.039-6.034,0.995-8.349,2.764L523,361.782z"/>
					</g>
				</g>
			</g>
		</g>
		<path style="fill:#4DA8F2;" d="M478.996,355.199c-0.887-1.177-2.29-1.944-3.877-1.965c-2.192-0.028-4.069,1.379-4.736,3.351l0,0    l0,0c-0.162,0.478-0.253,0.987-0.26,1.518c-0.008,0.619,0.1,1.212,0.301,1.761c0.322,0.878,0.885,1.64,1.611,2.202    c0.722,0.561,1.605,0.924,2.568,1.012c0.128,0.012,0.258,0.02,0.389,0.021c0.082,0.001,0.163-0.002,0.244-0.006    c0.029,0,0.059,0,0.087-0.001c0.495-0.026,0.971-0.126,1.417-0.288c1.873-0.681,3.221-2.465,3.248-4.574    C480.003,357.094,479.632,356.042,478.996,355.199z M476.318,361.643l-0.002,0.001c-0.334,0.121-0.689,0.195-1.061,0.216l0,0    c-0.082,0.004-0.164,0.005-0.248,0.004c-0.351-0.004-0.689-0.06-1.009-0.155c-0.443-0.132-0.852-0.342-1.207-0.618    c-0.131-0.101-0.253-0.211-0.368-0.327c-0.67-0.68-1.079-1.615-1.066-2.645c0.004-0.267,0.038-0.527,0.096-0.779    c0.027-0.121,0.06-0.242,0.099-0.359c0.5-1.478,1.907-2.533,3.552-2.512c1.182,0.015,2.227,0.583,2.892,1.454    c0.485,0.636,0.77,1.431,0.759,2.291C478.733,359.797,477.723,361.134,476.318,361.643z"/>
		<g>
			<g>
				<path style="fill:#78C2FF;" d="M549.438,283.621h-5.773c-1.264,0-2.292-1.027-2.292-2.291v-5.773      c0-1.264,1.028-2.291,2.292-2.291h5.773c1.264,0,2.292,1.027,2.292,2.291v5.773      C551.729,282.594,550.701,283.621,549.438,283.621z M543.665,273.693c-1.027,0-1.863,0.836-1.863,1.863v5.773      c0,1.026,0.836,1.863,1.863,1.863h5.773c1.028,0,1.863-0.837,1.863-1.863v-5.773c0-1.027-0.835-1.863-1.863-1.863H543.665z"/>
			</g>
		</g>
		<g>
			<g>
				<path style="fill:#78C2FF;" d="M549.438,297.367h-5.773c-1.264,0-2.292-1.028-2.292-2.293v-5.772      c0-1.264,1.028-2.292,2.292-2.292h5.773c1.264,0,2.292,1.028,2.292,2.292v5.772      C551.729,296.339,550.701,297.367,549.438,297.367z M543.665,287.439c-1.027,0-1.863,0.836-1.863,1.863v5.772      c0,1.028,0.836,1.864,1.863,1.864h5.773c1.028,0,1.863-0.836,1.863-1.864v-5.772c0-1.027-0.835-1.863-1.863-1.863H543.665z"/>
			</g>
		</g>
		<g>
			<g>
				<path style="fill:#78C2FF;" d="M549.438,310.897h-5.773c-1.147,0-2.077-0.93-2.077-2.077v-5.772c0-1.148,0.93-2.078,2.077-2.078      h5.773c1.147,0,2.078,0.93,2.078,2.078v5.772C551.516,309.968,550.585,310.897,549.438,310.897z"/>
			</g>
		</g>
		<g>
			<g>
				<g>
					<g>
						<path style="fill:#F3F3F3;" d="M546.237,308.121l-2.51-2.189c-0.206-0.18-0.227-0.492-0.048-0.697        c0.18-0.206,0.491-0.228,0.697-0.048l1.775,1.547l2.53-2.822c0.183-0.204,0.495-0.222,0.698-0.039        c0.203,0.183,0.221,0.495,0.038,0.698L546.237,308.121z"/>
					</g>
				</g>
			</g>
		</g>
		<g>
			<g>
				<g>
					<path style="fill:#78C2FF;" d="M551.516,325.132v1.71c0,1.072-0.869,1.94-1.941,1.94H505.93c-1.072,0-1.941-0.868-1.941-1.94       v-1.71c0-1.072,0.869-1.941,1.941-1.941h43.644C550.646,323.19,551.516,324.06,551.516,325.132z"/>
				</g>
			</g>
		</g>
		<g>
			<g>
				<g>
					<path style="fill:#78C2FF;" d="M551.516,335.109v1.709c0,1.072-0.869,1.941-1.941,1.941H505.93       c-1.072,0-1.941-0.869-1.941-1.941v-1.709c0-1.072,0.869-1.941,1.941-1.941h43.644       C550.646,333.168,551.516,334.037,551.516,335.109z"/>
				</g>
			</g>
		</g>
		<g>
			<g>
				<g>
					<path style="fill:#8FBBFF;" d="M549.574,349.279H505.93c-1.22,0-2.213-0.992-2.213-2.212v-1.71c0-1.22,0.993-2.212,2.213-2.212       h43.644c1.22,0,2.212,0.992,2.212,2.212v1.71C551.786,348.287,550.794,349.279,549.574,349.279z M505.93,343.688       c-0.921,0-1.671,0.749-1.671,1.67v1.71c0,0.921,0.75,1.67,1.671,1.67h43.644c0.921,0,1.67-0.749,1.67-1.67v-1.71       c0-0.921-0.749-1.67-1.67-1.67H505.93z"/>
				</g>
			</g>
		</g>
		<path style="fill:#EEA886;" d="M292.018,266.134c18.792,19.345,43.621,43.706,43.621,43.706l9.705-18.424    c0,0-22.053-25.853-37.003-43.104C303.759,250.559,295.347,255.92,292.018,266.134z"/>
		<g>
			<path style="fill:#EEA886;" d="M280.412,292.145c0,0,5.059,2.444,6.379,3.533c1.321,1.09,6.674,5.097,7.972,6.04     c1.297,0.942-1.956,3.623-11.527-0.522C273.665,297.051,280.412,292.145,280.412,292.145z"/>
		</g>
		<polygon style="fill:#FFC955;" points="280.854,236.777 272.036,318.76 388.1,318.76 396.917,236.777   "/>
		
			<rect x="262.8" y="311.385" transform="matrix(-1 -1.224647e-16 1.224647e-16 -1 544.9843 630.1446)" style="fill:#FFC955;" width="19.385" height="7.375"/>
		<g>
			<g>
				<g>
					<polygon style="fill:#D6D6D6;" points="485.671,230.455 501.792,204.53 493.482,208.428      "/>
				</g>
			</g>
			<g>
				<g>
					<polygon style="fill:#E8E8E8;" points="485.671,230.455 486.474,214.946 492.407,211.46      "/>
				</g>
			</g>
			<g>
				<g>
					<polygon style="fill:#C2C2C2;" points="498.085,210.492 500.175,213.173 485.671,230.455      "/>
				</g>
			</g>
		</g>
		
			<linearGradient id="SVGID_00000080926836249502723700000002634854596744881318_" gradientUnits="userSpaceOnUse" x1="82.3652" y1="321.0874" x2="397.8183" y2="321.0874">
			<stop offset="0" style="stop-color:#96CBFF"/>
			<stop offset="1" style="stop-color:#5599FF"/>
		</linearGradient>
		
			<rect x="82.365" y="318.59" style="fill:url(#SVGID_00000080926836249502723700000002634854596744881318_);" width="315.453" height="4.995"/>
		<g>
			<g>
				<g>
					<path style="fill:#BBD070;" d="M412.385,306.835c0,0-27.019,22.11-16.15,41.716c10.869,19.605,17.837,3.669,17.837,3.669       s8.109,3.126-2.479-20.836C406.602,320.089,412.385,306.835,412.385,306.835z"/>
				</g>
			</g>
		</g>
		<g>
			<g>
				<g>
					<path style="fill:#97A43C;" d="M370.791,270.219c0,0-20.962,21.197,2.446,54.482c23.408,33.284,18.173,49.557,18.173,49.557       S431.352,322.435,370.791,270.219z"/>
				</g>
			</g>
		</g>
		<g>
			<g>
				<g>
					<path style="fill:#48753A;" d="M398.718,364.71c11.806,3.323,3.928-31.74-13.251-43.713       c-17.178-11.975-33.182-14.214-42.482-25.202C342.984,295.795,340.587,348.351,398.718,364.71z"/>
				</g>
			</g>
		</g>
		
			<linearGradient id="SVGID_00000008832691766149122150000010114352837434279306_" gradientUnits="userSpaceOnUse" x1="325.1904" y1="423.8979" x2="582.3818" y2="423.8979">
			<stop offset="0" style="stop-color:#96CBFF"/>
			<stop offset="1" style="stop-color:#5599FF"/>
		</linearGradient>
		
			<rect x="325.19" y="421.4" style="fill:url(#SVGID_00000008832691766149122150000010114352837434279306_);" width="257.191" height="4.995"/>
		<path style="fill:#CFA345;" d="M328.032,276.452c-0.934,4.565,1.196,8.854,4.756,9.582c3.559,0.728,7.2-2.384,8.134-6.948    c0.933-4.564-1.196-8.854-4.756-9.582C332.606,268.775,328.965,271.887,328.032,276.452z"/>
		<g>
			<g>
				<g>
					<g>
						<g>
							<path style="fill:#EEA886;" d="M575.781,372.23c0,0-0.191,1.037-0.773,1.19c-0.494,0.13-1.04,0.656-1.208,0.817         c-0.226,0.216-1.163,0.622-0.894,0.908c0.27,0.286,1.578-0.595,1.89-0.725c0.311-0.13-0.135,1.311-0.009,1.639         c0.126,0.328,2.555,0.931,2.746-0.094c0.191-1.024-0.28-2.245-0.211-2.419c0.07-0.173,0.169-0.739,0.169-0.739         L575.781,372.23z"/>
						</g>
					</g>
				</g>
			</g>
			<g>
				<g>
					<g>
						<g>
							<path style="fill:#EEA886;" d="M574.775,375.81c0,0-0.378,3.175-0.226,3.408c0.151,0.233,0.325,0.242,0.372-0.053         c0.048-0.295,0.454-3.057,0.454-3.057s0.185,3.832,0.268,4.051c0.048,0.128,0.382,0.167,0.423,0.012         c0.04-0.156,0.074-3.966,0.074-3.966s0.179,3.579,0.303,3.74c0.107,0.142,0.424,0.102,0.429-0.165         c0.005-0.267,0.027-3.597,0.027-3.597s0.294,2.596,0.478,2.671c0.113,0.046,0.4,0.094,0.304-0.574         c-0.097-0.667-0.159-2.267-0.159-2.267L574.775,375.81z"/>
						</g>
					</g>
				</g>
			</g>
			<g>
				<path style="fill:#EEA886;" d="M541.681,333.276c0,0-0.521-0.974-0.699-1.751c-0.179-0.777-1.148-1.813-1.544-2.057      c-0.395-0.246-3.26-2.299-3.591-2.299c-0.332,0.001-0.14,0.638,0.147,0.823c0.287,0.185,2.613,1.998,2.613,1.998      s-2.894-1.997-3.197-1.943c-0.303,0.055-0.518,0.439-0.193,0.835c0,0-0.66,0.434,0.028,0.962l1.368,1.058      c0,0-0.806-0.418-0.507,0.229c0.159,0.344,1.843,1.348,2.112,1.654c0.27,0.308,2.393,1.342,2.393,1.342L541.681,333.276z"/>
			</g>
			<g>
				<path style="fill:#EEA886;" d="M558.646,422.26h-0.718c0,0,0.239-2.711-0.426-2.737c-0.664-0.026-2.31,2.206-3.295,2.552      c-0.982,0.345-6.031,0.637-6.058-0.293c-0.026-0.93,1.939-1.303,2.551-1.567c0.61-0.267,3.587-3.162,4.118-3.508      c0.532-0.346,1.409-2.1,1.409-2.1h2.71c0,0,0.297,1.472,0.468,2.661c0.063,0.439,0.109,0.84,0.116,1.113      C559.548,419.39,558.646,422.26,558.646,422.26z"/>
			</g>
			<g>
				<path style="fill:#EEA886;" d="M571.822,421.724h-0.598v-2.522c-0.498,0.042-2.173,1.626-2.69,2.085      c-0.519,0.458-1.229,0.438-3.411,0.577c-2.183,0.139-2.389-1.168-2.043-1.613c0.345-0.444,1.462-0.64,2.043-0.916      c0.58-0.278,2.873-2.863,3.484-3.475c0.61-0.611,0.983-2.363,0.983-2.363l2.551,0.223c0,0-0.017,1.602,0.273,2.946v0.001      c0.002,0.003,0.002,0.007,0.003,0.01c0.024,0.114,0.052,0.227,0.082,0.336C572.879,418.409,571.822,421.724,571.822,421.724z"/>
			</g>
			<g>
				<path style="fill:#EEA886;" d="M565.147,337.402c0,0,1.245,2.627,0.58,4.775c0,0,3.831-0.521,3.944-0.971      c0.114-0.447-0.479-4.475-0.037-5.71C570.077,334.262,565.147,337.402,565.147,337.402z"/>
			</g>
			<g>
				<path style="fill:#254380;" d="M565.057,341.307c0,0-2.217,0.952-3.229,1.245c-1.012,0.293-3.091,1.44-2.645,5.159      c0.445,3.719,1.321,6.908,1.671,8.495c0.35,1.587,0.499,5.679,0.264,7.688c0,0,5.549,0.946,11.865-0.859      c0,0-1.382-3.299-1.416-4.176c-0.034-0.877,3.205-8.35,3.298-9.499c0.092-1.15,0.487-6.22-1.313-7.203      c-1.801-0.983-3.19-0.736-3.954-1.179C568.832,340.535,566.095,340.874,565.057,341.307z"/>
			</g>
			<g>
				<path style="fill:#254380;" d="M565.067,347.092c0,0,0.851-4.467-3.479-4.461c-3.807,0.007-7.402-0.715-8.005-1.05      c-0.604-0.334-2.932-1.479-4.154-2.736c-1.223-1.257-7.847-6.295-7.847-6.295l-1.831,1.852c0,0,6.988,7.589,8.114,8.328      c1.127,0.739,10.587,6.022,11.787,6.189S564.223,350.002,565.067,347.092z"/>
			</g>
			<g>
				<path style="fill:#254380;" d="M578.674,360.893c0.13,1.573-0.727,12.434-0.727,12.434l-3.079,0.354      c0,0,0.219-10.727,0.392-13.2c0.051-0.73-0.118-1.847-0.381-3.058v-0.001c-0.167-0.77-0.372-1.576-0.583-2.348      c-0.583-2.128-1.211-3.976-1.211-3.976s-3.448-8.97,0.878-8.607c0,0,1.608,1.657,2.289,4.377      c0.681,2.721,1.459,6.797,1.489,8.421C577.771,356.914,578.579,359.735,578.674,360.893z"/>
			</g>
			<g>
				<path style="fill:#FFCB55;" d="M561.86,363.806c0,0-0.994,2.35-1.081,2.943c-0.088,0.594-3.203,8.35-3.42,10.619      c-0.22,2.295-0.877,8.419-1.111,9.296c-0.233,0.877,0.526,4.793,0.644,5.67c0.116,0.877,0.058,15.199-0.994,22.272      c0,0,2.455,1.053,4.326,0c0,0,3.099-11.048,2.923-17.421c-0.176-6.371-0.983-9.06,0.005-11.633      c0.989-2.572,6.776-10.289,7.361-11.107c0.584-0.818,4.246-5.342,0.778-10.241C567.823,359.305,561.86,363.806,561.86,363.806z"/>
			</g>
			<g>
				<path style="fill:#FFCB55;" d="M573.829,384.734c-0.309,2.047,0.016,4.734,0.658,12.218c0.643,7.483-1.125,16.544-1.125,16.544      c-2.222,0.76-4.779,0-4.779,0c0.059-0.526,0-18.239,0-19.818c0-1.578-0.453-3.369-0.57-5.181      c-0.079-1.235-0.653-3.512-1.3-5.835c-0.194-0.696-0.394-1.396-0.589-2.074c0-0.001,0-0.001,0-0.001      c-0.109-0.38-0.216-0.753-0.32-1.114c-0.91-3.157-2.135-15.347-2.135-15.347s6.784-5.464,10.088-0.32      c3.303,5.143,1.607,8.886,1.49,9.529C575.131,373.978,574.137,382.688,573.829,384.734z"/>
			</g>
			<g>
				<path style="fill:#254380;" d="M560.682,354.61c0,0,0.603,9.687-1.2,15.136c0,0,7.164,1.194,16.305-1.886      c0,0-2.515-6.51-2.428-7.527c0.087-1.018,2.732-12.872,1.462-15.524C573.551,342.156,561.133,345.92,560.682,354.61z"/>
			</g>
			<g>
				<path style="fill:#EEA886;" d="M566.533,326.605c-1.638-0.066-5.819,0.567-5.041,6.871c0.779,6.303,3.055,5.757,5.31,4.92      c2.255-0.838,4.64-5.934,4.545-7.246C571.252,329.839,571.207,326.794,566.533,326.605z"/>
			</g>
			<g>
				<path style="fill:#353A3D;" d="M561.505,330.629c0,0,2.01,2.136,3.891,2.561c0,0,1.601,2.43,4.118,2.896      c0,0,4.904-5.421,0.198-8.89C565.006,323.727,561.335,328.697,561.505,330.629z"/>
			</g>
			<g>
				<path style="fill:#EEA886;" d="M564.986,332.344c0.036-0.35,0.752-1.109,1.4-0.365c0.648,0.744-0.297,2.659-0.705,2.69      C565.273,334.697,564.848,333.673,564.986,332.344z"/>
			</g>
			<g>
				<path style="fill:#DBAF49;" d="M571.016,373.74c-0.053,0.116-3.433,7.62-4.303,8.922c-0.194-0.696-0.394-1.396-0.589-2.074      c0-0.001,0-0.001,0-0.001S570.902,373.905,571.016,373.74z"/>
			</g>
			<g>
				<path style="fill:#16284D;" d="M575.03,349.731c0,0,0.239,4.768-0.151,7.691c-0.167-0.77-0.372-1.576-0.583-2.348      C574.313,354.966,574.968,350.484,575.03,349.731z"/>
			</g>
			<g>
				<path style="fill:#353A3D;" d="M567.795,326.197c0,0,5.7-0.132,4.844,9.662c-0.658,7.527,2.109,11.246,1.72,12.343      c-0.39,1.097-1.727,2.931-4.719,1.276c-2.992-1.653-1.923-9.531-3.53-12.889c-1.607-3.357-4.235-5.66-4.235-5.66      S562.493,325.214,567.795,326.197z"/>
			</g>
			<g>
				<path style="fill:#254380;" d="M560.104,346.028c0,0-1.302,4.648-1.611,5.746c-0.401,1.427,1.465,4.111,3.117,3.286      C563.264,354.236,560.104,346.028,560.104,346.028z"/>
			</g>
			<g>
				<path style="fill:#254380;" d="M571.822,421.724h-0.598v-2.522c-0.498,0.042-2.173,1.626-2.69,2.085      c-0.519,0.458-1.229,0.438-3.411,0.577c-2.183,0.139-2.389-1.168-2.043-1.613c0.345-0.444,1.462-0.64,2.043-0.916      c2.334,0.124,5.184-3.158,6.551-3.151c0.727,0.003,0.72,0.406,0.741,0.482v0.001c0.002,0.003,0.002,0.007,0.003,0.01      c0.024,0.114,0.052,0.227,0.082,0.336C572.879,418.409,571.822,421.724,571.822,421.724z"/>
			</g>
			<g>
				<path style="fill:#254380;" d="M558.646,422.26h-0.718c0,0,0.239-2.711-0.426-2.737c-0.664-0.026-2.31,2.206-3.295,2.552      c-0.982,0.345-6.031,0.637-6.058-0.293c-0.026-0.93,1.939-1.303,2.551-1.567c2.082-0.005,5.469-2.297,6.518-2.762      c1.05-0.464,2.187-0.185,2.187-0.185c0.063,0.439,0.109,0.84,0.116,1.113C559.548,419.39,558.646,422.26,558.646,422.26z"/>
			</g>
		</g>
		<g>
			<g>
				<g>
					<g>
						<g>
							<path style="fill:#0E2D3D;" d="M371.867,85.019c0,0-2.602,1.272-1.958,4.733c0.643,3.461,0.928,3.927,0.208,5.279         c-0.719,1.353-1.568,7.121-0.921,8.214c0.647,1.093,8.014-4.805,9.035-9.753c1.022-4.949-0.647-7.15-1.237-7.97         C376.404,84.702,374.163,83.854,371.867,85.019z"/>
						</g>
					</g>
				</g>
			</g>
		</g>
		<g>
			<g>
				<polygon style="fill:#78C2FF;" points="334.348,59.317 367.147,59.317 367.147,83.091 367.147,88.099 362.14,83.091       334.348,83.091     "/>
			</g>
		</g>
		<g>
			<path style="fill:#163342;" d="M370.751,158.659c0,0-0.263,0.622-0.759,1.27c-0.364,0.475-1.497,2.426-1.995,2.562     c-0.499,0.136-2.041,0.408-2.177,1.27c-0.136,0.861-0.204,1.474,1.314,1.542c1.52,0.068,2.517,0.159,3.242-0.907     c0.726-1.065,1.882-1.836,1.882-1.836v2.78h0.589c0,0,0.272-2.894,0.432-3.098c0.158-0.204,0.566-2.426-0.839-3.582     C371.034,157.503,370.751,158.659,370.751,158.659z"/>
		</g>
		<g>
			<path style="fill:#EEA886;" d="M367.997,162.491c0,0,1.36,0.34,1.881,0c0.521-0.34,2.295-3.336,2.882-3.516     c0,0-0.569-1.154-2.009-0.315C370.751,158.659,368.382,161.992,367.997,162.491z"/>
		</g>
		<g>
			<g>
				<g>
					<g>
						<path style="fill:#EEA886;" d="M354.72,111.206c0,0-0.943,0.181-1.266-0.263c-0.274-0.377-0.901-0.666-1.094-0.756        c-0.258-0.12-0.913-0.782-1.066-0.458c-0.154,0.324,1.026,1.143,1.239,1.365c0.214,0.221-1.157,0.319-1.395,0.535        c-0.236,0.215,0.055,2.477,0.988,2.301c0.933-0.176,1.814-0.98,1.984-0.979c0.17,0.001,0.684-0.102,0.684-0.102        L354.72,111.206z"/>
					</g>
				</g>
			</g>
		</g>
		<g>
			<g>
				<g>
					<g>
						<path style="fill:#EEA886;" d="M351.348,111.537c0,0-2.822,0.729-2.969,0.935c-0.148,0.206-0.1,0.356,0.167,0.299        c0.267-0.057,2.747-0.625,2.747-0.625s-3.194,1.424-3.352,1.566c-0.092,0.083-0.016,0.38,0.13,0.363        c0.146-0.018,3.393-1.248,3.393-1.248s-2.98,1.335-3.076,1.493c-0.085,0.139,0.055,0.394,0.282,0.31        c0.228-0.083,3.064-1.166,3.064-1.166s-2.107,1.108-2.11,1.29c-0.002,0.111,0.053,0.371,0.588,0.068        c0.535-0.303,1.872-0.885,1.872-0.885L351.348,111.537z"/>
					</g>
				</g>
			</g>
		</g>
		<g>
			<path style="fill:#163342;" d="M378.354,160.462c0,0-1.519,2.255-2.131,2.8c0,0-1.36,0.498-1.496,1.451     c-0.136,0.952-0.113,1.587,1.496,1.633c1.609,0.045,2.665-0.244,2.96-1.219c0.295-0.975,0.939-1.638,0.939-1.638v2.04h0.363     c0,0,0.09-1.972,0.113-2.335c0.022-0.363,0.26-1.757-0.505-2.375C379.33,160.201,378.354,160.462,378.354,160.462z"/>
		</g>
		<g>
			<path style="fill:#1D3B54;" d="M379.375,116.923c0,0,1.918,2.494,2.438,5.452c0.521,2.958-0.308,12.888-0.285,14.351     c0.023,1.462,1.384,5.101,1.111,7.855c-0.272,2.754-1.346,16.464-1.346,16.464l-2.939-0.583c0,0,0.171-13.977,0-15.133     c-0.17-1.156-0.511-5.371-0.579-5.847c-0.068-0.476-4.317-12.978-4.317-15.11C373.458,122.239,374.75,113.443,379.375,116.923z"/>
		</g>
		<g>
			<path style="fill:#1D3B54;" d="M369.74,117.897c0,0-3.151,12.027-3.525,13.693c-0.374,1.666-0.916,3.041-0.916,3.748     c0,1.642,0.609,4.277,0.609,4.277l4.002,19.138h3.812c0,0-2.124-11.482-2.181-13.727c-0.058-2.25-1.79-5.445-1.449-6.397     c0.34-0.952,5.475-11.936,5.475-11.936S379.454,114.406,369.74,117.897z"/>
		</g>
		<g>
			<path style="fill:#EEA886;" d="M376.224,163.262c0,0,1.556,0.869,2.558-0.247c0.846-0.943,1.314-2.196,1.314-2.196l-1.74-0.357     L376.224,163.262z"/>
		</g>
		<g>
			<g>
				<path style="fill:#285173;" d="M371.041,97.46c0,0-1.299,0.122-2.28,1.174c-0.981,1.052-1.903,2.729-2.16,3.29      c-0.257,0.561-3.861,5.759-4.048,5.876c-0.188,0.117-1.999,0.722-3.199,1.126c-1.853,0.624-5.565,1.973-5.565,1.973l0.737,2.335      c0,0,6.982-2.285,8.73-2.715c2.139-0.527,7.061-6.842,7.061-6.842S373.986,99.376,371.041,97.46z"/>
			</g>
		</g>
		<g>
			<g>
				<path style="fill:#FFC955;" d="M373.309,96.548c0,0-1.683,0.795-2.268,0.912c-0.584,0.117-2.852,3.062-3.248,4.137      c-0.397,1.075,0,2.688,0.817,4.582c0.818,1.893,0.047,2.524,0.421,4.417c0.374,1.893,0.254,8.976,0.184,10.028      c-0.07,1.052,10.94,2.646,13.114,0.729c0,0-1.472-6.383-3.214-8.205c-0.377-0.394-0.337-3.019-0.08-3.674      c0.257-0.654,3.155-5.539,3.155-5.539s0.213-4.955-1.052-5.937c-1.099-0.854-4.093-1.158-4.63-1.344      C375.971,96.466,374.407,96.385,373.309,96.548z"/>
			</g>
		</g>
		<g>
			<g>
				<path style="fill:#EEA886;" d="M372.505,94.606c0,0,0.051,0.463,0.108,1.089c0.022,0.248,0.047,0.521,0.069,0.801      c0.067,0.84,0.12,1.741,0.088,2.202c0,0,1.75,1.752,3.738-2.045c0,0-0.837-1.566-0.207-3.699      C376.932,90.822,372.505,94.606,372.505,94.606z"/>
			</g>
		</g>
		<g>
			<path style="fill:#183C59;" d="M367.61,106.876c0,0-0.421-2.8,0.026-4.503c0,0,0,1.464,0.803,3.544L367.61,106.876z"/>
		</g>
		<g>
			<path style="fill:#EEA886;" d="M377.852,96.923c0,0-1.203,3.553-4.506,3.291c-3.303-0.261-1.565-3-1.565-3     s0.822-0.472,1.055-0.517c0.232-0.044,3.651-0.088,3.651-0.088L377.852,96.923z"/>
		</g>
		<g>
			<path style="fill:#285173;" d="M371.781,97.214c0,0-1.73,4.785-1.73,9.662c0,4.877-0.139,12.821-0.743,15.33     c-0.604,2.509-2.322,10.267-2.322,10.267l-1.348-0.697c0,0,3.239-12.382,3.484-13.275c0.244-0.893-0.185-10.326-0.418-11.115     c-0.232-0.79-1.221-4.306-1.067-5.281c0.194-1.229,1.345-3.049,3.203-4.613L371.781,97.214z"/>
		</g>
		<g>
			<path style="fill:#285173;" d="M377.199,96.773c0,0-1.075,3.442-1.619,7.852c-0.545,4.409,1.672,24.875,3.158,29.52l5.762-0.929     c0,0-1.24-14.466-2.924-17.099c-1.683-2.633-2.219-4.962-0.402-10.457c1.817-5.495-0.796-8.216-0.796-8.216     S377.705,96.83,377.199,96.773z"/>
		</g>
		<g>
			<polygon style="fill:#616161;" points="370.984,111.373 377.97,123.471 385.734,118.988 379.053,106.714    "/>
		</g>
		<g>
			<polygon style="fill:#E0CEC7;" points="371.826,111.789 378.03,122.533 384.927,118.552 378.992,107.651    "/>
		</g>
		<g>
			<polygon style="fill:#616161;" points="374.115,110.823 373.68,110.069 376.468,108.459 377.012,109.151    "/>
		</g>
		<g>
			<g>
				<g>
					<g>
						<g>
							<g>
								<path style="fill:#EEA886;" d="M374.448,119.407c0,0,0.317,0.002,0.456-0.065c0,0,0.244-0.142,0.424-0.232          c0.058-0.028,0.107-0.052,0.142-0.063c0.143-0.049,0.47-0.115,0.778-0.33c0.309-0.214,1.402-1.48,1.402-1.48l-0.516-0.785          l-0.379-0.805c0,0-2.297,0.148-2.607,0.315c-0.03,0.016-0.06,0.034-0.086,0.052c-0.25,0.166-0.365,0.395-0.486,0.497          c-0.044,0.038-0.458,0.443-0.443,0.616c0.02,0.24,0.13,0.397,0.274,0.476c0,0,0.06,0.467,0.29,0.685          c0,0,0.041,0.433,0.404,0.622C374.102,118.91,374.192,119.344,374.448,119.407z"/>
							</g>
						</g>
					</g>
				</g>
			</g>
		</g>
		<g>
			<g>
				<path style="fill:#285173;" d="M379.182,97.46c0,0,2.121-0.608,3.336,1.729c1.216,2.337,1.21,3.334,1.372,4.476      c0.153,1.078,0.846,4.02,0.916,4.324c0.07,0.304,1.639,3.927,0.919,5.194c-0.723,1.273-8.065,5.02-8.018,5.3      c0.047,0.28-1.272-2.833-1.272-2.833s2.971-1.656,3.457-2.166c0.79-0.828,2.458-1.72,2.115-2.748      c-0.402-1.207-1.611-5.278-1.892-5.874C379.836,104.267,377.393,98.219,379.182,97.46z"/>
			</g>
		</g>
		<g>
			<g>
				<g>
					<g>
						<g>
							<path style="fill:#EEA987;" d="M372.244,85.402c0,0-3.776,1.187-1.726,7.704c2.05,6.517,7.207-0.755,6.668-4.726         C376.646,84.41,372.244,85.402,372.244,85.402z"/>
						</g>
					</g>
				</g>
			</g>
		</g>
		<g>
			<g>
				<g>
					<g>
						<g>
							<path style="fill:#0E2D3D;" d="M370.132,89.205c0,0,1.876,1.841,5.017,2.071c0,0,1.207,1.415,1.3,1.971         c0,0,2.802-4.776-0.643-7.639C372.361,82.746,368.866,88.025,370.132,89.205z"/>
						</g>
					</g>
				</g>
			</g>
		</g>
		<g>
			<g>
				<g>
					<g>
						<g>
							<path style="fill:#EEA987;" d="M375.11,91.406c0.024-0.475,0.316-1.554,1.022-1.251c0.705,0.302-0.043,2.5-0.511,2.365         C375.621,92.52,375.053,92.528,375.11,91.406z"/>
						</g>
					</g>
				</g>
			</g>
		</g>
		<g>
			<path style="fill:#A77860;" d="M372.613,95.696c0.022,0.248,0.047,0.521,0.069,0.801c0,0,1.667-0.099,2.781-2.579     C375.391,94.027,374.17,95.821,372.613,95.696z"/>
		</g>
		<g>
			<path style="fill:#C2C2C2;" d="M504.124,196.909l-0.814-0.4c0.015-0.029,1.431-2.935,2.718-7.596l0.873,0.241     C505.59,193.905,504.183,196.789,504.124,196.909z M508.551,181.111l-0.897-0.122c0.339-2.504,0.51-5.015,0.51-7.462     c0-0.2-0.001-0.401-0.003-0.603l0.905-0.01c0.003,0.205,0.004,0.409,0.004,0.613     C509.069,176.016,508.895,178.567,508.551,181.111z M507.429,164.889c-0.465-2.666-1.159-5.289-2.063-7.795l0.852-0.307     c0.922,2.555,1.629,5.229,2.103,7.946L507.429,164.889z M501.977,149.781c-1.315-2.291-2.859-4.523-4.587-6.634l0.7-0.574     c1.76,2.15,3.332,4.423,4.673,6.757L501.977,149.781z M491.822,137.303c-1.999-1.809-4.081-3.428-6.364-4.948l0.502-0.754     c2.289,1.524,4.466,3.216,6.47,5.031L491.822,137.303z M478.445,128.336c-2.232-1.103-4.662-2.162-7.425-3.235l0.328-0.844     c2.788,1.083,5.241,2.152,7.498,3.267L478.445,128.336z M463.373,122.344c-0.891-0.306-1.785-0.609-2.682-0.913     c-1.67-0.566-3.348-1.135-5.031-1.725l0.299-0.855c1.681,0.588,3.356,1.157,5.023,1.722c0.897,0.304,1.792,0.608,2.684,0.914     L463.373,122.344z M448.008,116.844c-2.699-1.097-5.137-2.201-7.451-3.375l0.41-0.808c2.291,1.163,4.706,2.257,7.383,3.344     L448.008,116.844z M433.459,109.39c-2.287-1.485-4.508-3.115-6.6-4.844l0.577-0.698c2.065,1.707,4.258,3.317,6.516,4.783     L433.459,109.39z M420.855,98.985c-1.846-1.907-3.656-3.979-5.381-6.158l0.711-0.562c1.705,2.155,3.495,4.204,5.32,6.09     L420.855,98.985z M410.689,86.204c-1.451-2.194-2.881-4.54-4.25-6.974l0.789-0.444c1.358,2.415,2.777,4.743,4.216,6.919     L410.689,86.204z M402.588,72.051c-1.334-2.358-2.818-4.638-4.412-6.775l0.725-0.542c1.617,2.168,3.122,4.48,4.475,6.871     L402.588,72.051z M269.881,65.727l-0.743-0.518c1.318-1.895,2.863-3.757,4.591-5.537l0.649,0.631     C272.684,62.048,271.172,63.873,269.881,65.727z M392.934,59.122c-1.865-1.921-3.883-3.748-5.998-5.428l0.565-0.709     c2.145,1.705,4.191,3.558,6.084,5.506L392.934,59.122z M280.433,54.958l-0.55-0.719c2.098-1.603,4.391-3.139,6.814-4.566     l0.46,0.78C284.764,51.862,282.502,53.377,280.433,54.958z M380.301,49.065c-2.268-1.383-4.671-2.663-7.144-3.802l0.379-0.823     c2.505,1.154,4.94,2.45,7.236,3.852L380.301,49.065z M294.343,46.708l-0.379-0.823c2.428-1.117,4.981-2.153,7.59-3.081     l0.304,0.853C299.274,44.576,296.746,45.602,294.343,46.708z M365.631,42.276c-2.515-0.847-5.138-1.588-7.798-2.201l0.204-0.882     c2.688,0.62,5.341,1.369,7.883,2.225L365.631,42.276z M309.607,41.256l-0.232-0.875c2.612-0.695,5.3-1.298,7.987-1.793     l0.164,0.891C314.862,39.969,312.198,40.567,309.607,41.256z M349.858,38.618c-2.641-0.361-5.357-0.616-8.076-0.756l0.047-0.904     c2.743,0.142,5.486,0.398,8.152,0.763L349.858,38.618z M325.565,38.314l-0.096-0.9c2.715-0.288,5.464-0.473,8.171-0.549     l0.026,0.905C330.982,37.846,328.257,38.029,325.565,38.314z"/>
		</g>
		<g>
			<path style="fill:#252E3B;" d="M468.759,274.442c0,0,11.727-34.389-10.651-45.05c-22.377-10.661-41.377,4.75-44.966,13.089     c-3.589,8.339-2.639,23.503,0.422,34.076c3.062,10.573,2.615,26.671-4.034,32.054c-6.65,5.384-14.897,14.324-14.487,32.523     c0.254,11.292,44.43-28.881,44.43-28.881L468.759,274.442z"/>
			<path style="fill:#254380;" d="M437.316,315.352c0,0-18.393,4.076-25.693,8.343c-7.3,4.266-23.513,23.892-23.513,32.329     c0,8.439,70.899,16.323,70.899,16.323l13.44,49.061c0,0,35.836-8.745,40.102-15.998c4.267-7.253-13.611-59.232-16.671-69.753     c-3.12-10.73-15.965-18.214-30.897-20.305C450.051,313.26,437.316,315.352,437.316,315.352z"/>
			<path style="fill:#EEA886;" d="M463.707,315.182c0,0-0.413,22.355-18.143,23.018c-17.729,0.664-14.038-21.44-14.038-21.44     S444.494,311.505,463.707,315.182z"/>
			<path style="fill:#252E3B;" d="M471.208,247.724c0,0,6.272,35.954-11.589,61.927     C441.123,336.549,471.208,247.724,471.208,247.724z"/>
			<path style="fill:#EEA886;" d="M459.902,299.376c0,0-1.232,10.693,0.826,17.343c2.059,6.65-27.109,6.835-27.093,1.366     c0.02-6.212,2.984-11.4,0.19-22.048C431.033,285.39,459.902,299.376,459.902,299.376z"/>
			<path style="fill:#A77860;" d="M437.278,300.739c0,0,9.208,9.595,20.984,1.001c0,0-0.973,6.133-9.442,6.924     C440.352,309.456,437.278,300.739,437.278,300.739z"/>
			<path style="fill:#EEA886;" d="M448.809,235.257c0,0,23.275,6.887,19.949,39.186c-3.325,32.298-18.523,30.636-19.949,30.873     c-1.425,0.237-19.474,1.425-25.173-37.76C417.936,228.37,448.809,235.257,448.809,235.257z"/>
			<path style="fill:#252E3B;" d="M442.803,249.659c0,0,12.646,20.116,25.956,24.783c0,0,7.267-33.755-22.75-40.828     c-30.018-7.072-25.315,34.094-23.075,45.072C422.934,278.686,429.185,262.537,442.803,249.659z"/>
			<path style="fill:#88C0FF;" d="M425.84,246.628c0,0,6.657-12.892,17.898-13.467c11.24-0.575,17.926,9.176,17.926,9.176     s-4.389-10.98-17.912-10.98C430.228,231.357,425.84,246.628,425.84,246.628z"/>
		</g>
		
			<rect x="469.675" y="414.025" transform="matrix(-1 -1.224647e-16 1.224647e-16 -1 958.7343 835.4258)" style="fill:#FFC955;" width="19.385" height="7.375"/>
		<polygon style="fill:#FFC955;" points="471.602,348.022 479.495,421.4 375.613,421.4 367.721,348.022   "/>
		<path style="fill:#CFA345;" d="M430.053,383.525c0.934,4.564-1.196,8.855-4.756,9.582c-3.559,0.728-7.201-2.383-8.134-6.947    c-0.933-4.564,1.196-8.855,4.756-9.583C425.478,375.851,429.12,378.961,430.053,383.525z"/>
	</g>
</g>
</svg>