<svg xmlns="http://www.w3.org/2000/svg" xmlns:xlink="http://www.w3.org/1999/xlink" version="1.1" x="0px" y="0px" viewBox="0 0 500 500" style="enable-background:new 0 0 500 500;" xml:space="preserve">
<g id="Background_Simple">
	<g>
		<path style="fill:#92E3A9;" d="M467.563,119.31c-1.584-2.687-3.246-5.323-4.987-7.903    c-23.183-34.346-63.071-57.838-102.312-68.458c-17.184-4.651-34.93-7.089-52.711-7.692    c-116.614-3.953-163.062,87.955-201.604,111.673S8.111,211.167,12.064,296.157c3.953,84.99,65.225,165.039,183.816,169.98    c118.591,4.941,126.497-48.424,192.71-68.19c43.819-13.08,74.952-57.26,90.197-98.088    C499.563,244.217,498.584,171.943,467.563,119.31z"/>
		<path style="opacity:0.7;fill:#FFFFFF;" d="M467.563,119.31c-1.584-2.687-3.246-5.323-4.987-7.903    c-23.183-34.346-63.071-57.838-102.312-68.458c-17.184-4.651-34.93-7.089-52.711-7.692    c-116.614-3.953-163.062,87.955-201.604,111.673S8.111,211.167,12.064,296.157c3.953,84.99,65.225,165.039,183.816,169.98    c118.591,4.941,126.497-48.424,192.71-68.19c43.819-13.08,74.952-57.26,90.197-98.088    C499.563,244.217,498.584,171.943,467.563,119.31z"/>
	</g>
</g>
<g id="Buiding">
	<g style="opacity:0.3;">
		<polyline style="fill:none;stroke:#000000;stroke-miterlimit:10;" points="31,435 31,175 473,175 473,435   "/>
		<rect x="403.868" y="182" style="fill:none;stroke:#000000;stroke-miterlimit:10;" width="47.132" height="26"/>
		<rect x="333.695" y="182" style="fill:none;stroke:#000000;stroke-miterlimit:10;" width="47.132" height="26"/>
		<rect x="263.521" y="182" style="fill:none;stroke:#000000;stroke-miterlimit:10;" width="47.132" height="26"/>
		<rect x="193.347" y="182" style="fill:none;stroke:#000000;stroke-miterlimit:10;" width="47.132" height="26"/>
		<rect x="123.174" y="182" style="fill:none;stroke:#000000;stroke-miterlimit:10;" width="47.132" height="26"/>
		<rect x="53" y="182" style="fill:none;stroke:#000000;stroke-miterlimit:10;" width="47.132" height="26"/>
	</g>
</g>
<g id="Clouds">
	<g>
		<path style="fill:none;stroke:#263238;stroke-linecap:round;stroke-linejoin:round;stroke-miterlimit:10;" d="M430.26,45.451    c-2.545-2.64-6.963-5.07-14.621-5.257c-17.217-0.42-12.598,11.759-17.217,14.698c-4.619,2.939-5.879-1.68-10.498,1.26    c-4.62,2.939-2.52,8.819-6.299,9.659c-3.779,0.84-8.819-3.779-13.438-0.84c-4.619,2.939-4.619,5.459-6.719,5.459    c-2.099,0-6.299-1.68-8.818,0c-2.52,1.68-5.459,3.779-5.459,3.779h45.089"/>
		<path style="fill:none;stroke:#263238;stroke-linecap:round;stroke-linejoin:round;stroke-miterlimit:10;" d="M435.002,52.969    c-0.411-0.199-0.845-0.398-1.305-0.597c0,0-0.145-2.027-1.547-4.428"/>
		<path style="fill:none;stroke:#263238;stroke-linecap:round;stroke-linejoin:round;stroke-miterlimit:10;" d="M398.055,74.209    h55.379c0,0,1.26-3.779-3.36-6.299c-4.619-2.519-6.719-0.42-8.398-2.519c-1.496-1.87,3.336-6.404-4.485-11.229"/>
	</g>
	<g>
		<path style="fill:none;stroke:#263238;stroke-linecap:round;stroke-linejoin:round;stroke-miterlimit:10;" d="M147.11,105.507    c-2.545-2.641-6.963-5.07-14.621-5.257c-17.217-0.42-12.598,11.759-17.217,14.698c-4.619,2.939-5.879-1.68-10.498,1.26    c-4.619,2.939-2.52,8.819-6.299,9.659c-3.779,0.84-8.819-3.779-13.438-0.84c-4.619,2.939-4.619,5.459-6.719,5.459    c-2.099,0-6.299-1.68-8.818,0c-2.52,1.68-5.459,3.779-5.459,3.779h45.089"/>
		<path style="fill:none;stroke:#263238;stroke-linecap:round;stroke-linejoin:round;stroke-miterlimit:10;" d="M151.852,113.026    c-0.411-0.199-0.845-0.398-1.305-0.598c0,0-0.145-2.027-1.547-4.428"/>
		<path style="fill:none;stroke:#263238;stroke-linecap:round;stroke-linejoin:round;stroke-miterlimit:10;" d="M114.904,134.265    h55.379c0,0,1.26-3.779-3.36-6.299c-4.619-2.519-6.719-0.42-8.398-2.519c-1.496-1.87,3.335-6.404-4.485-11.229"/>
	</g>
	<g>
		<path style="fill:none;stroke:#263238;stroke-linecap:round;stroke-linejoin:round;stroke-miterlimit:10;" d="M90.569,40.26    c-0.988-1.025-2.703-1.968-5.676-2.041c-6.684-0.163-4.89,4.565-6.684,5.706c-1.793,1.141-2.282-0.652-4.075,0.489    c-1.793,1.141-0.978,3.423-2.445,3.749c-1.467,0.326-3.424-1.467-5.217-0.326c-1.793,1.141-1.793,2.119-2.608,2.119    c-0.815,0-2.445-0.652-3.423,0c-0.978,0.652-2.119,1.467-2.119,1.467h17.503"/>
		<path style="fill:none;stroke:#263238;stroke-linecap:round;stroke-linejoin:round;stroke-miterlimit:10;" d="M92.409,43.178    c-0.159-0.077-0.328-0.155-0.507-0.232c0,0-0.056-0.787-0.601-1.719"/>
		<path style="fill:none;stroke:#263238;stroke-linecap:round;stroke-linejoin:round;stroke-miterlimit:10;" d="M78.066,51.423    h21.498c0,0,0.489-1.467-1.304-2.445C96.467,48,95.652,48.815,95,48c-0.581-0.726,1.295-2.486-1.741-4.359"/>
	</g>
	<g>
		<path style="fill:none;stroke:#263238;stroke-linecap:round;stroke-linejoin:round;stroke-miterlimit:10;" d="M440.31,88.619    c-0.988-1.025-2.703-1.968-5.676-2.041c-6.684-0.163-4.891,4.565-6.684,5.706c-1.793,1.141-2.282-0.652-4.075,0.489    c-1.793,1.141-0.978,3.423-2.445,3.749c-1.467,0.326-3.423-1.467-5.217-0.326c-1.793,1.141-1.793,2.119-2.608,2.119    c-0.815,0-2.445-0.652-3.423,0c-0.978,0.652-2.119,1.467-2.119,1.467h17.503"/>
		<path style="fill:none;stroke:#263238;stroke-linecap:round;stroke-linejoin:round;stroke-miterlimit:10;" d="M442.15,91.538    c-0.159-0.077-0.328-0.155-0.507-0.232c0,0-0.056-0.787-0.6-1.719"/>
		<path style="fill:none;stroke:#263238;stroke-linecap:round;stroke-linejoin:round;stroke-miterlimit:10;" d="M427.807,99.783    h21.498c0,0,0.489-1.467-1.304-2.445c-1.793-0.978-2.608-0.163-3.26-0.978C444.16,95.633,446.036,93.873,443,92"/>
	</g>
</g>
<g id="Cargo_1">
	<g>
		<rect x="118.107" y="221.839" style="fill:#C9C9C9;stroke:#263238;stroke-miterlimit:10;" width="103.52" height="110.862"/>
		<g>
			<g>
				<line style="fill:none;stroke:#263238;stroke-miterlimit:10;" x1="125.101" y1="226.088" x2="125.101" y2="327.883"/>
				<line style="fill:none;stroke:#FFFFFF;stroke-miterlimit:10;" x1="122.486" y1="226.088" x2="122.486" y2="327.883"/>
			</g>
			<g>
				<line style="fill:none;stroke:#263238;stroke-miterlimit:10;" x1="134.905" y1="226.088" x2="134.905" y2="327.883"/>
				<line style="fill:none;stroke:#FFFFFF;stroke-miterlimit:10;" x1="132.29" y1="226.088" x2="132.29" y2="327.883"/>
			</g>
			<g>
				<line style="fill:none;stroke:#263238;stroke-miterlimit:10;" x1="144.709" y1="226.088" x2="144.709" y2="327.883"/>
				<line style="fill:none;stroke:#FFFFFF;stroke-miterlimit:10;" x1="142.094" y1="226.088" x2="142.094" y2="327.883"/>
			</g>
			<g>
				<line style="fill:none;stroke:#263238;stroke-miterlimit:10;" x1="154.513" y1="226.088" x2="154.513" y2="327.883"/>
				<line style="fill:none;stroke:#FFFFFF;stroke-miterlimit:10;" x1="151.898" y1="226.088" x2="151.898" y2="327.883"/>
			</g>
			<g>
				<line style="fill:none;stroke:#263238;stroke-miterlimit:10;" x1="164.317" y1="226.088" x2="164.317" y2="327.883"/>
				<line style="fill:none;stroke:#FFFFFF;stroke-miterlimit:10;" x1="161.702" y1="226.088" x2="161.702" y2="327.883"/>
			</g>
			<g>
				<line style="fill:none;stroke:#263238;stroke-miterlimit:10;" x1="174.121" y1="226.088" x2="174.121" y2="327.883"/>
				<line style="fill:none;stroke:#FFFFFF;stroke-miterlimit:10;" x1="171.506" y1="226.088" x2="171.506" y2="327.883"/>
			</g>
			<g>
				<line style="fill:none;stroke:#263238;stroke-miterlimit:10;" x1="183.925" y1="226.088" x2="183.925" y2="327.883"/>
				<line style="fill:none;stroke:#FFFFFF;stroke-miterlimit:10;" x1="181.31" y1="226.088" x2="181.31" y2="327.883"/>
			</g>
		</g>
		<rect x="190.216" y="221.839" style="fill:#858585;stroke:#263238;stroke-miterlimit:10;" width="62.823" height="110.862"/>
	</g>
	<g>
		<rect x="92.993" y="333.01" style="fill:#92E3A9;" width="103.52" height="110.862"/>
		<rect x="165.101" y="333.01" style="fill:#92E3A9;" width="62.823" height="110.862"/>
		<rect x="165.101" y="333.01" style="opacity:0.2;" width="62.823" height="110.862"/>
		<rect x="92.579" y="333.01" style="fill:none;stroke:#263238;stroke-miterlimit:10;" width="135.345" height="110.862"/>
		<rect x="165.101" y="333.01" style="fill:none;stroke:#263238;stroke-miterlimit:10;" width="62.823" height="110.862"/>
		<g>
			<g>
				<line style="fill:none;stroke:#263238;stroke-miterlimit:10;" x1="101.61" y1="337.521" x2="101.61" y2="439.316"/>
				<line style="fill:none;stroke:#FFFFFF;stroke-miterlimit:10;" x1="98.995" y1="337.521" x2="98.995" y2="439.316"/>
			</g>
			<g>
				<line style="fill:none;stroke:#263238;stroke-miterlimit:10;" x1="111.414" y1="337.521" x2="111.414" y2="439.316"/>
				<line style="fill:none;stroke:#FFFFFF;stroke-miterlimit:10;" x1="108.799" y1="337.521" x2="108.799" y2="439.316"/>
			</g>
			<g>
				<line style="fill:none;stroke:#263238;stroke-miterlimit:10;" x1="121.218" y1="337.521" x2="121.218" y2="439.316"/>
				<line style="fill:none;stroke:#FFFFFF;stroke-miterlimit:10;" x1="118.603" y1="337.521" x2="118.603" y2="439.316"/>
			</g>
			<g>
				<line style="fill:none;stroke:#263238;stroke-miterlimit:10;" x1="131.022" y1="337.521" x2="131.022" y2="439.316"/>
				<line style="fill:none;stroke:#FFFFFF;stroke-miterlimit:10;" x1="128.407" y1="337.521" x2="128.407" y2="439.316"/>
			</g>
			<g>
				<line style="fill:none;stroke:#263238;stroke-miterlimit:10;" x1="140.826" y1="337.521" x2="140.826" y2="439.316"/>
				<line style="fill:none;stroke:#FFFFFF;stroke-miterlimit:10;" x1="138.211" y1="337.521" x2="138.211" y2="439.316"/>
			</g>
			<g>
				<line style="fill:none;stroke:#263238;stroke-miterlimit:10;" x1="150.63" y1="337.521" x2="150.63" y2="439.316"/>
				<line style="fill:none;stroke:#FFFFFF;stroke-miterlimit:10;" x1="148.015" y1="337.521" x2="148.015" y2="439.316"/>
			</g>
			<g>
				<line style="fill:none;stroke:#263238;stroke-miterlimit:10;" x1="160.434" y1="337.521" x2="160.434" y2="439.316"/>
				<line style="fill:none;stroke:#FFFFFF;stroke-miterlimit:10;" x1="157.819" y1="337.521" x2="157.819" y2="439.316"/>
			</g>
		</g>
	</g>
	<g>
		<rect x="168.907" y="333.01" style="fill:#C9C9C9;stroke:#263238;stroke-miterlimit:10;" width="103.52" height="110.862"/>
		<rect x="241.016" y="333.01" style="fill:#858585;stroke:#263238;stroke-miterlimit:10;" width="62.822" height="110.862"/>
		<g>
			<g>
				<line style="fill:none;stroke:#263238;stroke-miterlimit:10;" x1="177.096" y1="338.148" x2="177.096" y2="439.943"/>
				<line style="fill:none;stroke:#FFFFFF;stroke-miterlimit:10;" x1="174.482" y1="338.148" x2="174.482" y2="439.943"/>
			</g>
			<g>
				<line style="fill:none;stroke:#263238;stroke-miterlimit:10;" x1="186.9" y1="338.148" x2="186.9" y2="439.943"/>
				<line style="fill:none;stroke:#FFFFFF;stroke-miterlimit:10;" x1="184.286" y1="338.148" x2="184.286" y2="439.943"/>
			</g>
			<g>
				<line style="fill:none;stroke:#263238;stroke-miterlimit:10;" x1="196.704" y1="338.148" x2="196.704" y2="439.943"/>
				<line style="fill:none;stroke:#FFFFFF;stroke-miterlimit:10;" x1="194.09" y1="338.148" x2="194.09" y2="439.943"/>
			</g>
			<g>
				<line style="fill:none;stroke:#263238;stroke-miterlimit:10;" x1="206.508" y1="338.148" x2="206.508" y2="439.943"/>
				<line style="fill:none;stroke:#FFFFFF;stroke-miterlimit:10;" x1="203.894" y1="338.148" x2="203.894" y2="439.943"/>
			</g>
			<g>
				<line style="fill:none;stroke:#263238;stroke-miterlimit:10;" x1="216.312" y1="338.148" x2="216.312" y2="439.943"/>
				<line style="fill:none;stroke:#FFFFFF;stroke-miterlimit:10;" x1="213.698" y1="338.148" x2="213.698" y2="439.943"/>
			</g>
			<g>
				<line style="fill:none;stroke:#263238;stroke-miterlimit:10;" x1="226.116" y1="338.148" x2="226.116" y2="439.943"/>
				<line style="fill:none;stroke:#FFFFFF;stroke-miterlimit:10;" x1="223.502" y1="338.148" x2="223.502" y2="439.943"/>
			</g>
			<g>
				<line style="fill:none;stroke:#263238;stroke-miterlimit:10;" x1="235.92" y1="338.148" x2="235.92" y2="439.943"/>
				<line style="fill:none;stroke:#FFFFFF;stroke-miterlimit:10;" x1="233.306" y1="338.148" x2="233.306" y2="439.943"/>
			</g>
		</g>
	</g>
	<g>
		<rect x="243.724" y="333.01" style="fill:#92E3A9;" width="103.52" height="110.862"/>
		<rect x="315.833" y="333.01" style="fill:#92E3A9;" width="62.823" height="110.862"/>
		<rect x="315.833" y="333.01" style="opacity:0.2;" width="62.823" height="110.862"/>
		<rect x="243.31" y="333.01" style="fill:none;stroke:#263238;stroke-miterlimit:10;" width="135.345" height="110.862"/>
		<rect x="315.833" y="333.01" style="fill:none;stroke:#263238;stroke-miterlimit:10;" width="62.823" height="110.862"/>
		<g>
			<g>
				<line style="fill:none;stroke:#263238;stroke-miterlimit:10;" x1="250.989" y1="337.521" x2="250.989" y2="439.316"/>
				<line style="fill:none;stroke:#FFFFFF;stroke-miterlimit:10;" x1="248.375" y1="337.521" x2="248.375" y2="439.316"/>
			</g>
			<g>
				<line style="fill:none;stroke:#263238;stroke-miterlimit:10;" x1="260.793" y1="337.521" x2="260.793" y2="439.316"/>
				<line style="fill:none;stroke:#FFFFFF;stroke-miterlimit:10;" x1="258.179" y1="337.521" x2="258.179" y2="439.316"/>
			</g>
			<g>
				<line style="fill:none;stroke:#263238;stroke-miterlimit:10;" x1="270.597" y1="337.521" x2="270.597" y2="439.316"/>
				<line style="fill:none;stroke:#FFFFFF;stroke-miterlimit:10;" x1="267.983" y1="337.521" x2="267.983" y2="439.316"/>
			</g>
			<g>
				<line style="fill:none;stroke:#263238;stroke-miterlimit:10;" x1="280.401" y1="337.521" x2="280.401" y2="439.316"/>
				<line style="fill:none;stroke:#FFFFFF;stroke-miterlimit:10;" x1="277.787" y1="337.521" x2="277.787" y2="439.316"/>
			</g>
			<g>
				<line style="fill:none;stroke:#263238;stroke-miterlimit:10;" x1="290.205" y1="337.521" x2="290.205" y2="439.316"/>
				<line style="fill:none;stroke:#FFFFFF;stroke-miterlimit:10;" x1="287.591" y1="337.521" x2="287.591" y2="439.316"/>
			</g>
			<g>
				<line style="fill:none;stroke:#263238;stroke-miterlimit:10;" x1="300.009" y1="337.521" x2="300.009" y2="439.316"/>
				<line style="fill:none;stroke:#FFFFFF;stroke-miterlimit:10;" x1="297.395" y1="337.521" x2="297.395" y2="439.316"/>
			</g>
			<g>
				<line style="fill:none;stroke:#263238;stroke-miterlimit:10;" x1="309.813" y1="337.521" x2="309.813" y2="439.316"/>
				<line style="fill:none;stroke:#FFFFFF;stroke-miterlimit:10;" x1="307.199" y1="337.521" x2="307.199" y2="439.316"/>
			</g>
		</g>
	</g>
	<g>
		<rect x="318.998" y="333.01" style="fill:#C9C9C9;stroke:#263238;stroke-miterlimit:10;" width="103.52" height="110.862"/>
		<g>
			<g>
				<line style="fill:none;stroke:#263238;stroke-miterlimit:10;" x1="326.884" y1="338.123" x2="326.884" y2="439.918"/>
				<line style="fill:none;stroke:#FFFFFF;stroke-miterlimit:10;" x1="324.269" y1="338.123" x2="324.269" y2="439.918"/>
			</g>
			<g>
				<line style="fill:none;stroke:#263238;stroke-miterlimit:10;" x1="336.688" y1="338.123" x2="336.688" y2="439.918"/>
				<line style="fill:none;stroke:#FFFFFF;stroke-miterlimit:10;" x1="334.073" y1="338.123" x2="334.073" y2="439.918"/>
			</g>
			<g>
				<line style="fill:none;stroke:#263238;stroke-miterlimit:10;" x1="346.492" y1="338.123" x2="346.492" y2="439.918"/>
				<line style="fill:none;stroke:#FFFFFF;stroke-miterlimit:10;" x1="343.877" y1="338.123" x2="343.877" y2="439.918"/>
			</g>
			<g>
				<line style="fill:none;stroke:#263238;stroke-miterlimit:10;" x1="356.296" y1="338.123" x2="356.296" y2="439.918"/>
				<line style="fill:none;stroke:#FFFFFF;stroke-miterlimit:10;" x1="353.681" y1="338.123" x2="353.681" y2="439.918"/>
			</g>
			<g>
				<line style="fill:none;stroke:#263238;stroke-miterlimit:10;" x1="366.1" y1="338.123" x2="366.1" y2="439.918"/>
				<line style="fill:none;stroke:#FFFFFF;stroke-miterlimit:10;" x1="363.485" y1="338.123" x2="363.485" y2="439.918"/>
			</g>
			<g>
				<line style="fill:none;stroke:#263238;stroke-miterlimit:10;" x1="375.904" y1="338.123" x2="375.904" y2="439.918"/>
				<line style="fill:none;stroke:#FFFFFF;stroke-miterlimit:10;" x1="373.289" y1="338.123" x2="373.289" y2="439.918"/>
			</g>
			<g>
				<line style="fill:none;stroke:#263238;stroke-miterlimit:10;" x1="385.708" y1="338.123" x2="385.708" y2="439.918"/>
				<line style="fill:none;stroke:#FFFFFF;stroke-miterlimit:10;" x1="383.093" y1="338.123" x2="383.093" y2="439.918"/>
			</g>
		</g>
		<rect x="391.106" y="333.01" style="fill:#858585;stroke:#263238;stroke-miterlimit:10;" width="62.822" height="110.862"/>
	</g>
</g>
<g id="Cargo_2">
	<g>
		<g>
			<rect x="194.519" y="143.383" style="fill:#92E3A9;" width="103.52" height="110.862"/>
			<rect x="266.627" y="143.383" style="fill:#92E3A9;" width="62.822" height="110.862"/>
			<rect x="266.627" y="143.383" style="opacity:0.2;" width="62.822" height="110.862"/>
			<rect x="194.105" y="143.383" style="fill:none;stroke:#263238;stroke-miterlimit:10;" width="135.345" height="110.862"/>
			<rect x="266.627" y="143.383" style="fill:none;stroke:#263238;stroke-miterlimit:10;" width="62.822" height="110.862"/>
			<g>
				<g>
					<line style="fill:none;stroke:#263238;stroke-miterlimit:10;" x1="202.2" y1="147.182" x2="202.2" y2="248.977"/>
					<line style="fill:none;stroke:#FFFFFF;stroke-miterlimit:10;" x1="199.585" y1="147.182" x2="199.585" y2="248.977"/>
				</g>
				<g>
					<line style="fill:none;stroke:#263238;stroke-miterlimit:10;" x1="212.004" y1="147.182" x2="212.004" y2="248.977"/>
					<line style="fill:none;stroke:#FFFFFF;stroke-miterlimit:10;" x1="209.389" y1="147.182" x2="209.389" y2="248.977"/>
				</g>
				<g>
					<line style="fill:none;stroke:#263238;stroke-miterlimit:10;" x1="221.808" y1="147.182" x2="221.808" y2="248.977"/>
					<line style="fill:none;stroke:#FFFFFF;stroke-miterlimit:10;" x1="219.193" y1="147.182" x2="219.193" y2="248.977"/>
				</g>
				<g>
					<line style="fill:none;stroke:#263238;stroke-miterlimit:10;" x1="231.612" y1="147.182" x2="231.612" y2="248.977"/>
					<line style="fill:none;stroke:#FFFFFF;stroke-miterlimit:10;" x1="228.997" y1="147.182" x2="228.997" y2="248.977"/>
				</g>
				<g>
					<line style="fill:none;stroke:#263238;stroke-miterlimit:10;" x1="241.416" y1="147.182" x2="241.416" y2="248.977"/>
					<line style="fill:none;stroke:#FFFFFF;stroke-miterlimit:10;" x1="238.801" y1="147.182" x2="238.801" y2="248.977"/>
				</g>
				<g>
					<line style="fill:none;stroke:#263238;stroke-miterlimit:10;" x1="251.22" y1="147.182" x2="251.22" y2="248.977"/>
					<line style="fill:none;stroke:#FFFFFF;stroke-miterlimit:10;" x1="248.605" y1="147.182" x2="248.605" y2="248.977"/>
				</g>
				<g>
					<line style="fill:none;stroke:#263238;stroke-miterlimit:10;" x1="261.024" y1="147.182" x2="261.024" y2="248.977"/>
					<line style="fill:none;stroke:#FFFFFF;stroke-miterlimit:10;" x1="258.409" y1="147.182" x2="258.409" y2="248.977"/>
				</g>
			</g>
		</g>
		<polyline style="fill:none;stroke:#263238;stroke-miterlimit:10;" points="217.01,143.103 260.347,88.571 302.381,143.63     302.381,252.715   "/>
		<g>
			<path style="fill:none;stroke:#263238;stroke-width:4;stroke-linecap:round;stroke-miterlimit:10;" d="M259.101,70.508     l-0.311,5.294l-3.32,6.249c-1.136,2.138-0.541,4.785,1.4,6.231l0.516,0.384c1.861,1.387,4.44,1.279,6.178-0.259l0,0     c2.038-1.803,2.218-4.921,0.4-6.947l-1.2-1.337"/>
			<g>
				<path style="fill:#FFFFFF;stroke:#263238;stroke-miterlimit:10;" d="M265.592,72.941h-11.059l-3.491-18.621      c-1.059-5.648,3.274-10.869,9.021-10.869l0,0c5.747,0,10.08,5.221,9.021,10.869L265.592,72.941z"/>
				<path style="fill:#FFFFFF;stroke:#263238;stroke-miterlimit:10;" d="M263.176,72.941h-11.059l-3.491-18.621      c-1.059-5.648,3.274-10.869,9.021-10.869l0,0c5.747,0,10.08,5.221,9.021,10.869L263.176,72.941z"/>
				<g>
					<path style="fill:#263238;" d="M249.198,49.062l15.932,13.457l0.594-3.167L250.69,46.653       C250.074,47.371,249.571,48.184,249.198,49.062z"/>
					<path style="fill:#263238;" d="M266.691,54.137c0.22-1.314,0.153-2.601-0.158-3.803l-8.095-6.838       c-0.261-0.022-0.523-0.045-0.791-0.045c-1.059,0-2.07,0.18-3.008,0.505L266.691,54.137z"/>
					<polygon style="fill:#263238;" points="258.844,72.941 250.852,66.191 251.669,70.55 254.5,72.941      "/>
					<polygon style="fill:#263238;" points="249.508,59.024 263.56,70.893 264.154,67.726 248.69,54.665      "/>
				</g>
			</g>
			<line style="fill:none;stroke:#263238;stroke-width:2;stroke-miterlimit:10;" x1="258.437" y1="43.496" x2="258.437" y2="7"/>
			<line style="fill:none;stroke:#263238;stroke-miterlimit:10;" x1="253.328" y1="45.003" x2="253.328" y2="7"/>
			<line style="fill:none;stroke:#263238;stroke-miterlimit:10;" x1="263.303" y1="45.003" x2="263.303" y2="7"/>
		</g>
	</g>
	<g>
		<rect x="276.385" y="221.839" style="fill:#C9C9C9;stroke:#263238;stroke-miterlimit:10;" width="103.52" height="110.862"/>
		<g>
			<g>
				<line style="fill:none;stroke:#263238;stroke-miterlimit:10;" x1="283.515" y1="226.088" x2="283.515" y2="327.883"/>
				<line style="fill:none;stroke:#FFFFFF;stroke-miterlimit:10;" x1="280.901" y1="226.088" x2="280.901" y2="327.883"/>
			</g>
			<g>
				<line style="fill:none;stroke:#263238;stroke-miterlimit:10;" x1="293.319" y1="226.088" x2="293.319" y2="327.883"/>
				<line style="fill:none;stroke:#FFFFFF;stroke-miterlimit:10;" x1="290.705" y1="226.088" x2="290.705" y2="327.883"/>
			</g>
			<g>
				<line style="fill:none;stroke:#263238;stroke-miterlimit:10;" x1="303.123" y1="226.088" x2="303.123" y2="327.883"/>
				<line style="fill:none;stroke:#FFFFFF;stroke-miterlimit:10;" x1="300.509" y1="226.088" x2="300.509" y2="327.883"/>
			</g>
			<g>
				<line style="fill:none;stroke:#263238;stroke-miterlimit:10;" x1="312.927" y1="226.088" x2="312.927" y2="327.883"/>
				<line style="fill:none;stroke:#FFFFFF;stroke-miterlimit:10;" x1="310.313" y1="226.088" x2="310.313" y2="327.883"/>
			</g>
			<g>
				<line style="fill:none;stroke:#263238;stroke-miterlimit:10;" x1="322.731" y1="226.088" x2="322.731" y2="327.883"/>
				<line style="fill:none;stroke:#FFFFFF;stroke-miterlimit:10;" x1="320.117" y1="226.088" x2="320.117" y2="327.883"/>
			</g>
			<g>
				<line style="fill:none;stroke:#263238;stroke-miterlimit:10;" x1="332.535" y1="226.088" x2="332.535" y2="327.883"/>
				<line style="fill:none;stroke:#FFFFFF;stroke-miterlimit:10;" x1="329.921" y1="226.088" x2="329.921" y2="327.883"/>
			</g>
			<g>
				<line style="fill:none;stroke:#263238;stroke-miterlimit:10;" x1="342.339" y1="226.088" x2="342.339" y2="327.883"/>
				<line style="fill:none;stroke:#FFFFFF;stroke-miterlimit:10;" x1="339.725" y1="226.088" x2="339.725" y2="327.883"/>
			</g>
		</g>
		<rect x="348.493" y="221.839" style="fill:#858585;stroke:#263238;stroke-miterlimit:10;" width="62.823" height="110.862"/>
	</g>
</g>
<g id="Truck">
	<g>
		<rect x="339.549" y="397.074" style="fill:#263238;stroke:#263238;stroke-miterlimit:10;" width="139.625" height="28.641"/>
		<g>
			<ellipse style="fill:#263238;stroke:#263238;stroke-miterlimit:10;" cx="458.29" cy="419.779" rx="16.503" ry="23.404"/>
			<path style="fill:#263238;stroke:#263238;stroke-miterlimit:10;" d="M466.781,429.634l-0.04-2.44     c0.549-2.331,0.851-4.822,0.851-7.415c0-2.974-0.395-5.815-1.108-8.431l-0.032-1.985l-4.45-11.372l-3.712-1.616h-7.201     c-9.114,0-16.503,10.478-16.503,23.404s7.389,23.404,16.503,23.404h7.201l3.527-5.628c1.147-1.393,2.158-3.002,3-4.787     L466.781,429.634z"/>
			<ellipse style="fill:#969696;stroke:#263238;stroke-miterlimit:10;" cx="458.29" cy="419.779" rx="6.753" ry="9.577"/>
		</g>
		<g>
			<ellipse style="fill:#263238;stroke:#263238;stroke-miterlimit:10;" cx="421.296" cy="419.779" rx="16.503" ry="23.404"/>
			<path style="fill:#263238;stroke:#263238;stroke-miterlimit:10;" d="M429.787,429.634l-0.04-2.44     c0.549-2.331,0.85-4.822,0.85-7.415c0-2.974-0.395-5.815-1.108-8.431l-0.032-1.985l-4.45-11.372l-3.711-1.616h-7.201     c-9.114,0-16.503,10.478-16.503,23.404s7.389,23.404,16.503,23.404h7.201l3.527-5.628c1.147-1.393,2.159-3.002,3-4.787     L429.787,429.634z"/>
			<ellipse style="fill:#969696;stroke:#263238;stroke-miterlimit:10;" cx="421.296" cy="419.779" rx="6.753" ry="9.577"/>
		</g>
		<rect x="383.108" y="354.709" style="fill:#969696;stroke:#263238;stroke-miterlimit:10;" width="108.001" height="42.365"/>
		<rect x="383.108" y="391.107" style="fill:#969696;stroke:#263238;stroke-miterlimit:10;" width="108.001" height="5.967"/>
		<rect x="485.141" y="350.533" style="fill:#969696;stroke:#263238;stroke-miterlimit:10;" width="5.967" height="46.542"/>
		<rect x="337.163" y="335.615" style="fill:#263238;stroke:#263238;stroke-miterlimit:10;" width="47.138" height="74.586"/>
		<rect x="273.317" y="413.185" style="fill:#263238;stroke:#263238;stroke-miterlimit:10;" width="42.962" height="13.724"/>
		<rect x="233.936" y="392.897" style="fill:#263238;stroke:#263238;stroke-miterlimit:10;" width="105.614" height="25.061"/>
		<g>
			<ellipse style="fill:#263238;stroke:#263238;stroke-miterlimit:10;" cx="335.969" cy="419.779" rx="16.503" ry="23.404"/>
			<path style="fill:#263238;stroke:#263238;stroke-miterlimit:10;" d="M344.46,429.634l-0.04-2.44     c0.549-2.331,0.85-4.822,0.85-7.415c0-2.974-0.395-5.815-1.108-8.431l-0.032-1.985l-4.45-11.372l-3.711-1.616h-7.201     c-9.114,0-16.503,10.478-16.503,23.404s7.389,23.404,16.503,23.404h7.201l3.527-5.628c1.147-1.393,2.158-3.002,3-4.787     L344.46,429.634z"/>
			<ellipse style="fill:#969696;stroke:#263238;stroke-miterlimit:10;" cx="335.969" cy="419.779" rx="6.753" ry="9.577"/>
		</g>
		<g>
			<ellipse style="fill:#263238;stroke:#263238;stroke-miterlimit:10;" cx="272.72" cy="419.779" rx="16.503" ry="23.404"/>
			<path style="fill:#263238;stroke:#263238;stroke-miterlimit:10;" d="M281.211,429.634l-0.04-2.44     c0.549-2.331,0.851-4.822,0.851-7.415c0-2.974-0.395-5.815-1.108-8.431l-0.032-1.985l-4.45-11.372l-3.711-1.616h-7.201     c-9.114,0-16.503,10.478-16.503,23.404s7.389,23.404,16.503,23.404h7.201l3.527-5.628c1.147-1.393,2.158-3.002,3-4.787     L281.211,429.634z"/>
		</g>
		<polygon style="fill:#FFFFFF;stroke:#263238;stroke-miterlimit:10;" points="233.339,397.074 298.378,397.074 298.378,361.87     305.433,323.681 240.394,323.681 233.339,361.313   "/>
		<polygon style="fill:#FFFFFF;stroke:#263238;stroke-miterlimit:10;" points="305.433,323.681 341.581,323.681 341.581,396.894     298.322,396.894 298.378,361.87   "/>
		<polygon style="fill:#C2C2C2;stroke:#263238;stroke-miterlimit:10;" points="309.526,329.648 338.356,329.648 338.356,354.709     322.245,354.709 314.488,361.273 314.488,373.207 303.748,373.207 303.748,357.096   "/>
		<rect x="316.08" y="341.184" style="fill:#263238;stroke:#263238;stroke-miterlimit:10;" width="7.558" height="20.288"/>
		<path style="fill:none;stroke:#263238;stroke-width:4;stroke-linecap:round;stroke-miterlimit:10;" d="M319.66,361.87v3.381    c0,1.208-0.979,2.188-2.188,2.188h-10.939"/>
		<polygon style="fill:#C2C2C2;stroke:#263238;stroke-miterlimit:10;" points="241.62,329.052 236.163,358.886 297.025,358.886     302.482,329.052   "/>
		<line style="fill:none;stroke:#263238;stroke-miterlimit:10;" x1="262.526" y1="353.005" x2="260.538" y2="354.993"/>
		<line style="fill:none;stroke:#263238;stroke-miterlimit:10;" x1="284.566" y1="330.965" x2="264.349" y2="351.182"/>
		<line style="fill:none;stroke:#263238;stroke-miterlimit:10;" x1="263.686" y1="342.896" x2="251.589" y2="354.993"/>
		<polygon style="fill:#969696;stroke:#263238;stroke-miterlimit:10;" points="303.02,329.816 239.877,329.816 241.12,324.335     304.263,324.335   "/>
		<polygon style="fill:#969696;stroke:#263238;stroke-miterlimit:10;" points="300.875,329.816 237.733,329.816 238.976,324.335     302.118,324.335   "/>
		<rect x="229.759" y="400.058" style="fill:#969696;stroke:#263238;stroke-miterlimit:10;" width="72.796" height="19.691"/>
		<rect x="297.184" y="411.991" style="fill:#969696;stroke:#263238;stroke-miterlimit:10;" width="25.658" height="7.757"/>
		<g>
			<path style="fill:#969696;stroke:#263238;stroke-miterlimit:10;" d="M319.859,419.6h-5.967v-14.471     c0-8.061,6.558-14.619,14.619-14.619h15.812v5.967h-15.812c-4.771,0-8.652,3.881-8.652,8.652V419.6z"/>
		</g>
		<g>
			<path style="fill:#969696;stroke:#263238;stroke-miterlimit:10;" d="M321.774,419.6h-5.967v-14.471     c0-8.061,6.558-14.619,14.619-14.619h15.812v5.967h-15.812c-4.771,0-8.652,3.881-8.652,8.652V419.6z"/>
		</g>
		<rect x="235.614" y="382.572" style="fill:#263238;stroke:#263238;stroke-miterlimit:10;" width="58.211" height="2.4"/>
		<rect x="235.614" y="390.373" style="fill:#263238;stroke:#263238;stroke-miterlimit:10;" width="58.211" height="2.4"/>
		<rect x="245.216" y="361.568" style="fill:#263238;stroke:#263238;stroke-miterlimit:10;" width="6.601" height="2.401"/>
		<rect x="272.521" y="361.568" style="fill:#263238;stroke:#263238;stroke-miterlimit:10;" width="6.601" height="2.401"/>
		<polyline style="fill:none;stroke:#263238;stroke-miterlimit:10;" points="386.688,358.886 390.268,358.886 390.268,386.334   "/>
		<polyline style="fill:none;stroke:#263238;stroke-miterlimit:10;" points="395.042,358.886 398.622,358.886 398.622,386.334   "/>
		<polyline style="fill:none;stroke:#263238;stroke-miterlimit:10;" points="403.395,358.886 406.975,358.886 406.975,386.334   "/>
		<polyline style="fill:none;stroke:#263238;stroke-miterlimit:10;" points="411.749,358.886 415.329,358.886 415.329,386.334   "/>
		<polyline style="fill:none;stroke:#263238;stroke-miterlimit:10;" points="420.102,358.886 423.682,358.886 423.682,386.334   "/>
		<polyline style="fill:none;stroke:#263238;stroke-miterlimit:10;" points="428.456,358.886 432.036,358.886 432.036,386.334   "/>
		<polyline style="fill:none;stroke:#263238;stroke-miterlimit:10;" points="436.81,358.886 440.39,358.886 440.39,386.334   "/>
		<polyline style="fill:none;stroke:#263238;stroke-miterlimit:10;" points="445.163,358.886 448.743,358.886 448.743,386.334   "/>
		<polyline style="fill:none;stroke:#263238;stroke-miterlimit:10;" points="453.517,358.886 457.097,358.886 457.097,386.334   "/>
		<polyline style="fill:none;stroke:#263238;stroke-miterlimit:10;" points="461.871,358.886 465.451,358.886 465.451,386.334   "/>
		<polyline style="fill:none;stroke:#263238;stroke-miterlimit:10;" points="470.224,358.886 473.804,358.886 473.804,386.334   "/>
		<polyline style="fill:none;stroke:#263238;stroke-miterlimit:10;" points="478.578,358.886 482.158,358.886 482.158,386.334   "/>
	</g>
</g>
<g id="Floor">
	<line style="fill:none;stroke:#263238;stroke-miterlimit:10;" x1="17.748" y1="443.873" x2="489" y2="443.873"/>
</g>
<g id="Character">
	<g>
		<path style="fill:#FFFFFF;stroke:#263238;stroke-miterlimit:10;" d="M111.14,197.154c0,0-4.574,2.167-4.815,4.333    c-0.241,2.167-0.722,9.87,1.685,12.037c2.407,2.167,6.5,3.852,9.148,4.815c2.648,0.963,7.463-0.963,7.463-0.963l-6.018-14.203    c0,0-3.13-4.333-4.333-5.296C113.066,196.913,111.14,197.154,111.14,197.154z"/>
		<g>
			<polygon style="fill:#263238;stroke:#263238;stroke-miterlimit:10;" points="110.177,181.747 108.733,200.042 112.344,198.839      111.621,181.747    "/>
			<path style="fill:#263238;stroke:#263238;stroke-miterlimit:10;" d="M111.14,197.154c0,0-4.092,0.241-5.537,2.889     c-1.444,2.648,0,12.037,0.481,13c0.481,0.963,7.703,0.722,8.666-2.407c0.963-3.13-0.481-12.759-0.481-12.759     S111.862,196.913,111.14,197.154z"/>
		</g>
		<path style="fill:#FFFFFF;stroke:#263238;stroke-miterlimit:10;" d="M124.38,215.208c0,0-3.13-6.5-4.092-10.352    s-1.444-6.259-4.092-7.463c-2.648-1.204-3.37-4.815-4.574-5.055c-1.204-0.241-3.13,3.852-2.648,5.055    c0.481,1.204,3.37,2.407,3.37,2.407s-1.204,4.574-0.481,8.185c0.722,3.611,2.889,4.574,2.889,4.574"/>
		<path style="fill:#92E3A9;stroke:#263238;stroke-miterlimit:10;" d="M111.086,255.276c0,0,5.73,42.686,3.438,49.275    c-2.292,6.589-6.876,8.022-8.881,7.735c-2.005-0.286-6.016-61.594-6.016-61.594L111.086,255.276z"/>
		<path style="fill:#FFFFFF;stroke:#263238;stroke-miterlimit:10;" d="M118.121,232.782l-3.13-11.555c0,0,0-4.574,4.333-5.778    c4.333-1.204,7.463-0.241,7.463-0.241s19.981,32.018,21.666,33.703c1.685,1.685,0,12.277-2.167,15.648s-6.741-2.889-12.037-11.074    S118.121,232.782,118.121,232.782z"/>
		<path style="fill:#FFFFFF;stroke:#263238;stroke-miterlimit:10;" d="M62.03,200.524l-1.444,10.833l27.203,1.444v-8.907    l-3.852-18.296c0,0-14.925,14.685-18.055,14.685C62.753,200.283,62.03,200.524,62.03,200.524z"/>
		<g>
			<path style="fill:#FFFFFF;stroke:#263238;stroke-miterlimit:10;" d="M88.993,172.599c0,0,2.167,2.889,2.167,4.092     c0,1.204-1.204,1.204,0.241,2.167c1.444,0.963,5.537,1.926,5.055,3.37c-0.481,1.444-3.37,6.5-3.37,6.5l2.648,6.74     c0,0,1.444,5.778,0.241,6.5c-1.204,0.722-5.055,1.444-6.018,0.722c-0.963-0.722-4.333-11.555-4.815-15.166     c-0.481-3.611-1.926-9.87-1.926-9.87L88.993,172.599z"/>
			<path style="fill:#263238;stroke:#263238;stroke-miterlimit:10;" d="M51.197,188.487c0,0,5.537,12.037,6.741,13.481     c1.204,1.444,2.648,3.37,9.389,3.37c6.741,0,11.796-4.092,12.518-6.5c0.722-2.407,0.963-6.259,1.444-8.426     c0.481-2.167,2.167,0.482,2.167,0.482s2.167,13.962,3.611,15.648c1.444,1.685,11.314,0.482,12.037-2.889     c0.722-3.37-3.852-9.148-3.852-9.148l-0.963-0.963c0,0,0.722,5.296-1.685,4.333c-2.407-0.963-6.5-13.481-6.741-14.203     s0-3.37,0.481-4.333c0.481-0.963,2.648-3.611,3.13-4.815c0.481-1.204,0.481-2.167,0.481-2.167l-37.795,13.24L51.197,188.487z"/>
			<path style="fill:#FFFFFF;stroke:#263238;stroke-miterlimit:10;" d="M77.678,178.376c0,0-8.185,13.962-13.481,16.851     c-5.296,2.889-10.833-1.685-10.833-1.685s-0.722,3.37,1.444,6.018c2.167,2.648,9.629,3.611,17.092-1.444     c7.463-5.055,7.463-12.277,8.185-14.444c0.722-2.167,1.685-6.981,1.685-6.981L77.678,178.376z"/>
			<path style="fill:#FFFFFF;stroke:#263238;stroke-miterlimit:10;" d="M54.086,157.914c0,0-6.981,4.092-7.463,12.277     c-0.481,8.185,3.611,14.685,3.611,16.37c0,1.685-0.963,3.37-0.963,3.37s44.536-17.333,45.739-17.574     c1.204-0.241-0.722-1.685-0.722-1.685l-5.778-0.722c0,0-4.092-10.833-8.666-13.962c-4.574-3.13-10.833-3.852-17.333-1.926     C56.012,155.988,54.086,157.914,54.086,157.914z"/>
			<path style="fill:#FFFFFF;stroke:#263238;stroke-miterlimit:10;" d="M84.178,193.061c0,0-0.481-5.537-2.648-6.5     c-2.167-0.963-3.13,2.889-2.167,6.5c0.963,3.611,5.296,3.37,5.296,3.37L84.178,193.061z"/>
		</g>
		<path style="fill:#FFFFFF;stroke:#263238;stroke-miterlimit:10;" d="M53.364,214.727c0,0,3.13-4.574,6.981-6.741    c3.852-2.167,13.481-3.13,20.703-0.963c7.222,2.167,9.629,4.333,9.87,5.055c0.241,0.722,0.481,1.685,0.481,1.685    s-20.703-0.963-27.925,0.482c-7.222,1.444-10.351,2.167-10.351,2.167L53.364,214.727z"/>
		<path style="fill:#FFFFFF;stroke:#263238;stroke-miterlimit:10;" d="M31.698,228.69c0,0-4.093,23.832-8.185,39.962    c-4.092,16.129-2.889,21.425,2.889,21.425s17.092-1.444,17.092-1.444l-9.148-60.665L31.698,228.69z"/>
		<line style="fill:#FFFFFF;stroke:#263238;stroke-miterlimit:10;" x1="39.642" y1="272.984" x2="33.143" y2="280.929"/>
		<g>
			<path style="fill:#FFFFFF;stroke:#263238;stroke-miterlimit:10;" d="M112.758,454.474c0,0,5.65,5.318,9.972,6.315     c4.321,0.997,6.315,2.991,6.315,3.989c-0.001,4.583-29.38,6.518-32.574,3.324c-1.994-1.994-0.665-12.631-0.665-12.631     L112.758,454.474z"/>
			<path style="fill:#FFFFFF;stroke:#263238;stroke-miterlimit:10;" d="M95.527,465.301c0.156,1.271,0.447,2.304,0.943,2.801     c3.195,3.195,32.574,1.26,32.574-3.324c0-0.555-0.642-1.417-1.933-2.245c-2.871,1.132-7.54,2.524-14.354,3.242     C104.187,466.678,98.381,465.897,95.527,465.301z"/>
		</g>
		<g>
			<path style="fill:#FFFFFF;stroke:#263238;stroke-miterlimit:10;" d="M75.863,454.142c0,0,0.665,4.321,3.656,5.318     c2.992,0.997,4.986,1.662,4.986,4.321c0,2.659-4.654,4.321-8.975,4.654c-4.321,0.332-15.29,0.665-16.952,0.332     c-1.662-0.332-0.997-13.628-0.997-13.628S71.874,456.801,75.863,454.142z"/>
			<path style="fill:#FFFFFF;stroke:#263238;stroke-miterlimit:10;" d="M57.526,464.166c0.122,2.45,0.417,4.474,1.053,4.601     c1.662,0.332,12.631,0,16.952-0.332c4.321-0.332,8.974-1.994,8.974-4.654c0-0.89-0.241-1.544-0.651-2.075     c-2.487,0.822-7.566,2.272-13.642,2.74C65.76,464.789,61.053,464.513,57.526,464.166z"/>
		</g>
		<path style="fill:#263238;stroke:#263238;stroke-miterlimit:10;" d="M106.775,285.954c0,0,2.992,26.923,3.989,36.895    c0.997,9.972,5.442,46.713,4.777,57.349c-0.665,10.636-1.329,20.276-1.329,20.276s-2.118,36.384-2.783,41.702    c-0.665,5.318-0.997,7.645-0.997,7.645l2.991,2.327l0.665,3.324c0,0-10.636,2.659-12.298,2.659c-1.662,0-6.315-0.665-6.315-0.665    s-2.659-36.562-2.659-38.224c0-1.662-2.327-31.577-2.327-33.571c0-1.994-1.662-10.636-1.662-10.636l-9.639-38.557    c0,0-4.321,64.483-4.321,68.139c0,3.656-0.997,44.208-0.997,44.208l1.994,3.656l0.332,2.659c0,0-7.977,3.324-11.634,3.324    c-3.656,0-8.31-1.994-8.31-1.994s-3.324-25.262-3.324-28.585c0-3.324,0-41.881,0-47.531c0-5.651,0.332-27.256,0.332-27.256    l-5.318-31.577l-0.665-11.634c0,0,24.597-2.327,30.247-6.315c5.651-3.989,8.975-13.628,11.634-15.955    C91.817,285.289,106.775,285.954,106.775,285.954z"/>
		<g>
			<path style="fill:#FFFFFF;stroke:#263238;stroke-miterlimit:10;" d="M98.622,213.764c0,0,6.981,3.37,10.111,7.704     c3.13,4.333,35.147,29.129,37.314,33.943c2.167,4.815,1.685,10.352-0.722,13.481c-2.407,3.13-14.685,0.241-18.296-1.204     c-3.611-1.444-20.462-12.037-20.462-12.037s3.777,37.216,3.777,40.345c0,3.13-13.527,3.788-13.527,3.788     s-1.324-24.152-0.842-33.782C96.455,256.374,98.622,213.764,98.622,213.764z"/>
			<polygon style="fill:#263238;stroke:#263238;stroke-miterlimit:10;" points="106.566,255.652 101.933,252.624 107.243,265.632         "/>
		</g>
		<g>
			<path style="fill:#92E3A9;stroke:#263238;stroke-miterlimit:10;" d="M53.123,216.412c0,0-22.147,9.87-22.147,11.796     s12.037,81.849,16.37,85.46s10.592,8.185,25.518,6.259s25.277-6.741,28.406-17.092c3.13-10.352-0.722-53.202,0.241-66.442     c0.963-13.24,0.241-22.147,0.241-22.147L91.4,213.764C91.4,213.764,68.53,211.357,53.123,216.412z"/>
			<polygon style="fill:#FFFFFF;" points="42.772,246.263 43.253,253.244 92.363,249.874 91.881,243.134    "/>
			<polygon style="fill:#FFFFFF;" points="46.624,275.151 48.068,283.095 92.604,279.484 92.122,271.299    "/>
		</g>
	</g>
</g>
</svg>